<svg width="97" height="96" viewBox="0 0 97 96" fill="none" xmlns="http://www.w3.org/2000/svg">
<circle cx="48.5" cy="48" r="46.5" stroke="#0066CC" stroke-width="3"/>
<mask id="mask0_984_10242" style="mask-type:alpha" maskUnits="userSpaceOnUse" x="16" y="16" width="65" height="64">
<rect x="16.5" y="16" width="64" height="64" fill="#D9D9D9"/>
</mask>
<g mask="url(#mask0_984_10242)">
<path d="M63.8328 41.0002L55.4328 32.6668L59.0328 29.1335C59.8773 28.2891 60.8995 27.8668 62.0995 27.8668C63.2995 27.8668 64.2995 28.2891 65.0995 29.1335L67.3662 31.4002C68.2106 32.2446 68.6328 33.2668 68.6328 34.4668C68.6328 35.6668 68.2106 36.6668 67.3662 37.4668L63.8328 41.0002ZM26.8328 69.6668V61.2002L38.8995 49.1335L24.8328 35.0002L34.4995 25.3335L48.6328 39.5335L55.4328 32.6668L63.8328 41.0002L57.0328 47.8668L71.0995 62.0668L61.4995 71.6668L47.2995 57.5335L35.2328 69.6668H26.8328ZM40.8328 47.2668L46.7662 41.3335L41.6328 36.2668L38.4995 39.4002L36.6328 37.4668L39.7662 34.3335L34.4328 29.0668L28.4995 35.0002L40.8328 47.2668ZM61.4328 67.9335L67.3662 62.0002L62.0995 56.6668L58.9662 59.8002L57.0328 57.9335L60.2328 54.8002L55.0995 49.6668L49.1662 55.6668L61.4328 67.9335ZM29.4995 67.0002H34.0995L60.0328 41.0002L55.4328 36.4002L29.4995 62.4002V67.0002Z" fill="#0066CC"/>
</g>
</svg>
