<svg width="64" height="64" viewBox="0 0 64 64" fill="none" xmlns="http://www.w3.org/2000/svg">
<path d="M30.8626 16.3962C31.1233 15.8679 31.8767 15.8679 32.1374 16.3962L34.6769 21.5419C34.7804 21.7516 34.9806 21.8971 35.2121 21.9307L40.8907 22.7558C41.4736 22.8406 41.7064 23.557 41.2846 23.9682L37.1755 27.9735C37.008 28.1368 36.9316 28.3721 36.9711 28.6027L37.9411 34.2583C38.0407 34.8389 37.4313 35.2817 36.9098 35.0076L31.8308 32.3374C31.6237 32.2285 31.3763 32.2285 31.1692 32.3374L26.0902 35.0076C25.5687 35.2817 24.9593 34.8389 25.0589 34.2583L26.0289 28.6027C26.0684 28.3721 25.992 28.1368 25.8245 27.9735L21.7154 23.9682C21.2936 23.557 21.5264 22.8405 22.1093 22.7558L27.7879 21.9307C28.0194 21.8971 28.2196 21.7516 28.3231 21.5419L30.8626 16.3962Z" fill="#0066CC"/>
<path d="M11.5 11.75C11.5 8.02208 14.5411 5 18.2925 5H45.4623C49.2136 5 52.2547 8.02208 52.2547 11.75V57.3125C52.2547 57.9348 51.91 58.5067 51.3579 58.8003C50.8057 59.094 50.1357 59.0618 49.6147 58.7166L31.8774 49.2156L14.1401 58.7166C13.619 59.0618 12.949 59.094 12.3968 58.8003C11.8447 58.5067 11.5 57.9348 11.5 57.3125V11.75ZM18.2925 8.375C16.4168 8.375 14.8962 9.88604 14.8962 11.75V54.1594L30.9354 45.7834C31.5058 45.4055 32.2489 45.4055 32.8193 45.7834L48.8585 54.1594V11.75C48.8585 9.88604 47.3379 8.375 45.4623 8.375H18.2925Z" fill="#0066CC"/>
</svg>
