<?xml version="1.0" encoding="UTF-8" standalone="no" ?>
<!DOCTYPE svg PUBLIC "-//W3C//DTD SVG 1.1//EN" "http://www.w3.org/Graphics/SVG/1.1/DTD/svg11.dtd">
<svg xmlns="http://www.w3.org/2000/svg" xmlns:xlink="http://www.w3.org/1999/xlink" version="1.1" width="64" height="64" viewBox="0 0 64 64" xml:space="preserve">
<desc>Created with Fabric.js 5.2.4</desc>
<defs>
</defs>
<rect x="0" y="0" width="100%" height="100%" fill="transparent"></rect>
<g transform="matrix(1 0 0 1 32 32)" id="8e2d95ea-23e4-4d84-a1c5-1f2e36bd17cb"  >
<rect style="stroke: none; stroke-width: 1; stroke-dasharray: none; stroke-linecap: butt; stroke-dashoffset: 0; stroke-linejoin: miter; stroke-miterlimit: 4; fill: rgb(255,255,255); fill-rule: nonzero; opacity: 1; visibility: hidden;" vector-effect="non-scaling-stroke"  x="-32" y="-32" rx="0" ry="0" width="64" height="64" />
</g>
<g transform="matrix(0 0 0 0 0 0)" id="36488300-7c45-411d-a5ee-b7d625658c32"  >
</g>
<g transform="matrix(0.06 0 0 0.06 64.01 64.01)"  >
<path style="stroke: rgb(0,0,0); stroke-width: 0; stroke-dasharray: none; stroke-linecap: butt; stroke-dashoffset: 0; stroke-linejoin: miter; stroke-miterlimit: 4; fill: rgb(0,102,204); fill-rule: nonzero; opacity: 1;" vector-effect="non-scaling-stroke"  transform=" translate(-14, -17)" d="M 20.167 0.333496 L 6.50033 0.333496 C 5.11961 0.333496 4.00033 1.45278 4.00033 2.8335 L 4.00033 3.66683 L 3.16699 3.66683 C 1.78628 3.66683 0.666992 4.78612 0.666992 6.16683 L 0.666992 31.1668 C 0.666992 32.5475 1.78628 33.6668 3.16699 33.6668 L 21.5003 33.6668 C 22.881 33.6668 24.0003 32.5475 24.0003 31.1668 L 24.0003 30.3335 L 24.8337 30.3335 C 26.2144 30.3335 27.3337 29.2142 27.3337 27.8335 L 27.3337 7.50016 L 20.167 0.333496 Z M 20.667 3.16683 L 24.5003 7.00016 L 21.5003 7.00016 C 21.0401 7.00016 20.667 6.62707 20.667 6.16683 L 20.667 3.16683 Z M 21.5003 32.0002 C 21.9606 32.0002 22.3337 31.6271 22.3337 31.1668 L 22.3337 30.3335 L 6.50033 30.3335 C 5.11961 30.3335 4.00033 29.2142 4.00033 27.8335 L 4.00033 5.3335 L 3.16699 5.3335 C 2.70675 5.3335 2.33366 5.70659 2.33366 6.16683 L 2.33366 31.1668 C 2.33366 31.6271 2.70675 32.0002 3.16699 32.0002 L 21.5003 32.0002 Z M 24.8337 28.6668 L 6.50033 28.6668 C 6.04009 28.6668 5.66699 28.2937 5.66699 27.8335 L 5.66699 2.8335 C 5.66699 2.37326 6.04009 2.00016 6.50033 2.00016 L 19.0003 2.00016 L 19.0003 6.16683 C 19.0003 7.54754 20.1196 8.66683 21.5003 8.66683 L 25.667 8.66683 L 25.667 27.8335 C 25.667 28.2937 25.2939 28.6668 24.8337 28.6668 Z M 22.3337 12.0002 L 9.00033 12.0002 L 9.00033 13.6668 L 22.3337 13.6668 L 22.3337 12.0002 Z M 9.00033 15.3335 L 22.3337 15.3335 L 22.3337 17.0002 L 9.00033 17.0002 L 9.00033 15.3335 Z M 15.667 18.6668 L 9.00033 18.6668 L 9.00033 20.3335 L 15.667 20.3335 L 15.667 18.6668 Z" stroke-linecap="round" />
</g>
<g transform="matrix(1.67 0 0 1.67 32 32)"  >
<path style="stroke: none; stroke-width: 1; stroke-dasharray: none; stroke-linecap: butt; stroke-dashoffset: 0; stroke-linejoin: miter; stroke-miterlimit: 4; fill: rgb(0,102,204); fill-rule: evenodd; opacity: 1;"  transform=" translate(-14, -17)" d="M 20.167 0.333496 L 6.50033 0.333496 C 5.11961 0.333496 4.00033 1.45278 4.00033 2.8335 L 4.00033 3.66683 L 3.16699 3.66683 C 1.78628 3.66683 0.666992 4.78612 0.666992 6.16683 L 0.666992 31.1668 C 0.666992 32.5475 1.78628 33.6668 3.16699 33.6668 L 21.5003 33.6668 C 22.881 33.6668 24.0003 32.5475 24.0003 31.1668 L 24.0003 30.3335 L 24.8337 30.3335 C 26.2144 30.3335 27.3337 29.2142 27.3337 27.8335 L 27.3337 7.50016 L 20.167 0.333496 Z M 20.667 3.16683 L 24.5003 7.00016 L 21.5003 7.00016 C 21.0401 7.00016 20.667 6.62707 20.667 6.16683 L 20.667 3.16683 Z M 21.5003 32.0002 C 21.9606 32.0002 22.3337 31.6271 22.3337 31.1668 L 22.3337 30.3335 L 6.50033 30.3335 C 5.11961 30.3335 4.00033 29.2142 4.00033 27.8335 L 4.00033 5.3335 L 3.16699 5.3335 C 2.70675 5.3335 2.33366 5.70659 2.33366 6.16683 L 2.33366 31.1668 C 2.33366 31.6271 2.70675 32.0002 3.16699 32.0002 L 21.5003 32.0002 Z M 24.8337 28.6668 L 6.50033 28.6668 C 6.04009 28.6668 5.66699 28.2937 5.66699 27.8335 L 5.66699 2.8335 C 5.66699 2.37326 6.04009 2.00016 6.50033 2.00016 L 19.0003 2.00016 L 19.0003 6.16683 C 19.0003 7.54754 20.1196 8.66683 21.5003 8.66683 L 25.667 8.66683 L 25.667 27.8335 C 25.667 28.2937 25.2939 28.6668 24.8337 28.6668 Z M 22.3337 12.0002 L 9.00033 12.0002 L 9.00033 13.6668 L 22.3337 13.6668 L 22.3337 12.0002 Z M 9.00033 15.3335 L 22.3337 15.3335 L 22.3337 17.0002 L 9.00033 17.0002 L 9.00033 15.3335 Z M 15.667 18.6668 L 9.00033 18.6668 L 9.00033 20.3335 L 15.667 20.3335 L 15.667 18.6668 Z" stroke-linecap="round" />
</g>
</svg>