<svg width="24" height="24" viewBox="0 0 24 24" fill="none" xmlns="http://www.w3.org/2000/svg">
<mask id="mask0_2535_6131" style="mask-type:alpha" maskUnits="userSpaceOnUse" x="0" y="0" width="24" height="24">
<rect width="24" height="24" fill="#D9D9D9"/>
</mask>
<g mask="url(#mask0_2535_6131)">
<path d="M12.019 20C10.9101 20 9.87065 19.7914 8.90077 19.3741C7.9309 18.9567 7.08347 18.3856 6.35847 17.6606C5.63347 16.9356 5.06231 16.0881 4.64499 15.1183C4.22769 14.1484 4.01904 13.109 4.01904 12C4.01904 10.891 4.22769 9.85159 4.64499 8.88172C5.06231 7.91186 5.63347 7.06443 6.35847 6.33943C7.08347 5.61443 7.9309 5.04327 8.90077 4.62595C9.87065 4.20865 10.9101 4 12.019 4C13.1678 4 14.2617 4.23717 15.3008 4.71152C16.3399 5.18589 17.246 5.84743 18.019 6.69615V4.3077H19.0191V8.46155H14.8652V7.46155H17.346C16.6498 6.69488 15.8466 6.09296 14.9364 5.65578C14.0261 5.21859 13.0537 5 12.019 5C10.069 5 8.41488 5.67917 7.05654 7.0375C5.69821 8.39583 5.01904 10.05 5.01904 12C5.01904 13.95 5.69821 15.6042 7.05654 16.9625C8.41488 18.3208 10.069 19 12.019 19C13.769 19 15.2918 18.4301 16.5873 17.2904C17.8828 16.1506 18.6665 14.7205 18.9383 13H19.9498C19.7126 15.0141 18.8392 16.6843 17.3296 18.0106C15.82 19.3369 14.0498 20 12.019 20ZM15.1652 15.8539L11.519 12.2077V7H12.519V11.7923L15.8729 15.1462L15.1652 15.8539Z" fill="#0066CC"/>
</g>
</svg>
