<svg width="64" height="64" viewBox="0 0 64 64" fill="none" xmlns="http://www.w3.org/2000/svg">
<path d="M0 32C0 14.3269 14.3269 0 32 0C49.6731 0 64 14.3269 64 32C64 49.6731 49.6731 64 32 64C14.3269 64 0 49.6731 0 32ZM30 4.30621C27.3223 5.12512 24.6585 7.58889 22.451 11.7279C21.8785 12.8014 21.3494 13.9674 20.8708 15.2144C23.6915 15.8436 26.762 16.2445 30 16.3622V4.30621ZM16.9941 14.1578C17.5657 12.6214 18.2107 11.1785 18.9216 9.84559C19.6364 8.5052 20.4345 7.24964 21.309 6.1134C17.8782 7.53189 14.7906 9.61259 12.2058 12.1962C13.6517 12.9315 15.2564 13.5911 16.9941 14.1578ZM14.0338 30C14.179 25.7199 14.7874 21.6505 15.7793 17.9691C13.5013 17.2281 11.3991 16.3321 9.52184 15.3018C6.42562 19.4629 4.45754 24.5132 4.07031 30H14.0338ZM19.6348 19.0354C18.7449 22.3458 18.1799 26.0519 18.0362 30H30V20.3646C26.3608 20.241 22.8683 19.7823 19.6348 19.0354ZM34 20.3646V30H45.9637C45.8201 26.0519 45.2551 22.3458 44.3652 19.0354C41.1317 19.7823 37.6392 20.241 34 20.3646ZM18.0362 34C18.1799 37.948 18.7449 41.6542 19.6348 44.9646C22.8683 44.2176 26.3608 43.7589 30 43.6354V34H18.0362ZM34 34V43.6354C37.6392 43.7589 41.1317 44.2176 44.3652 44.9646C45.2551 41.6542 45.8201 37.948 45.9637 34H34ZM20.8708 48.7855C21.3494 50.0326 21.8785 51.1986 22.451 52.272C24.6585 56.4111 27.3223 58.8748 30 59.6937V47.6377C26.762 47.7555 23.6915 48.1563 20.8708 48.7855ZM21.3091 57.8866C20.4345 56.7503 19.6364 55.4947 18.9216 54.1544C18.2107 52.8215 17.5657 51.3785 16.9941 49.8422C15.2564 50.4089 13.6517 51.0684 12.2058 51.8038C14.7906 54.3874 17.8782 56.4681 21.3091 57.8866ZM15.7793 46.0308C14.7874 42.3494 14.179 38.28 14.0338 34H4.07031C4.45754 39.4867 6.42562 44.5371 9.52184 48.6982C11.3991 47.6679 13.5013 46.7719 15.7793 46.0308ZM42.6909 57.8866C46.1218 56.4681 49.2093 54.3874 51.7942 51.8038C50.3482 51.0684 48.7436 50.4089 47.0059 49.8422C46.4343 51.3785 45.7893 52.8215 45.0784 54.1544C44.3635 55.4947 43.5655 56.7503 42.6909 57.8866ZM34 47.6377V59.6937C36.6777 58.8748 39.3415 56.4111 41.549 52.272C42.1215 51.1986 42.6506 50.0326 43.1291 48.7855C40.3085 48.1563 37.238 47.7555 34 47.6377ZM48.2207 46.0308C50.4987 46.7719 52.6009 47.6679 54.4781 48.6982C57.5743 44.5371 59.5424 39.4867 59.9297 34H49.9662C49.821 38.28 49.2126 42.3494 48.2207 46.0308ZM59.9297 30C59.5424 24.5132 57.5743 19.4629 54.4781 15.3018C52.6009 16.3321 50.4987 17.2281 48.2207 17.9691C49.2126 21.6505 49.821 25.7199 49.9662 30H59.9297ZM45.0784 9.84559C45.7893 11.1785 46.4343 12.6214 47.0059 14.1578C48.7436 13.5911 50.3482 12.9315 51.7942 12.1962C49.2093 9.61259 46.1218 7.53189 42.6909 6.1134C43.5655 7.24963 44.3635 8.50521 45.0784 9.84559ZM43.1291 15.2144C42.6506 13.9674 42.1215 12.8014 41.549 11.7279C39.3415 7.58889 36.6777 5.12512 34 4.30621V16.3622C37.238 16.2445 40.3085 15.8436 43.1291 15.2144Z" fill="#0066CC"/>
</svg>
