<svg width="401" height="400" viewBox="0 0 401 400" fill="none" xmlns="http://www.w3.org/2000/svg">
<g clip-path="url(#clip0_1248_13429)">
<path d="M377.118 263.671C337.774 355.453 233.915 394.879 152.545 388.155C130.327 386.321 85.6235 382.627 50.7174 349.683C-16.3204 286.416 -5.99459 154.172 58.1769 76.3117C66.4365 66.2869 123.638 -0.890401 212.773 0.00994358C278.036 0.66826 323.84 37.4614 329.408 42.0454C336.446 47.8347 351.961 61.5964 365.949 83.4225C398.813 134.713 401.699 206.315 377.113 263.671H377.118Z" fill="#F2F7FC"/>
<path d="M369.61 317.377C369.61 321.094 366.807 324.139 363.383 324.139H26.7142C23.29 324.139 20.4867 321.099 20.4867 317.377L17.6833 107.102C17.6833 103.385 21.7138 96.1241 29.1004 96.6711L358.135 87.4159C362.432 87.2949 366.584 89.0907 369.63 92.3872C372.675 95.6836 374.339 100.19 374.237 104.856L369.615 317.377H369.61Z" fill="#003366"/>
<path d="M363.465 310.895C363.465 314.414 360.812 317.294 357.577 317.294H34.8333C31.5934 317.294 28.9453 314.414 28.9453 310.895L26.302 120.003C26.6124 108.516 35.8809 104.387 41.4973 104.629C41.4973 104.629 298.668 97.131 356.845 95.432C359.862 95.3448 362.781 96.6082 364.92 98.9268C367.059 101.245 368.233 104.416 368.16 107.698L363.47 310.89L363.465 310.895Z" fill="#94C4F5"/>
<path d="M32.4277 219.708C32.1852 219.708 31.9864 219.514 31.9864 219.272L31.7778 203.792C31.7778 203.545 31.9718 203.347 32.2143 203.342C32.4568 203.332 32.6605 203.536 32.6654 203.778L32.874 219.258C32.874 219.505 32.6799 219.703 32.4374 219.708H32.4326H32.4277Z" fill="#207AD5"/>
<path d="M31.9184 181.773C31.6759 181.773 31.477 181.579 31.477 181.337L30.6768 122.045C30.6962 117.911 31.9232 114.659 34.3289 112.364C38.3205 108.555 44.2521 108.758 44.4995 108.768L145.202 105.829C145.459 105.82 145.653 106.013 145.658 106.26C145.663 106.507 145.473 106.71 145.226 106.715L44.4946 109.653C44.223 109.644 38.6648 109.455 34.94 113.008C32.7138 115.128 31.5789 118.168 31.5595 122.045L32.3597 181.328C32.3597 181.575 32.1657 181.773 31.9232 181.778H31.9184V181.773Z" fill="url(#paint0_linear_1248_13429)"/>
<path opacity="0.37" d="M43.1609 300.304C43.5005 284.529 43.3744 144.816 42.5401 132.748C41.7059 120.681 58.9965 118.42 85.5458 117.06C112.09 115.7 336.077 110.327 341.844 109.818C354.808 108.676 357.49 129.733 356.195 175.452C355.22 209.8 353.605 266.377 352.863 292.4C352.64 300.149 346.815 306.292 339.685 306.316C285.786 306.476 79.2019 307.12 65.4519 307.565C49.6261 308.078 43.0348 306.563 43.1658 300.309L43.1609 300.304Z" fill="white"/>
<path d="M393.279 323.117H3.64241C1.63076 323.117 0 324.745 0 326.752V337.958C0 339.966 1.63076 341.594 3.64241 341.594H393.279C395.29 341.594 396.921 339.966 396.921 337.958V326.752C396.921 324.745 395.29 323.117 393.279 323.117Z" fill="#004080"/>
<path d="M302.024 62.9121L294.453 79.4572C294.453 79.4572 298.649 107.102 327.827 117.872C357.005 128.647 369.993 114.648 369.993 114.648L379.281 90.2613L302.029 62.9121H302.024Z" fill="#4392E0"/>
<path d="M349.73 40.007L288.687 51.6244C285.544 52.2246 284.322 56.1309 286.558 58.4447C297.456 69.7329 322.177 95.964 331.11 110.718C332.066 112.296 333.962 113.008 335.703 112.451L398.187 92.5175C401.015 91.6171 401.931 88.0206 399.889 85.852C389.122 74.4041 361.676 45.6995 352.393 40.4427C351.583 39.9828 350.637 39.8328 349.72 40.007H349.73Z" fill="#94C4F5"/>
<path d="M345.685 71.0878C345.685 71.0878 375.634 94.2209 377.647 99.0711C379.655 103.926 372.923 124.581 372.923 124.581C376.342 142.873 375.367 162.328 366.031 171.713C366.031 171.713 357.699 147.312 363.223 137.834C368.747 128.357 370.896 124.46 370.896 124.46C370.896 124.46 376.949 102.339 375.949 99.0082C375.949 99.0082 342.882 72.1286 345.69 71.083L345.685 71.0878Z" fill="#4392E0"/>
<path d="M296.156 57.9942L323.889 91.1036L330.819 99.381L332.551 101.453L333.419 102.489C333.696 102.818 333.996 103.113 334.326 103.374C335.66 104.425 337.474 104.827 339.128 104.43L360.129 99.3084C360.274 99.2745 360.424 99.3616 360.458 99.5069C360.492 99.6521 360.405 99.8021 360.259 99.836L339.288 105.098C337.435 105.558 335.383 105.117 333.875 103.946C333.502 103.655 333.157 103.312 332.847 102.958L331.974 101.927L330.228 99.8699L323.239 91.6409L295.283 58.7154C295.079 58.4782 295.113 58.1249 295.351 57.9216C295.588 57.7183 295.943 57.7522 296.146 57.9893L296.156 57.9942Z" fill="#0066CC"/>
<path d="M369.596 135.162L369.528 135.225L369.45 135.308L369.29 135.467L368.98 135.821C368.776 136.063 368.592 136.324 368.393 136.581L367.864 137.394C367.699 137.67 367.549 137.96 367.389 138.246C367.224 138.527 367.093 138.827 366.957 139.122C366.826 139.422 366.676 139.713 366.555 140.013L366.21 140.932C366.099 141.242 365.973 141.542 365.89 141.862L365.619 142.811C365.531 143.125 365.425 143.44 365.371 143.764C365.24 144.408 365.095 145.052 364.974 145.7L364.707 147.666C364.687 147.83 364.658 147.995 364.644 148.159L364.61 148.653L364.547 149.645C364.421 150.967 364.484 152.298 364.474 153.624C364.464 153.958 364.493 154.288 364.518 154.622L364.586 155.619C364.634 156.282 364.668 156.95 364.726 157.613C364.901 158.934 365.051 160.261 365.25 161.577L365.982 165.513V165.522C366.002 165.629 365.934 165.731 365.827 165.75C365.721 165.769 365.624 165.702 365.599 165.6L364.77 161.66C364.537 160.338 364.358 159.007 364.149 157.676C364.076 157.008 364.023 156.335 363.96 155.667L363.868 154.66C363.834 154.326 363.805 153.992 363.805 153.653C363.785 152.308 363.688 150.957 363.785 149.612L363.829 148.6L363.848 148.092C363.858 147.922 363.882 147.758 363.902 147.588L364.13 145.57C364.241 144.902 364.372 144.234 364.493 143.566C364.547 143.232 364.644 142.903 364.726 142.573L364.988 141.586C365.066 141.252 365.187 140.932 365.299 140.613L365.633 139.645C365.754 139.325 365.9 139.016 366.036 138.696C366.172 138.381 366.303 138.062 366.472 137.762C366.632 137.457 366.788 137.147 366.957 136.847L367.505 135.966C367.714 135.685 367.908 135.395 368.126 135.119L368.466 134.712L368.655 134.514L368.752 134.412L368.868 134.306C369.096 134.093 369.45 134.102 369.664 134.33C369.877 134.557 369.867 134.911 369.639 135.124C369.639 135.124 369.639 135.124 369.635 135.129L369.601 135.158L369.596 135.162Z" fill="#BFDFFF"/>
<path d="M369.809 143.595L369.693 144.873L369.581 146.291L369.373 149.133L368.975 154.821L368.214 166.201C368.204 166.37 368.058 166.496 367.889 166.486C367.724 166.477 367.598 166.331 367.602 166.167L368.107 154.767L368.378 149.07L368.524 146.219L368.606 144.791L368.655 144.075L368.679 143.711C368.694 143.561 368.718 143.387 368.747 143.227C368.8 142.927 369.082 142.729 369.382 142.782C369.664 142.83 369.858 143.087 369.833 143.368L369.814 143.59L369.809 143.595Z" fill="#BFDFFF"/>
<path d="M206.303 303.315C222.394 303.315 235.438 290.296 235.438 274.237C235.438 258.178 222.394 245.16 206.303 245.16C190.213 245.16 177.169 258.178 177.169 274.237C177.169 290.296 190.213 303.315 206.303 303.315Z" fill="#0066CC"/>
<path d="M117.686 180.614C121.838 163.059 110.944 145.469 93.3549 141.326C75.7655 137.182 58.1411 148.055 53.9896 165.61C49.8381 183.164 60.7317 200.754 78.3211 204.898C95.9105 209.041 113.535 198.169 117.686 180.614Z" fill="#207AD5"/>
<path d="M184.099 232.768C210.275 232.768 231.494 211.59 231.494 185.466C231.494 159.342 210.275 138.164 184.099 138.164C157.924 138.164 136.704 159.342 136.704 185.466C136.704 211.59 157.924 232.768 184.099 232.768Z" fill="white"/>
<path d="M128.293 280.123C143.1 274.002 150.131 257.06 143.998 242.283C137.865 227.506 120.89 220.489 106.084 226.609C91.2775 232.73 84.2464 249.672 90.3794 264.449C96.5124 279.226 113.487 286.244 128.293 280.123Z" fill="#207AD5"/>
<path d="M321.625 220.165C336.031 205.787 336.031 182.475 321.625 168.097C307.219 153.719 283.861 153.719 269.455 168.097C255.049 182.475 255.049 205.787 269.455 220.165C283.861 234.543 307.219 234.543 321.625 220.165Z" fill="#207AD5"/>
<path d="M250.885 155.754C270.621 155.754 286.62 139.786 286.62 120.089C286.62 100.392 270.621 84.4238 250.885 84.4238C231.149 84.4238 215.15 100.392 215.15 120.089C215.15 139.786 231.149 155.754 250.885 155.754Z" fill="#207AD5"/>
<path d="M287.571 231.964C288.182 231.374 288.153 230.386 287.508 229.83L211.643 162.27C211.43 162.081 211.124 162.038 210.867 162.159C210.416 162.376 210.324 162.977 210.693 163.315L285.573 231.989C286.14 232.506 287.013 232.497 287.566 231.959L287.571 231.964Z" fill="url(#paint1_linear_1248_13429)"/>
<path d="M331.93 398.291C331.93 398.184 331.935 398.073 331.964 397.967C333.589 391.543 341.649 387.54 341.649 387.54L344.846 387.792C346.684 393.455 346.446 396.931 346.15 398.475C346.141 398.518 346.131 398.557 346.116 398.601C343.483 398.838 338.06 398.988 331.935 398.291H331.93Z" fill="#BFDFFF"/>
<path d="M346.112 398.601C345.971 399.119 345.588 399.521 345.098 399.622C341.349 400.411 335.393 399.777 332.89 399.448C332.338 399.375 331.935 398.867 331.925 398.291C338.051 398.988 343.473 398.833 346.107 398.601H346.112Z" fill="url(#paint2_linear_1248_13429)"/>
<path d="M358.761 284.548C360.735 286.649 363.64 288.464 365.682 289.597C362.631 293.362 358.499 297.133 353.033 300.822L351.466 304.326L346.451 298.329C346.451 298.329 355.448 293.861 358.761 284.543V284.548Z" fill="url(#paint3_linear_1248_13429)"/>
<path d="M346.126 383.038L344.773 389.539C344.676 390.013 344.308 390.372 343.861 390.415C343.318 390.468 342.542 390.497 341.766 390.381C341.068 390.28 340.583 389.573 340.704 388.813L341.645 383.043H346.121L346.126 383.038Z" fill="url(#paint4_linear_1248_13429)"/>
<path d="M318.097 398.533C321.624 398.436 323.447 398.02 324.393 397.633C324.393 397.981 324.393 398.34 324.383 398.707C324.369 399.099 324.078 399.419 323.719 399.414L304.352 399.288C303.736 399.288 303.373 398.567 303.639 398.006C306.181 398.214 312.646 398.683 318.097 398.533Z" fill="url(#paint5_linear_1248_13429)"/>
<path d="M303.639 398.005C303.664 397.957 303.683 397.904 303.717 397.86C305.429 395.474 309.784 390.725 318.393 388.663L322.521 388.532C322.521 388.532 324.359 391.722 324.393 397.633C323.452 398.015 321.624 398.431 318.098 398.533C312.646 398.683 306.176 398.218 303.639 398.005Z" fill="#BFDFFF"/>
<path d="M323.287 382.293C323.243 382.598 322.676 387.269 322.458 389.079C322.404 389.51 322.094 389.844 321.701 389.888C320.998 389.97 319.858 390.048 318.864 389.844C318.325 389.733 317.938 389.22 317.938 388.62V381.291L323.287 382.288V382.293Z" fill="url(#paint6_linear_1248_13429)"/>
<path d="M326.6 297.08C326.6 297.08 316.638 334.861 316.817 382.4C316.817 383.266 317.428 384.017 318.282 384.191C319.533 384.452 321.376 384.767 322.899 384.723C323.714 384.699 324.393 384.099 324.529 383.295C325.926 375.12 333.938 329.071 338.507 321.598C338.507 321.598 341.509 362.612 340.549 383.886C340.524 384.414 340.912 384.873 341.441 384.936C342.241 385.028 343.522 385.101 345.146 384.927C345.762 384.859 346.262 384.394 346.349 383.779C347.344 376.862 353.071 335.684 352.824 306.021C352.81 304.346 348.391 297.075 348.391 297.075H326.59L326.6 297.08Z" fill="#BFDFFF"/>
<path d="M311.322 246.196C313.068 241.747 316.007 238.703 318.966 235.179C330.053 237.188 348.226 238.974 355.807 239.927C358.174 240.223 360.337 241.389 361.899 243.19C368.082 250.33 381.653 269.886 365.682 289.591C363.64 288.459 360.735 286.644 358.761 284.543C360.526 279.572 360.672 273.221 356.971 265.427C356.845 266.047 356.69 266.657 356.496 267.257C351.393 283.396 351.117 296.823 351.131 299.921C351.131 300.342 350.879 300.72 350.491 300.875C343.774 303.561 330.844 301.964 326.503 301.315C325.707 301.199 325.169 300.459 325.28 299.66C327.41 284.257 316.478 258.917 313.592 252.571C313.17 251.641 312.423 250.896 311.492 250.475C311.026 250.262 310.565 250.049 310.114 249.831C310.459 248.602 310.856 247.387 311.327 246.191L311.322 246.196Z" fill="#207AD5"/>
<path d="M344.201 225.115L344.991 238.886C345.016 239.293 344.749 239.661 344.356 239.758C342.605 240.198 337.765 241.074 333.555 238.683C333.007 238.373 332.755 237.72 332.929 237.115L336.45 224.742L344.206 225.115H344.201Z" fill="url(#paint7_linear_1248_13429)"/>
<path d="M335.568 210.065C335.388 210.234 328.011 224.698 328.011 224.698L336.373 228.725L345.408 216.053C345.408 216.053 338.565 207.248 335.568 210.065Z" fill="url(#paint8_linear_1248_13429)"/>
<path d="M341.708 216.406C341.858 216.794 341.819 217.22 341.606 217.578L337.435 224.519C337.372 224.626 337.294 224.718 337.207 224.805C336.712 225.265 335.01 226.605 333.7 224.78C332.58 223.222 331.532 221.808 330.407 221.223C329.752 220.884 328.942 221.155 328.608 221.813C327.919 223.173 326.59 225.942 325.751 228.571C325.542 229.229 325.882 229.936 326.522 230.197C328.215 230.88 331.561 232.119 334.535 232.53C335.024 232.598 335.505 232.39 335.796 231.993C337.071 230.245 340.675 225.361 341.902 224.142C343.042 223.004 345.151 223.435 346.102 223.706C346.461 223.808 346.844 223.759 347.169 223.565C348.134 222.985 349.812 221.542 348.275 219.102C347.892 218.497 348.086 217.684 348.687 217.292C349.764 216.585 350.933 215.259 349.817 213.115C348.692 210.941 346.679 210.748 345.311 210.912C344.705 210.985 344.089 210.67 343.856 210.104C343.755 209.852 343.551 209.639 343.168 209.562C342.45 209.417 341.979 208.763 342.12 208.042C342.363 206.812 342.178 205.215 340.214 204.135C336.606 202.156 333.443 205.379 332.638 208.105C331.833 210.83 335.868 212.752 338.405 213.076C340.267 213.313 341.291 215.341 341.703 216.406H341.708Z" fill="#003366"/>
<path d="M340.335 226.688C340.335 226.688 341.941 222.002 343.992 222.171C346.049 222.346 347.664 224.384 345.117 226.683C341.95 229.539 340.335 226.683 340.335 226.683V226.688Z" fill="url(#paint9_linear_1248_13429)"/>
<path d="M285.961 239.452C296.505 243.295 318.971 235.178 318.971 235.178L320.518 253.499C302.529 259.177 290.821 257.522 283.206 252.759C282.731 247.342 284.365 242.632 285.961 239.452Z" fill="#207AD5"/>
<path d="M269.175 220.545L273.588 219.674C273.588 219.674 274.791 233.687 284.618 238.867C285.04 239.089 285.491 239.283 285.961 239.457C284.361 242.637 282.731 247.347 283.206 252.764C267.734 243.083 269.175 220.55 269.175 220.55V220.545Z" fill="url(#paint10_linear_1248_13429)"/>
<path d="M273.36 220.899L273.583 219.679C273.583 219.679 274.505 216.697 272.07 213.759C268.549 209.514 265.974 211.077 265.974 211.077C265.974 211.077 266.158 211.987 266.143 212.791C266.134 213.439 265.353 213.769 264.873 213.328L259.13 208.062C259.13 208.062 257.52 216.426 269.839 222.177L273.36 220.904V220.899Z" fill="url(#paint11_linear_1248_13429)"/>
<path d="M107.366 359.306C107.308 359.282 74.6864 302.274 70.2777 296.906C69.5356 296.006 68.3862 295.546 67.227 295.682L58.1234 296.766L47.429 319.86L65.2482 309.501C63.4827 321.671 86.3751 339.76 94.2274 346.357C95.0228 347.025 95.0907 348.226 94.3681 348.976L91.2349 352.248C96.3808 357.452 102.317 360.797 109.02 362.341L107.366 359.301V359.306Z" fill="url(#paint12_linear_1248_13429)"/>
<path d="M93.049 350.486C93.049 350.486 91.0508 351.13 90.3717 352.911C90.0468 353.763 90.396 354.727 91.1381 355.254C94.4313 357.612 105.295 365.211 110.31 366.702C110.723 366.823 111.111 366.455 111.019 366.034C110.761 364.872 109.927 362.549 107.25 359.151L107.493 359.635C107.798 360.25 107.129 360.889 106.527 360.555C103.176 358.667 96.3422 354.528 93.0538 350.486H93.049Z" fill="#94C4F5"/>
<path d="M94.6639 373.295C94.6106 373.261 89.7169 361.493 89.6587 361.455C85.1723 334.188 74.2257 310.837 70.9955 304.694C70.4523 303.663 69.4193 302.981 68.2552 302.879L59.1177 302.1L43.9612 322.556L63.5119 316.011C59.3165 327.576 78.067 349.91 84.4157 357.96C85.0608 358.778 84.8813 359.964 84.0229 360.554L80.2883 363.129C84.2702 369.267 89.4065 373.74 95.6582 376.606L94.6591 373.295H94.6639Z" fill="url(#paint13_linear_1248_13429)"/>
<path d="M82.4272 361.769C82.4272 361.769 80.3368 361.997 79.3134 363.599C78.8236 364.369 78.9691 365.381 79.5899 366.049C82.3399 369.021 91.4338 378.663 96.0414 381.132C96.4197 381.335 96.8756 381.049 96.8707 380.623C96.8562 379.433 96.5118 376.993 94.5718 373.121L94.7076 373.643C94.8822 374.307 94.0965 374.8 93.5775 374.345C90.6772 371.818 84.828 366.387 82.4223 361.765L82.4272 361.769Z" fill="#6AAAEB"/>
<path d="M16.3594 297.797C16.3594 297.797 8.09486 310.063 7.41585 315.658C6.73684 321.254 9.70024 323.19 18.3528 323.902C44.0922 326.027 56.78 318.325 56.78 318.325C58.5406 307.12 59.7919 304.268 74.5022 298.179C74.5022 298.179 55.9021 299.651 52.1579 298.203C48.4136 296.751 16.3594 297.792 16.3594 297.792V297.797Z" fill="#F2F7FC"/>
<path d="M49.3158 229.065C49.3158 229.065 43.5588 222.269 37.4428 230.609C36.3322 232.12 32.0786 230.876 30.5169 234.037C29.7118 235.668 27.9706 236.597 26.1761 236.268C21.7092 235.445 14.4098 235.377 10.8062 242.362C8.05618 247.692 10.1805 250.814 12.9305 252.59C14.9481 253.897 15.6708 256.55 14.4486 258.617C13.2749 260.602 13.0566 263.288 16.0831 266.526C22.8586 273.778 36.2788 261.928 36.2788 261.928L46.9296 236.805L49.3158 229.075V229.065Z" fill="#004D99"/>
<path d="M38.7087 296.175C38.7087 296.175 48.3313 287.031 53.0698 280.971C55.6306 277.698 56.4358 273.385 55.2523 269.402C53.0892 262.131 49.2479 254.599 48.8939 253.423C48.3555 251.627 37.5641 251.7 37.5641 251.7C37.5641 251.7 16.3304 265.452 7.98828 288.754L17.3586 291.663C17.3586 291.663 22.9023 282.379 28.3829 276.478C28.3829 276.478 18.9058 288.977 18.5712 294.093L38.7136 296.17L38.7087 296.175Z" fill="#6AAAEB"/>
<path d="M57.0468 299.781L49.8153 291.929L41.4634 294.175C41.4634 294.175 31.7293 295.681 26.1566 294.175L20.5838 292.67L7.99303 288.759L6.01419 294.335C5.50978 295.753 6.01419 297.322 7.24126 298.193C8.33253 298.968 9.6081 299.815 10.4229 300.168C12.0816 300.894 48.6222 300.396 48.6222 300.396L57.0468 299.776V299.781Z" fill="url(#paint14_linear_1248_13429)"/>
<path d="M44.9845 238.756L37.7336 252.218C38.2138 255.156 45.6296 255.238 46.7742 253.486C46.8906 253.307 46.9585 253.099 47.0022 252.89L51.343 243.897C51.5273 243.02 49.1216 240.063 48.3262 239.642L45.4453 238.112C44.3346 237.522 48.9664 237.478 44.9894 238.756H44.9845Z" fill="url(#paint15_linear_1248_13429)"/>
<path d="M59.6609 235.595C59.6609 235.595 60.4805 240.14 56.8963 245.925C53.3169 251.704 49.7473 251.448 47.9382 249.386C46.1243 247.324 43.9563 243.892 44.9457 238.122C45.9351 232.357 58.4241 229.796 59.6609 235.595Z" fill="url(#paint16_linear_1248_13429)"/>
<path d="M49.2817 238.747C49.2817 238.747 55.0824 231.147 59.5348 237.774L59.4621 240.063C59.4621 240.063 65.2531 239.792 64.6225 234.468C63.9969 229.143 59.2681 225.503 52.7156 227.323C46.1631 229.143 42.3364 231.215 41.5943 235.755C40.8523 240.296 44.5674 239.555 44.5674 239.555C44.5674 239.555 45.9885 236.423 47.7006 236.21C49.4127 235.997 48.7967 238.476 48.7967 238.476L49.2866 238.751L49.2817 238.747Z" fill="#004D99"/>
<path d="M47.948 238.548C47.948 238.548 50.9502 234.656 48.2196 233.853C45.4841 233.044 45.586 237.667 45.7654 239.386L47.948 238.553V238.548Z" fill="url(#paint17_linear_1248_13429)"/>
<path d="M33.1116 302.888C33.1358 302.888 33.1601 302.888 33.1892 302.888L66.451 302.854C67.2756 302.854 67.94 302.186 67.94 301.368C67.94 300.545 67.2707 299.868 66.451 299.882L33.1892 299.916C32.3647 299.916 31.7002 300.584 31.7002 301.402C31.7002 302.196 32.3259 302.844 33.1164 302.883L33.1116 302.888Z" fill="url(#paint18_linear_1248_13429)"/>
<path d="M96.347 272.751H68.6482C66.6063 272.751 64.7439 273.927 63.8709 275.772L51.0667 302.874H85.4877C86.8069 302.874 87.9855 302.07 88.4705 300.85L98.3986 275.772C98.9709 274.324 97.9039 272.751 96.3422 272.751H96.347Z" fill="url(#paint19_linear_1248_13429)"/>
<path d="M76.8301 286.644C76.2287 288.507 76.6749 290.313 77.8195 290.681C78.969 291.049 80.3852 289.839 80.9818 287.98C81.5832 286.116 81.137 284.311 79.9924 283.943C78.8429 283.575 77.4267 284.785 76.8301 286.644Z" fill="#94C4F5"/>
<path d="M60.4611 43.0083C60.466 42.8244 60.4757 42.655 60.4757 42.5049C60.4902 42.0886 60.3205 41.6917 60.0101 41.4158C58.1961 39.7893 51.406 34.2179 41.8077 32.4801C41.2887 32.3881 40.8425 32.6205 40.5903 32.9884C41.3906 33.0852 42.4625 33.2885 43.9078 33.666C48.6512 34.9101 55.548 38.221 60.4563 43.0035L60.4611 43.0083Z" fill="url(#paint20_linear_1248_13429)"/>
<path d="M43.9126 33.666C42.4672 33.2884 41.3954 33.0851 40.5951 32.9883C40.3429 33.361 40.2895 33.8644 40.566 34.3146C40.7212 34.5663 40.9152 34.8422 41.148 35.1375C42.6515 37.0156 54.7913 49.4462 54.7913 49.4462C54.7913 49.4462 58.6471 49.9157 59.8208 49.2332C60.204 49.0105 60.3931 45.0219 60.4659 43.0082C55.5576 38.2209 48.6608 34.9148 43.9174 33.6708L43.9126 33.666Z" fill="#003366"/>
<path d="M60.0003 55.9186V48.5173C60.0003 47.8881 59.6026 47.3266 59.0012 47.1378C58.0797 46.8425 56.6634 46.5666 55.3782 47.0506C54.6216 47.3314 54.1171 48.0478 54.0492 48.8513L53.4963 55.7637L59.9954 55.9234L60.0003 55.9186Z" fill="url(#paint21_linear_1248_13429)"/>
<path d="M30.5797 49.36C30.4924 49.0695 30.3178 48.8227 30.0995 48.6436C28.5426 48.9485 25.2979 49.8053 18.6582 52.1481C10.9562 54.8637 8.70094 57.2307 8.05103 58.4989C11.3491 59.4622 18.8522 60.9386 29.6096 58.8378L31.734 57.8406C31.734 57.8406 31.5836 52.6661 30.5797 49.3551V49.36Z" fill="#003366"/>
<path d="M18.6582 52.1477C25.3028 49.8048 28.5426 48.9481 30.0995 48.6431C29.7552 48.3575 29.2944 48.2268 28.8288 48.3236C25.0021 49.1175 13.4443 51.833 7.40598 56.722C6.80457 57.2109 6.97917 58.1742 7.72123 58.4017C7.82793 58.4356 7.93464 58.4646 8.05104 58.4985C8.70095 57.2303 10.9562 54.8632 18.6582 52.1477Z" fill="url(#paint22_linear_1248_13429)"/>
<path d="M35.7208 62.3178L31.1957 56.9012C30.7544 56.3736 30.0366 56.1654 29.3866 56.3784C28.664 56.6156 27.6988 57.1045 26.7676 58.1162C26.3311 58.5857 26.2486 59.2876 26.5396 59.8539L29.8328 66.2241L35.7208 62.3129V62.3178Z" fill="url(#paint23_linear_1248_13429)"/>
<path d="M52.5117 53.3383C52.5117 53.3383 58.036 52.2783 61.1012 53.3383C61.1012 53.3383 65.1414 77.5363 64.4478 85.3199L52.5117 87.7402C52.5117 87.7402 52.1722 60.4733 52.5117 53.3383Z" fill="#003366"/>
<path d="M101.493 95.7414C101.493 95.7414 62.4641 97.9294 46.6189 96.8354C45.0668 96.7289 43.6894 95.814 42.9958 94.4248C39.6008 87.6432 29.4205 67.2838 28.5232 65.3427C28.5232 65.3427 32.6603 61.8962 35.711 61.417C35.711 61.417 50.1691 77.4683 50.7705 85.6585C50.7705 85.6585 84.2458 76.05 87.5536 76.142C90.8613 76.234 100.998 80.7502 100.998 80.7502L101.483 95.7463L101.493 95.7414Z" fill="#004D99"/>
<path d="M153.524 65.377C153.524 65.377 152.094 62.4049 153.335 60.8365C154.577 59.2682 159.054 54.4131 159.054 54.4131L159.573 51.0586L161.411 56.5236L157.463 64.7671C157.463 64.7671 155.149 67.2648 153.52 65.377H153.524Z" fill="url(#paint24_linear_1248_13429)"/>
<path d="M163.554 79.2012C162.109 74.1282 160.116 69.3022 157.468 64.7666L153.524 65.3765L155.469 79.0124C156.958 79.4626 161.018 80.4839 163.554 79.1963V79.2012Z" fill="url(#paint25_linear_1248_13429)"/>
<path d="M166.106 92.4791C165.601 87.8951 164.767 83.4611 163.554 79.2014C161.018 80.489 156.958 79.4628 155.469 79.0175L156.027 82.9335L154.533 77.6621C152.715 71.2484 148.849 65.5995 143.524 61.5818L139.813 58.7791C136.166 56.0248 130.341 56.9784 126.621 59.631C118.366 65.522 106.11 75.3919 101.924 78.79C101.027 79.5209 99.7905 79.6855 98.7331 79.216L98.0347 78.9062C97.3751 78.6157 96.6476 79.1482 96.7252 79.8646L98.5003 96.0756L126.864 95.7513C130.264 95.7513 140.114 95.4028 141.685 92.3871L144.309 85.9637C150.454 91.1818 158.341 94.7638 162.565 95.8094C164.51 96.2886 166.338 94.5944 166.106 92.4888V92.4791Z" fill="#4392E0"/>
<path d="M146.186 50.0751L137.466 58.5267C136.884 59.0882 136.83 60.0079 137.349 60.6275C140.041 63.8272 142.345 65.502 144.266 65.6278C145.08 65.6811 145.851 65.2503 146.288 64.5629L150.925 57.2682L146.186 50.0654V50.0751Z" fill="url(#paint26_linear_1248_13429)"/>
<path d="M163.782 91.7285L171.286 88.8193L180.001 95.7413L164.389 95.7994L163.782 91.7285Z" fill="url(#paint27_linear_1248_13429)"/>
<path d="M160.804 48.1199C160.804 48.1199 159.616 56.4699 156.401 59.0354C153.185 61.6009 146.923 59.6695 144.809 53.3768L149.024 42.6162L160.804 48.1199Z" fill="url(#paint28_linear_1248_13429)"/>
<path d="M148.548 49.5816C148.791 49.6591 149.048 49.5042 149.087 49.2525C149.203 48.4828 149.494 46.9581 150.081 45.9173C150.081 45.9173 149.775 44.8234 152.855 46.4788C155.935 48.1343 160.562 50.5643 163.288 49.1169C165.945 47.7035 168.632 40.6024 161.614 41.919C161.348 41.9674 161.1 41.7544 161.12 41.4882C161.207 40.3216 161.091 37.6351 158.365 36.7735C155.814 35.9651 154.417 37.1172 153.845 37.8094C153.675 38.0127 153.36 38.0078 153.199 37.7997C152.433 36.8025 150.362 34.6872 147.307 36.0281C144.789 37.1365 144.401 38.6807 144.44 39.644C144.455 39.9586 144.135 40.1667 143.853 40.036C143.082 39.6827 141.845 39.4987 140.657 40.98C139.018 43.0324 141.36 44.8137 142.064 45.2784C142.18 45.3558 142.253 45.4817 142.253 45.6172C142.258 46.6821 142.427 51.3388 144.765 53.9672C144.969 54.1947 145.342 54.1269 145.459 53.8462L147.258 49.5671C147.341 49.3687 147.564 49.267 147.767 49.3348L148.548 49.5865V49.5816Z" fill="#003366"/>
<path d="M148.587 50.4486C148.587 50.4486 147.486 45.9807 145.818 47.4329C144.149 48.8851 146.254 52.075 148.165 52.6849L148.587 50.4486Z" fill="url(#paint29_linear_1248_13429)"/>
<path d="M136.03 69.2978C136.03 69.2978 136.365 58.9584 132.111 58.7551C126.83 58.4985 118.337 62.3177 123.391 77.4687C126.185 85.838 130.394 92.0485 141.947 94.6817C142.51 90.4414 144.435 87.4838 145.861 85.8186C141.152 82.5077 137.165 77.3477 136.03 69.3026V69.2978Z" fill="#94C4F5"/>
<path opacity="0.37" d="M145.333 85.8429C145.25 85.8429 145.168 85.8187 145.095 85.7655C139.672 81.9511 136.661 76.7378 135.623 69.3511C135.623 69.3269 135.623 69.3027 135.623 69.2785C135.71 66.5145 135.254 59.3118 132.097 59.1617C130.574 59.0891 128.973 59.3747 127.591 59.9701C127.382 60.0621 127.135 59.9652 127.048 59.7571C126.96 59.549 127.053 59.3021 127.261 59.215C128.755 58.5712 130.486 58.2614 132.135 58.3388C136.656 58.5615 136.471 68.4798 136.447 69.2737C137.461 76.399 140.361 81.4283 145.575 85.0926C145.764 85.2233 145.808 85.4799 145.677 85.6686C145.594 85.7848 145.468 85.8429 145.337 85.8429H145.333Z" fill="white"/>
<path opacity="0.37" d="M138.271 94.0521C138.227 94.0521 138.179 94.0424 138.135 94.0279C128.547 90.7266 125.195 84.1773 122.998 77.5942C122.499 76.1033 122.115 74.6656 121.858 73.3248C121.815 73.1021 121.96 72.8843 122.188 72.8407C122.411 72.7972 122.629 72.9424 122.673 73.1699C122.925 74.4768 123.304 75.8806 123.789 77.3376C125.918 83.7223 129.163 90.0683 138.412 93.2534C138.63 93.326 138.741 93.5632 138.669 93.781C138.611 93.9504 138.45 94.0618 138.276 94.0618L138.271 94.0521Z" fill="white"/>
<path d="M165.907 95.7415L165.887 91.7335C165.887 91.7335 154.625 91.9804 145.861 85.8184C144.435 87.4835 142.51 90.4411 141.947 94.6814C147.796 96.0126 155.523 96.4289 165.902 95.7415H165.907Z" fill="url(#paint30_linear_1248_13429)"/>
<path d="M151.473 97.1409C151.502 97.1409 151.526 97.1409 151.555 97.1409L187.368 97.1022C188.256 97.1022 188.969 96.3858 188.969 95.4999C188.969 94.6141 188.246 93.888 187.363 93.9026L151.55 93.9413C150.663 93.9413 149.95 94.6577 149.95 95.5435C149.95 96.4003 150.624 97.0973 151.473 97.1409Z" fill="url(#paint31_linear_1248_13429)"/>
<path d="M219.563 64.6846H189.735C187.533 64.6846 185.53 65.9528 184.594 67.9374L170.805 97.1212H207.875C209.291 97.1212 210.566 96.2547 211.085 94.9381L221.78 67.9374C222.396 66.3788 221.246 64.6846 219.563 64.6846Z" fill="url(#paint32_linear_1248_13429)"/>
<path d="M198.553 79.6464C197.908 81.6504 198.383 83.5963 199.62 83.9932C200.856 84.3902 202.379 83.0881 203.029 81.0841C203.674 79.0801 203.199 77.1342 201.962 76.7372C200.725 76.3403 199.203 77.6424 198.558 79.6464H198.553Z" fill="#94C4F5"/>
<path d="M146.342 141.195C162.148 141.195 174.962 128.406 174.962 112.631C174.962 96.855 162.148 84.0664 146.342 84.0664C130.535 84.0664 117.721 96.855 117.721 112.631C117.721 128.406 130.535 141.195 146.342 141.195Z" fill="#207AD5"/>
<g clip-path="url(#clip1_1248_13429)">
<path d="M97.9716 158.528C97.9716 157.565 98.3548 156.642 99.037 155.961C99.7192 155.28 100.644 154.897 101.609 154.897C102.574 154.897 103.499 155.28 104.181 155.961C104.863 156.642 105.247 157.565 105.247 158.528V185.151C105.247 186.114 104.863 187.037 104.181 187.718C103.499 188.399 102.574 188.781 101.609 188.781C100.644 188.781 99.7192 188.399 99.037 187.718C98.3548 187.037 97.9716 186.114 97.9716 185.151V184.633C92.7286 181.629 87.0831 180.172 81.2097 179.592L82.1918 186.155C82.2578 186.505 82.2457 186.865 82.1564 187.209C82.0671 187.554 81.9027 187.875 81.6751 188.148C81.4475 188.422 81.1621 188.643 80.8394 188.794C80.5167 188.945 80.1646 189.024 79.808 189.023H78.4791C78.0077 189.023 77.5466 188.886 77.1521 188.629C76.7576 188.371 76.4468 188.005 76.2578 187.574L71.7714 179.127C71.6082 179.124 71.4449 179.122 71.2816 179.12C69.9972 179.107 68.7695 178.59 67.8645 177.68C66.9594 176.77 66.4498 175.542 66.446 174.26V169.419C66.4504 168.137 66.9591 166.908 67.8627 165.997C68.7662 165.085 69.9923 164.565 71.2767 164.547C73.2847 164.52 75.2921 164.459 77.2981 164.366C84.6775 163.993 92.2073 162.311 97.9716 159.043V158.528ZM100.397 158.528V185.151C100.397 185.472 100.524 185.78 100.752 186.007C100.979 186.234 101.288 186.361 101.609 186.361C101.931 186.361 102.239 186.234 102.467 186.007C102.694 185.78 102.822 185.472 102.822 185.151V158.528C102.822 158.207 102.694 157.899 102.467 157.672C102.239 157.445 101.931 157.318 101.609 157.318C101.288 157.318 100.979 157.445 100.752 157.672C100.524 157.899 100.397 158.207 100.397 158.528ZM97.9716 161.795C92.2873 164.712 85.3395 166.253 78.5713 166.716V176.961C79.0078 176.985 79.4418 177.014 79.8735 177.048C86.101 177.505 92.2242 178.849 97.9716 181.872V161.795ZM76.1462 176.837V166.842C74.5365 166.9 72.9262 166.942 71.3155 166.967C70.6675 166.975 70.0483 167.236 69.5912 167.695C69.1341 168.153 68.8755 168.772 68.8711 169.419V174.26C68.8711 175.591 69.9575 176.685 71.3107 176.702C72.9232 176.72 74.5352 176.766 76.1462 176.837ZM74.553 179.197L78.4549 186.547L78.4791 186.606H79.808L79.8032 186.572L78.7289 179.393C77.3378 179.309 75.9457 179.243 74.553 179.195V179.197Z" fill="white"/>
</g>
<g clip-path="url(#clip2_1248_13429)">
<path d="M142.596 107.944C142.596 108.715 142.29 109.453 141.744 109.998C141.198 110.543 140.458 110.849 139.686 110.849C138.914 110.849 138.174 110.543 137.628 109.998C137.083 109.453 136.776 108.715 136.776 107.944C136.776 107.174 137.083 106.435 137.628 105.891C138.174 105.346 138.914 105.04 139.686 105.04C140.458 105.04 141.198 105.346 141.744 105.891C142.29 106.435 142.596 107.174 142.596 107.944Z" fill="#F2F7FC"/>
<path d="M134.836 99.2314C133.807 99.2314 132.82 99.6394 132.092 100.366C131.365 101.092 130.956 102.077 130.956 103.104V122.466C130.956 123.493 131.365 124.478 132.092 125.204C132.82 125.931 133.807 126.339 134.836 126.339H158.117C159.146 126.339 160.132 125.931 160.86 125.204C161.588 124.478 161.997 123.493 161.997 122.466V103.104C161.997 102.077 161.588 101.092 160.86 100.366C160.132 99.6394 159.146 99.2314 158.117 99.2314H134.836ZM158.117 101.168C158.631 101.168 159.125 101.372 159.488 101.735C159.852 102.098 160.057 102.59 160.057 103.104V115.689L152.729 111.92C152.547 111.829 152.341 111.797 152.14 111.829C151.939 111.862 151.754 111.956 151.61 112.1L144.412 119.283L139.252 115.852C139.065 115.728 138.842 115.673 138.619 115.694C138.396 115.716 138.188 115.814 138.029 115.972L132.896 120.53V103.104C132.896 102.59 133.1 102.098 133.464 101.735C133.828 101.372 134.322 101.168 134.836 101.168H158.117Z" fill="white"/>
</g>
<g clip-path="url(#clip3_1248_13429)">
<path d="M220.679 267.199C221.322 267.199 221.939 267.454 222.394 267.907C222.848 268.361 223.104 268.977 223.104 269.619V281.72C223.104 282.362 222.848 282.978 222.394 283.432C221.939 283.886 221.322 284.141 220.679 284.141H191.578C190.935 284.141 190.318 283.886 189.864 283.432C189.409 282.978 189.153 282.362 189.153 281.72V269.619C189.153 268.977 189.409 268.361 189.864 267.907C190.318 267.454 190.935 267.199 191.578 267.199H220.679ZM191.578 264.778C190.292 264.778 189.058 265.288 188.149 266.196C187.239 267.104 186.728 268.335 186.728 269.619V281.72C186.728 283.004 187.239 284.235 188.149 285.143C189.058 286.051 190.292 286.561 191.578 286.561H220.679C221.965 286.561 223.199 286.051 224.108 285.143C225.018 284.235 225.529 283.004 225.529 281.72V269.619C225.529 268.335 225.018 267.104 224.108 266.196C223.199 265.288 221.965 264.778 220.679 264.778H191.578Z" fill="#F2F7FC"/>
<path d="M218.254 279.905C218.254 279.745 218.318 279.591 218.431 279.477C218.545 279.364 218.699 279.3 218.86 279.3H220.073C220.233 279.3 220.388 279.364 220.501 279.477C220.615 279.591 220.679 279.745 220.679 279.905V281.115C220.679 281.276 220.615 281.43 220.501 281.543C220.388 281.657 220.233 281.721 220.073 281.721H218.86C218.699 281.721 218.545 281.657 218.431 281.543C218.318 281.43 218.254 281.276 218.254 281.115V279.905ZM218.254 275.065C218.254 274.904 218.318 274.75 218.431 274.637C218.545 274.523 218.699 274.46 218.86 274.46H220.073C220.233 274.46 220.388 274.523 220.501 274.637C220.615 274.75 220.679 274.904 220.679 275.065V276.275C220.679 276.435 220.615 276.589 220.501 276.703C220.388 276.816 220.233 276.88 220.073 276.88H218.86C218.699 276.88 218.545 276.816 218.431 276.703C218.318 276.589 218.254 276.435 218.254 276.275V275.065ZM206.129 275.065C206.129 274.904 206.192 274.75 206.306 274.637C206.42 274.523 206.574 274.46 206.735 274.46H207.947C208.108 274.46 208.262 274.523 208.376 274.637C208.49 274.75 208.554 274.904 208.554 275.065V276.275C208.554 276.435 208.49 276.589 208.376 276.703C208.262 276.816 208.108 276.88 207.947 276.88H206.735C206.574 276.88 206.42 276.816 206.306 276.703C206.192 276.589 206.129 276.435 206.129 276.275V275.065ZM210.979 275.065C210.979 274.904 211.043 274.75 211.156 274.637C211.27 274.523 211.424 274.46 211.585 274.46H215.223C215.383 274.46 215.538 274.523 215.651 274.637C215.765 274.75 215.829 274.904 215.829 275.065V276.275C215.829 276.435 215.765 276.589 215.651 276.703C215.538 276.816 215.383 276.88 215.223 276.88H211.585C211.424 276.88 211.27 276.816 211.156 276.703C211.043 276.589 210.979 276.435 210.979 276.275V275.065ZM213.404 279.905C213.404 279.745 213.468 279.591 213.581 279.477C213.695 279.364 213.849 279.3 214.01 279.3H215.223C215.383 279.3 215.538 279.364 215.651 279.477C215.765 279.591 215.829 279.745 215.829 279.905V281.115C215.829 281.276 215.765 281.43 215.651 281.543C215.538 281.657 215.383 281.721 215.223 281.721H214.01C213.849 281.721 213.695 281.657 213.581 281.543C213.468 281.43 213.404 281.276 213.404 281.115V279.905ZM201.279 275.065C201.279 274.904 201.342 274.75 201.456 274.637C201.57 274.523 201.724 274.46 201.885 274.46H203.097C203.258 274.46 203.412 274.523 203.526 274.637C203.64 274.75 203.704 274.904 203.704 275.065V276.275C203.704 276.435 203.64 276.589 203.526 276.703C203.412 276.816 203.258 276.88 203.097 276.88H201.885C201.724 276.88 201.57 276.816 201.456 276.703C201.342 276.589 201.279 276.435 201.279 276.275V275.065ZM196.428 275.065C196.428 274.904 196.492 274.75 196.606 274.637C196.72 274.523 196.874 274.46 197.035 274.46H198.247C198.408 274.46 198.562 274.523 198.676 274.637C198.79 274.75 198.853 274.904 198.853 275.065V276.275C198.853 276.435 198.79 276.589 198.676 276.703C198.562 276.816 198.408 276.88 198.247 276.88H197.035C196.874 276.88 196.72 276.816 196.606 276.703C196.492 276.589 196.428 276.435 196.428 276.275V275.065ZM191.578 275.065C191.578 274.904 191.642 274.75 191.756 274.637C191.87 274.523 192.024 274.46 192.185 274.46H193.397C193.558 274.46 193.712 274.523 193.826 274.637C193.94 274.75 194.003 274.904 194.003 275.065V276.275C194.003 276.435 193.94 276.589 193.826 276.703C193.712 276.816 193.558 276.88 193.397 276.88H192.185C192.024 276.88 191.87 276.816 191.756 276.703C191.642 276.589 191.578 276.435 191.578 276.275V275.065ZM218.254 270.224C218.254 270.064 218.318 269.91 218.431 269.796C218.545 269.683 218.699 269.619 218.86 269.619H220.073C220.233 269.619 220.388 269.683 220.501 269.796C220.615 269.91 220.679 270.064 220.679 270.224V271.434C220.679 271.595 220.615 271.749 220.501 271.862C220.388 271.976 220.233 272.039 220.073 272.039H218.86C218.699 272.039 218.545 271.976 218.431 271.862C218.318 271.749 218.254 271.595 218.254 271.434V270.224ZM213.404 270.224C213.404 270.064 213.468 269.91 213.581 269.796C213.695 269.683 213.849 269.619 214.01 269.619H215.223C215.383 269.619 215.538 269.683 215.651 269.796C215.765 269.91 215.829 270.064 215.829 270.224V271.434C215.829 271.595 215.765 271.749 215.651 271.862C215.538 271.976 215.383 272.039 215.223 272.039H214.01C213.849 272.039 213.695 271.976 213.581 271.862C213.468 271.749 213.404 271.595 213.404 271.434V270.224ZM208.554 270.224C208.554 270.064 208.618 269.91 208.731 269.796C208.845 269.683 208.999 269.619 209.16 269.619H210.372C210.533 269.619 210.687 269.683 210.801 269.796C210.915 269.91 210.979 270.064 210.979 270.224V271.434C210.979 271.595 210.915 271.749 210.801 271.862C210.687 271.976 210.533 272.039 210.372 272.039H209.16C208.999 272.039 208.845 271.976 208.731 271.862C208.618 271.749 208.554 271.595 208.554 271.434V270.224ZM203.704 270.224C203.704 270.064 203.767 269.91 203.881 269.796C203.995 269.683 204.149 269.619 204.31 269.619H205.522C205.683 269.619 205.837 269.683 205.951 269.796C206.065 269.91 206.129 270.064 206.129 270.224V271.434C206.129 271.595 206.065 271.749 205.951 271.862C205.837 271.976 205.683 272.039 205.522 272.039H204.31C204.149 272.039 203.995 271.976 203.881 271.862C203.767 271.749 203.704 271.595 203.704 271.434V270.224ZM198.853 270.224C198.853 270.064 198.917 269.91 199.031 269.796C199.145 269.683 199.299 269.619 199.46 269.619H200.672C200.833 269.619 200.987 269.683 201.101 269.796C201.215 269.91 201.279 270.064 201.279 270.224V271.434C201.279 271.595 201.215 271.749 201.101 271.862C200.987 271.976 200.833 272.039 200.672 272.039H199.46C199.299 272.039 199.145 271.976 199.031 271.862C198.917 271.749 198.853 271.595 198.853 271.434V270.224ZM191.578 270.224C191.578 270.064 191.642 269.91 191.756 269.796C191.87 269.683 192.024 269.619 192.185 269.619H195.822C195.983 269.619 196.137 269.683 196.251 269.796C196.365 269.91 196.428 270.064 196.428 270.224V271.434C196.428 271.595 196.365 271.749 196.251 271.862C196.137 271.976 195.983 272.039 195.822 272.039H192.185C192.024 272.039 191.87 271.976 191.756 271.862C191.642 271.749 191.578 271.595 191.578 271.434V270.224ZM191.578 279.905C191.578 279.745 191.642 279.591 191.756 279.477C191.87 279.364 192.024 279.3 192.185 279.3H193.397C193.558 279.3 193.712 279.364 193.826 279.477C193.94 279.591 194.003 279.745 194.003 279.905V281.115C194.003 281.276 193.94 281.43 193.826 281.543C193.712 281.657 193.558 281.721 193.397 281.721H192.185C192.024 281.721 191.87 281.657 191.756 281.543C191.642 281.43 191.578 281.276 191.578 281.115V279.905ZM196.428 279.905C196.428 279.745 196.492 279.591 196.606 279.477C196.72 279.364 196.874 279.3 197.035 279.3H210.372C210.533 279.3 210.687 279.364 210.801 279.477C210.915 279.591 210.979 279.745 210.979 279.905V281.115C210.979 281.276 210.915 281.43 210.801 281.543C210.687 281.657 210.533 281.721 210.372 281.721H197.035C196.874 281.721 196.72 281.657 196.606 281.543C196.492 281.43 196.428 281.276 196.428 281.115V279.905Z" fill="white"/>
</g>
<g clip-path="url(#clip4_1248_13429)">
<path d="M298.204 172.173C294.333 172.173 290.621 173.707 287.884 176.439C285.146 179.171 283.609 182.876 283.609 186.74V209.552C283.609 211.412 284.263 213.214 285.458 214.642C286.652 216.07 288.312 217.034 290.146 217.366C291.98 217.698 293.873 217.376 295.494 216.457C297.115 215.539 298.361 214.081 299.015 212.339L300.676 207.927C301.314 206.227 302.206 204.634 303.323 203.201L309.836 194.846C311.453 192.769 312.454 190.282 312.725 187.666C312.996 185.05 312.526 182.411 311.368 180.049C310.21 177.686 308.411 175.696 306.176 174.303C303.94 172.911 301.358 172.173 298.723 172.173H298.204ZM280.365 186.74C280.365 182.018 282.245 177.489 285.59 174.15C288.936 170.811 293.473 168.936 298.204 168.936H298.723C301.966 168.936 305.142 169.844 307.893 171.558C310.643 173.271 312.856 175.72 314.281 178.627C315.705 181.534 316.284 184.781 315.95 188C315.617 191.218 314.385 194.279 312.395 196.833L305.882 205.188C304.966 206.363 304.233 207.669 303.709 209.063L302.054 213.475C301.135 215.929 299.38 217.982 297.098 219.276C294.816 220.571 292.151 221.024 289.568 220.556C286.985 220.089 284.648 218.731 282.966 216.72C281.284 214.709 280.364 212.172 280.365 209.552V186.74ZM298.204 181.884C296.914 181.884 295.677 182.396 294.764 183.306C293.852 184.217 293.339 185.452 293.339 186.74V195.464C293.702 195.27 294.063 195.066 294.416 194.842C295.477 194.169 296.288 193.418 296.751 192.489C296.944 192.105 297.282 191.813 297.69 191.677C298.099 191.541 298.544 191.573 298.929 191.765C299.314 191.958 299.607 192.295 299.743 192.702C299.879 193.11 299.847 193.555 299.654 193.939C298.824 195.6 297.471 196.739 296.155 197.574C295.246 198.131 294.306 198.635 293.339 199.083V206.163C293.339 206.592 293.168 207.003 292.864 207.307C292.56 207.611 292.148 207.781 291.717 207.781C291.287 207.781 290.875 207.611 290.571 207.307C290.267 207.003 290.096 206.592 290.096 206.163V186.74C290.096 184.593 290.95 182.535 292.471 181.017C293.991 179.5 296.054 178.647 298.204 178.647C300.355 178.647 302.418 179.5 303.938 181.017C305.459 182.535 306.313 184.593 306.313 186.74V188.358C306.313 188.788 306.142 189.199 305.838 189.503C305.534 189.806 305.122 189.977 304.691 189.977C304.261 189.977 303.849 189.806 303.545 189.503C303.241 189.199 303.07 188.788 303.07 188.358V186.74C303.07 185.452 302.557 184.217 301.645 183.306C300.732 182.396 299.495 181.884 298.204 181.884Z" fill="white"/>
</g>
<g clip-path="url(#clip5_1248_13429)">
<path d="M273.545 120.046C273.545 120.046 264.633 103.739 249.779 103.739C234.926 103.739 226.014 120.046 226.014 120.046C226.014 120.046 234.926 136.353 249.779 136.353C264.633 136.353 273.545 120.046 273.545 120.046ZM229.499 120.046C230.935 117.867 232.587 115.838 234.43 113.989C238.253 110.167 243.481 106.704 249.779 106.704C256.077 106.704 261.303 110.167 265.132 113.989C266.975 115.838 268.627 117.867 270.063 120.046C269.891 120.304 269.701 120.588 269.484 120.9C268.489 122.323 267.018 124.22 265.132 126.103C261.303 129.925 256.074 133.388 249.779 133.388C243.481 133.388 238.256 129.925 234.427 126.103C232.584 124.254 230.935 122.225 229.499 120.046Z" fill="white"/>
<path d="M249.779 112.634C247.81 112.634 245.921 113.415 244.528 114.805C243.135 116.195 242.353 118.08 242.353 120.046C242.353 122.012 243.135 123.897 244.528 125.287C245.921 126.677 247.81 127.458 249.779 127.458C251.749 127.458 253.638 126.677 255.031 125.287C256.423 123.897 257.206 122.012 257.206 120.046C257.206 118.08 256.423 116.195 255.031 114.805C253.638 113.415 251.749 112.634 249.779 112.634ZM239.382 120.046C239.382 117.294 240.477 114.654 242.427 112.708C244.377 110.762 247.022 109.669 249.779 109.669C252.537 109.669 255.181 110.762 257.131 112.708C259.081 114.654 260.177 117.294 260.177 120.046C260.177 122.798 259.081 125.437 257.131 127.384C255.181 129.33 252.537 130.423 249.779 130.423C247.022 130.423 244.377 129.33 242.427 127.384C240.477 125.437 239.382 122.798 239.382 120.046Z" fill="white"/>
</g>
<g clip-path="url(#clip6_1248_13429)">
<path d="M111.916 237.671C112.398 237.671 112.861 237.863 113.202 238.203C113.543 238.543 113.735 239.005 113.735 239.486V254.613C113.735 254.934 113.862 255.242 114.09 255.469C114.317 255.696 114.625 255.823 114.947 255.823C115.269 255.823 115.577 255.696 115.804 255.469C116.032 255.242 116.16 254.934 116.16 254.613V248.483L116.368 248.473C117.137 248.444 117.913 248.454 118.347 248.538C118.672 248.604 119.06 248.771 119.433 248.979C119.62 249.08 119.797 249.335 119.797 249.739V254.613C119.797 254.934 119.925 255.242 120.152 255.469C120.38 255.696 120.688 255.823 121.01 255.823C121.331 255.823 121.64 255.696 121.867 255.469C122.094 255.242 122.222 254.934 122.222 254.613V250.825C122.308 250.816 122.393 250.808 122.479 250.801C123.246 250.743 123.895 250.777 124.196 250.898C124.482 251.009 124.924 251.399 125.375 251.939C125.571 252.171 125.738 252.399 125.86 252.566V255.823C125.86 256.144 125.987 256.452 126.215 256.679C126.442 256.906 126.751 257.034 127.072 257.034C127.394 257.034 127.702 256.906 127.93 256.679C128.157 256.452 128.285 256.144 128.285 255.823V253.403H129.114C129.453 253.403 129.788 253.474 130.098 253.611C130.408 253.748 130.685 253.949 130.913 254.2C131.14 254.451 131.312 254.746 131.418 255.068C131.524 255.389 131.561 255.729 131.527 256.065L130.87 262.636C130.785 263.481 130.523 264.298 130.101 265.035L126.718 270.945C126.612 271.131 126.459 271.284 126.274 271.392C126.089 271.499 125.879 271.555 125.666 271.555H110.182C109.982 271.555 109.786 271.506 109.61 271.412C109.434 271.317 109.284 271.181 109.173 271.015L105.698 265.812C105.375 265.329 105.173 264.777 105.109 264.2L104.272 256.685C104.238 256.384 104.319 256.081 104.498 255.836C104.677 255.592 104.942 255.423 105.24 255.364L107.672 254.879V257.034C107.672 257.354 107.8 257.662 108.027 257.889C108.254 258.116 108.563 258.244 108.884 258.244C109.206 258.244 109.514 258.116 109.742 257.889C109.969 257.662 110.097 257.354 110.097 257.034V239.486C110.097 239.005 110.289 238.543 110.63 238.203C110.971 237.863 111.433 237.671 111.916 237.671ZM116.16 246.06V239.486C116.16 238.363 115.712 237.286 114.917 236.492C114.121 235.697 113.041 235.251 111.916 235.251C110.79 235.251 109.711 235.697 108.915 236.492C108.119 237.286 107.672 238.363 107.672 239.486V252.411L104.762 252.992C103.87 253.17 103.077 253.676 102.54 254.409C102.003 255.142 101.761 256.049 101.862 256.951L102.698 264.469C102.806 265.43 103.143 266.351 103.68 267.155L107.155 272.359C107.488 272.856 107.938 273.264 108.465 273.546C108.993 273.828 109.583 273.975 110.182 273.975H125.666C126.307 273.975 126.937 273.806 127.491 273.485C128.046 273.163 128.505 272.701 128.823 272.146L132.206 266.238C132.797 265.205 133.164 264.06 133.283 262.876L133.94 256.305C134.007 255.632 133.933 254.953 133.721 254.31C133.509 253.668 133.165 253.077 132.71 252.575C132.255 252.074 131.701 251.673 131.081 251.399C130.462 251.125 129.792 250.983 129.114 250.983H127.705C127.554 250.778 127.396 250.578 127.232 250.383C126.769 249.828 125.996 249.008 125.098 248.65C124.216 248.296 123.047 248.33 122.29 248.388L121.97 248.417C121.712 247.758 121.232 247.208 120.612 246.863C120.054 246.542 119.451 246.307 118.822 246.166C118.07 246.016 117.03 246.026 116.276 246.055L116.16 246.06Z" fill="white"/>
</g>
<path d="M165 220.988H175.997L181.997 190.994H185.994L191.994 220.988H202.991L193.994 178.994H208.991V168.997H159V178.994H173.997L165 220.988Z" fill="#0066CC"/>
<path d="M183.997 165C188.415 165 191.997 161.418 191.997 157C191.997 152.582 188.415 149 183.997 149C179.579 149 175.997 152.582 175.997 157C175.997 161.418 179.579 165 183.997 165Z" fill="#0066CC"/>
</g>
<defs>
<linearGradient id="paint0_linear_1248_13429" x1="30.6719" y1="143.804" x2="145.653" y2="143.804" gradientUnits="userSpaceOnUse">
<stop stop-color="#207AD5"/>
<stop offset="1" stop-color="#E9EFFD"/>
</linearGradient>
<linearGradient id="paint1_linear_1248_13429" x1="240.33" y1="177.999" x2="333.646" y2="375.291" gradientUnits="userSpaceOnUse">
<stop stop-color="#09005D"/>
<stop offset="1" stop-color="#1A0F91"/>
</linearGradient>
<linearGradient id="paint2_linear_1248_13429" x1="184.129" y1="-191.315" x2="215.539" y2="-71.2334" gradientUnits="userSpaceOnUse">
<stop stop-color="#09005D"/>
<stop offset="1" stop-color="#1A0F91"/>
</linearGradient>
<linearGradient id="paint3_linear_1248_13429" x1="365.682" y1="294.437" x2="346.456" y2="294.437" gradientUnits="userSpaceOnUse">
<stop stop-color="#FEBBBA"/>
<stop offset="1" stop-color="#FF928E"/>
</linearGradient>
<linearGradient id="paint4_linear_1248_13429" x1="342.338" y1="376.784" x2="345.083" y2="400.775" gradientUnits="userSpaceOnUse">
<stop stop-color="#FEBBBA"/>
<stop offset="1" stop-color="#FF928E"/>
</linearGradient>
<linearGradient id="paint5_linear_1248_13429" x1="160.795" y1="-185.204" x2="192.204" y2="-65.1278" gradientUnits="userSpaceOnUse">
<stop stop-color="#09005D"/>
<stop offset="1" stop-color="#1A0F91"/>
</linearGradient>
<linearGradient id="paint6_linear_1248_13429" x1="319.907" y1="379.35" x2="322.651" y2="403.341" gradientUnits="userSpaceOnUse">
<stop stop-color="#FEBBBA"/>
<stop offset="1" stop-color="#FF928E"/>
</linearGradient>
<linearGradient id="paint7_linear_1248_13429" x1="336.213" y1="221.354" x2="347.467" y2="270.093" gradientUnits="userSpaceOnUse">
<stop stop-color="#FEBBBA"/>
<stop offset="1" stop-color="#FF928E"/>
</linearGradient>
<linearGradient id="paint8_linear_1248_13429" x1="338.016" y1="212.812" x2="332.857" y2="243.255" gradientUnits="userSpaceOnUse">
<stop stop-color="#FEBBBA"/>
<stop offset="1" stop-color="#FF928E"/>
</linearGradient>
<linearGradient id="paint9_linear_1248_13429" x1="342.517" y1="246.037" x2="343.435" y2="224.663" gradientUnits="userSpaceOnUse">
<stop stop-color="#FEBBBA"/>
<stop offset="1" stop-color="#FF928E"/>
</linearGradient>
<linearGradient id="paint10_linear_1248_13429" x1="268.215" y1="203.957" x2="279.552" y2="241.077" gradientUnits="userSpaceOnUse">
<stop stop-color="#FEBBBA"/>
<stop offset="1" stop-color="#FF928E"/>
</linearGradient>
<linearGradient id="paint11_linear_1248_13429" x1="263.786" y1="205.307" x2="275.124" y2="242.432" gradientUnits="userSpaceOnUse">
<stop stop-color="#FEBBBA"/>
<stop offset="1" stop-color="#FF928E"/>
</linearGradient>
<linearGradient id="paint12_linear_1248_13429" x1="115.189" y1="311.549" x2="63.8137" y2="340.931" gradientUnits="userSpaceOnUse">
<stop stop-color="#C4421B"/>
<stop offset="1" stop-color="#5C0E16"/>
</linearGradient>
<linearGradient id="paint13_linear_1248_13429" x1="110.213" y1="318.853" x2="285.97" y2="208.608" gradientUnits="userSpaceOnUse">
<stop stop-color="#C4421B"/>
<stop offset="1" stop-color="#5C0E16"/>
</linearGradient>
<linearGradient id="paint14_linear_1248_13429" x1="25.1187" y1="294.659" x2="-26.1079" y2="294.659" gradientUnits="userSpaceOnUse">
<stop stop-color="#C4421B"/>
<stop offset="1" stop-color="#5C0E16"/>
</linearGradient>
<linearGradient id="paint15_linear_1248_13429" x1="55.9263" y1="231.248" x2="35.6104" y2="260.973" gradientUnits="userSpaceOnUse">
<stop stop-color="#C4421B"/>
<stop offset="1" stop-color="#5C0E16"/>
</linearGradient>
<linearGradient id="paint16_linear_1248_13429" x1="44.3174" y1="254.667" x2="66.539" y2="212.052" gradientUnits="userSpaceOnUse">
<stop stop-color="#C4421B"/>
<stop offset="1" stop-color="#5C0E16"/>
</linearGradient>
<linearGradient id="paint17_linear_1248_13429" x1="39.2124" y1="252.007" x2="61.4341" y2="209.392" gradientUnits="userSpaceOnUse">
<stop stop-color="#C4421B"/>
<stop offset="1" stop-color="#5C0E16"/>
</linearGradient>
<linearGradient id="paint18_linear_1248_13429" x1="27.3376" y1="293.888" x2="53.7335" y2="302.564" gradientUnits="userSpaceOnUse">
<stop stop-color="#09005D"/>
<stop offset="1" stop-color="#1A0F91"/>
</linearGradient>
<linearGradient id="paint19_linear_1248_13429" x1="97.0212" y1="289.766" x2="-143.997" y2="269.448" gradientUnits="userSpaceOnUse">
<stop stop-color="#09005D"/>
<stop offset="1" stop-color="#1A0F91"/>
</linearGradient>
<linearGradient id="paint20_linear_1248_13429" x1="40.5952" y1="37.7321" x2="60.4805" y2="37.7321" gradientUnits="userSpaceOnUse">
<stop stop-color="#4F52FF"/>
<stop offset="1" stop-color="#4042E2"/>
</linearGradient>
<linearGradient id="paint21_linear_1248_13429" x1="55.2327" y1="41.7067" x2="60.4555" y2="77.5201" gradientUnits="userSpaceOnUse">
<stop stop-color="#FEBBBA"/>
<stop offset="1" stop-color="#FF928E"/>
</linearGradient>
<linearGradient id="paint22_linear_1248_13429" x1="7.04222" y1="53.3965" x2="30.0995" y2="53.3965" gradientUnits="userSpaceOnUse">
<stop stop-color="#4F52FF"/>
<stop offset="1" stop-color="#4042E2"/>
</linearGradient>
<linearGradient id="paint23_linear_1248_13429" x1="28.8095" y1="45.5598" x2="34.0371" y2="81.3732" gradientUnits="userSpaceOnUse">
<stop stop-color="#FEBBBA"/>
<stop offset="1" stop-color="#FF928E"/>
</linearGradient>
<linearGradient id="paint24_linear_1248_13429" x1="152.826" y1="58.5711" x2="161.416" y2="58.5711" gradientUnits="userSpaceOnUse">
<stop stop-color="#FEBBBA"/>
<stop offset="1" stop-color="#FF928E"/>
</linearGradient>
<linearGradient id="paint25_linear_1248_13429" x1="153.524" y1="72.2985" x2="163.554" y2="72.2985" gradientUnits="userSpaceOnUse">
<stop stop-color="#FEBBBA"/>
<stop offset="1" stop-color="#FF928E"/>
</linearGradient>
<linearGradient id="paint26_linear_1248_13429" x1="136.99" y1="57.8587" x2="150.925" y2="57.8587" gradientUnits="userSpaceOnUse">
<stop stop-color="#FEBBBA"/>
<stop offset="1" stop-color="#FF928E"/>
</linearGradient>
<linearGradient id="paint27_linear_1248_13429" x1="181.679" y1="85.6197" x2="144.374" y2="116.681" gradientUnits="userSpaceOnUse">
<stop stop-color="#FEBBBA"/>
<stop offset="1" stop-color="#FF928E"/>
</linearGradient>
<linearGradient id="paint28_linear_1248_13429" x1="154.703" y1="56.9927" x2="149.75" y2="40.6213" gradientUnits="userSpaceOnUse">
<stop stop-color="#FEBBBA"/>
<stop offset="1" stop-color="#FF928E"/>
</linearGradient>
<linearGradient id="paint29_linear_1248_13429" x1="149.552" y1="58.5468" x2="144.599" y2="42.1803" gradientUnits="userSpaceOnUse">
<stop stop-color="#FEBBBA"/>
<stop offset="1" stop-color="#FF928E"/>
</linearGradient>
<linearGradient id="paint30_linear_1248_13429" x1="173.681" y1="76.0162" x2="136.376" y2="107.078" gradientUnits="userSpaceOnUse">
<stop stop-color="#FEBBBA"/>
<stop offset="1" stop-color="#FF928E"/>
</linearGradient>
<linearGradient id="paint31_linear_1248_13429" x1="145.307" y1="87.5219" x2="173.729" y2="96.8623" gradientUnits="userSpaceOnUse">
<stop stop-color="#09005D"/>
<stop offset="1" stop-color="#1A0F91"/>
</linearGradient>
<linearGradient id="paint32_linear_1248_13429" x1="184.449" y1="69.0362" x2="204.883" y2="90.6749" gradientUnits="userSpaceOnUse">
<stop stop-color="#09005D"/>
<stop offset="1" stop-color="#1A0F91"/>
</linearGradient>
<clipPath id="clip0_1248_13429">
<rect width="401" height="400" fill="white"/>
</clipPath>
<clipPath id="clip1_1248_13429">
<rect width="38.8007" height="38.7245" fill="white" transform="translate(66.446 152.478)"/>
</clipPath>
<clipPath id="clip2_1248_13429">
<rect width="31.0405" height="30.9796" fill="white" transform="translate(130.952 97.2949)"/>
</clipPath>
<clipPath id="clip3_1248_13429">
<rect width="38.8007" height="38.7245" fill="white" transform="translate(186.728 255.098)"/>
</clipPath>
<clipPath id="clip4_1248_13429">
<rect width="51.8959" height="51.794" fill="white" transform="translate(270.635 168.936)"/>
</clipPath>
<clipPath id="clip5_1248_13429">
<rect width="47.5308" height="47.4375" fill="white" transform="translate(226.014 96.3271)"/>
</clipPath>
<clipPath id="clip6_1248_13429">
<rect width="38.8007" height="38.7245" fill="white" transform="translate(95.5466 235.251)"/>
</clipPath>
</defs>
</svg>
