<svg width="44" height="54" viewBox="0 0 44 54" fill="none" xmlns="http://www.w3.org/2000/svg">
<path d="M4.64165 53.6654C3.4485 53.6654 2.43225 53.2457 1.59292 52.4064C0.753629 51.567 0.333984 50.5508 0.333984 49.3577V4.6397C0.333984 3.44654 0.753629 2.4303 1.59292 1.59096C2.43225 0.751674 3.4485 0.332031 4.64165 0.332031H28.0263C29.2195 0.332031 30.2357 0.751674 31.0751 1.59096C31.9143 2.4303 32.334 3.44654 32.334 4.6397V13.4602H29.6673V9.66536H3.00065V44.332H29.6673V40.5372H32.334V49.3577C32.334 50.5509 31.9143 51.5671 31.0751 52.4064C30.2357 53.2457 29.2195 53.6654 28.0263 53.6654H4.64165ZM3.00065 46.9987V49.3577C3.00065 49.7679 3.17158 50.144 3.51345 50.4859C3.85536 50.8278 4.23143 50.9987 4.64165 50.9987H28.0263C28.4365 50.9987 28.8126 50.8278 29.1545 50.4859C29.4964 50.144 29.6673 49.7679 29.6673 49.3577V46.9987H3.00065ZM26.8673 35.8192L17.3801 26.332L19.2673 24.4448L26.8673 32.0448L42.0365 16.8756L43.9237 18.7628L26.8673 35.8192ZM3.00065 6.9987H29.6673V4.6397C29.6673 4.22948 29.4964 3.85341 29.1545 3.5115C28.8126 3.16963 28.4365 2.9987 28.0263 2.9987H4.64165C4.23143 2.9987 3.85536 3.16963 3.51345 3.5115C3.17158 3.85341 3.00065 4.22948 3.00065 4.6397V6.9987Z" fill="#0066CC"/>
</svg>
