<svg width="99" height="98" viewBox="0 0 99 98" fill="none" xmlns="http://www.w3.org/2000/svg">
<g clip-path="url(#clip0_2107_8903)">
<path d="M77.9143 29.7016V73.838M21.1234 74.3028V5.13618C21.1234 3.36197 22.5723 1.91309 24.3465 1.91309H50.123M87.9171 40.1528V77.1978C87.9171 79.3055 86.1046 81.1207 83.9969 81.1207H15.0435M15.0435 81.1207C12.9331 81.1207 11.1234 79.3575 11.1234 77.1978M15.0435 81.1207C12.9112 81.1207 11.1234 79.3055 11.1234 77.1978M15.0435 81.1207H83.9996C86.1374 81.1207 87.9198 79.3575 87.9198 77.1978V31.1779C87.9198 29.0209 86.121 27.2577 83.9996 27.2577H83.5622M11.1234 77.1978V31.1779C11.1234 29.0209 12.8866 27.2577 15.0435 27.2577H15.593M11.1234 77.1978V40.1528M88.5923 86.8671L96.9822 94.5325C97.4333 95.123 96.3042 95.8748 95.5169 95.8748H3.51806C2.77448 95.8748 1.48415 95.0546 2.05277 94.5325L10.4454 86.8671M77.9143 22.9219H60.1285C58.3543 22.9219 56.9055 21.4731 56.9055 19.6989V1.91309L77.9143 22.9219Z" stroke="#2F475E" stroke-width="3.82725" stroke-linecap="round" stroke-linejoin="round"/>
<path d="M29.9131 34.3795L33.2155 38.6906L39.9623 29.959" stroke="#0066CC" stroke-width="3.82725" stroke-linecap="round" stroke-linejoin="round"/>
<path d="M47.458 35.2021H69.1284" stroke="#0066CC" stroke-width="3.82725" stroke-linecap="round" stroke-linejoin="round"/>
<path d="M29.9131 48.1656L33.2155 52.4767L39.9623 43.7451" stroke="#09AFA9" stroke-width="3.82725" stroke-linecap="round" stroke-linejoin="round"/>
<path d="M47.458 48.9863H69.1284" stroke="#09AFA9" stroke-width="3.82725" stroke-linecap="round" stroke-linejoin="round"/>
<path d="M29.8145 61.8531L33.1168 66.1642L39.8637 57.4326" stroke="#0066CC" stroke-width="3.82725" stroke-linecap="round" stroke-linejoin="round"/>
<path d="M47.3604 62.6738H69.0335" stroke="#0066CC" stroke-width="3.82725" stroke-linecap="round" stroke-linejoin="round"/>
</g>
<defs>
<clipPath id="clip0_2107_8903">
<rect width="99" height="97.7889" fill="white"/>
</clipPath>
</defs>
</svg>
