<svg width="48" height="60" viewBox="0 0 48 60" fill="none" xmlns="http://www.w3.org/2000/svg">
<path fill-rule="evenodd" clip-rule="evenodd" d="M34.875 0.833984H10.9583C8.54209 0.833984 6.58333 2.79274 6.58333 5.20898L6.58333 41.6673H9.5V5.20898C9.5 4.40357 10.1529 3.75065 10.9583 3.75065H32.8333V11.0423C32.8333 13.4586 34.7921 15.4173 37.2083 15.4173H44.5V54.7923C44.5 55.5977 43.8471 56.2507 43.0417 56.2507L38.6667 56.2507V59.1673L43.0417 59.1673C45.4579 59.1673 47.4167 57.2086 47.4167 54.7923V13.3757L34.875 0.833984ZM35.75 5.79289L42.4583 12.5012H37.2083C36.4029 12.5012 35.75 11.8483 35.75 11.0429V5.79289ZM6.45841 54.921H3.90104V59.1673H0.75V44.584H6.45841C10.1422 44.584 11.9841 46.2711 11.9841 49.6453C11.9841 51.3467 11.5123 52.6549 10.5685 53.5699C9.63989 54.4706 8.26988 54.921 6.45841 54.921ZM3.90104 52.3904H6.43557C8.00348 52.3904 8.78744 51.4753 8.78744 49.6453C8.78744 48.7445 8.59716 48.1011 8.2166 47.7151C7.83604 47.3148 7.24236 47.1146 6.43557 47.1146H3.90104V52.3904ZM19.4249 59.1673H14.196V44.584H19.4249C20.7645 44.584 21.8681 44.7198 22.7358 44.9915C23.6034 45.2488 24.2732 45.6849 24.7451 46.2997C25.2322 46.9002 25.5671 47.615 25.7498 48.4443C25.9325 49.2592 26.0238 50.3244 26.0238 51.6397C26.0238 52.9551 25.9401 54.0489 25.7726 54.921C25.6052 55.7788 25.2855 56.5509 24.8136 57.2372C24.3569 57.9092 23.6872 58.4024 22.8043 58.717C21.9214 59.0172 20.7949 59.1673 19.4249 59.1673ZM22.7358 53.3769C22.7662 52.9194 22.7814 52.2903 22.7814 51.4896C22.7814 50.6747 22.751 50.0241 22.6901 49.538C22.6292 49.0519 22.4846 48.6087 22.2562 48.2084C22.0279 47.808 21.6854 47.5364 21.2287 47.3934C20.7873 47.2362 20.186 47.1575 19.4249 47.1575H17.347V56.5938H19.4249C20.5666 56.5938 21.3962 56.3221 21.9137 55.7788C22.3552 55.3356 22.6292 54.535 22.7358 53.3769ZM28.7569 44.584V59.1673H31.9079V54.0203H37.4337V51.4467H31.9079V47.1575H38.6667V44.584H28.7569Z" fill="#0066CC"/>
</svg>
