<svg width="54" height="54" viewBox="0 0 44 44" fill="none" xmlns="http://www.w3.org/2000/svg">
<path d="M0.666992 39.026V18.308C0.666992 17.1148 1.08664 16.0986 1.92593 15.2593C2.76526 14.42 3.7815 14.0003 4.97466 14.0003H14.0003V4.97466C14.0003 3.7815 14.42 2.76526 15.2593 1.92592C16.0986 1.08663 17.1148 0.666992 18.308 0.666992H39.026C40.2192 0.666992 41.2354 1.08663 42.0747 1.92592C42.914 2.76526 43.3337 3.7815 43.3337 4.97466V39.026C43.3337 40.2192 42.914 41.2354 42.0747 42.0747C41.2354 42.914 40.2192 43.3337 39.026 43.3337H4.97466C3.7815 43.3337 2.76526 42.914 1.92593 42.0747C1.08664 41.2354 0.666992 40.2192 0.666992 39.026ZM31.6413 40.667H39.026C39.5046 40.667 39.8978 40.5132 40.2055 40.2055C40.5132 39.8978 40.667 39.5046 40.667 39.026V4.97466C40.667 4.49604 40.5132 4.10288 40.2055 3.79519C39.8978 3.4875 39.5046 3.33366 39.026 3.33366H18.308C17.8294 3.33366 17.4362 3.4875 17.1285 3.79519C16.8208 4.10288 16.667 4.49604 16.667 4.97466V14.0003H25.6927C26.8858 14.0003 27.9021 14.42 28.7414 15.2593C29.5807 16.0986 30.0003 17.1148 30.0003 18.308V39.026C30.0003 39.5046 30.1542 39.8978 30.4619 40.2055C30.7695 40.5132 31.1627 40.667 31.6413 40.667ZM16.667 40.667H27.3337V18.308C27.3337 17.8294 27.1798 17.4362 26.8721 17.1285C26.5644 16.8208 26.1713 16.667 25.6927 16.667H16.667V40.667ZM4.97466 40.667H14.0003V16.667H4.97466C4.49604 16.667 4.10288 16.8208 3.79519 17.1285C3.4875 17.4362 3.33366 17.8294 3.33366 18.308V39.026C3.33366 39.5046 3.4875 39.8978 3.79519 40.2055C4.10288 40.5132 4.49604 40.667 4.97466 40.667Z" fill="#0066CC"/>
</svg>
