<svg width="32" height="33" viewBox="0 0 32 33" fill="none" xmlns="http://www.w3.org/2000/svg">
<mask id="mask0_2382_11514" style="mask-type:alpha" maskUnits="userSpaceOnUse" x="0" y="0" width="32" height="33">
<rect y="0.789062" width="32" height="32" fill="#D9D9D9"/>
</mask>
<g mask="url(#mask0_2382_11514)">
<path d="M14.3026 27.3173C13.6803 26.4814 13.1209 25.5365 12.6244 24.4827C12.1278 23.4288 11.7367 22.3515 11.4513 21.2506H6.33847C7.11967 22.9258 8.1859 24.2814 9.53717 25.3173C10.8885 26.3532 12.4769 27.0198 14.3026 27.3173ZM5.79487 19.9173H11.1744C11.0735 19.3703 11.0021 18.8374 10.9603 18.3186C10.9184 17.7997 10.8974 17.2899 10.8974 16.7891C10.8974 16.2882 10.9184 15.7784 10.9603 15.2596C11.0021 14.7408 11.0735 14.2079 11.1744 13.6609H5.79487C5.64958 14.1224 5.53633 14.6254 5.45513 15.1698C5.37393 15.7143 5.33333 16.254 5.33333 16.7891C5.33333 17.3241 5.37393 17.8639 5.45513 18.4083C5.53633 18.9527 5.64958 19.4557 5.79487 19.9173ZM6.33847 12.3275H11.4513C11.7026 11.2096 12.085 10.1109 12.5987 9.03136C13.1124 7.95187 13.6803 7.02837 14.3026 6.26086C12.5624 6.52411 10.991 7.1865 9.58847 8.24803C8.18591 9.30956 7.10258 10.6694 6.33847 12.3275ZM12.8256 12.3275H19.1744C18.8564 11.1275 18.4436 10.0429 17.9359 9.07366C17.4282 8.10444 16.7829 7.11726 16 6.11213C15.2171 7.04889 14.5803 8.00187 14.0897 8.9711C13.5991 9.94034 13.1778 11.0592 12.8256 12.3275ZM20.5487 12.3275H25.6615C24.8974 10.6694 23.8141 9.3053 22.4115 8.23523C21.009 7.16514 19.4376 6.50702 17.6974 6.26086C18.2342 7.01128 18.7594 7.92624 19.2731 9.00573C19.7868 10.0852 20.212 11.1925 20.5487 12.3275ZM16 28.7891C14.3487 28.7891 12.7932 28.4733 11.3333 27.8416C9.87351 27.21 8.60214 26.3527 7.51923 25.2698C6.43632 24.1869 5.57906 22.9156 4.94743 21.4557C4.31581 19.9959 4 18.4404 4 16.7891C4 15.1326 4.31581 13.5758 4.94743 12.1186C5.57906 10.6613 6.43632 9.39121 7.51923 8.3083C8.60214 7.22539 9.87351 6.36812 11.3333 5.73649C12.7932 5.10487 14.3487 4.78906 16 4.78906C17.6564 4.78906 19.2133 5.10487 20.6705 5.73649C22.1278 6.36812 23.3979 7.22539 24.4808 8.3083C25.5637 9.39121 26.4209 10.6613 27.0526 12.1186C27.6842 13.5758 28 15.1326 28 16.7891C28 17.0284 27.9944 17.2762 27.9833 17.5327C27.9722 17.7891 27.947 18.0369 27.9077 18.2762H26.541C26.5855 18.0369 26.6175 17.7903 26.6372 17.5365C26.6568 17.2827 26.6667 17.0335 26.6667 16.7891C26.6667 16.254 26.6261 15.7143 26.5449 15.1698C26.4637 14.6254 26.3504 14.1224 26.2051 13.6609H20.8256C20.9265 14.2079 20.9979 14.7408 21.0398 15.2596C21.0816 15.7784 21.1026 16.2882 21.1026 16.7891C21.1026 17.0335 21.0983 17.2784 21.0898 17.5237C21.0812 17.769 21.0658 18.0198 21.0436 18.2762H19.7103C19.7325 18.0369 19.7479 17.7903 19.7564 17.5365C19.765 17.2827 19.7692 17.0335 19.7692 16.7891C19.7692 16.254 19.7483 15.7356 19.7064 15.2339C19.6645 14.7322 19.5932 14.2079 19.4923 13.6609H12.5077C12.4068 14.2079 12.3355 14.7322 12.2936 15.2339C12.2517 15.7356 12.2308 16.254 12.2308 16.7891C12.2308 17.3241 12.2517 17.8425 12.2936 18.3442C12.3355 18.8459 12.4068 19.3703 12.5077 19.9173H17.4872V21.2506H12.8256C13.1778 22.5019 13.612 23.6335 14.1282 24.6455C14.6444 25.6574 15.2684 26.5976 16 27.466C16.2786 27.1275 16.5376 26.7792 16.7769 26.4211C17.0162 26.063 17.253 25.695 17.4872 25.3173V28.6968C17.2479 28.7361 17.0013 28.7613 16.7474 28.7724C16.4936 28.7835 16.2444 28.7891 16 28.7891ZM26.6 28.3404L22 23.7404V27.6557H20.6667V21.4557H26.8667V22.7891H22.918L27.518 27.3891L26.6 28.3404Z" fill="#0066CC"/>
</g>
</svg>
