<svg width="64" height="64" viewBox="0 0 64 66" fill="none" xmlns="http://www.w3.org/2000/svg">
<path d="M18 24.4801C19.1046 24.4801 20 23.5667 20 22.4401C20 21.3134 19.1046 20.4001 18 20.4001C16.8954 20.4001 16 21.3134 16 22.4401C16 23.5667 16.8954 24.4801 18 24.4801Z" fill="#0066CC"/>
<path d="M24 24.4801C25.1046 24.4801 26 23.5667 26 22.4401C26 21.3134 25.1046 20.4001 24 20.4001C22.8954 20.4001 22 21.3134 22 22.4401C22 23.5667 22.8954 24.4801 24 24.4801Z" fill="#0066CC"/>
<path d="M32 22.4401C32 23.5667 31.1046 24.4801 30 24.4801C28.8954 24.4801 28 23.5667 28 22.4401C28 21.3134 28.8954 20.4001 30 20.4001C31.1046 20.4001 32 21.3134 32 22.4401Z" fill="#0066CC"/>
<path d="M48 4.08008C52.4183 4.08008 56 7.73344 56 12.2401C60.4183 12.2401 64 15.8934 64 20.4001V53.0401C64 57.5467 60.4183 61.2001 56 61.2001H16C11.5817 61.2001 8 57.5467 8 53.0401C3.58172 53.0401 0 49.3867 0 44.8801V12.2401C0 7.73343 3.58172 4.08008 8 4.08008H48ZM8 48.9601V20.4001C8 15.8934 11.5817 12.2401 16 12.2401L52 12.2401C52 9.98676 50.2091 8.16008 48 8.16008H8C5.79086 8.16008 4 9.98676 4 12.2401V44.8801C4 47.1334 5.79086 48.9601 8 48.9601ZM12 32.6401V53.0401C12 55.2934 13.7909 57.1201 16 57.1201H56C58.2091 57.1201 60 55.2934 60 53.0401V32.6401H12ZM60 28.5601V20.4001C60 18.1468 58.2091 16.3201 56 16.3201H16C13.7909 16.3201 12 18.1468 12 20.4001V28.5601H60Z" fill="#0066CC"/>
</svg>
