<svg width="32" height="40" viewBox="0 0 32 40" fill="none" xmlns="http://www.w3.org/2000/svg">
<path fill-rule="evenodd" clip-rule="evenodd" d="M23.4 0H7C5.34315 0 4 1.34315 4 3V4H3C1.34315 4 0 5.34315 0 7V37C0 38.6569 1.34315 40 3 40H25C26.6569 40 28 38.6569 28 37V36H29C30.6569 36 32 34.6569 32 33V8.6L23.4 0ZM24 3.4L28.6 8H25C24.4477 8 24 7.55228 24 7V3.4ZM25 38C25.5523 38 26 37.5523 26 37V36H7C5.34315 36 4 34.6569 4 33V6H3C2.44772 6 2 6.44772 2 7V37C2 37.5523 2.44772 38 3 38H25ZM29 34H7C6.44772 34 6 33.5523 6 33V3C6 2.44772 6.44772 2 7 2H22V7C22 8.65685 23.3431 10 25 10H30V33C30 33.5523 29.5523 34 29 34ZM26 14H10V16H26V14ZM10 18H26V20H10V18ZM18 22H10V24H18V22Z" fill="#0066CC"/>
</svg>
