<svg width="224" height="72" viewBox="0 0 224 72" fill="#0066CC" xmlns="http://www.w3.org/2000/svg">
<path d="M65.1798 71.6652L69.4231 52.8047H76.6904L80.9337 71.6652H77.1058L76.3566 68.2537H69.7549L69.0056 71.6652H65.1777H65.1798ZM72.3912 55.967L70.4773 64.926H75.6363L73.7223 55.967H72.3912Z" fill="#0066CC"/>
<path d="M88.173 57.4648C89.1341 57.4648 90.364 57.6126 91.8614 57.9082L92.6107 58.0746L92.5001 61.0147C91.0388 60.867 89.9578 60.7926 89.2551 60.7926C87.9788 60.7926 87.1334 61.0654 86.7169 61.611C86.3004 62.1567 86.0927 63.1881 86.0927 64.7031C86.0927 66.2182 86.3004 67.2599 86.7169 67.8231C87.1334 68.3874 87.9881 68.6695 89.283 68.6695L92.5001 68.4473L92.6107 71.4154C90.6316 71.804 89.1248 71.9983 88.0893 71.9983C86.0369 71.9983 84.5622 71.4206 83.6651 70.2652C82.7681 69.1098 82.3196 67.2558 82.3196 64.7042C82.3196 62.1526 82.7815 60.3079 83.7065 59.1711C84.6304 58.0343 86.1196 57.4648 88.172 57.4648H88.173Z" fill="#0066CC"/>
<path d="M100.433 57.4648C101.394 57.4648 102.624 57.6126 104.121 57.9082L104.871 58.0746L104.76 61.0147C103.299 60.867 102.218 60.7926 101.515 60.7926C100.239 60.7926 99.3934 61.0654 98.9769 61.611C98.5604 62.1567 98.3527 63.1881 98.3527 64.7031C98.3527 66.2182 98.5604 67.2599 98.9769 67.8231C99.3934 68.3874 100.248 68.6695 101.543 68.6695L104.76 68.4473L104.871 71.4154C102.892 71.804 101.385 71.9983 100.349 71.9983C98.2969 71.9983 96.8222 71.4206 95.9251 70.2652C95.0281 69.1098 94.5796 67.2558 94.5796 64.7042C94.5796 62.1526 95.0415 60.3079 95.9665 59.1711C96.8904 58.0343 98.3796 57.4648 100.432 57.4648H100.433Z" fill="#0066CC"/>
<path d="M111.236 68.1569C111.67 68.5362 112.294 68.7253 113.108 68.7253C114.828 68.7253 116.363 68.6695 117.712 68.5589L118.488 68.4752L118.544 71.2211C116.417 71.7389 114.495 71.9972 112.776 71.9972C110.686 71.9972 109.17 71.4423 108.227 70.3334C107.285 69.2245 106.812 67.4211 106.812 64.9253C106.812 59.9513 108.856 57.4648 112.942 57.4648C117.028 57.4648 118.989 59.5545 118.989 63.7327L118.712 66.3122H110.558C110.576 67.1627 110.803 67.7776 111.238 68.1569H111.236ZM115.327 63.4837C115.327 62.3737 115.151 61.6028 114.8 61.1677C114.449 60.7336 113.834 60.5156 112.955 60.5156C112.077 60.5156 111.458 60.7419 111.097 61.1956C110.737 61.6493 110.546 62.412 110.529 63.4837H115.327Z" fill="#0066CC"/>
<path d="M131.608 61.2643C129.315 60.9687 127.711 60.8209 126.796 60.8209C125.881 60.8209 125.289 60.9046 125.021 61.071C124.752 61.2374 124.619 61.5009 124.619 61.8616C124.619 62.2223 124.798 62.4714 125.159 62.6109C125.52 62.7493 126.444 62.9529 127.933 63.2206C129.421 63.4893 130.48 63.9275 131.109 64.5383C131.737 65.148 132.052 66.138 132.052 67.5063C132.052 70.5023 130.194 71.9998 126.477 71.9998C125.256 71.9998 123.776 71.8334 122.039 71.5006L121.151 71.3342L121.262 68.2277C123.554 68.5232 125.15 68.671 126.047 68.671C126.944 68.671 127.554 68.5832 127.877 68.4075C128.201 68.2318 128.363 67.9683 128.363 67.6169C128.363 67.2655 128.191 67.0072 127.849 66.8397C127.507 66.6734 126.619 66.4698 125.187 66.23C123.754 65.9902 122.686 65.5831 121.983 65.0095C121.281 64.437 120.929 63.4149 120.929 61.9443C120.929 60.4737 121.428 59.3648 122.427 58.6155C123.425 57.8663 124.711 57.4922 126.282 57.4922C127.374 57.4922 128.862 57.6679 130.748 58.0192L131.664 58.1856L131.608 61.2643Z" fill="#0066CC"/>
<path d="M144.699 61.2643C142.405 60.9687 140.802 60.8209 139.887 60.8209C138.972 60.8209 138.38 60.9046 138.111 61.071C137.843 61.2374 137.709 61.5009 137.709 61.8616C137.709 62.2223 137.89 62.4714 138.25 62.6109C138.611 62.7493 139.535 62.9529 141.024 63.2206C142.512 63.4893 143.57 63.9275 144.2 64.5383C144.828 65.148 145.142 66.138 145.142 67.5063C145.142 70.5023 143.284 71.9998 139.568 71.9998C138.347 71.9998 136.867 71.8334 135.13 71.5006L134.242 71.3342L134.353 68.2277C136.645 68.5232 138.241 68.671 139.138 68.671C140.035 68.671 140.644 68.5832 140.968 68.4075C141.291 68.2318 141.454 67.9683 141.454 67.6169C141.454 67.2655 141.282 67.0072 140.94 66.8397C140.598 66.6734 139.71 66.4698 138.278 66.23C136.844 65.9902 135.777 65.5831 135.074 65.0095C134.371 64.437 134.02 63.4149 134.02 61.9443C134.02 60.4737 134.519 59.3648 135.517 58.6155C136.516 57.8663 137.801 57.4922 139.373 57.4922C140.464 57.4922 141.953 57.6679 143.839 58.0192L144.754 58.1856L144.699 61.2643Z" fill="#0066CC"/>
<path d="M147.832 56.0221V52.25H151.548V56.0221H147.832ZM147.832 71.6654V57.7976H151.548V71.6654H147.832Z" fill="#0066CC"/>
<path d="M161.7 57.4648C163.642 57.4648 165.061 57.997 165.958 59.0594C166.855 60.1228 167.303 62.0233 167.303 64.7589C167.303 67.4944 166.786 69.3867 165.75 70.4305C164.715 71.4753 162.93 71.9972 160.397 71.9972C159.601 71.9972 158.15 71.9042 156.042 71.7202L154.988 71.6096V52.25H158.704V58.213C159.887 57.7139 160.886 57.4638 161.7 57.4638V57.4648ZM160.397 68.6705C161.636 68.6705 162.468 68.3698 162.893 67.7693C163.317 67.1689 163.53 66.091 163.53 64.5377C163.53 62.0419 162.754 60.7935 161.201 60.7935C160.461 60.7935 159.758 60.8865 159.093 61.0705L158.704 61.1542V68.5599C159.555 68.6343 160.119 68.6705 160.396 68.6705H160.397Z" fill="#0066CC"/>
<path d="M170.076 56.0221V52.25H173.792V56.0221H170.076ZM170.076 71.6654V57.7976H173.792V71.6654H170.076Z" fill="#0066CC"/>
<path d="M177.398 71.6654V52.25H181.114V71.6654H177.398Z" fill="#0066CC"/>
<path d="M184.72 56.0221V52.25H188.436V56.0221H184.72ZM184.72 71.6654V57.7976H188.436V71.6654H184.72Z" fill="#0066CC"/>
<path d="M199.56 60.9595H196.148V66.6455C196.148 67.2005 196.162 67.5932 196.19 67.8247C196.217 68.0562 196.319 68.2546 196.494 68.421C196.67 68.5874 196.943 68.6711 197.313 68.6711L199.421 68.6153L199.588 71.5833C198.348 71.8603 197.406 71.9998 196.758 71.9998C195.094 71.9998 193.956 71.6257 193.347 70.8764C192.737 70.1272 192.431 68.7455 192.431 66.7302V60.9615H190.795V57.7992H192.431V53.9434H196.147V57.7992H199.559V60.9615L199.56 60.9595Z" fill="#0066CC"/>
<path d="M212.594 62.1245V67.8932C212.632 68.3365 212.705 68.6466 212.817 68.8223C212.927 68.9979 213.159 69.123 213.51 69.1964L213.399 71.998C212.457 71.998 211.702 71.9329 211.139 71.8038C210.575 71.6746 210.007 71.4152 209.433 71.0276C208.102 71.6746 206.743 71.998 205.356 71.998C202.489 71.998 201.057 70.482 201.057 67.4498C201.057 65.971 201.454 64.922 202.249 64.3019C203.044 63.6829 204.265 63.3171 205.911 63.2065L208.879 62.9843V62.1245C208.879 61.5519 208.75 61.1582 208.49 60.9453C208.231 60.7334 207.816 60.626 207.242 60.626L202.027 60.8481L201.917 58.2687C203.895 57.7323 205.777 57.4646 207.561 57.4646C209.346 57.4646 210.631 57.8346 211.416 58.5746C212.202 59.3145 212.595 60.4978 212.595 62.1245H212.594ZM204.218 50.7803L211.207 53.6099L210.376 56.023L203.108 53.9705L204.218 50.7813V50.7803ZM206.354 65.7849C205.319 65.878 204.801 66.4329 204.801 67.4488C204.801 68.4647 205.254 68.9742 206.16 68.9742C206.863 68.9742 207.63 68.8636 208.463 68.6414L208.879 68.5308V65.5627L206.355 65.7849H206.354Z" fill="#0066CC"/>
<path d="M64.9995 38.8683V20.0078H71.5175L74.8462 33.7651L78.175 20.0078H84.6929V38.8683H80.865V24.2791H80.4486L76.7602 38.0364H72.9323L69.2439 24.2791H68.8274V38.8683H64.9995Z" fill="#0066CC"/>
<path d="M89.0459 26.5684C90.0256 25.3025 91.6625 24.6689 93.9547 24.6689C96.2469 24.6689 97.8839 25.3025 98.8636 26.5684C99.8433 27.8354 100.333 29.615 100.333 31.9072C100.333 36.7706 98.2064 39.2013 93.9537 39.2013C89.7011 39.2013 87.5742 36.7696 87.5742 31.9072C87.5742 29.615 88.0641 27.8344 89.0438 26.5684H89.0459ZM91.9168 35.0417C92.2961 35.7072 92.975 36.04 93.9558 36.04C94.9365 36.04 95.6155 35.7072 95.9948 35.0417C96.374 34.3761 96.5632 33.3313 96.5632 31.9072C96.5632 30.4831 96.373 29.4487 95.9948 28.8007C95.6155 28.1537 94.9365 27.8303 93.9558 27.8303C92.975 27.8303 92.2961 28.1537 91.9168 28.8007C91.5375 29.4487 91.3484 30.4831 91.3484 31.9072C91.3484 33.3313 91.5375 34.3761 91.9168 35.0417Z" fill="#0066CC"/>
<path d="M106.77 38.8686H103.053V25.0007H106.742V25.7779C107.999 25.039 109.155 24.668 110.209 24.668C112.058 24.668 113.333 25.2136 114.037 26.3039C114.739 27.3952 115.091 29.0777 115.091 31.3523V38.8686H111.375V31.4629C111.375 30.2796 111.236 29.4063 110.958 28.8421C110.681 28.2778 110.126 27.9957 109.294 27.9957C108.536 27.9957 107.806 28.1249 107.103 28.3843L106.771 28.4948V38.8686H106.77Z" fill="#0066CC"/>
<path d="M118.391 23.2262V19.4541H122.107V23.2262H118.391ZM118.391 38.8695V25.0006H122.107V38.8685H118.391V38.8695Z" fill="#0066CC"/>
<path d="M133.229 28.1626H129.818V33.8486C129.818 34.4036 129.831 34.7963 129.859 35.0278C129.887 35.2593 129.988 35.4577 130.164 35.6241C130.34 35.7905 130.612 35.8742 130.982 35.8742L133.091 35.8184L133.257 38.7864C132.018 39.0634 131.075 39.2029 130.427 39.2029C128.764 39.2029 127.626 38.8288 127.016 38.0796C126.406 37.3303 126.1 35.9486 126.1 33.9334V28.1646H124.464V25.0023H126.1V21.1465H129.817V25.0023H133.228V28.1646L133.229 28.1626Z" fill="#0066CC"/>
<path d="M136.391 26.5684C137.371 25.3025 139.008 24.6689 141.3 24.6689C143.592 24.6689 145.229 25.3025 146.209 26.5684C147.189 27.8354 147.679 29.615 147.679 31.9072C147.679 36.7706 145.552 39.2013 141.299 39.2013C137.047 39.2013 134.92 36.7696 134.92 31.9072C134.92 29.615 135.41 27.8344 136.389 26.5684H136.391ZM139.262 35.0417C139.642 35.7072 140.32 36.04 141.301 36.04C142.282 36.04 142.961 35.7072 143.34 35.0417C143.72 34.3761 143.909 33.3313 143.909 31.9072C143.909 30.4831 143.718 29.4487 143.34 28.8007C142.961 28.1537 142.282 27.8303 141.301 27.8303C140.32 27.8303 139.642 28.1537 139.262 28.8007C138.883 29.4487 138.694 30.4831 138.694 31.9072C138.694 33.3313 138.883 34.3761 139.262 35.0417Z" fill="#0066CC"/>
<path d="M150.398 38.8686V25.0007H154.086V26.4703C155.639 25.5464 157.118 24.9449 158.524 24.668V28.4122C157.026 28.7263 155.741 29.0498 154.668 29.3826L154.113 29.5769V38.8686H150.397H150.398Z" fill="#0066CC"/>
<path d="M171.338 29.3278V35.0965C171.376 35.5399 171.449 35.8499 171.561 36.0256C171.671 36.2013 171.903 36.3263 172.254 36.3997L172.144 39.2014C171.201 39.2014 170.447 39.1363 169.883 39.0071C169.319 38.8779 168.751 38.6185 168.177 38.231C166.846 38.8779 165.487 39.2014 164.1 39.2014C161.233 39.2014 159.801 37.6853 159.801 34.6532C159.801 33.1743 160.199 32.1253 160.994 31.5053C161.788 30.8862 163.009 30.5204 164.655 30.4098L167.623 30.1876V29.3278C167.623 28.7553 167.494 28.3615 167.235 28.1486C166.975 27.9368 166.56 27.8293 165.986 27.8293L160.771 28.0515L160.661 25.472C162.639 24.9356 164.521 24.668 166.306 24.668C168.09 24.668 169.375 25.0379 170.161 25.7779C170.947 26.5178 171.341 27.7011 171.341 29.3278H171.338ZM165.097 32.9893C164.062 33.0823 163.544 33.6373 163.544 34.6532C163.544 35.669 163.997 36.1785 164.903 36.1785C165.606 36.1785 166.373 36.068 167.206 35.8458L167.622 35.7352V32.7671L165.098 32.9893H165.097Z" fill="#0066CC"/>
<path d="M187.452 40.6026C187.452 42.1838 186.842 43.3526 185.622 44.1112C184.401 44.8687 182.751 45.248 180.67 45.248C178.59 45.248 176.99 44.971 175.872 44.416C174.753 43.8611 174.194 42.8535 174.194 41.3932C174.194 40.2285 174.859 39.1279 176.19 38.0923C175.506 37.6304 175.164 36.9276 175.164 35.9841C175.164 35.6141 175.441 35.0044 175.996 34.1539L176.246 33.7653C174.989 32.86 174.36 31.5237 174.36 29.7576C174.36 27.9914 174.891 26.711 175.955 25.9162C177.018 25.1215 178.428 24.7236 180.185 24.7236C180.979 24.7236 181.766 24.8166 182.542 25.0006L182.985 25.0843L187.451 24.9458V27.9139L185.371 27.7475C185.777 28.3758 185.98 29.0052 185.98 29.6336C185.98 31.4824 185.509 32.7587 184.566 33.4615C183.623 34.1642 182.143 34.5156 180.128 34.5156C179.702 34.5156 179.324 34.4784 178.991 34.405C178.806 34.8866 178.714 35.2783 178.714 35.5842C178.714 35.8901 178.871 36.0968 179.185 36.2084C179.5 36.3189 180.24 36.3841 181.404 36.4027C183.734 36.4213 185.324 36.7313 186.175 37.3317C187.025 37.9332 187.451 39.0235 187.451 40.6047L187.452 40.6026ZM177.855 41.0046C177.855 41.7993 178.831 42.1972 180.781 42.1972C182.731 42.1972 183.707 41.7353 183.707 40.8103C183.707 40.3112 183.54 39.9918 183.208 39.8533C182.875 39.7149 182.172 39.6353 181.099 39.6177L178.604 39.4234C178.104 39.9226 177.854 40.4496 177.854 41.0046H177.855ZM178.078 29.647C178.078 31.006 178.784 31.686 180.199 31.686C181.614 31.686 182.321 31.006 182.321 29.647C182.321 28.288 181.614 27.608 180.199 27.608C178.784 27.608 178.078 28.288 178.078 29.647Z" fill="#0066CC"/>
<path d="M202.263 40.6026C202.263 42.1838 201.654 43.3526 200.433 44.1112C199.213 44.8687 197.562 45.248 195.482 45.248C193.401 45.248 191.802 44.971 190.683 44.416C189.564 43.8611 189.005 42.8535 189.005 41.3932C189.005 40.2285 189.671 39.1279 191.002 38.0923C190.318 37.6304 189.976 36.9276 189.976 35.9841C189.976 35.6141 190.253 35.0044 190.807 34.1539L191.058 33.7653C189.8 32.86 189.172 31.5237 189.172 29.7576C189.172 27.9914 189.703 26.711 190.766 25.9162C191.83 25.1215 193.239 24.7236 194.996 24.7236C195.791 24.7236 196.577 24.8166 197.353 25.0006L197.797 25.0843L202.262 24.9458V27.9139L200.182 27.7475C200.588 28.3758 200.792 29.0052 200.792 29.6336C200.792 31.4824 200.32 32.7587 199.377 33.4615C198.434 34.1642 196.954 34.5156 194.939 34.5156C194.513 34.5156 194.135 34.4784 193.802 34.405C193.617 34.8866 193.525 35.2783 193.525 35.5842C193.525 35.8901 193.683 36.0968 193.997 36.2084C194.311 36.3189 195.051 36.3841 196.216 36.4027C198.545 36.4213 200.135 36.7313 200.986 37.3317C201.836 37.9332 202.262 39.0235 202.262 40.6047L202.263 40.6026ZM192.667 41.0046C192.667 41.7993 193.642 42.1972 195.592 42.1972C197.542 42.1972 198.518 41.7353 198.518 40.8103C198.518 40.3112 198.352 39.9918 198.019 39.8533C197.686 39.7149 196.983 39.6353 195.911 39.6177L193.415 39.4234C192.916 39.9226 192.666 40.4496 192.666 41.0046H192.667ZM192.889 29.647C192.889 31.006 193.596 31.686 195.011 31.686C196.425 31.686 197.132 31.006 197.132 29.647C197.132 28.288 196.425 27.608 195.011 27.608C193.596 27.608 192.889 28.288 192.889 29.647Z" fill="#0066CC"/>
<path d="M204.51 23.2262V19.4541H208.227V23.2262H204.51ZM204.51 38.8695V25.0006H208.227V38.8685H204.51V38.8695Z" fill="#0066CC"/>
<path d="M212.414 26.5684C213.394 25.3025 215.031 24.6689 217.323 24.6689C219.615 24.6689 221.252 25.3025 222.232 26.5684C223.212 27.8354 223.701 29.615 223.701 31.9072C223.701 36.7706 221.575 39.2013 217.322 39.2013C213.069 39.2013 210.942 36.7696 210.942 31.9072C210.942 29.615 211.432 27.8344 212.412 26.5684H212.414ZM215.285 35.0417C215.664 35.7072 216.343 36.04 217.324 36.04C218.305 36.04 218.984 35.7072 219.363 35.0417C219.742 34.3761 219.931 33.3313 219.931 31.9072C219.931 30.4831 219.741 29.4487 219.363 28.8007C218.984 28.1537 218.305 27.8303 217.324 27.8303C216.343 27.8303 215.664 28.1537 215.285 28.8007C214.906 29.4487 214.717 30.4831 214.717 31.9072C214.717 33.3313 214.906 34.3761 215.285 35.0417Z" fill="#0066CC"/>
<path d="M5.98446 71.8107H16.9539L22.9386 41.8899H26.9261L32.9108 71.8107H43.8803L34.9053 29.9205H49.865V19.9482H-0.000244141V29.9205H14.9595L5.98446 71.8107Z" fill="#0066CC"/>
<path d="M24.9356 15.961C29.3433 15.961 32.9161 12.3882 32.9161 7.98051C32.9161 3.57281 29.3419 0 24.9356 0C20.5293 0 16.9551 3.57281 16.9551 7.98051C16.9551 12.3882 20.5279 15.961 24.9356 15.961Z" fill="#0066CC"/>
</svg>
