<svg width="256" height="64" viewBox="0 0 256 64" fill="none" xmlns="http://www.w3.org/2000/svg">
<path d="M44.5121 29.4508L38.1971 1H27.8555L33.9573 29.4508H44.5121Z" fill="white"/>
<path d="M40.9994 63.6126H52.0937L47.767 44.125L18.6629 44.1902L16.7812 53.0055L38.7567 52.9512L40.9994 63.6126Z" fill="white"/>
<path d="M47.1469 41.3447L45.1238 32.238H18.3082L21.3298 18.2497L28.6259 18.2388L25.0192 1.00391H14.6254L0.53125 63.6179H11.5298L16.2743 41.4165L47.1469 41.3447Z" fill="white"/>
<path d="M71.368 23V1.24H78.888L82.728 17.112L86.568 1.24H94.088V23H89.672V6.168H89.192L84.936 22.04H80.52L76.264 6.168H75.784V23H71.368ZM99.1293 8.824C100.26 7.352 102.148 6.616 104.793 6.616C107.439 6.616 109.327 7.352 110.457 8.824C111.588 10.2747 112.153 12.3227 112.153 14.968C112.153 20.5787 109.7 23.384 104.793 23.384C99.8866 23.384 97.4333 20.5787 97.4333 14.968C97.4333 12.3227 97.9986 10.2747 99.1293 8.824ZM102.425 18.584C102.873 19.352 103.663 19.736 104.793 19.736C105.924 19.736 106.703 19.352 107.129 18.584C107.577 17.816 107.801 16.6107 107.801 14.968C107.801 13.3253 107.577 12.1307 107.129 11.384C106.703 10.6373 105.924 10.264 104.793 10.264C103.663 10.264 102.873 10.6373 102.425 11.384C101.999 12.1307 101.785 13.3253 101.785 14.968C101.785 16.6107 101.999 17.816 102.425 18.584ZM119.585 23H115.297V7H119.553V7.896C121.003 7.04267 122.337 6.616 123.553 6.616C125.686 6.616 127.158 7.24533 127.969 8.504C128.779 9.76267 129.185 11.704 129.185 14.328V23H124.897V14.456C124.897 13.0907 124.737 12.088 124.417 11.448C124.097 10.7867 123.457 10.456 122.497 10.456C121.622 10.456 120.779 10.6053 119.969 10.904L119.585 11.032V23ZM132.984 23V7H137.272V23H132.984ZM132.984 4.952V0.599998H137.272V4.952H132.984ZM150.098 10.648H146.162V17.208C146.162 17.848 146.173 18.3067 146.194 18.584C146.237 18.84 146.354 19.064 146.546 19.256C146.759 19.448 147.079 19.544 147.506 19.544L149.938 19.48L150.13 22.904C148.701 23.224 147.613 23.384 146.866 23.384C144.946 23.384 143.634 22.9573 142.93 22.104C142.226 21.2293 141.874 19.6293 141.874 17.304V10.648H139.986V7H141.874V2.552H146.162V7H150.098V10.648ZM153.754 8.824C154.885 7.352 156.773 6.616 159.418 6.616C162.064 6.616 163.952 7.352 165.082 8.824C166.213 10.2747 166.778 12.3227 166.778 14.968C166.778 20.5787 164.325 23.384 159.418 23.384C154.512 23.384 152.058 20.5787 152.058 14.968C152.058 12.3227 152.624 10.2747 153.754 8.824ZM157.05 18.584C157.498 19.352 158.288 19.736 159.418 19.736C160.549 19.736 161.328 19.352 161.754 18.584C162.202 17.816 162.426 16.6107 162.426 14.968C162.426 13.3253 162.202 12.1307 161.754 11.384C161.328 10.6373 160.549 10.264 159.418 10.264C158.288 10.264 157.498 10.6373 157.05 11.384C156.624 12.1307 156.41 13.3253 156.41 14.968C156.41 16.6107 156.624 17.816 157.05 18.584ZM169.922 23V7H174.178V8.696C175.97 7.62933 177.676 6.936 179.298 6.616V10.936C177.57 11.2987 176.087 11.672 174.85 12.056L174.21 12.28V23H169.922ZM194.084 11.992V18.648C194.126 19.16 194.212 19.5227 194.34 19.736C194.468 19.928 194.734 20.0667 195.14 20.152L195.012 23.384C193.924 23.384 193.049 23.3093 192.388 23.16C191.748 23.0107 191.097 22.712 190.436 22.264C188.9 23.0107 187.332 23.384 185.732 23.384C182.425 23.384 180.772 21.6347 180.772 18.136C180.772 16.4293 181.23 15.224 182.148 14.52C183.065 13.7947 184.473 13.368 186.372 13.24L189.796 12.984V11.992C189.796 11.3307 189.646 10.8827 189.348 10.648C189.049 10.392 188.569 10.264 187.908 10.264L181.892 10.52L181.764 7.544C184.046 6.92533 186.212 6.616 188.26 6.616C190.329 6.616 191.812 7.04267 192.708 7.896C193.625 8.74933 194.084 10.1147 194.084 11.992ZM186.884 16.216C185.689 16.3227 185.092 16.9627 185.092 18.136C185.092 19.3093 185.614 19.896 186.66 19.896C187.47 19.896 188.356 19.768 189.316 19.512L189.796 19.384V15.96L186.884 16.216ZM212.668 24.984C212.668 26.8187 211.964 28.1733 210.556 29.048C209.148 29.9227 207.238 30.36 204.828 30.36C202.438 30.36 200.593 30.04 199.292 29.4C198.012 28.76 197.372 27.5973 197.372 25.912C197.372 24.568 198.14 23.2987 199.676 22.104C198.886 21.5707 198.492 20.76 198.492 19.672C198.492 19.2453 198.812 18.5413 199.452 17.56L199.74 17.112C198.289 16.0667 197.564 14.5307 197.564 12.504C197.564 10.456 198.172 8.97333 199.388 8.056C200.625 7.13867 202.257 6.68 204.284 6.68C205.201 6.68 206.108 6.78667 207.004 7L207.516 7.096L212.668 6.936V10.36L210.268 10.168C210.737 10.8933 210.972 11.6187 210.972 12.344C210.972 14.4773 210.428 15.9493 209.34 16.76C208.252 17.5707 206.545 17.976 204.22 17.976C203.729 17.976 203.292 17.9333 202.908 17.848C202.694 18.4027 202.588 18.8613 202.588 19.224C202.588 19.5653 202.769 19.8 203.132 19.928C203.494 20.056 204.348 20.1307 205.692 20.152C208.38 20.1733 210.214 20.536 211.196 21.24C212.177 21.9227 212.668 23.1707 212.668 24.984ZM201.596 25.464C201.596 26.3813 202.716 26.84 204.956 26.84C207.217 26.84 208.348 26.3067 208.348 25.24C208.348 24.664 208.156 24.2907 207.772 24.12C207.388 23.9707 206.577 23.8853 205.34 23.864L202.46 23.64C201.884 24.216 201.596 24.824 201.596 25.464ZM201.852 12.376C201.852 13.9333 202.662 14.712 204.284 14.712C205.926 14.712 206.748 13.9333 206.748 12.376C206.748 10.7973 205.926 10.008 204.284 10.008C202.662 10.008 201.852 10.7973 201.852 12.376ZM229.761 24.984C229.761 26.8187 229.057 28.1733 227.649 29.048C226.241 29.9227 224.332 30.36 221.921 30.36C219.532 30.36 217.687 30.04 216.385 29.4C215.105 28.76 214.465 27.5973 214.465 25.912C214.465 24.568 215.233 23.2987 216.769 22.104C215.98 21.5707 215.585 20.76 215.585 19.672C215.585 19.2453 215.905 18.5413 216.545 17.56L216.833 17.112C215.383 16.0667 214.657 14.5307 214.657 12.504C214.657 10.456 215.265 8.97333 216.481 8.056C217.719 7.13867 219.351 6.68 221.377 6.68C222.295 6.68 223.201 6.78667 224.097 7L224.609 7.096L229.761 6.936V10.36L227.361 10.168C227.831 10.8933 228.065 11.6187 228.065 12.344C228.065 14.4773 227.521 15.9493 226.433 16.76C225.345 17.5707 223.639 17.976 221.313 17.976C220.823 17.976 220.385 17.9333 220.001 17.848C219.788 18.4027 219.681 18.8613 219.681 19.224C219.681 19.5653 219.863 19.8 220.225 19.928C220.588 20.056 221.441 20.1307 222.785 20.152C225.473 20.1733 227.308 20.536 228.289 21.24C229.271 21.9227 229.761 23.1707 229.761 24.984ZM218.689 25.464C218.689 26.3813 219.809 26.84 222.049 26.84C224.311 26.84 225.441 26.3067 225.441 25.24C225.441 24.664 225.249 24.2907 224.865 24.12C224.481 23.9707 223.671 23.8853 222.433 23.864L219.553 23.64C218.977 24.216 218.689 24.824 218.689 25.464ZM218.945 12.376C218.945 13.9333 219.756 14.712 221.377 14.712C223.02 14.712 223.841 13.9333 223.841 12.376C223.841 10.7973 223.02 10.008 221.377 10.008C219.756 10.008 218.945 10.7973 218.945 12.376ZM232.359 23V7H236.647V23H232.359ZM232.359 4.952V0.599998H236.647V4.952H232.359ZM241.473 8.824C242.604 7.352 244.492 6.616 247.137 6.616C249.782 6.616 251.67 7.352 252.801 8.824C253.932 10.2747 254.497 12.3227 254.497 14.968C254.497 20.5787 252.044 23.384 247.137 23.384C242.23 23.384 239.777 20.5787 239.777 14.968C239.777 12.3227 240.342 10.2747 241.473 8.824ZM244.769 18.584C245.217 19.352 246.006 19.736 247.137 19.736C248.268 19.736 249.046 19.352 249.473 18.584C249.921 17.816 250.145 16.6107 250.145 14.968C250.145 13.3253 249.921 12.1307 249.473 11.384C249.046 10.6373 248.268 10.264 247.137 10.264C246.006 10.264 245.217 10.6373 244.769 11.384C244.342 12.1307 244.129 13.3253 244.129 14.968C244.129 16.6107 244.342 17.816 244.769 18.584Z" fill="white"/>
<path d="M69.544 63L74.44 41.24H82.824L87.72 63H83.304L82.44 59.064H74.824L73.96 63H69.544ZM77.864 44.888L75.656 55.224H81.608L79.4 44.888H77.864ZM96.0618 46.616C97.1711 46.616 98.5898 46.7867 100.318 47.128L101.182 47.32L101.054 50.712C99.3684 50.5413 98.1204 50.456 97.3098 50.456C95.8378 50.456 94.8564 50.776 94.3658 51.416C93.8964 52.0347 93.6618 53.2187 93.6618 54.968C93.6618 56.7173 93.8964 57.9227 94.3658 58.584C94.8564 59.224 95.8484 59.544 97.3418 59.544L101.054 59.288L101.182 62.712C98.8991 63.16 97.1604 63.384 95.9658 63.384C93.5978 63.384 91.8911 62.7227 90.8458 61.4C89.8218 60.056 89.3098 57.912 89.3098 54.968C89.3098 52.024 89.8431 49.9013 90.9098 48.6C91.9764 47.2773 93.6938 46.616 96.0618 46.616ZM110.218 46.616C111.327 46.616 112.746 46.7867 114.474 47.128L115.338 47.32L115.21 50.712C113.525 50.5413 112.277 50.456 111.466 50.456C109.994 50.456 109.013 50.776 108.522 51.416C108.053 52.0347 107.818 53.2187 107.818 54.968C107.818 56.7173 108.053 57.9227 108.522 58.584C109.013 59.224 110.005 59.544 111.498 59.544L115.21 59.288L115.338 62.712C113.055 63.16 111.317 63.384 110.122 63.384C107.754 63.384 106.047 62.7227 105.002 61.4C103.978 60.056 103.466 57.912 103.466 54.968C103.466 52.024 103.999 49.9013 105.066 48.6C106.133 47.2773 107.85 46.616 110.218 46.616ZM121.91 56.824C121.932 57.8053 122.188 58.52 122.678 58.968C123.19 59.3947 123.916 59.608 124.854 59.608C126.838 59.608 128.609 59.544 130.166 59.416L131.062 59.32L131.126 62.488C128.673 63.0853 126.454 63.384 124.47 63.384C122.06 63.384 120.31 62.744 119.222 61.464C118.134 60.184 117.59 58.104 117.59 55.224C117.59 49.4853 119.948 46.616 124.662 46.616C129.313 46.616 131.638 49.0267 131.638 53.848L131.318 56.824H121.91ZM127.414 53.56C127.414 52.28 127.212 51.3947 126.806 50.904C126.401 50.392 125.686 50.136 124.662 50.136C123.66 50.136 122.945 50.4027 122.518 50.936C122.113 51.448 121.9 52.3227 121.878 53.56H127.414ZM146.191 51C143.545 50.6587 141.689 50.488 140.623 50.488C139.577 50.488 138.895 50.584 138.575 50.776C138.276 50.968 138.127 51.2773 138.127 51.704C138.127 52.1093 138.329 52.3973 138.735 52.568C139.161 52.7173 140.228 52.952 141.935 53.272C143.663 53.5707 144.889 54.072 145.615 54.776C146.34 55.48 146.703 56.6213 146.703 58.2C146.703 61.656 144.559 63.384 140.271 63.384C138.863 63.384 137.156 63.192 135.151 62.808L134.127 62.616L134.255 59.032C136.9 59.3733 138.735 59.544 139.759 59.544C140.804 59.544 141.508 59.448 141.871 59.256C142.255 59.0427 142.447 58.7333 142.447 58.328C142.447 57.9227 142.244 57.624 141.839 57.432C141.455 57.24 140.431 57.0053 138.767 56.728C137.124 56.4507 135.897 55.9813 135.087 55.32C134.276 54.6587 133.871 53.4853 133.871 51.8C133.871 50.0933 134.447 48.8133 135.599 47.96C136.751 47.0853 138.233 46.648 140.047 46.648C141.305 46.648 143.023 46.8507 145.199 47.256L146.255 47.448L146.191 51ZM161.285 51C158.639 50.6587 156.783 50.488 155.717 50.488C154.671 50.488 153.989 50.584 153.669 50.776C153.37 50.968 153.221 51.2773 153.221 51.704C153.221 52.1093 153.423 52.3973 153.829 52.568C154.255 52.7173 155.322 52.952 157.029 53.272C158.757 53.5707 159.983 54.072 160.709 54.776C161.434 55.48 161.797 56.6213 161.797 58.2C161.797 61.656 159.653 63.384 155.365 63.384C153.957 63.384 152.25 63.192 150.245 62.808L149.221 62.616L149.349 59.032C151.994 59.3733 153.829 59.544 154.853 59.544C155.898 59.544 156.602 59.448 156.965 59.256C157.349 59.0427 157.541 58.7333 157.541 58.328C157.541 57.9227 157.338 57.624 156.933 57.432C156.549 57.24 155.525 57.0053 153.861 56.728C152.218 56.4507 150.991 55.9813 150.181 55.32C149.37 54.6587 148.965 53.4853 148.965 51.8C148.965 50.0933 149.541 48.8133 150.693 47.96C151.845 47.0853 153.327 46.648 155.141 46.648C156.399 46.648 158.117 46.8507 160.293 47.256L161.349 47.448L161.285 51ZM164.89 63V47H169.178V63H164.89ZM164.89 44.952V40.6H169.178V44.952H164.89ZM180.884 46.616C183.124 46.616 184.756 47.2347 185.78 48.472C186.826 49.688 187.348 51.8747 187.348 55.032C187.348 58.1893 186.751 60.376 185.556 61.592C184.362 62.7867 182.303 63.384 179.38 63.384C178.463 63.384 176.788 63.2773 174.356 63.064L173.14 62.936V40.6H177.428V47.48C178.794 46.904 179.946 46.616 180.884 46.616ZM179.38 59.544C180.81 59.544 181.77 59.2027 182.26 58.52C182.751 57.816 182.996 56.568 182.996 54.776C182.996 51.896 182.1 50.456 180.308 50.456C179.455 50.456 178.644 50.5627 177.876 50.776L177.428 50.872V59.416C178.41 59.5013 179.06 59.544 179.38 59.544ZM190.547 63V47H194.835V63H190.547ZM190.547 44.952V40.6H194.835V44.952H190.547ZM198.989 63V40.6H203.277V63H198.989ZM207.422 63V47H211.71V63H207.422ZM207.422 44.952V40.6H211.71V44.952H207.422ZM224.536 50.648H220.6V57.208C220.6 57.848 220.61 58.3067 220.632 58.584C220.674 58.84 220.792 59.064 220.984 59.256C221.197 59.448 221.517 59.544 221.944 59.544L224.376 59.48L224.568 62.904C223.138 63.224 222.05 63.384 221.304 63.384C219.384 63.384 218.072 62.9573 217.368 62.104C216.664 61.2293 216.312 59.6293 216.312 57.304V50.648H214.424V47H216.312V42.552H220.6V47H224.536V50.648ZM239.584 51.992V58.648C239.626 59.16 239.712 59.5227 239.84 59.736C239.968 59.928 240.234 60.0667 240.64 60.152L240.512 63.384C239.424 63.384 238.549 63.3093 237.888 63.16C237.248 63.0107 236.597 62.712 235.936 62.264C234.4 63.0107 232.832 63.384 231.232 63.384C227.925 63.384 226.272 61.6347 226.272 58.136C226.272 56.4293 226.73 55.224 227.648 54.52C228.565 53.7947 229.973 53.368 231.872 53.24L235.296 52.984V51.992C235.296 51.3307 235.146 50.8827 234.848 50.648C234.549 50.392 234.069 50.264 233.408 50.264L227.392 50.52L227.264 47.544C229.546 46.9253 231.712 46.616 233.76 46.616C235.829 46.616 237.312 47.0427 238.208 47.896C239.125 48.7493 239.584 50.1147 239.584 51.992ZM232.384 56.216C231.189 56.3227 230.592 56.9627 230.592 58.136C230.592 59.3093 231.114 59.896 232.16 59.896C232.97 59.896 233.856 59.768 234.816 59.512L235.296 59.384V55.96L232.384 56.216ZM229.92 38.904L237.984 42.168L237.024 44.952L228.64 42.584L229.92 38.904Z" fill="white"/>
</svg>
