<svg width="189" height="40" viewBox="0 0 189 40" fill="none" xmlns="http://www.w3.org/2000/svg">
<path fill-rule="evenodd" clip-rule="evenodd" d="M59.8564 0H0V40H59.8564V0ZM28.6534 8.71631L29.9155 7.7918L31.1797 8.71631L30.6986 7.22054L31.9818 6.29815H30.4009L29.9155 4.78549L29.4322 6.30027L27.8513 6.29815L29.1346 7.22054L28.6534 8.71631ZM23.3811 9.55199L22.1168 10.4766L22.5959 8.98291L21.3148 8.0584L22.8957 8.06052L23.379 6.54363L23.8623 8.0584H25.4453L24.162 8.98291L24.6432 10.4766L23.3811 9.55199ZM18.5985 11.3482L18.1131 12.8652L16.5323 12.863L17.8155 13.7876L17.3343 15.2812L18.5985 14.3566L19.8607 15.2812L19.3795 13.7876L20.6627 12.863H19.0819L18.5985 11.3482ZM18.1046 21.8248L16.8424 20.9003L15.5803 21.8248L16.0615 20.3311L14.7783 19.4066L16.3591 19.4087L16.8424 17.8918L17.3279 19.4066H18.9066L17.6255 20.3311L18.1046 21.8248ZM19.0819 25.9692L18.5985 24.4565L18.1131 25.9713L16.5323 25.9692L17.8155 26.8938L17.3343 28.3874L18.5985 27.4628L19.8607 28.3874L19.3795 26.8938L20.6627 25.9692H19.0819ZM23.3895 29.2611L23.8728 30.7738H25.4536L24.1725 31.6962L24.6516 33.1898L23.3895 32.2674L22.1274 33.1898L22.6065 31.6962L21.3253 30.7738H22.9061L23.3895 29.2611ZM30.401 32.5128L29.9177 31.0002L29.4344 32.5149L27.8535 32.5128L29.1347 33.4373L28.6556 34.931L29.9177 34.0064L31.1798 34.931L30.7008 33.4373L31.9819 32.5128H30.401ZM36.4456 29.2611L36.9289 30.7738H38.5097L37.2286 31.6962L37.7098 33.1898L36.4456 32.2674L35.1834 33.1898L35.6625 31.6962L34.3814 30.7738H35.9622L36.4456 29.2611ZM41.7222 25.9692L41.2389 24.4565L40.7534 25.9713L39.1726 25.9692L40.4558 26.8938L39.9746 28.3874L41.2389 27.4628L42.501 28.3874L42.0198 26.8938L43.303 25.9692H41.7222ZM43.4571 19.3874H45.038L43.7547 20.312L44.2359 21.8056L42.9717 20.881L41.7117 21.8056L42.1908 20.312L40.9075 19.3874L42.4884 19.3895L42.9717 17.8747L43.4571 19.3874ZM39.9746 15.2598L41.2389 14.3374L42.501 15.2598L42.0198 13.7662L43.303 12.8438H41.7222L41.2389 11.3311L40.7534 12.8459L39.1726 12.8438L40.4558 13.7662L39.9746 15.2598ZM35.9814 8.0604L36.4647 6.54563L36.948 8.05828H38.5309L37.2477 8.98279L37.7268 10.4786L36.4668 9.55193L35.2004 10.4786L35.6816 8.98279L34.4005 8.05828L35.9814 8.0604Z" fill="white"/>
<path d="M71.1706 8.9074V0H77.2769V1.50601H72.9677V3.61527H76.6863V5.12128H72.9677V8.9074H71.1685H71.1706Z" fill="white"/>
<path d="M78.749 1.57983V0H80.4575V1.57983H78.749ZM78.749 8.9074V2.45518H80.4575V8.9074H78.749Z" fill="white"/>
<path d="M88.0761 8.90749H86.3676V5.61493C86.3676 4.91888 86.3317 4.4675 86.2579 4.2629C86.1841 4.0583 86.066 3.90011 85.9014 3.78621C85.7369 3.67231 85.5407 3.61536 85.3087 3.61536C85.0134 3.61536 84.7477 3.69551 84.5135 3.85792C84.2794 4.02033 84.117 4.23548 84.0305 4.50125C83.944 4.76701 83.8997 5.26269 83.8997 5.98405V8.90749H82.1934V2.45527H83.7795V3.40232C84.3427 2.67252 85.0514 2.30762 85.9057 2.30762C86.2832 2.30762 86.627 2.37511 86.9392 2.51011C87.2514 2.6451 87.4876 2.81806 87.6479 3.02898C87.8082 3.23991 87.92 3.47826 87.9812 3.74613C88.0423 4.01401 88.0761 4.39578 88.0761 4.89357V8.90327V8.90749Z" fill="white"/>
<path d="M91.0839 4.4232L89.5336 4.14267C89.7087 3.51833 90.0082 3.0564 90.4322 2.75689C90.8582 2.45737 91.4889 2.30762 92.3284 2.30762C93.0898 2.30762 93.6572 2.39832 94.0306 2.5776C94.4039 2.75689 94.6655 2.9868 94.8173 3.26311C94.9692 3.54153 95.0451 4.04986 95.0451 4.79232L95.0261 6.78557C95.0261 7.35296 95.0536 7.7706 95.1084 8.04058C95.1632 8.31057 95.2645 8.59953 95.4163 8.90749H93.7268C93.6825 8.79359 93.6277 8.62695 93.5623 8.40337C93.5349 8.30213 93.5138 8.23463 93.5011 8.20299C93.2101 8.48563 92.8979 8.69867 92.5646 8.83999C92.2314 8.98131 91.877 9.05302 91.5016 9.05302C90.8371 9.05302 90.314 8.87374 89.9302 8.51305C89.5484 8.15237 89.3564 7.69677 89.3564 7.14626C89.3564 6.78135 89.4429 6.45653 89.618 6.17178C89.7931 5.88703 90.0356 5.66767 90.3499 5.5158C90.6642 5.36393 91.1156 5.23105 91.7083 5.11715C92.5056 4.96739 93.0603 4.82818 93.3683 4.69741V4.52656C93.3683 4.19751 93.2881 3.96549 93.1257 3.82417C92.9633 3.68496 92.6574 3.61536 92.2082 3.61536C91.9044 3.61536 91.6682 3.67442 91.4973 3.79464C91.3265 3.91487 91.1894 4.12369 91.0839 4.4232ZM93.3683 5.80899C93.1489 5.88281 92.803 5.96929 92.3284 6.07053C91.8538 6.17178 91.5437 6.27091 91.3982 6.36794C91.1746 6.52613 91.0649 6.72651 91.0649 6.96908C91.0649 7.21164 91.1535 7.41413 91.3328 7.5892C91.51 7.76427 91.7378 7.85075 92.0141 7.85075C92.3221 7.85075 92.6152 7.7495 92.8958 7.54701C93.1025 7.39304 93.2375 7.20531 93.3029 6.98173C93.3472 6.83619 93.3704 6.55777 93.3704 6.14858V5.80899H93.3683Z" fill="white"/>
<path d="M102.599 8.90749H100.89V5.61493C100.89 4.91888 100.854 4.4675 100.78 4.2629C100.707 4.0583 100.588 3.90011 100.424 3.78621C100.259 3.67231 100.063 3.61536 99.8312 3.61536C99.5359 3.61536 99.2701 3.69551 99.036 3.85792C98.8019 4.02033 98.6395 4.23548 98.553 4.50125C98.4665 4.76701 98.4222 5.26269 98.4222 5.98405V8.90749H96.7158V2.45527H98.302V3.40232C98.8652 2.67252 99.5739 2.30762 100.428 2.30762C100.806 2.30762 101.149 2.37511 101.462 2.51011C101.774 2.6451 102.01 2.81806 102.17 3.02898C102.331 3.23991 102.442 3.47826 102.504 3.74613C102.565 4.01401 102.599 4.39578 102.599 4.89357V8.90327V8.90749Z" fill="white"/>
<path d="M103.645 8.9073V7.57636L106.064 4.79846C106.46 4.34497 106.754 4.02226 106.946 3.83242C106.747 3.84508 106.486 3.85352 106.161 3.85773L103.883 3.87039V2.45508H109.217V3.66368L106.749 6.50696L105.88 7.4498C106.355 7.42238 106.648 7.40762 106.762 7.40762H109.405V8.90941H103.645V8.9073Z" fill="white"/>
<path d="M110.553 1.57983V0H112.261V1.57983H110.553ZM110.553 8.9074V2.45518H112.261V8.9074H110.553Z" fill="white"/>
<path d="M115.286 4.4232L113.735 4.14267C113.91 3.51833 114.21 3.0564 114.634 2.75689C115.06 2.45737 115.691 2.30762 116.53 2.30762C117.291 2.30762 117.859 2.39832 118.232 2.5776C118.606 2.75689 118.867 2.9868 119.019 3.26311C119.171 3.54153 119.247 4.04986 119.247 4.79232L119.228 6.78557C119.228 7.35296 119.255 7.7706 119.31 8.04058C119.365 8.31057 119.466 8.59953 119.618 8.90749H117.928C117.884 8.79359 117.829 8.62695 117.764 8.40337C117.737 8.30213 117.715 8.23463 117.703 8.20299C117.412 8.48563 117.1 8.69867 116.766 8.83999C116.433 8.98131 116.079 9.05302 115.703 9.05302C115.039 9.05302 114.516 8.87374 114.132 8.51305C113.75 8.15237 113.558 7.69677 113.558 7.14626C113.558 6.78135 113.645 6.45653 113.82 6.17178C113.995 5.88703 114.237 5.66767 114.552 5.5158C114.866 5.36393 115.317 5.23105 115.91 5.11715C116.707 4.96739 117.262 4.82818 117.57 4.69741V4.52656C117.57 4.19751 117.49 3.96549 117.327 3.82417C117.165 3.68496 116.859 3.61536 116.41 3.61536C116.106 3.61536 115.87 3.67442 115.699 3.79464C115.528 3.91487 115.391 4.12369 115.286 4.4232ZM117.57 5.80899C117.351 5.88281 117.005 5.96929 116.53 6.07053C116.055 6.17178 115.745 6.27091 115.6 6.36794C115.376 6.52613 115.267 6.72651 115.267 6.96908C115.267 7.21164 115.355 7.41413 115.534 7.5892C115.712 7.76427 115.939 7.85075 116.216 7.85075C116.524 7.85075 116.817 7.7495 117.097 7.54701C117.304 7.39304 117.439 7.20531 117.505 6.98173C117.549 6.83619 117.572 6.55777 117.572 6.14858V5.80899H117.57Z" fill="white"/>
<path d="M123.891 2.45524V3.81572H122.725V6.41643C122.725 6.94375 122.736 7.24959 122.759 7.33607C122.782 7.42255 122.833 7.49426 122.911 7.55121C122.989 7.60816 123.086 7.63558 123.2 7.63558C123.358 7.63558 123.586 7.58074 123.887 7.47106L124.033 8.79567C123.636 8.96652 123.187 9.05089 122.683 9.05089C122.375 9.05089 122.096 8.99816 121.85 8.89692C121.603 8.79356 121.422 8.66068 121.306 8.49616C121.19 8.33164 121.109 8.11017 121.065 7.83174C121.029 7.63347 121.01 7.23271 121.01 6.62947V3.81572H120.226V2.45524H121.01V1.17282L122.723 0.177246V2.45524H123.889H123.891Z" fill="white"/>
<path d="M124.68 5.58962C124.68 5.02223 124.819 4.47383 125.1 3.94229C125.38 3.41076 125.775 3.00578 126.287 2.72736C126.8 2.44683 127.372 2.30762 128.004 2.30762C128.981 2.30762 129.78 2.62401 130.405 3.25889C131.029 3.89378 131.341 4.69319 131.341 5.66134C131.341 6.62949 131.027 7.44788 130.396 8.08909C129.766 8.73031 128.973 9.05302 128.017 9.05302C127.426 9.05302 126.861 8.92014 126.325 8.65227C125.79 8.38439 125.38 7.99207 125.1 7.47741C124.821 6.96064 124.68 6.33208 124.68 5.58962ZM126.431 5.68032C126.431 6.31943 126.583 6.81088 126.886 7.15047C127.19 7.49006 127.566 7.66091 128.011 7.66091C128.456 7.66091 128.829 7.49006 129.133 7.15047C129.434 6.81088 129.586 6.31521 129.586 5.66767C129.586 5.02012 129.434 4.54976 129.133 4.21017C128.831 3.87058 128.458 3.69973 128.011 3.69973C127.564 3.69973 127.19 3.87058 126.886 4.21017C126.583 4.54976 126.431 5.04122 126.431 5.68032Z" fill="white"/>
<path d="M77.066 23.8411H75.4798V22.8941C75.2162 23.2632 74.9061 23.5374 74.5475 23.7167C74.1889 23.896 73.8283 23.9867 73.4634 23.9867C72.723 23.9867 72.086 23.6872 71.5587 23.0903C71.0293 22.4933 70.7656 21.6581 70.7656 20.5908C70.7656 19.5235 71.023 18.665 71.5376 18.0955C72.0523 17.526 72.7019 17.2413 73.4887 17.2413C74.21 17.2413 74.8344 17.5408 75.3596 18.1398V14.9316H77.0681V23.839L77.066 23.8411ZM72.5079 20.4748C72.5079 21.1624 72.6028 21.6623 72.7926 21.9702C73.0689 22.4153 73.4528 22.6389 73.9464 22.6389C74.3387 22.6389 74.6741 22.4722 74.9483 22.1369C75.2246 21.8036 75.3617 21.3037 75.3617 20.6393C75.3617 19.8989 75.2288 19.3653 74.9609 19.0384C74.6931 18.7114 74.3514 18.549 73.9337 18.549C73.5161 18.549 73.1892 18.7093 72.915 19.032C72.6408 19.3548 72.5037 19.8357 72.5037 20.4748H72.5079Z" fill="white"/>
<path d="M80.0253 19.3568L78.475 19.0763C78.6501 18.4519 78.9496 17.99 79.3736 17.6905C79.7996 17.391 80.4303 17.2412 81.2698 17.2412C82.0312 17.2412 82.5986 17.3319 82.972 17.5112C83.3453 17.6905 83.6069 17.9204 83.7587 18.1967C83.9106 18.4751 83.9865 18.9835 83.9865 19.7259L83.9675 21.7192C83.9675 22.2866 83.995 22.7042 84.0498 22.9742C84.1046 23.2442 84.2059 23.5331 84.3578 23.8411H82.6682C82.6239 23.7272 82.5691 23.5605 82.5037 23.337C82.4763 23.2357 82.4552 23.1682 82.4425 23.1366C82.1515 23.4192 81.8393 23.6323 81.506 23.7736C81.1728 23.9149 80.8184 23.9866 80.443 23.9866C79.7786 23.9866 79.2555 23.8073 78.8716 23.4466C78.4898 23.086 78.2979 22.6304 78.2979 22.0798C78.2979 21.7149 78.3843 21.3901 78.5594 21.1054C78.7345 20.8206 78.977 20.6013 79.2913 20.4494C79.6056 20.2975 80.057 20.1646 80.6497 20.0507C81.447 19.901 82.0017 19.7618 82.3097 19.631V19.4602C82.3097 19.1311 82.2295 18.8991 82.0671 18.7578C81.9047 18.6186 81.5988 18.549 81.1496 18.549C80.8458 18.549 80.6096 18.608 80.4387 18.7282C80.2679 18.8485 80.1308 19.0573 80.0253 19.3568ZM82.3097 20.7426C82.0903 20.8164 81.7444 20.9029 81.2698 21.0041C80.7952 21.1054 80.4852 21.2045 80.3396 21.3015C80.116 21.4597 80.0064 21.6601 80.0064 21.9027C80.0064 22.1452 80.0949 22.3477 80.2742 22.5228C80.4514 22.6979 80.6792 22.7843 80.9555 22.7843C81.2635 22.7843 81.5567 22.6831 81.8372 22.4806C82.0439 22.3266 82.1789 22.1389 82.2443 21.9153C82.2886 21.7698 82.3118 21.4914 82.3118 21.0822V20.7426H82.3097Z" fill="white"/>
<path d="M85.6694 23.841V14.9336H87.3779V23.841H85.6694Z" fill="white"/>
<path d="M89.1265 23.841V14.9336H90.835V23.841H89.1265Z" fill="white"/>
<path d="M92.5732 18.0994L92.2505 16.4416V14.9355H94.1109V16.4416L93.8303 18.0994H92.5732Z" fill="white"/>
<path d="M95.543 14.9336H97.3422V19.7575C97.3422 20.5231 97.3654 21.0188 97.4097 21.2466C97.4856 21.6115 97.6691 21.9047 97.9602 22.1241C98.2491 22.3455 98.6457 22.4552 99.1477 22.4552C99.6497 22.4552 100.042 22.3519 100.301 22.143C100.561 21.9342 100.717 21.679 100.77 21.3753C100.822 21.0715 100.85 20.5674 100.85 19.8629V14.9357H102.649V19.614C102.649 20.6834 102.601 21.4385 102.504 21.8815C102.406 22.3223 102.227 22.6957 101.966 22.9994C101.704 23.3031 101.354 23.5457 100.917 23.725C100.481 23.9043 99.9091 23.995 99.2046 23.995C98.3546 23.995 97.7092 23.8958 97.2683 23.6997C96.8296 23.5035 96.4816 23.2483 96.2264 22.934C95.9711 22.6197 95.8024 22.2907 95.7223 21.9469C95.6041 21.4364 95.5451 20.6834 95.5451 19.6858V14.9336H95.543Z" fill="white"/>
<path d="M110.401 23.8411H108.692V20.5485C108.692 19.8525 108.656 19.4011 108.583 19.1965C108.509 18.9919 108.391 18.8337 108.226 18.7198C108.062 18.6059 107.865 18.549 107.633 18.549C107.338 18.549 107.072 18.6291 106.838 18.7915C106.604 18.9539 106.442 19.1691 106.355 19.4348C106.269 19.7006 106.224 20.1963 106.224 20.9176V23.8411H104.518V17.3889H106.104V18.3359C106.667 17.6061 107.376 17.2412 108.23 17.2412C108.608 17.2412 108.952 17.3087 109.264 17.4437C109.576 17.5787 109.812 17.7517 109.973 17.9626C110.133 18.1735 110.245 18.4118 110.306 18.6797C110.367 18.9476 110.401 19.3294 110.401 19.8272V23.8369V23.8411Z" fill="white"/>
<path d="M112.132 16.5134V14.9336H113.841V16.5134H112.132ZM112.132 23.841V17.3888H113.841V23.841H112.132Z" fill="white"/>
<path d="M115.195 20.5232C115.195 19.9558 115.334 19.4074 115.615 18.8759C115.895 18.3444 116.29 17.9394 116.802 17.661C117.315 17.3804 117.886 17.2412 118.519 17.2412C119.496 17.2412 120.295 17.5576 120.919 18.1925C121.544 18.8274 121.856 19.6268 121.856 20.5949C121.856 21.5631 121.542 22.3794 120.911 23.0227C120.28 23.6639 119.487 23.9866 118.532 23.9866C117.941 23.9866 117.376 23.8537 116.84 23.5859C116.304 23.318 115.895 22.9257 115.615 22.411C115.336 21.8942 115.195 21.2657 115.195 20.5232ZM116.946 20.6139C116.946 21.253 117.097 21.7445 117.401 22.0841C117.705 22.4237 118.08 22.5945 118.525 22.5945C118.97 22.5945 119.344 22.4237 119.647 22.0841C119.949 21.7445 120.101 21.2488 120.101 20.6013C120.101 19.9537 119.949 19.4834 119.647 19.1438C119.346 18.8042 118.973 18.6333 118.525 18.6333C118.078 18.6333 117.705 18.8042 117.401 19.1438C117.097 19.4834 116.946 19.9748 116.946 20.6139Z" fill="white"/>
<path d="M129.061 23.8411H127.353V20.5485C127.353 19.8525 127.317 19.4011 127.243 19.1965C127.169 18.9919 127.051 18.8337 126.887 18.7198C126.722 18.6059 126.526 18.549 126.294 18.549C125.999 18.549 125.733 18.6291 125.499 18.7915C125.265 18.9539 125.102 19.1691 125.016 19.4348C124.929 19.7006 124.885 20.1963 124.885 20.9176V23.8411H123.179V17.3889H124.765V18.3359C125.328 17.6061 126.037 17.2412 126.891 17.2412C127.269 17.2412 127.612 17.3087 127.925 17.4437C128.237 17.5787 128.473 17.7517 128.633 17.9626C128.794 18.1735 128.905 18.4118 128.967 18.6797C129.028 18.9476 129.061 19.3294 129.061 19.8272V23.8369V23.8411Z" fill="white"/>
<path d="M134.531 21.7885L136.233 22.0732C136.013 22.6975 135.67 23.1721 135.197 23.4991C134.725 23.826 134.134 23.9884 133.425 23.9884C132.303 23.9884 131.472 23.6214 130.934 22.8895C130.508 22.3031 130.297 21.5607 130.297 20.6663C130.297 19.5969 130.576 18.7596 131.135 18.1542C131.694 17.5488 132.4 17.2451 133.255 17.2451C134.214 17.2451 134.971 17.5615 135.526 18.1964C136.081 18.8313 136.347 19.8015 136.321 21.1093H132.044C132.056 21.6155 132.194 22.0099 132.457 22.2905C132.721 22.571 133.048 22.7123 133.442 22.7123C133.71 22.7123 133.934 22.6385 134.117 22.493C134.301 22.3474 134.438 22.1112 134.531 21.7885ZM134.628 20.0631C134.615 19.5695 134.488 19.1941 134.244 18.9367C133.999 18.6794 133.706 18.5507 133.356 18.5507C132.982 18.5507 132.674 18.6857 132.432 18.9578C132.189 19.2299 132.069 19.5969 132.073 20.0631H134.626H134.628Z" fill="white"/>
<path d="M144.908 21.7885L146.61 22.0732C146.391 22.6975 146.047 23.1721 145.575 23.4991C145.102 23.826 144.512 23.9884 143.803 23.9884C142.681 23.9884 141.85 23.6214 141.312 22.8895C140.886 22.3031 140.675 21.5607 140.675 20.6663C140.675 19.5969 140.953 18.7596 141.512 18.1542C142.071 17.5488 142.778 17.2451 143.632 17.2451C144.592 17.2451 145.349 17.5615 145.904 18.1964C146.458 18.8313 146.724 19.8015 146.699 21.1093H142.421C142.434 21.6155 142.571 22.0099 142.835 22.2905C143.098 22.571 143.425 22.7123 143.82 22.7123C144.088 22.7123 144.311 22.6385 144.495 22.493C144.678 22.3474 144.815 22.1112 144.908 21.7885ZM145.005 20.0631C144.992 19.5695 144.866 19.1941 144.621 18.9367C144.377 18.6794 144.083 18.5507 143.733 18.5507C143.36 18.5507 143.052 18.6857 142.809 18.9578C142.567 19.2299 142.447 19.5969 142.451 20.0631H145.003H145.005Z" fill="white"/>
<path d="M152.341 23.8409V22.8749C152.107 23.2187 151.797 23.4908 151.415 23.689C151.034 23.8873 150.629 23.9864 150.203 23.9864C149.777 23.9864 149.38 23.8915 149.036 23.7017C148.692 23.5118 148.443 23.244 148.289 22.9002C148.136 22.5564 148.06 22.0797 148.06 21.4722V17.3887H149.766V20.3543C149.766 21.2613 149.798 21.8181 149.861 22.0227C149.924 22.2273 150.038 22.3897 150.205 22.5078C150.371 22.6281 150.582 22.6871 150.837 22.6871C151.129 22.6871 151.39 22.607 151.622 22.4467C151.854 22.2864 152.01 22.0881 152.097 21.8519C152.181 21.6156 152.223 21.0335 152.223 20.1117V17.3887H153.93V23.8409H152.343H152.341Z" fill="white"/>
<path d="M157.33 23.8409H155.621V17.3887H157.207V18.3062C157.479 17.8738 157.722 17.587 157.939 17.4499C158.156 17.3128 158.401 17.2432 158.677 17.2432C159.066 17.2432 159.441 17.3507 159.802 17.5659L159.272 19.055C158.985 18.8694 158.717 18.7745 158.471 18.7745C158.224 18.7745 158.03 18.8399 157.863 18.9728C157.697 19.1035 157.566 19.3419 157.471 19.6857C157.376 20.0295 157.327 20.7509 157.327 21.8498V23.843L157.33 23.8409Z" fill="white"/>
<path d="M160.143 20.5232C160.143 19.9558 160.282 19.4074 160.563 18.8759C160.843 18.3444 161.238 17.9394 161.75 17.661C162.263 17.3804 162.834 17.2412 163.467 17.2412C164.444 17.2412 165.243 17.5576 165.868 18.1925C166.492 18.8274 166.804 19.6268 166.804 20.5949C166.804 21.5631 166.49 22.3794 165.859 23.0227C165.228 23.6639 164.435 23.9866 163.48 23.9866C162.889 23.9866 162.324 23.8537 161.788 23.5859C161.253 23.318 160.843 22.9257 160.563 22.411C160.284 21.8942 160.143 21.2657 160.143 20.5232ZM161.894 20.6139C161.894 21.253 162.046 21.7445 162.349 22.0841C162.653 22.4237 163.029 22.5945 163.474 22.5945C163.919 22.5945 164.292 22.4237 164.596 22.0841C164.897 21.7445 165.049 21.2488 165.049 20.6013C165.049 19.9537 164.897 19.4834 164.596 19.1438C164.294 18.8042 163.921 18.6333 163.474 18.6333C163.026 18.6333 162.653 18.8042 162.349 19.1438C162.046 19.4834 161.894 19.9748 161.894 20.6139Z" fill="white"/>
<path d="M168.091 17.3889H169.683V18.3359C169.89 18.0111 170.168 17.7495 170.521 17.5449C170.873 17.3425 171.263 17.2412 171.693 17.2412C172.442 17.2412 173.079 17.5344 173.602 18.1229C174.125 18.7114 174.387 19.5276 174.387 20.5781C174.387 21.6285 174.123 22.4933 173.598 23.0902C173.071 23.6871 172.434 23.9866 171.683 23.9866C171.326 23.9866 171.004 23.9149 170.715 23.7736C170.426 23.6323 170.12 23.3897 169.799 23.0438V26.2941H168.091V17.3868V17.3889ZM169.78 20.5063C169.78 21.2319 169.924 21.7677 170.211 22.1136C170.497 22.4595 170.85 22.6325 171.261 22.6325C171.672 22.6325 171.989 22.4743 172.252 22.1558C172.516 21.8373 172.647 21.3163 172.647 20.5907C172.647 19.9136 172.512 19.4116 172.24 19.0847C171.968 18.7557 171.632 18.5932 171.231 18.5932C170.831 18.5932 170.468 18.7535 170.192 19.0763C169.915 19.399 169.778 19.8757 169.778 20.5063H169.78Z" fill="white"/>
<path d="M179.479 21.7885L181.181 22.0732C180.962 22.6975 180.618 23.1721 180.145 23.4991C179.673 23.826 179.082 23.9884 178.374 23.9884C177.252 23.9884 176.42 23.6214 175.883 22.8895C175.457 22.3031 175.246 21.5607 175.246 20.6663C175.246 19.5969 175.524 18.7596 176.083 18.1542C176.642 17.5488 177.349 17.2451 178.203 17.2451C179.163 17.2451 179.92 17.5615 180.474 18.1964C181.029 18.8313 181.295 19.8015 181.27 21.1093H176.992C177.005 21.6155 177.142 22.0099 177.405 22.2905C177.669 22.571 177.996 22.7123 178.391 22.7123C178.658 22.7123 178.882 22.6385 179.065 22.493C179.249 22.3474 179.386 22.1112 179.479 21.7885ZM179.576 20.0631C179.563 19.5695 179.437 19.1941 179.192 18.9367C178.947 18.6794 178.654 18.5507 178.304 18.5507C177.931 18.5507 177.623 18.6857 177.38 18.9578C177.138 19.2299 177.017 19.5969 177.022 20.0631H179.574H179.576Z" fill="white"/>
<path d="M183.937 19.3568L182.387 19.0763C182.562 18.4519 182.862 17.99 183.286 17.6905C183.712 17.391 184.342 17.2412 185.182 17.2412C185.943 17.2412 186.511 17.3319 186.884 17.5112C187.257 17.6905 187.519 17.9204 187.671 18.1967C187.823 18.4751 187.899 18.9835 187.899 19.7259L187.88 21.7192C187.88 22.2866 187.907 22.7042 187.962 22.9742C188.017 23.2442 188.118 23.5331 188.27 23.8411H186.58C186.536 23.7272 186.481 23.5605 186.416 23.337C186.388 23.2357 186.367 23.1682 186.355 23.1366C186.064 23.4192 185.751 23.6323 185.418 23.7736C185.085 23.9149 184.731 23.9866 184.355 23.9866C183.691 23.9866 183.168 23.8073 182.784 23.4466C182.402 23.086 182.21 22.6304 182.21 22.0798C182.21 21.7149 182.296 21.3901 182.472 21.1054C182.647 20.8206 182.889 20.6013 183.203 20.4494C183.518 20.2975 183.969 20.1646 184.562 20.0507C185.359 19.901 185.914 19.7618 186.222 19.631V19.4602C186.222 19.1311 186.142 18.8991 185.979 18.7578C185.817 18.6186 185.511 18.549 185.062 18.549C184.758 18.549 184.522 18.608 184.351 18.7282C184.18 18.8485 184.043 19.0573 183.937 19.3568ZM186.222 20.7426C186.002 20.8164 185.656 20.9029 185.182 21.0041C184.707 21.1054 184.397 21.2045 184.252 21.3015C184.028 21.4597 183.918 21.6601 183.918 21.9027C183.918 22.1452 184.007 22.3477 184.186 22.5228C184.364 22.6979 184.591 22.7843 184.868 22.7843C185.176 22.7843 185.469 22.6831 185.749 22.4806C185.956 22.3266 186.091 22.1389 186.156 21.9153C186.201 21.7698 186.224 21.4914 186.224 21.0822V20.7426H186.222Z" fill="white"/>
<path d="M71.1602 39.8669V32.166H72.2063L76.2519 38.2112V32.166H77.2285V39.8669H76.1823L72.1388 33.8155V39.8669H71.1623H71.1602Z" fill="white"/>
<path d="M82.6385 38.072L83.6151 38.1923C83.4611 38.7639 83.1764 39.2068 82.7588 39.5211C82.3411 39.8354 81.8096 39.9936 81.1621 39.9936C80.3458 39.9936 79.6982 39.7426 79.2215 39.2406C78.7427 38.7386 78.5044 38.0341 78.5044 37.1271C78.5044 36.2201 78.747 35.4608 79.23 34.9419C79.713 34.423 80.3394 34.1636 81.1093 34.1636C81.8792 34.1636 82.4656 34.4167 82.9381 34.925C83.4105 35.4333 83.6468 36.1463 83.6468 37.068C83.6468 37.125 83.6468 37.2072 83.6425 37.3211H79.4831C79.5189 37.9349 79.6919 38.4032 80.002 38.728C80.312 39.0528 80.7022 39.2174 81.1684 39.2174C81.5143 39.2174 81.8117 39.1267 82.0564 38.9453C82.3011 38.7639 82.4951 38.4728 82.6385 38.0741V38.072ZM79.5337 36.5428H82.6491C82.6069 36.0746 82.4888 35.7223 82.2926 35.4882C81.991 35.1233 81.6008 34.9419 81.122 34.9419C80.6875 34.9419 80.3226 35.0874 80.0273 35.3785C79.732 35.6696 79.5675 36.0577 79.5358 36.5449L79.5337 36.5428Z" fill="white"/>
<path d="M84.1719 39.8671L86.2094 36.9668L84.3237 34.2881H85.5049L86.3613 35.5958C86.5216 35.8447 86.6524 36.0535 86.7494 36.2202C86.9034 35.9881 87.0447 35.7835 87.1755 35.6064L88.1162 34.2881H89.2446L87.3168 36.9141L89.3923 39.8671H88.2322L87.0869 38.1333L86.7831 37.665L85.3172 39.865H84.1719V39.8671Z" fill="white"/>
<path d="M92.2442 39.0213L92.3813 39.8566C92.1155 39.9114 91.8771 39.941 91.6662 39.941C91.3224 39.941 91.0566 39.8861 90.8668 39.7786C90.677 39.671 90.5441 39.5275 90.4682 39.3504C90.3901 39.1732 90.3522 38.802 90.3522 38.2346V35.0264H89.6582V34.2903H90.3522V32.9087L91.2929 32.3413V34.2903H92.2442V35.0264H91.2929V38.2873C91.2929 38.5573 91.3098 38.7303 91.3435 38.8083C91.3773 38.8863 91.43 38.9475 91.5059 38.9918C91.5818 39.0382 91.6894 39.0593 91.8286 39.0593C91.9341 39.0593 92.0712 39.0466 92.2442 39.0234V39.0213Z" fill="white"/>
<path d="M96.8933 36.8467V35.9439L100.154 35.9397V38.7978C99.6522 39.1964 99.1375 39.498 98.6039 39.6984C98.0703 39.8988 97.5261 40 96.965 40C96.2078 40 95.5223 39.8376 94.9043 39.5149C94.2863 39.1901 93.8201 38.7218 93.5037 38.1101C93.1894 37.4985 93.0312 36.813 93.0312 36.0557C93.0312 35.2985 93.1873 34.6067 93.5016 33.957C93.8159 33.3074 94.2652 32.8244 94.8536 32.5101C95.4421 32.1958 96.1192 32.0376 96.887 32.0376C97.4438 32.0376 97.9479 32.1283 98.3972 32.3076C98.8465 32.4869 99.2008 32.74 99.456 33.0606C99.7113 33.3812 99.9053 33.803 100.038 34.3219L99.1186 34.575C99.0026 34.1827 98.8591 33.8748 98.6883 33.6512C98.5174 33.4276 98.2706 33.2483 97.9521 33.1133C97.6336 32.9783 97.2793 32.9108 96.8912 32.9108C96.425 32.9108 96.0222 32.9825 95.6826 33.1239C95.343 33.2652 95.0688 33.4529 94.86 33.6828C94.6512 33.9127 94.4887 34.1679 94.3748 34.4443C94.1787 34.921 94.0817 35.4377 94.0817 35.9946C94.0817 36.6801 94.1998 37.2559 94.436 37.7178C94.6723 38.1798 95.0161 38.5236 95.4674 38.7471C95.9188 38.9707 96.3997 39.0825 96.906 39.0825C97.3468 39.0825 97.7771 38.9981 98.1989 38.8273C98.6187 38.6586 98.9372 38.4772 99.1544 38.2831V36.8488H96.8912L96.8933 36.8467Z" fill="white"/>
<path d="M105.355 38.072L106.332 38.1923C106.178 38.7639 105.893 39.2068 105.476 39.5211C105.058 39.8354 104.526 39.9936 103.879 39.9936C103.063 39.9936 102.415 39.7426 101.938 39.2406C101.46 38.7386 101.221 38.0341 101.221 37.1271C101.221 36.2201 101.464 35.4608 101.947 34.9419C102.43 34.423 103.056 34.1636 103.826 34.1636C104.596 34.1636 105.182 34.4167 105.655 34.925C106.127 35.4333 106.364 36.1463 106.364 37.068C106.364 37.125 106.364 37.2072 106.359 37.3211H102.2C102.236 37.9349 102.409 38.4032 102.719 38.728C103.029 39.0528 103.419 39.2174 103.885 39.2174C104.231 39.2174 104.529 39.1267 104.773 38.9453C105.018 38.7639 105.212 38.4728 105.355 38.0741V38.072ZM102.251 36.5428H105.366C105.324 36.0746 105.206 35.7223 105.009 35.4882C104.708 35.1233 104.318 34.9419 103.839 34.9419C103.404 34.9419 103.039 35.0874 102.744 35.3785C102.449 35.6696 102.284 36.0577 102.253 36.5449L102.251 36.5428Z" fill="white"/>
<path d="M107.52 39.8672V34.2882H108.372V35.0813C108.781 34.4696 109.374 34.1616 110.148 34.1616C110.483 34.1616 110.793 34.2228 111.076 34.343C111.358 34.4632 111.569 34.6214 111.709 34.8176C111.848 35.0138 111.947 35.2458 112.002 35.5158C112.038 35.6908 112.054 35.9967 112.054 36.4354V39.8651H111.109V36.4713C111.109 36.0853 111.074 35.7984 111 35.6065C110.926 35.4166 110.795 35.2627 110.607 35.1488C110.42 35.0349 110.2 34.9779 109.949 34.9779C109.547 34.9779 109.198 35.1066 108.907 35.3618C108.614 35.617 108.469 36.1021 108.469 36.8172V39.8629H107.524L107.52 39.8672Z" fill="white"/>
<path d="M117.321 38.072L118.298 38.1923C118.144 38.7639 117.859 39.2068 117.441 39.5211C117.024 39.8354 116.492 39.9936 115.845 39.9936C115.028 39.9936 114.381 39.7426 113.904 39.2406C113.425 38.7386 113.187 38.0341 113.187 37.1271C113.187 36.2201 113.43 35.4608 113.913 34.9419C114.396 34.423 115.022 34.1636 115.792 34.1636C116.562 34.1636 117.148 34.4167 117.621 34.925C118.093 35.4333 118.329 36.1463 118.329 37.068C118.329 37.125 118.329 37.2072 118.325 37.3211H114.166C114.202 37.9349 114.375 38.4032 114.685 38.728C114.995 39.0528 115.385 39.2174 115.851 39.2174C116.197 39.2174 116.494 39.1267 116.739 38.9453C116.984 38.7639 117.178 38.4728 117.321 38.0741V38.072ZM114.216 36.5428H117.332C117.29 36.0746 117.171 35.7223 116.975 35.4882C116.674 35.1233 116.283 34.9419 115.805 34.9419C115.37 34.9419 115.005 35.0874 114.71 35.3785C114.415 35.6696 114.25 36.0577 114.218 36.5449L114.216 36.5428Z" fill="white"/>
<path d="M119.475 39.8672V34.2882H120.325V35.134C120.542 34.7374 120.742 34.478 120.926 34.3515C121.109 34.2249 121.312 34.1616 121.533 34.1616C121.852 34.1616 122.177 34.2629 122.506 34.4654L122.181 35.3428C121.949 35.2057 121.719 35.1382 121.487 35.1382C121.28 35.1382 121.095 35.1994 120.93 35.3238C120.765 35.4483 120.647 35.6212 120.578 35.8406C120.472 36.176 120.42 36.5451 120.42 36.9437V39.8651H119.475V39.8672Z" fill="white"/>
<path d="M126.707 39.1794C126.357 39.4768 126.02 39.6877 125.697 39.8101C125.374 39.9324 125.026 39.9936 124.655 39.9936C124.041 39.9936 123.571 39.8438 123.242 39.5443C122.913 39.2448 122.748 38.863 122.748 38.3969C122.748 38.1248 122.809 37.8738 122.934 37.6481C123.058 37.4224 123.221 37.241 123.423 37.1039C123.623 36.9668 123.851 36.8634 124.102 36.7938C124.288 36.7453 124.568 36.6968 124.942 36.6525C125.705 36.5618 126.266 36.4521 126.627 36.3277C126.631 36.199 126.631 36.1167 126.631 36.0809C126.631 35.6949 126.543 35.4249 126.363 35.2667C126.123 35.0537 125.762 34.9461 125.288 34.9461C124.843 34.9461 124.513 35.0241 124.303 35.1802C124.092 35.3363 123.933 35.6126 123.832 36.0071L122.908 35.8805C122.993 35.484 123.13 35.1655 123.324 34.9229C123.516 34.6803 123.794 34.4926 124.159 34.3597C124.524 34.229 124.946 34.1636 125.425 34.1636C125.903 34.1636 126.287 34.2205 126.585 34.3323C126.882 34.4441 127.102 34.5854 127.241 34.7542C127.38 34.9229 127.479 35.1381 127.534 35.3975C127.566 35.5578 127.58 35.8489 127.58 36.2686V37.5299C127.58 38.4095 127.601 38.9642 127.642 39.1984C127.682 39.4304 127.762 39.654 127.88 39.867H126.893C126.796 39.6708 126.732 39.4409 126.703 39.1794H126.707ZM126.629 37.068C126.285 37.2072 125.771 37.3275 125.085 37.4245C124.697 37.4814 124.421 37.5426 124.26 37.6143C124.1 37.6839 123.976 37.7873 123.887 37.9223C123.798 38.0573 123.756 38.207 123.756 38.3715C123.756 38.6247 123.851 38.8335 124.043 39.0022C124.233 39.171 124.513 39.2553 124.881 39.2553C125.248 39.2553 125.568 39.1752 125.853 39.017C126.136 38.8588 126.344 38.6394 126.477 38.3631C126.578 38.1501 126.629 37.8337 126.629 37.4182V37.0722V37.068Z" fill="white"/>
<path d="M131.114 39.0213L131.251 39.8566C130.985 39.9114 130.747 39.941 130.536 39.941C130.192 39.941 129.926 39.8861 129.736 39.7786C129.547 39.671 129.414 39.5275 129.338 39.3504C129.26 39.1732 129.222 38.802 129.222 38.2346V35.0264H128.528V34.2903H129.222V32.9087L130.163 32.3413V34.2903H131.114V35.0264H130.163V38.2873C130.163 38.5573 130.179 38.7303 130.213 38.8083C130.247 38.8863 130.3 38.9475 130.376 38.9918C130.451 39.0382 130.559 39.0593 130.698 39.0593C130.804 39.0593 130.941 39.0466 131.114 39.0234V39.0213Z" fill="white"/>
<path d="M132.044 33.2547V32.1685H132.989V33.2547H132.044ZM132.044 39.8672V34.2883H132.989V39.8672H132.044Z" fill="white"/>
<path d="M134.077 37.0786C134.077 36.045 134.364 35.2815 134.938 34.7837C135.417 34.3703 136.003 34.1636 136.693 34.1636C137.46 34.1636 138.087 34.4146 138.574 34.9166C139.061 35.4186 139.304 36.1125 139.304 36.9984C139.304 37.7156 139.196 38.2808 138.981 38.6922C138.766 39.1035 138.452 39.422 138.04 39.6498C137.629 39.8776 137.18 39.9915 136.693 39.9915C135.912 39.9915 135.279 39.7405 134.799 39.2406C134.318 38.7407 134.077 38.0193 134.077 37.0765V37.0786ZM135.05 37.0786C135.05 37.7936 135.206 38.3272 135.518 38.6837C135.83 39.0381 136.222 39.2174 136.695 39.2174C137.167 39.2174 137.555 39.0381 137.865 38.6816C138.178 38.3251 138.334 37.781 138.334 37.0469C138.334 36.3572 138.178 35.8341 137.863 35.4798C137.549 35.1233 137.161 34.9461 136.695 34.9461C136.229 34.9461 135.83 35.1233 135.518 35.4776C135.206 35.832 135.05 36.3656 135.05 37.0786Z" fill="white"/>
<path d="M140.411 39.8672V34.2882H141.263V35.0813C141.672 34.4696 142.265 34.1616 143.039 34.1616C143.375 34.1616 143.685 34.2228 143.967 34.343C144.25 34.4632 144.461 34.6214 144.6 34.8176C144.739 35.0138 144.838 35.2458 144.893 35.5158C144.929 35.6908 144.946 35.9967 144.946 36.4354V39.8651H144.001V36.4713C144.001 36.0853 143.965 35.7984 143.891 35.6065C143.818 35.4166 143.687 35.2627 143.499 35.1488C143.311 35.0349 143.092 34.9779 142.841 34.9779C142.438 34.9779 142.09 35.1066 141.799 35.3618C141.506 35.617 141.36 36.1021 141.36 36.8172V39.8629H140.415L140.411 39.8672Z" fill="white"/>
<path d="M146.534 39.8669V32.166H152.103V33.0751H147.553V35.4333H151.814V36.336H147.553V38.9578H152.28V39.8669H146.534Z" fill="white"/>
<path d="M158.743 32.1681H159.761V36.6166C159.761 37.3906 159.673 38.0044 159.498 38.46C159.323 38.9156 159.006 39.2848 158.549 39.5716C158.091 39.8564 157.492 39.9998 156.749 39.9998C156.007 39.9998 155.437 39.8754 154.98 39.6265C154.522 39.3776 154.193 39.019 153.997 38.5465C153.801 38.0762 153.704 37.4328 153.704 36.6166V32.1681H154.722V36.6123C154.722 37.281 154.784 37.7745 154.908 38.0909C155.032 38.4073 155.245 38.652 155.549 38.8228C155.853 38.9937 156.222 39.0802 156.661 39.0802C157.41 39.0802 157.943 38.9093 158.264 38.5697C158.582 38.2301 158.743 37.5763 158.743 36.6102V32.166V32.1681Z" fill="white"/>
</svg>
