<svg width="226" height="32" viewBox="0 0 226 32" fill="none" xmlns="http://www.w3.org/2000/svg">
<path d="M19.8067 18.6099C19.9425 18.6099 20.1169 18.6666 20.0783 18.7801C20.0396 18.8935 19.9814 19.0637 19.8839 19.0822C19.7871 19.101 19.5737 18.9502 19.5737 18.8173C19.5737 18.6851 19.6902 18.6099 19.8067 18.6099Z" fill="white"/>
<path d="M8.48805 22.0708C8.6235 22.146 8.77929 22.146 8.91467 22.0708L8.79821 21.9006L8.5463 21.6925C8.41017 21.6169 8.31332 21.6925 8.21582 21.8822L8.48805 22.0708Z" fill="white"/>
<path d="M15.8267 26.9126C15.7881 26.9878 15.8075 27.0449 15.9046 27.1201C16.0014 27.1963 16.0793 27.1963 16.1376 27.1583L15.8267 26.9126Z" fill="white"/>
<path d="M25.3867 14.6096C25.4061 14.7037 25.3867 14.7976 25.3095 14.8534C25.2516 14.9105 25.1361 14.9663 24.9624 15.0229L24.789 14.7221C24.808 14.4784 24.7121 14.253 24.5384 14.0466C24.6156 13.9904 24.7121 13.9153 24.8659 13.8582C24.9817 13.8024 24.9624 13.8582 24.808 13.8779C24.6543 13.9153 24.5191 14.065 24.4229 14.065H24.3844C24.4808 13.6899 24.6156 13.3891 24.8276 13.1077C24.8855 12.9764 24.8469 12.9573 24.7311 13.0892C24.5577 13.3333 24.4033 13.5586 24.2685 13.8212C24.2106 13.7651 24.153 13.6527 24.1337 13.4831C24.0951 13.2951 24.0565 13.2762 24.0372 13.4646C24.0759 13.6899 24.1141 13.8582 24.172 13.9525C23.9407 14.2903 23.7673 14.4216 23.6325 14.3471C23.7094 13.8779 23.8252 13.3702 23.9603 12.8444C24.1916 12.6191 24.4033 12.5446 24.5766 12.6191C24.8276 12.4321 25.0203 12.3939 25.1937 12.5063C25.2902 12.657 25.3285 12.8072 25.3095 12.9384C25.2902 13.0892 25.2516 13.239 25.1551 13.4273C25.3481 13.4273 25.4446 13.5015 25.4636 13.6527C25.3867 13.9904 25.213 14.2342 24.9817 14.3843C25.2516 14.4411 25.3671 14.5156 25.3867 14.6096ZM24.9238 15.8869C24.8855 16.131 24.808 16.3564 24.6732 16.5249C24.2496 16.994 24.0759 17.2572 24.153 17.3516C24.2685 17.5387 24.2496 17.7451 24.0951 17.9892C23.8638 18.2525 23.5746 18.5527 23.2085 18.8717C23.3047 19.0785 23.2278 19.2283 22.9772 19.3793C22.688 19.5291 22.3606 19.6792 21.9938 19.7917C22.6494 19.3038 23.0541 18.7975 23.2085 18.234C23.4202 18.046 23.6136 17.9147 23.7673 17.8579C23.9024 17.764 23.9407 17.7266 23.8445 17.7451C23.6712 17.8207 23.4781 17.9147 23.2665 18.0648C23.4591 17.6894 23.5939 17.2761 23.6712 16.8443C24.0759 16.4688 24.3071 16.168 24.423 15.9615C24.5577 15.755 24.5766 15.7173 24.4419 15.8302C24.2878 16.0739 24.0565 16.3375 23.7484 16.6189C23.8831 16.1868 24.0183 15.7173 24.1337 15.1916C24.1916 14.8916 24.172 14.835 24.0951 15.0229L23.9407 15.5488C23.8638 15.3423 23.787 15.1916 23.6904 15.0787L23.8831 15.6989C23.8446 15.9426 23.7484 16.2993 23.5939 16.7502C23.4591 16.3564 23.2665 15.9997 23.0352 15.6801C22.8228 15.4168 22.7842 15.4168 22.9193 15.6616C23.1506 15.9803 23.3433 16.4121 23.4977 16.9567C23.3823 17.4258 23.2278 17.8207 23.0734 18.14C22.9576 17.9708 22.8228 17.8395 22.688 17.764C22.5915 17.7082 22.5915 17.7451 22.688 17.8579C22.8228 17.9892 22.9193 18.1212 23.0155 18.2525C22.9 18.5339 22.7263 18.7975 22.534 19.003C22.3409 19.2283 22.1483 19.3978 21.9555 19.548C22.2061 19.1913 22.283 18.7776 22.2061 18.3274C22.2061 18.2525 22.264 18.1773 22.3988 18.14C22.534 18.1021 22.5725 18.0275 22.534 17.9708C22.4181 17.7451 22.3606 17.5769 22.3606 17.4446C22.4374 17.4074 22.5725 17.4074 22.7263 17.4446C22.8618 17.3516 22.8421 17.2387 22.688 17.0695C22.534 16.9006 22.4374 16.6753 22.3988 16.3564C22.3988 16.1868 22.5143 16.1122 22.7653 16.168C22.8807 16.1495 22.8807 16.0367 22.8038 15.7741L22.5529 15.4363C22.3795 15.0418 22.4374 14.8917 22.7842 15.0045L23.1889 15.2483C23.4591 15.3423 23.5746 15.1731 23.5746 14.7221C23.5746 14.6281 23.6518 14.6097 23.806 14.6469C23.9603 14.7037 24.1141 14.5908 24.2299 14.2903C24.365 14.159 24.4612 14.2718 24.5384 14.6848C24.4998 15.211 24.6346 15.4547 24.9434 15.4168C24.9434 15.4924 24.9624 15.6421 24.9238 15.8869ZM21.5123 19.1725C21.2999 19.3978 21.2423 19.6231 21.3195 19.8485C21.0303 19.9985 20.7604 20.2051 20.4905 20.5059C20.2209 20.7869 20.0279 21.0317 19.8932 21.2376C19.758 21.444 19.6039 21.5569 19.4688 21.5952C19.2951 21.6694 19.1027 21.6324 18.8715 21.4823L18.8135 21.8578L17.7918 22.4581L17.291 22.6646C17.3292 22.5709 17.3488 22.402 17.3678 22.1583L17.5412 22.0075C18.2355 21.6509 18.6402 21.3316 18.7556 21.0318C18.8904 20.7869 19.0448 20.5811 19.2182 20.4119C19.3726 20.2433 19.4885 20.0549 19.5653 19.8112L19.5843 19.4539L19.5461 19.0785C19.7001 19.248 19.8542 19.3038 19.9897 19.1913C20.2013 18.7975 20.4326 18.4399 20.6835 18.1212C20.9338 17.7834 21.1844 17.4829 21.4543 17.2008C21.7242 16.9195 21.9555 16.6753 22.1483 16.4688L22.1293 16.8443C21.5123 17.5769 21.1462 18.0832 20.9917 18.3465C20.4712 19.1158 20.1245 19.7172 19.9508 20.1493C19.8352 20.3931 19.6809 20.5999 19.4688 20.7497C19.3148 20.8249 19.1796 20.9189 19.1027 20.9938C19.0255 21.1251 19.0638 21.163 19.2182 21.1063C19.3148 21.0122 19.4305 20.9377 19.5461 20.881C19.7773 20.7685 20.2399 20.2618 20.9725 19.3411L20.9531 18.8159L21.1265 18.5339C21.1072 18.8159 21.1462 18.9845 21.2037 19.0029C21.2616 19.0412 21.3578 18.9472 21.4543 18.7592C21.5698 18.5721 21.8204 18.0275 22.2447 17.1632C22.1483 17.4258 22.1483 17.6709 22.2251 17.8579C21.9748 18.0275 21.917 18.3086 22.0324 18.7219L21.5123 19.1725ZM18.3317 23.5474C18.0618 23.5101 17.6377 23.4349 17.0597 23.3221L17.5991 23.1535C17.8884 23.2096 18.0427 23.1535 18.081 22.9839C18.1007 23.1723 18.1965 23.3788 18.3317 23.5474ZM19.4688 23.9422C19.758 23.9608 19.9897 23.9608 20.1434 23.904C20.4133 23.7915 20.9724 23.3976 21.84 22.6834C22.6687 22.0831 23.3626 21.6694 23.9217 21.4256C24.0951 21.3316 24.0951 21.257 23.9407 21.2191C23.7869 21.1815 23.5556 21.1442 23.2278 21.1442C23.1313 21.2191 23.1313 21.2943 23.2665 21.3316C23.4013 21.3128 23.517 21.3316 23.5746 21.3699C22.9 21.7076 22.3216 22.0642 21.8783 22.402C21.9169 22.177 21.9555 21.7822 21.9938 21.2376C21.9748 21.069 21.9169 20.8998 21.8204 20.7685C21.7436 20.6745 21.84 20.5811 22.1096 20.5059L22.3216 20.4488V20.7685L22.0324 20.6936L22.0713 20.8437C22.1293 20.9562 22.2447 21.0318 22.4181 21.069L23.2468 21.1063L23.6136 21.0878C24.0372 21.1063 24.2496 21.2003 24.2299 21.3883C24.2106 21.5753 24.2299 21.7637 24.2685 21.9329C24.3454 22.3641 24.5191 22.7586 24.789 23.1535C24.7311 23.3221 24.5963 23.5474 24.3844 23.7727L23.5939 24.28C22.9193 24.7494 21.9938 25.3686 20.8183 26.1386C19.9897 26.157 18.9869 26.1013 17.8114 25.9512C16.9631 25.8387 15.9994 25.6319 14.9004 25.331L14.6502 25.2747L14.7656 25.1618C14.9393 24.9365 15.0352 24.8052 15.0548 24.7307C15.0741 24.6555 15.0352 24.4859 14.9776 24.2233C14.9197 23.9608 14.785 23.6602 14.3992 23.3036V23.2096L14.6305 23.1723C15.2665 23.2096 15.8256 23.2848 16.3075 23.4161C16.8087 23.5289 17.3871 23.6414 18.0617 23.7354C18.6977 23.8479 19.1796 23.9228 19.4688 23.9422ZM17.291 27.0395C17.0211 27.0395 16.8473 27.209 16.7701 27.209H16.5584C16.2693 26.833 16.038 26.74 15.8646 26.5704L15.1511 25.9885C15.2862 25.9133 15.5753 25.9701 15.9994 26.0825L17.291 27.0395ZM17.8497 27.115L18.0232 27.1523L17.9652 27.2279L17.5605 27.3403C17.3872 27.4905 17.1944 27.5845 16.9435 27.6408L16.6932 27.6029L16.6353 27.4344C16.6932 27.3403 16.7701 27.2836 16.8666 27.2463C16.9631 27.209 17.0786 27.1708 17.233 27.1335L17.5991 27.1906L17.8497 27.115ZM14.2258 24.9933L14.149 24.7494L13.7443 25.2558L13.4161 25.4623C13.2621 25.5936 13.1079 25.6319 12.9535 25.6134L12.4141 25.3686L12.6836 25.2373L12.7612 25.2938C12.7032 25.4439 12.7801 25.4251 12.9345 25.2373L13.3972 24.7868C13.4354 24.5242 13.3586 24.186 13.2041 23.7539C13.05 23.3221 12.915 23.0783 12.838 22.9654C12.8188 22.8715 12.5875 22.853 12.1442 22.9088C12.4141 22.7775 12.7226 22.7775 13.0693 22.8715L13.4354 23.0212L13.6285 22.947L13.6088 22.9282L13.2621 22.7775L13.4354 22.7959L13.5898 22.947L13.6285 22.9654H13.6088L13.7053 23.0595C14.2258 23.6041 14.5151 23.9792 14.5726 24.1676C14.6305 24.3731 14.6502 24.5614 14.5922 24.7494C14.4379 24.9744 14.303 25.0494 14.2258 24.9933ZM16.4426 23.0783H16.3655V23.0411C16.3075 23.0595 16.2496 23.0595 16.1917 23.0967L15.6909 23.0212L16.2306 22.7586L16.3655 23.0028C16.3847 22.984 16.404 22.984 16.4426 22.9654L16.3655 22.7217C16.3075 22.5521 16.3847 22.402 16.5388 22.2896C16.6932 22.177 16.8859 22.1015 17.0786 22.1388C17.1558 22.1583 17.1558 22.2896 17.0979 22.5522C17.04 22.6646 16.828 22.8342 16.4426 23.0028L16.4426 23.0783ZM15.1511 22.5894C15.2665 22.4581 15.421 22.3268 15.6136 22.2144C16.4809 21.8007 17.04 21.5569 17.3292 21.4823C17.3872 21.4629 17.4257 21.4823 17.4643 21.5197L17.5801 21.6694L17.4064 21.7822C17.3099 21.8578 17.1751 21.8947 17.0211 21.8947C16.8859 21.8762 16.7122 21.933 16.4809 22.026C16.2496 22.1203 16.1341 22.2516 16.1148 22.4209C16.0762 22.5333 16.0183 22.6089 15.9414 22.6462C15.7101 22.7586 15.5174 22.8715 15.3244 22.9654L14.8618 22.9282L15.1511 22.5894ZM20.606 17.1632C20.5481 17.1259 20.3747 16.9756 20.1051 16.7502C19.8542 16.5249 19.7773 16.3375 19.8542 16.1495C19.7773 16.0555 19.7194 15.9615 19.6618 15.8302C19.6039 15.7173 19.6233 15.6049 19.7001 15.4736C19.7773 15.361 19.97 15.4168 20.2593 15.6237C20.3168 15.4547 20.3168 15.3044 20.2593 15.1542C20.2013 15.0045 20.1434 14.8534 20.0855 14.7037C19.9508 14.4595 19.8352 14.2718 19.7001 14.1029C19.5843 13.8779 19.5653 13.7457 19.6232 13.7084C19.6808 13.6711 19.7773 13.7269 19.9121 13.8212C20.1631 13.5586 20.3364 13.4831 20.4133 13.5956C20.4905 13.7084 20.5677 13.8964 20.606 14.159C20.6639 14.4216 20.6639 14.7037 20.6256 14.9857L20.5678 15.0418L20.6256 15.0985C20.6446 15.1542 20.6256 15.3796 20.5481 15.7741C20.5481 15.849 20.5678 15.9242 20.6256 16.0182C20.606 15.9054 20.606 15.8114 20.606 15.755C20.6256 15.6989 20.6446 15.586 20.7025 15.3984C20.7604 15.211 20.7794 15.117 20.7794 15.0787C20.7794 15.0602 20.7794 15.0418 20.7025 15.0229C20.7991 14.9857 20.8183 14.9474 20.8373 14.8917C20.8569 14.835 20.8763 14.7792 20.8569 14.7221C20.8373 14.6663 20.8373 14.5156 20.8183 14.253C20.8183 13.9905 20.7794 13.8024 20.7415 13.6711C20.7025 13.5398 20.6639 13.4274 20.6639 13.3518C20.6446 13.2762 20.587 13.239 20.4905 13.2205C20.3747 13.202 20.2209 13.3145 20.0279 13.5398C20.1245 13.1077 20.2209 12.826 20.3168 12.6947C20.4133 12.5446 20.5102 12.5063 20.606 12.5634C20.7025 12.6191 20.7794 12.6947 20.7991 12.7511C20.8373 12.826 20.8763 12.8072 20.9339 12.7131C20.9917 12.6191 21.0496 12.5818 21.0882 12.6191C21.1265 12.657 21.1651 12.7131 21.223 12.7887C21.2616 12.8823 21.2999 12.9764 21.3195 13.0697C21.3385 13.1638 21.3578 13.3518 21.3775 13.6144C21.3964 13.8779 21.3578 14.0466 21.281 14.1405C21.2038 14.2342 21.1651 14.3471 21.1651 14.4595C21.1844 14.9663 21.223 15.2298 21.281 15.2298C21.3386 15.2298 21.4157 15.1916 21.4929 15.117C21.5698 15.0418 21.6471 15.0229 21.7242 15.0418C21.8011 15.0602 21.8204 15.211 21.84 15.4736C21.859 15.7362 21.8784 15.7741 21.917 15.5488C21.9555 15.3423 22.0324 15.2298 22.1483 15.2298C22.264 15.2298 22.283 15.5108 22.2061 16.0928C21.8011 16.4306 21.5312 16.7314 21.3578 16.9567C21.2999 16.713 21.2999 16.5434 21.3578 16.4306C21.4157 16.3181 21.4733 16.2251 21.5123 16.0928C21.5508 15.9615 21.5891 15.849 21.6277 15.755C21.7045 15.5108 21.6856 15.4924 21.5891 15.6989C21.5312 15.8114 21.4733 15.9242 21.435 16.0182C21.3964 16.1122 21.3386 16.1868 21.281 16.2808C21.2616 16.131 21.2038 15.8489 21.0882 15.4363C20.9917 15.1542 20.9725 15.1731 21.011 15.4547C21.0882 15.9242 21.1462 16.3748 21.1844 16.8066C21.011 16.6374 20.8373 16.4688 20.6639 16.3564C20.4905 16.2251 20.3365 16.0928 20.2013 15.9426C20.0855 15.8674 20.0665 15.8869 20.1434 15.9802C20.2593 16.131 20.4522 16.3181 20.6835 16.5434C20.9149 16.7502 21.0686 16.9006 21.1265 16.9567C21.1844 17.0319 21.2038 17.088 21.223 17.1259C21.1265 17.2387 21.0303 17.3701 20.8952 17.5014C20.8183 17.464 20.7794 17.3885 20.7794 17.2945C20.6835 17.2761 20.6639 17.2008 20.606 17.1632ZM23.3047 12.9385C23.3626 12.9199 23.4977 12.9385 23.6325 12.9385C23.4977 13.6899 23.3243 14.5156 23.1889 15.0229L22.9772 14.9105C23.17 14.1963 23.2665 13.3891 23.3047 12.9385ZM22.8039 12.2441C22.688 12.0939 22.5529 11.8492 22.3409 11.5305C22.1483 11.2115 21.9938 10.948 21.8976 10.7609C21.8011 10.5541 21.7822 10.3661 21.859 10.1596C21.917 9.95334 21.9748 9.80297 22.0134 9.6901C22.0517 9.57731 22.0517 9.5588 21.9938 9.63441C21.8784 9.84089 21.7822 10.0467 21.7436 10.2348L21.435 9.38925C21.4733 9.05148 21.6471 8.62034 21.9748 8.09451C22.0713 7.92496 22.0713 7.90612 21.9359 8.05725C21.6277 8.45112 21.435 8.84566 21.3386 9.25796L20.8763 8.2443C20.8569 8.05724 20.9917 7.69963 21.2424 7.17446C21.3775 6.89246 21.3386 6.91088 21.1462 7.21173C20.9917 7.51224 20.8763 7.79366 20.7991 8.0374C20.664 7.47431 20.5292 6.9864 20.3944 6.59187L20.2785 6.55427L20.3365 6.72382C20.4133 7.21173 20.5292 7.64353 20.664 8.01899C20.4712 7.85035 20.2593 7.71905 20.0086 7.60627C19.8738 7.53108 19.8738 7.54984 20.0086 7.64353C20.2979 7.81242 20.5292 7.98172 20.6835 8.15028C20.7991 8.43228 20.9149 8.67644 21.0111 8.90168C20.8373 8.77038 20.5102 8.62034 20.0856 8.45112C19.9318 8.41386 19.9318 8.43228 20.0856 8.50747C20.6256 8.73279 20.9725 8.93903 21.1072 9.14551L21.4157 9.93426C21.2999 9.93426 21.1651 9.7657 20.9725 9.44602C20.8183 9.16435 20.4326 8.90168 19.8352 8.6391C19.7194 8.58241 19.6619 8.48805 19.6619 8.31983C19.6809 8.20696 19.7966 8.1697 20.0086 8.18854C19.9508 8.01899 19.8738 7.88769 19.7966 7.79367L19.6809 7.62511C19.5264 7.30576 19.6233 7.13654 19.97 7.13654C19.8352 6.93064 19.7966 6.7796 19.8352 6.68557C19.816 6.49851 19.8738 6.31053 19.97 6.14131C20.028 6.02844 20.0855 5.89715 20.1051 5.7847C20.2979 5.89715 20.4712 5.99118 20.6256 6.06637C20.7794 6.14131 20.8569 6.27327 20.8763 6.47909L20.7991 6.93064C20.8373 7.02376 20.9149 6.98641 21.0496 6.83669C21.1844 6.66714 21.281 6.55428 21.3775 6.51701C21.4929 6.57312 21.5891 6.64831 21.7046 6.7796C21.8011 6.96799 21.7625 7.30576 21.5891 7.81242L21.4157 8.2258C21.7625 7.77483 22.0324 7.56834 22.2447 7.58718C22.3216 7.64354 22.3409 7.73756 22.3216 7.88769C22.3027 8.03741 22.3027 8.20696 22.3216 8.3756C22.3409 8.54515 22.2831 8.69487 22.1483 8.80773C22.0134 8.92019 21.917 9.12667 21.859 9.38925C22.1869 9.14551 22.3216 9.20227 22.264 9.52154L22.0903 10.1596C22.0324 10.4601 22.0903 10.6101 22.2447 10.5914C22.3988 10.5725 22.4954 10.5914 22.534 10.6481C22.5722 10.7038 22.5722 10.8167 22.5529 10.9674C22.4564 11.1733 22.4181 11.3052 22.4374 11.3801C22.4564 11.4365 22.476 11.4926 22.5143 11.5493C22.5529 11.5866 22.6687 11.5866 22.8039 11.5114C22.9576 11.4553 23.0352 11.4926 23.0352 11.6434C23.0352 11.7931 23.0352 11.9432 23.0352 12.0939C23.0352 12.2441 23.093 12.3754 23.1889 12.5063C23.2665 12.6007 23.3433 12.6759 23.4591 12.6947L23.5939 12.5257C23.3823 12.5446 23.3047 12.4133 23.3047 12.1313C23.3243 11.8686 23.3243 11.6618 23.3047 11.5114C23.2278 11.324 23.1506 11.2115 23.0541 11.1927C22.9772 11.1733 22.7842 10.6854 22.4954 9.7086L22.8228 9.72836C23.0541 10.5541 23.2468 11.0047 23.3823 11.0604C23.517 11.1175 23.5939 11.1927 23.5746 11.2861C23.5556 11.3613 23.5939 11.5493 23.6518 11.8307C23.8252 11.7747 23.9407 11.6239 23.9793 11.3429C24.0372 11.0802 23.9604 10.8922 23.7484 10.7421C23.5361 10.6296 23.4202 10.5168 23.3823 10.4228C23.3243 10.2536 23.3823 10.1596 23.5746 10.1035C23.6904 10.0467 23.4202 9.80297 22.7653 9.38925C22.4374 9.16435 22.3216 8.95812 22.4564 8.7889C22.5143 8.69487 22.6108 8.69487 22.7459 8.7889C22.8807 8.88293 22.9772 8.90168 23.0155 8.86409C23.093 8.7328 23.0352 8.62035 22.8421 8.58242C22.6687 8.52631 22.5722 8.46955 22.5915 8.39502C22.5722 8.09451 22.5915 7.8877 22.6108 7.77483C22.6305 7.66238 22.6305 7.53109 22.5722 7.38096C22.4564 7.23058 22.2447 7.23058 21.9359 7.41822C22.0134 7.249 22.0324 7.08044 21.9938 6.93064C21.9555 6.7796 21.8784 6.61138 21.7625 6.47909L21.6087 6.02845C21.5698 5.87873 21.6663 5.76586 21.8784 5.71009C21.8011 5.40925 21.8011 5.18401 21.8784 5.05272C21.9555 4.92143 21.9938 4.80856 22.0324 4.71453C22.0713 4.62083 22.1483 4.62083 22.3026 4.6766C22.4564 4.75212 22.7073 5.01479 23.0352 5.46502C23.1889 5.29646 23.3626 5.35256 23.4977 5.65341C23.6712 5.93508 23.7484 6.25376 23.7094 6.6483C24.0759 6.44182 24.2106 6.59187 24.1141 7.04317C24.2685 7.36186 24.3844 7.62511 24.4033 7.81242C24.4419 8.00014 24.4033 8.1697 24.3071 8.31983C24.2106 8.46954 24.172 8.60084 24.172 8.67644C24.172 8.75163 24.2106 8.75163 24.2878 8.67644C24.3454 8.58241 24.4808 8.50747 24.6925 8.45112C24.8277 8.73279 24.8855 8.90168 24.8659 8.99538C24.8659 9.10824 24.789 9.2207 24.6543 9.35199C24.5191 9.48328 24.4419 9.63441 24.423 9.80296C24.423 9.89699 24.4612 9.93426 24.5577 9.93426L24.8277 9.85964C24.9624 9.8409 24.9817 9.95334 24.8469 10.1787C24.7121 10.4412 24.5963 10.6481 24.5384 10.8351C24.4808 11.0235 24.4419 11.1548 24.4419 11.2673C24.423 11.4926 24.3844 11.6239 24.3264 11.6618C24.3454 11.3801 24.3454 11.0802 24.3071 10.7609C24.2685 10.4412 24.2106 10.1035 24.1141 9.7086C24.1916 9.63441 24.3071 9.40909 24.4419 9.01421C24.5191 8.80773 24.4998 8.78889 24.4033 8.93902C24.2878 9.23953 24.172 9.42751 24.0759 9.48328C23.9603 9.12666 23.8446 8.67644 23.7094 8.15027C23.8638 7.90611 23.9603 7.58718 23.9986 7.21173C24.0183 6.89246 23.9793 6.87395 23.9407 7.13653C23.8832 7.51223 23.7673 7.81241 23.6136 8.01898C23.4781 7.60626 23.3433 7.21172 23.1889 6.85511C23.2468 6.64829 23.2665 6.40455 23.2468 6.12246C23.2278 5.84137 23.2086 5.84137 23.17 6.0852C23.17 6.29168 23.1506 6.47908 23.093 6.61136L22.7653 5.78469L22.553 5.31529C22.476 5.16549 22.4564 5.16549 22.476 5.31529L22.6687 5.93507C22.5143 5.76585 22.3795 5.63456 22.2447 5.55904C22.1096 5.48484 22.0903 5.48484 22.1672 5.57788C22.3988 5.76585 22.5916 5.97267 22.7459 6.17923C22.8807 6.4985 23.0155 6.81785 23.1506 7.15562C22.7653 6.83669 22.4954 6.66714 22.3409 6.62979C22.1483 6.55427 22.1483 6.59186 22.3409 6.74266C22.6108 6.91088 22.9387 7.21173 23.3244 7.6251C23.4399 7.96321 23.5557 8.30099 23.6712 8.63909C23.4781 8.52631 23.2468 8.31982 22.9773 7.98172C22.8618 7.86885 22.8421 7.88769 22.9577 8.03741C23.1889 8.35676 23.4399 8.6576 23.7291 8.90168L23.9604 9.80296C23.7291 9.57731 23.4202 9.35199 23.0541 9.10824C22.9001 9.01421 22.8807 9.03297 23.0155 9.16435C23.3434 9.38925 23.6712 9.72835 24.0372 10.1787C24.1337 10.4601 24.1917 10.9674 24.172 11.6994C24.1531 11.8871 24.0183 12.0184 23.7484 12.1128L23.6905 12.826L23.3048 12.8444C23.0735 12.6191 22.9193 12.3939 22.8039 12.2441ZM19.1027 4.84582C19.0834 4.73337 19.1992 4.65818 19.4305 4.63934C19.6618 4.62083 19.6808 4.56414 19.5461 4.45128C19.2572 4.35791 19.0063 4.18869 18.8135 3.94495C18.6787 3.7754 18.6787 3.66286 18.8135 3.58801L19.0448 3.53157L19.1603 3.40028L19.0255 2.8742C18.9869 2.61153 19.0638 2.42356 19.2572 2.31102C19.5264 2.27343 19.7966 2.34895 20.0665 2.55485C20.0855 2.42356 20.1631 2.36746 20.3557 2.42356C20.5292 2.48024 20.7025 2.83686 20.8569 3.53157L21.1072 3.62527C21.1844 3.43763 21.2616 3.3436 21.2999 3.3436C21.3775 3.3436 21.4543 3.51282 21.5509 3.83217C21.7625 4.00072 21.859 4.30157 21.84 4.71453C21.7045 4.88342 21.6277 5.08998 21.6277 5.33373L21.5123 5.07114C21.435 4.77063 21.4157 4.47079 21.4157 4.13301C21.3964 4.00072 21.3964 4.00072 21.3775 4.13301C21.3385 4.41402 21.3385 4.65818 21.3578 4.86466C21.0882 4.52689 20.7991 4.20721 20.4712 3.92611C20.4133 3.70079 20.3944 3.45605 20.4133 3.19347C20.3747 2.94972 20.3557 2.89263 20.3365 3.02491C20.3168 3.32476 20.3168 3.60685 20.3747 3.85059C20.1434 3.62527 19.8738 3.2875 19.5461 2.85569C19.4688 2.7244 19.4306 2.68714 19.4306 2.76133C19.6233 3.11795 19.8352 3.41879 20.0472 3.64411C20.2593 3.88786 20.4326 4.07625 20.5678 4.20721C20.2979 4.13301 20.0666 4.07625 19.8738 4.05741C19.6809 4.03899 19.5074 3.98188 19.334 3.90669C19.1796 3.86943 19.1796 3.90669 19.353 4.01915C19.4496 4.07625 19.6233 4.13301 19.9121 4.1887C20.182 4.24547 20.4522 4.31999 20.7026 4.43286C20.8373 4.50805 21.0111 4.71453 21.2424 5.03421L21.4157 5.42776C21.1265 5.27796 20.8183 5.18401 20.4712 5.10841C20.1245 5.05272 19.9318 4.99595 19.8542 4.93985C19.5843 4.8274 19.5653 4.84582 19.758 4.97712C19.8156 5.03422 20.028 5.10841 20.4133 5.18401C20.7794 5.25953 21.1462 5.39082 21.4929 5.59731L21.5312 5.69034C21.4543 5.76586 21.435 5.87873 21.4543 6.01002L21.5698 6.31053C21.4733 6.19766 21.3578 6.25377 21.1844 6.46058C21.2423 6.32896 21.223 6.2165 21.1462 6.10405C21.011 5.89715 20.6639 5.67183 20.1051 5.42776L20.0086 5.59731C19.4885 5.48485 19.2182 5.22127 19.1027 4.84582ZM18.7749 4.56415C18.2161 4.58324 18.1007 4.56415 18.0618 4.47078C18.0427 4.39559 18.0232 4.33849 18.2355 4.22604L18.3317 4.0574C18.0042 3.90669 17.6957 3.73814 17.676 3.3436L17.9462 3.23073C18.0618 3.09944 18.0618 2.98698 17.9462 2.91237C17.8304 2.83685 17.7725 2.6673 17.7535 2.36746C17.8694 2.12371 18.1389 2.12371 18.5822 2.36746C18.7749 2.01084 19.0063 1.89839 19.2762 2.0481C18.9869 2.0481 18.8135 2.1794 18.7556 2.42356C18.717 2.57427 18.717 2.78017 18.7556 3.00549C18.6591 2.8742 18.5243 2.74291 18.3895 2.64888C18.1196 2.51759 18.0618 2.51759 18.2355 2.68714C18.4088 2.8557 18.5629 3.02491 18.6977 3.21231C18.4664 3.38153 18.2355 3.47556 17.9652 3.45605C17.8694 3.49399 17.8884 3.51282 18.0042 3.53158C18.1196 3.56892 18.2741 3.55009 18.4278 3.49399C18.4088 3.64412 18.4664 3.9067 18.5243 4.07625C18.6208 4.20721 18.7556 4.3385 18.8904 4.43286C18.8715 4.47079 18.8135 4.50805 18.7749 4.56415ZM17.04 2.98698L17.0786 2.64888L16.7897 2.70556C16.5195 2.79959 16.2496 2.7244 15.9604 2.46182C15.787 2.49875 15.7101 2.42355 15.7291 2.255C15.8066 2.10421 15.787 2.02968 15.6715 2.01084L15.2286 2.0481C14.9393 2.01084 14.7656 1.93565 14.6691 1.80436C14.6116 1.71033 14.6502 1.57904 14.785 1.42833C14.515 1.35372 14.3609 1.22176 14.2837 1.10898C14.2065 0.996524 14.2644 0.883655 14.3992 0.790622C14.5536 0.715099 14.8235 0.696594 15.2089 0.75236C15.1127 0.639907 15.0931 0.527039 15.132 0.414586C15.151 0.301718 15.4019 0.358484 15.9221 0.602561L16.2306 0.771198C16.3075 0.621068 16.4426 0.583805 16.6353 0.639907C16.8666 0.75236 17.0786 0.883651 17.291 1.03445C17.5026 1.18449 17.7149 1.40982 17.9848 1.69182C18.1965 1.56053 18.3509 1.57904 18.4474 1.78585L18.4857 2.14213C18.2544 1.93565 17.9848 1.91714 17.657 2.10421L17.4446 2.01084C17.1558 1.67307 16.9825 1.40982 16.9052 1.22176C16.8473 0.996524 16.8087 0.977686 16.8087 1.16575C16.828 1.37256 16.9435 1.61631 17.1751 1.91715C16.7318 1.78586 16.404 1.59788 16.1916 1.39099C15.98 1.16575 15.8256 0.996529 15.7101 0.846398C15.5943 0.677843 15.5557 0.677843 15.5753 0.846398C15.6909 1.07172 15.8646 1.25969 16.0762 1.44775C15.9221 1.37256 15.768 1.3158 15.6136 1.24127C15.2665 1.09047 14.9583 1.01595 14.727 0.996529C14.6116 0.996529 14.6116 1.01595 14.708 1.05321C15.1127 1.14724 15.3823 1.24127 15.5753 1.3343C15.787 1.40983 15.9028 1.48502 15.9604 1.56054C15.6715 1.67307 15.3823 1.72918 15.0741 1.72918C14.8815 1.71033 14.8039 1.72918 14.8235 1.7476C14.8428 1.76644 14.9004 1.78586 14.9973 1.80436C15.3634 1.84162 15.7291 1.80436 16.1148 1.69182C16.3847 1.82312 16.7122 1.95449 17.0786 2.08578C16.8473 2.14214 16.6353 2.23616 16.423 2.38629C16.3461 2.48024 16.3847 2.49875 16.5388 2.40472C16.6932 2.29226 16.9435 2.21707 17.2713 2.17939L17.5223 2.29226C17.5026 2.55485 17.5605 2.83685 17.7149 3.09943L17.5412 3.1562L17.04 2.98698ZM10.6788 26.0825C10.2552 26.4952 9.77328 26.8713 9.23347 27.2463L9.05975 27.1906C9.36859 27.0025 9.81153 26.7017 10.3899 26.2699L10.6405 25.9885L10.5054 25.9701C10.3128 26.1386 10.1007 26.3078 9.85047 26.4764C9.59982 26.6456 9.31065 26.8142 8.98282 26.9653L8.53953 27.1708L8.61641 27.2648L8.94422 27.3031C9.13728 27.4159 9.21413 27.5471 9.19512 27.6597C9.09868 27.8097 8.92488 27.8282 8.71293 27.7158L8.34684 27.5284C8.21172 27.3961 8.07693 27.3031 7.94215 27.2648L7.78773 27.1524L7.84564 27.0211L8.30823 27.209H8.44302L8.36581 26.927L8.90596 26.5892C9.04074 26.5332 9.1176 26.4579 9.07934 26.3266L9.1176 26.0637C9.34891 26.1198 9.59981 26.0825 9.86938 25.9512C10.1393 25.8189 10.4092 25.7632 10.6405 25.7447C10.8525 25.8387 10.8525 25.9512 10.6788 26.0825ZM10.2938 22.9839L9.63816 22.5333C9.36859 22.2328 9.17553 22.0075 9.05975 21.8578C8.94423 21.7265 8.82844 21.6136 8.71293 21.5569C8.5585 21.4629 8.42372 21.4441 8.30824 21.4629C8.23102 21.4823 8.15382 21.5753 8.07693 21.7637L8.038 21.7265C8.07693 21.5569 8.13451 21.4629 8.23102 21.4068C8.30824 21.3699 8.42372 21.3699 8.55851 21.4441L9.29098 21.7822L10.544 22.2328C10.8525 22.5521 11.0455 22.7586 11.1035 22.8899C10.8525 22.947 10.5829 22.9654 10.2938 22.9839ZM4.99251 19.7356L5.1659 19.5291L5.57093 20.0738L5.80223 20.4686L5.87944 20.6936C5.74431 20.6184 5.60953 20.5243 5.51302 20.3746L5.26242 20.0549L4.99251 19.7356ZM4.27964 18.3465L4.37615 18.2525L4.79982 18.9472L4.76122 19.0412L4.27964 18.3465ZM9.27207 23.1723L8.13451 22.496L7.09384 21.8205L6.90115 21.5753C6.84323 21.5011 6.74673 21.5011 6.65021 21.5381C6.53473 21.5753 6.45784 21.5197 6.39995 21.3699C6.13003 21.5197 5.84084 21.4629 5.57093 21.2003L5.07006 20.5999L4.60746 19.8112L4.43373 19.6983C4.33722 19.7544 4.22173 19.7733 4.10593 19.7544C3.91357 19.7356 3.68226 19.6043 3.45097 19.3606C3.31551 19.2283 3.00734 18.7219 2.54474 17.8395C1.92772 16.6941 1.50406 15.8302 1.27277 15.2483C1.11834 14.7597 1.00252 14.4595 0.944957 14.3282C0.887044 14.1963 0.867742 14.1963 0.887043 14.3282C0.906016 14.4595 0.963921 14.7221 1.11834 15.1542C1.25313 15.586 1.52304 16.2052 1.90875 17.0507C2.23624 17.7266 2.56404 18.3274 2.89186 18.8905C2.14006 18.1021 1.59991 17.3516 1.27277 16.6753C0.944957 15.9997 0.713657 15.361 0.597839 14.7792C0.539933 14.5724 0.520961 14.253 0.501322 13.8212C0.482357 13.3891 0.501322 13.1449 0.520961 13.1077C0.578867 12.9573 0.636442 12.9012 0.732622 12.9199C0.790535 12.9199 0.925647 13.0697 1.15695 13.3333C1.36862 13.6144 1.67746 14.253 2.04353 15.2298C2.40962 16.2052 2.64092 16.8627 2.73743 17.1632C2.81431 17.464 2.91082 17.7451 2.98771 17.9708C3.06524 18.1961 3.18073 18.4213 3.29655 18.6652C3.46994 19.0228 3.66262 19.2665 3.83602 19.3978C4.06732 19.5664 4.26034 19.5859 4.37615 19.4918L3.81705 18.515C3.75915 18.4966 3.70124 18.4966 3.64333 18.515C3.62435 18.515 3.62435 18.515 3.62435 18.515C3.60473 18.515 3.58575 18.515 3.56644 18.4966C3.54681 18.4966 3.50854 18.4966 3.48924 18.4778C3.46993 18.4778 3.45096 18.4594 3.45096 18.4399C3.43132 18.4214 3.41202 18.4214 3.39306 18.4026C3.37342 18.3274 3.37342 18.3086 3.37342 18.2901C3.37342 18.2713 3.35445 18.2525 3.35445 18.234C3.35445 18.1773 3.35445 18.1212 3.35445 18.0648C3.37342 17.8959 3.43132 17.5769 3.54681 17.1448C3.7781 16.4121 4.08695 15.6801 4.51094 14.9663C4.45303 15.2855 4.43373 15.5488 4.43373 15.7741C4.06731 16.6001 3.7781 17.2572 3.60472 17.764C3.50854 18.1212 3.52784 18.3086 3.62435 18.2901L3.73984 18.234L3.66262 18.0087L3.72053 17.8395L3.89392 18.1588L4.00941 18.0832L4.10592 18.2145L4.00941 18.3465L4.7033 19.3038L4.87703 19.1725L4.99251 19.3038C4.78084 19.5106 4.7033 19.6231 4.74224 19.6983C4.91563 20.017 5.08902 20.2806 5.24344 20.4871C5.55162 20.9189 5.80222 21.0502 5.99525 20.8625C6.05282 20.8064 6.13003 20.8249 6.22654 20.8998C6.32306 20.975 6.4189 21.1251 6.53472 21.3503L6.51541 21.0122L5.9563 20.4871L5.62849 19.8669C5.35892 19.5106 5.18553 19.2283 5.07005 19.0228C4.95423 18.8159 4.81911 18.5907 4.64572 18.3086C4.472 18.0275 4.27964 17.7266 4.02904 17.3701L4.0673 17.2008L4.54954 17.7834C4.99251 18.3274 5.30135 18.7404 5.47475 19.0228C5.64812 19.3038 5.76394 19.3793 5.78292 19.2283L5.87943 18.9472L6.01421 19.0228L5.91771 19.6043L5.87943 19.7733C5.85979 19.9046 5.89873 19.9985 5.9563 20.017C6.01421 20.0364 6.07212 20.1298 6.13003 20.299C6.16863 20.393 6.32305 20.5999 6.61193 20.9189C6.90114 21.2376 7.20932 21.5012 7.51782 21.7076C7.84563 21.9135 8.0959 22.1015 8.30823 22.2328C8.52023 22.3641 8.61641 22.496 8.5971 22.6273L8.88628 22.6834L8.80943 22.3268L8.9828 22.2896C9.07933 22.3457 9.15618 22.4581 9.21411 22.6089C9.48436 22.8147 9.71568 22.9655 9.90805 23.0783L9.27207 23.1723ZM7.59504 23.4534L7.80671 22.853L8.5006 23.3036L7.59504 23.4534ZM4.52992 17.3321L4.20244 16.9195L4.45304 16.3181C4.41444 16.6559 4.45304 16.994 4.52992 17.3321ZM3.52784 16.0928C3.70123 15.361 4.08695 14.6096 4.68433 13.8397C4.58782 14.253 4.52992 14.5539 4.51094 14.7409C4.06732 15.4924 3.72054 16.2435 3.46994 16.9756C3.41202 17.2008 3.35445 17.4829 3.31551 17.7834C3.29655 17.3885 3.35445 16.8254 3.52784 16.0928ZM4.87704 13.6144C5.08903 12.7887 5.30135 12.3565 5.49371 12.3193C5.60953 12.6007 5.70605 13.1449 5.76395 13.9153C5.84083 14.6848 5.84083 15.3984 5.76395 16.0182C5.66744 16.8066 5.53266 17.3516 5.35893 17.6142L5.1659 18.0275C5.1659 17.4074 5.1659 16.9195 5.18553 16.5249C5.20484 16.131 5.22382 15.6237 5.22382 14.9857C5.24344 14.3471 5.28172 13.6144 5.35893 12.8072C5.3972 12.6007 5.3972 12.5634 5.32033 12.6759C5.16591 13.5015 5.07006 14.5539 5.03112 15.8302L5.01215 16.6753L4.97354 17.8395L4.78084 17.6142C4.64573 16.9195 4.56852 16.1868 4.60745 15.4363C4.62643 14.8732 4.72295 14.2718 4.87704 13.6144ZM6.07213 12.9199C6.20724 12.8824 6.22655 12.9573 6.14934 13.0892L5.8598 13.5015C5.84084 13.3333 5.82153 13.1825 5.78293 13.0697C5.87944 13.0136 5.97561 12.9573 6.07213 12.9199ZM6.30342 13.7269C6.26515 14.1778 6.16864 14.7221 5.99525 15.3796C5.97561 14.835 5.95632 14.4784 5.91771 14.2903L6.05282 13.9153C6.07214 13.784 6.03386 13.784 5.97561 13.8964L5.89873 14.065L5.87943 13.7651L6.11072 13.4831C6.26515 13.3333 6.32306 13.4075 6.30342 13.7269ZM2.21693 13.1077V12.8639C2.60264 12.4505 2.56404 12.0755 2.69883 11.6994L3.23864 10.3661L3.85566 8.95811C4.18314 8.31983 4.66504 7.60627 5.26242 6.79843C5.60953 6.38572 5.93735 6.17924 6.20724 6.14131C6.28413 6.23534 6.28413 6.44182 6.20724 6.74266C6.13003 7.04318 6.01422 7.36186 5.84084 7.69964C5.82152 7.69964 5.82152 7.71906 5.82152 7.71906C5.1659 8.90168 4.52991 9.74686 3.91356 10.272L4.95423 8.62034L5.45511 7.73757C5.64812 7.39979 5.68641 7.28692 5.55162 7.38095C4.52991 8.88292 3.91356 9.82139 3.70123 10.2159C3.48924 10.6101 3.29654 10.9674 3.10352 11.3052C2.91082 11.6434 2.71813 11.906 2.66056 12.0939C2.60264 12.281 2.60264 12.6191 2.21693 13.1077ZM1.77364 11.6806C1.69642 11.2673 1.73536 10.4228 1.92772 9.12667C2.12042 7.83192 2.33275 6.89246 2.60264 6.34779C2.73743 6.06637 2.73743 6.01002 2.58302 6.2165C1.96666 7.24899 1.59991 8.77039 1.50406 10.7609C1.48443 11.4553 1.52304 11.962 1.61955 12.281C1.71572 12.6007 1.83121 12.7699 1.96666 12.826C2.04353 12.8639 2.12042 12.8639 2.19796 12.8072C2.19796 12.8072 2.14006 13.0697 2.15902 13.1265C1.88911 13.0136 1.69642 12.8072 1.56164 12.5257C1.44615 12.2441 1.33033 11.8686 1.21486 11.418C1.09904 10.9674 1.06044 10.4228 1.07974 9.78412C1.13732 9.03297 1.23382 8.30098 1.40755 7.58718C1.65782 6.59186 2.17832 5.6534 2.96873 4.77062C3.14213 4.58323 3.23864 4.5453 3.29655 4.63933C3.33515 5.0342 3.33515 5.40924 3.29655 5.78469C3.25794 6.1604 3.14213 6.57311 3.00734 7.02376C2.60264 8.30099 2.37135 9.16435 2.29381 9.61557C2.12042 10.1596 1.94703 10.855 1.77364 11.6806ZM1.98564 12.5257L1.92772 12.4133C1.87015 12.3193 1.96666 11.7367 2.25553 10.6854C2.15902 11.4742 2.06251 12.0939 1.98564 12.5257ZM2.56404 9.57731C2.64092 9.12667 2.73743 8.73279 2.85291 8.35676L2.96873 8.50747L2.56404 9.57731ZM2.64092 11.1927L2.75641 10.7609L2.85291 10.3288L3.10352 10.2915L2.79535 11.0987L2.58302 11.7931L2.64092 11.1927ZM3.75915 8.67644C3.54681 9.07098 3.39306 9.40909 3.27724 9.7086L3.16142 9.69009L3.48924 8.73279L3.75915 8.67644ZM3.35445 6.98641C3.75915 6.34779 4.24071 5.42775 4.81912 4.2643C4.99251 3.92611 5.24345 3.53157 5.57093 3.09944C5.66744 2.8742 5.60953 2.8742 5.3972 3.11795C4.89633 3.7193 4.31826 4.6766 3.66262 5.97267L3.95184 5.25953C4.00941 5.1084 4.16383 4.73337 4.43373 4.18869C4.70331 3.62527 4.97354 3.19347 5.24345 2.85569C5.51302 2.51759 5.68642 2.31102 5.78292 2.21707C6.14934 1.91714 6.36133 1.76643 6.41891 1.78585C6.47681 1.82312 6.47681 1.89839 6.45785 1.97291L5.70605 3.83217C5.22382 4.75212 4.58782 5.71009 3.79775 6.70441C3.46994 7.06193 3.25794 7.28692 3.18073 7.38095C3.10352 7.47432 3.02664 7.56834 2.9877 7.66237L3.04562 7.41821L3.35445 6.98641ZM7.07453 3.36268C7.22862 3.26866 7.34411 3.23073 7.40201 3.25023C7.44061 3.3436 7.45993 3.47555 7.44061 3.66286C7.42164 3.85059 7.28652 4.2072 7.03592 4.75212L6.47681 5.82262C6.07213 5.87873 5.70604 6.04795 5.35893 6.34779C5.53265 6.04795 5.76394 5.69034 6.01421 5.29646C6.26515 4.90192 6.66984 4.30156 7.22862 3.51281C7.32513 3.36268 7.32513 3.32476 7.22862 3.40028C7.15175 3.47555 6.92044 3.75656 6.53472 4.24546C6.16864 4.73337 5.64813 5.50327 5.03111 6.53585C4.85773 6.79843 4.45304 7.41821 3.75914 8.43228L3.83602 8.20696L4.74224 6.6298L5.6285 5.03421C6.07213 4.31999 6.53474 3.75656 7.07453 3.36268ZM8.01903 1.71033C8.57814 1.25969 9.23347 0.921913 10.0045 0.677837C10.3706 0.564969 10.6984 0.527042 10.968 0.545881C11.1035 0.583803 11.1414 0.658333 11.0838 0.771202L10.7564 1.203C10.4475 1.22176 10.0429 1.39098 9.54197 1.67307C9.02141 1.95449 8.48163 2.34895 7.88424 2.81843L7.67191 2.94972C7.55644 2.8742 7.36375 2.91237 7.05523 3.06217C7.98042 2.29226 8.80944 1.72917 9.48438 1.3343C9.92732 1.10898 10.1972 0.959177 10.2552 0.883655C10.0238 0.940417 9.71568 1.07171 9.31065 1.29703C8.90597 1.52227 8.23102 1.95449 7.30583 2.63004L6.39995 3.41879C6.93941 2.70556 7.45993 2.16097 8.01903 1.71033ZM11.4692 1.35372C11.4692 1.54111 11.373 1.74759 11.1414 1.97291C10.7946 2.29226 10.3706 2.57427 9.83113 2.85569C9.29097 3.11794 8.57814 3.43762 7.80671 3.81366V3.7193C8.77085 2.96814 9.7346 2.34895 10.6213 1.87888C10.8525 1.74759 10.7564 1.71033 10.4865 1.76643C10.178 1.91714 9.85047 2.10421 9.48438 2.31102C8.86737 2.70556 8.28893 3.08101 7.71086 3.45605L7.72982 3.28749C8.88629 2.29226 9.83113 1.65365 10.5829 1.37256C10.949 1.27853 11.2572 1.27853 11.4692 1.35372ZM25.6563 13.1825C25.7338 12.657 25.676 12.3193 25.4829 12.1685C25.2709 12.0373 25.0393 12.0745 24.7311 12.3007C24.5577 12.2068 24.3264 12.3007 24.0372 12.5446C24.0951 12.4133 24.0951 12.3007 24.0565 12.2068C24.3264 12.0939 24.4998 11.962 24.5577 11.8119C24.6346 11.6618 24.6732 11.4365 24.6732 11.136C24.7121 10.948 24.8855 10.6101 25.213 10.1222C25.4446 9.63441 25.2709 9.46486 24.7504 9.61557C25.0393 9.35199 25.1937 9.12667 25.1937 8.93903C25.213 8.77039 25.1361 8.52631 24.9624 8.26273C24.8855 8.11301 24.7891 8.07567 24.6346 8.1697C24.6925 8.07567 24.7121 7.94438 24.7121 7.81242C24.7121 7.68113 24.6156 7.38095 24.423 6.93064C24.3844 6.34779 24.2496 6.10405 23.9986 6.19766C23.9603 5.89715 23.8638 5.5973 23.6904 5.3153C23.4399 4.95869 23.2468 4.86466 23.112 5.03421C22.7073 4.45128 22.3409 4.22604 21.9938 4.31999C21.9748 4.07624 21.8976 3.85059 21.7436 3.64411C21.647 3.26866 21.5312 3.00549 21.4157 2.85569C21.2424 2.78017 21.1072 2.89262 21.0303 3.1562C20.9917 2.93088 20.9338 2.70556 20.8183 2.48024C20.7025 2.23616 20.5292 2.12371 20.2785 2.10421C20.182 2.08578 20.1051 2.10421 20.0279 2.14213C19.8738 2.0481 19.7194 1.99175 19.6233 1.99175C19.2762 1.63514 18.9679 1.59787 18.6787 1.89838L18.6402 1.57903C18.5436 1.22176 18.3317 1.12839 18.0232 1.33429C17.5223 0.82788 17.0979 0.508613 16.7512 0.339975C16.4619 0.246028 16.2693 0.264451 16.1728 0.414586C16.0183 0.264455 15.8646 0.170426 15.6909 0.133162C15.5174 0.0952405 15.3634 0.0579696 15.2089 0.00187038C14.9776 -0.0175513 14.8815 0.114739 14.9004 0.377323C14.5343 0.395745 14.2837 0.452516 14.149 0.564965C14.0138 0.677834 13.9756 0.809126 14.0332 0.99652C14.091 1.18449 14.2451 1.33429 14.4768 1.44774C14.4189 1.52227 14.3992 1.6163 14.3992 1.76643C14.4189 1.91714 14.5726 2.02968 14.8815 2.14213C15.1127 2.19823 15.344 2.19823 15.5753 2.16097C15.5174 2.38629 15.6136 2.53601 15.8256 2.59311C16.1148 2.89262 16.4809 2.96815 16.9245 2.81843L16.8666 3.19347L17.4643 3.43763C17.4837 3.7193 17.6185 3.90669 17.8694 4.03898L18.1007 4.13301C18.0427 4.13301 17.8304 4.31999 17.8304 4.3385C17.7725 4.3956 17.6571 4.65818 17.9652 4.73337C18.2161 4.75212 18.4664 4.78947 18.717 4.77063C18.717 4.84583 18.7749 4.95869 18.8135 5.05272C18.8521 5.14666 18.9679 5.27796 19.1414 5.46502C19.3148 5.63457 19.6233 5.80321 19.8738 5.91599C19.8542 5.93508 19.7773 6.12247 19.7195 6.31053C19.6422 6.53585 19.6039 6.87396 19.758 7.06193C19.7195 7.04318 19.5843 7.13654 19.5264 7.23057C19.334 7.51224 19.7387 7.92496 19.8156 8.07567C19.7773 8.07567 19.6619 8.13144 19.6039 8.1697C19.4688 8.26273 19.5074 8.75163 19.9121 8.84566C20.0086 8.90168 20.4712 9.14551 20.7025 9.39025C20.7415 9.42751 20.8763 9.67167 21.0686 9.91542C21.1651 10.0467 21.2616 10.2536 21.5123 10.2536C21.7242 10.948 22.0903 11.6054 22.5339 12.2626C22.5339 12.281 22.9386 12.6947 23.0734 13.0697C23.0155 13.3145 23.0352 13.5204 23.0352 13.5398C22.9772 14.0092 22.9 14.4595 22.7653 14.8534C22.3409 14.6469 22.264 14.9289 22.2061 15.1916C22.2251 15.1731 22.0134 15.1542 21.9748 15.2483C21.9938 15.0787 21.7242 14.9474 21.5891 15.0229C21.5891 15.0229 21.4543 15.117 21.3578 15.1731C21.3385 15.1916 21.2999 15.0418 21.2999 14.9289C21.2999 14.8534 21.2809 14.5724 21.3385 14.4595C21.3385 14.4411 21.4543 14.3282 21.5123 14.2158C21.647 13.9904 21.5508 13.2951 21.3964 12.8072C21.3578 12.657 21.2424 12.5818 21.1651 12.5634C21.1265 12.5446 20.8952 12.5634 20.8569 12.732C20.8373 12.6386 20.6835 12.5818 20.5678 12.5446C20.2399 12.4694 19.8738 13.0892 19.9121 13.6711C19.6618 13.4831 19.353 13.5398 19.3919 13.8582C19.4495 14.3091 20.1434 15.117 20.1631 15.4736C19.9508 15.2855 19.4688 15.2855 19.4688 15.7362C19.4688 15.8675 19.5843 16.0928 19.6233 16.1868C19.5264 16.6559 20.0855 17.0135 20.5481 17.4456C20.5481 17.6511 20.606 17.6511 20.6835 17.7451C20.606 17.8764 20.0855 18.6463 20.0855 18.6652C20.0665 18.6846 19.7001 18.4778 19.5843 18.5906C19.4688 18.7034 19.353 18.8344 19.2951 18.9288L19.353 19.473C19.3919 19.6983 19.2762 19.9609 18.9869 20.2433C18.6978 20.5243 18.5054 20.7869 18.4088 21.0122C18.3509 21.1815 18.1582 21.3883 17.8114 21.5952C17.7918 21.5381 17.7149 21.444 17.5605 21.3128C17.5412 21.2755 17.5026 21.257 17.4447 21.2755C17.0979 21.3699 16.4041 21.7449 15.3634 22.2516C15.1896 22.3457 14.9197 22.5709 14.5922 23.1341H13.9945C13.8401 22.947 13.6667 22.8342 13.474 22.6646C13.3392 22.5709 13.1079 22.5521 12.7801 22.7217C12.4719 22.6462 12.1442 22.7023 11.8359 22.8899C11.6429 22.9654 11.5082 22.9654 11.4116 22.9282L10.6599 22.1388C9.11761 21.5011 8.2693 21.2191 8.13451 21.2943C7.98042 21.3883 7.86461 21.5012 7.80671 21.6694C7.65295 21.5952 7.42165 21.4068 7.1128 21.1063L6.65021 20.5811C6.30342 20.2051 6.16864 19.8485 6.22655 19.5106L6.30342 19.06C6.32306 18.9845 6.30342 18.9288 6.26515 18.8905C6.14933 18.7776 5.95631 18.7034 5.85979 18.6846C5.84083 18.6846 5.76394 18.6463 5.70604 18.9288C5.72501 18.9845 5.22381 18.2713 5.20483 18.2525C5.33962 18.1021 5.59022 17.6894 5.72501 17.2008C5.87943 16.6374 5.95631 16.0367 5.95631 15.7929C5.97562 15.755 5.99524 15.7362 6.01421 15.7173C6.24552 15.5488 6.55436 13.8964 6.47681 13.5015C6.43854 13.3518 6.39994 13.2578 6.36133 13.2578C6.32306 13.2578 6.26515 13.2578 6.22654 13.2951L6.32306 13.1265C6.38063 12.9952 6.38063 12.9199 6.32306 12.8824C6.28412 12.8444 6.01422 12.8639 5.78292 12.9764C5.74431 12.7131 5.6285 12.3381 5.57093 12.2068C5.55161 12.1685 5.47475 12.2068 5.47475 12.2068C5.05042 12.4505 4.85773 13.0136 4.7033 13.6899L4.58782 13.8024C4.04835 14.4784 3.60473 15.2483 3.41202 16.1122C3.31551 15.9802 3.27724 15.7741 3.18073 15.5108C3.10352 15.2483 3.06524 15.0787 3.10352 14.9857C3.18073 14.8534 3.16142 14.7221 3.02664 14.5908C2.93013 14.4968 2.79535 14.0466 2.62162 13.2578C2.64092 13.0512 2.71813 12.732 2.87222 12.3193C3.02664 11.906 3.31551 11.3801 3.66262 10.7794C3.68226 10.7609 3.83602 10.5914 3.89393 10.5725C4.41444 10.4412 6.76602 7.49382 6.51542 6.12247C6.47682 6.29169 7.51782 4.50805 7.61435 4.13301L7.74912 4.09475L7.90322 4.03897C8.40475 3.83216 8.84804 3.62526 9.23347 3.45604L9.85047 3.13736C10.2741 2.96814 10.6788 2.72439 11.0645 2.40471C11.4692 2.06694 11.6815 1.69182 11.7201 1.31578C11.6429 1.16574 11.4502 1.10897 11.1035 1.10897C11.2769 0.903151 11.373 0.696587 11.3923 0.489773C11.2572 0.320554 10.8722 0.283291 10.1972 0.395744C9.50337 0.564969 8.90597 0.827885 8.38511 1.1845C7.86461 1.50385 7.38304 1.91714 6.95905 2.38629C6.53473 2.85569 6.20724 3.3436 5.95631 3.85059L6.26515 3.17504C6.41891 2.85569 6.57333 2.46181 6.74673 2.02968C6.80463 1.82312 6.80463 1.67307 6.74673 1.57904C6.70811 1.46658 6.61193 1.44775 6.45784 1.48501C6.30342 1.52227 5.99525 1.72917 5.57093 2.10421C5.10833 2.57427 4.68433 3.13736 4.33722 3.83217C3.97114 4.50805 3.73984 5.05272 3.60473 5.44659C3.68226 4.99595 3.66262 4.62083 3.56644 4.30156C3.50855 4.17027 3.41202 4.13301 3.23864 4.18869C3.08421 4.30156 2.91082 4.45128 2.75641 4.6766C2.60264 4.90192 2.42926 5.1084 2.29381 5.3153C2.14006 5.52211 1.96666 5.80321 1.75433 6.17924C1.54233 6.55427 1.36862 7.00525 1.21486 7.51224C1.06044 8.01899 0.944957 8.7137 0.84844 9.5588C0.790534 10.1035 0.829139 10.6854 0.963921 11.3052C1.11834 11.9244 1.29173 12.3939 1.44615 12.6759C1.59991 12.9764 1.75433 13.1449 1.90875 13.202C2.00493 13.4274 2.12042 13.784 2.27484 14.2903C2.35171 14.5345 2.39032 14.7037 2.39032 14.835C2.37135 14.9663 2.40962 15.0418 2.48684 15.0985C2.56405 15.1542 2.62162 15.2483 2.67953 15.3984C2.81431 15.8675 2.9877 16.3181 3.219 16.713C3.18073 16.9382 3.16142 17.1448 3.16142 17.3701C2.67953 15.9997 2.27484 14.9663 1.96666 14.253C1.36862 12.9764 0.925647 12.3939 0.578866 12.5063C0.385841 12.5634 0.289332 12.7131 0.251058 12.9385C0.231418 13.0325 0.231418 13.2578 0.251058 13.6144C0.27003 13.9709 0.289332 14.3655 0.366539 14.7792C0.674716 16.0928 1.19522 17.182 1.92772 18.0648L3.04562 19.3411C3.27691 19.5664 3.48924 19.7172 3.68226 19.8296C3.89393 19.9425 4.06732 19.9609 4.24071 19.9046C4.49164 20.299 4.81912 20.7124 5.20484 21.1442C5.45511 21.5012 5.70605 21.6882 5.95631 21.6694C6.07213 21.9135 6.22655 22.026 6.45784 22.026L6.68915 21.9891C6.99733 22.2896 7.28653 22.5149 7.53713 22.7023L7.24826 23.5101C6.74673 23.5846 6.26515 23.6226 5.84084 23.6226C5.43614 23.3409 4.89633 22.9654 4.16383 22.496L4.12522 21.6136C4.10592 21.3128 4.16383 21.0502 4.29862 20.8437C4.33722 20.6745 4.24071 20.5243 4.00941 20.3931C3.68226 20.2433 3.52784 20.1677 3.39306 20.2051C3.33515 20.2235 3.37343 20.2806 3.37343 20.3746V20.4304C3.37343 20.3931 3.39306 20.3746 3.45097 20.3931C3.87462 20.5059 4.06732 20.6372 4.02904 20.8064C3.89393 21.0318 3.83602 21.2755 3.83602 21.5381L3.85566 22.3083C3.31551 21.9702 2.73744 21.6509 2.12042 21.3883C2.19796 21.3699 2.27484 21.3699 2.37135 21.3699C2.46753 21.3699 2.52511 21.3316 2.54474 21.2755C2.58302 21.2191 2.52511 21.1815 2.37135 21.163C2.06251 21.163 1.85085 21.1815 1.75434 21.2376C1.67746 21.3128 1.69642 21.4068 1.79294 21.4823C2.52511 21.8389 3.16143 22.1955 3.72054 22.5522C4.60746 23.0967 5.28173 23.5474 5.78292 23.8852C6.26515 23.8667 6.92044 23.81 7.78773 23.6975L9.09869 23.4534C9.63816 23.3593 10.1972 23.2663 10.7753 23.2096C10.9876 23.1723 11.2572 23.1535 11.585 23.1535C11.9129 23.1341 12.202 23.1152 12.4913 23.0783C12.7612 23.5662 12.9149 23.9792 12.9728 24.3546C13.0114 24.5426 12.9728 24.6555 12.896 24.6739C11.6815 25.1057 10.8142 25.3871 10.2938 25.5006C9.77329 25.6134 9.29098 25.7065 8.86738 25.8005C7.80671 25.9885 6.74673 26.1386 5.72502 26.2511C5.45512 26.1765 4.70331 25.8005 3.45097 25.1057C2.56405 24.58 1.92773 24.1481 1.58095 23.8295C1.17626 23.3976 1.02183 23.1535 1.09904 23.0595C1.36862 22.6273 1.54234 22.2516 1.63885 21.933C1.67746 21.8007 1.69642 21.6882 1.67746 21.6136C1.56164 21.2755 1.63885 21.1063 1.92773 21.0878C2.60265 21.0502 3.06525 21.0318 3.29655 21.0502C3.39306 21.069 3.46994 21.0318 3.48925 20.9562L3.72054 20.5059L3.56644 20.4488L3.37343 20.7497V20.4488V20.8437L1.83121 20.881C1.69642 20.881 1.54234 20.9377 1.46513 21.0318C1.38825 21.1251 1.34964 21.3316 1.42653 21.6324C1.44616 21.7449 1.42653 21.8389 1.40755 21.9135C1.33033 22.2328 1.13732 22.6089 0.829139 23.0783C0.790536 23.1535 0.810166 23.2465 0.887044 23.3976C0.963922 23.5289 1.15695 23.7539 1.46512 24.0547C1.59991 24.186 1.79293 24.3358 2.06251 24.5242C2.33275 24.7113 2.81431 24.9933 3.48924 25.3871C4.29862 25.8572 5.05042 26.2326 5.78293 26.5516C5.93735 26.5704 6.95905 26.4203 8.82844 26.157L8.84804 26.3266C8.30824 26.7205 7.96113 26.8898 7.80671 26.8142C7.59504 26.833 7.53714 26.9837 7.61435 27.2836C7.67192 27.4159 7.78774 27.5089 7.94215 27.5471L8.13452 27.7721L8.69363 28.0918C8.90597 28.1476 9.11761 28.1476 9.31067 28.0918C9.48438 28.0163 9.61916 27.8662 9.67676 27.6408L9.7346 27.5845L10.3517 26.9837L10.7946 26.6644C11.1414 26.6077 11.3537 26.4952 11.4692 26.3078C11.4885 26.157 11.5271 26.0443 11.6047 26.0073L12.1442 25.6507C12.1631 25.5936 12.3754 25.6876 12.7994 25.8945C13.0114 25.9512 13.1848 25.9318 13.3392 25.8572L13.7443 25.6319C14.091 25.7065 14.727 26.1386 15.6136 26.927C15.5943 27.0211 15.6522 27.115 15.787 27.2463C15.8646 27.3403 16.0569 27.4158 16.3655 27.4716L16.5774 27.8662L16.7897 27.9411C17.0979 27.9595 17.4064 27.8471 17.676 27.6218L18.0042 27.5089C18.1775 27.3776 18.2544 27.2463 18.2355 27.115L18.1007 26.9837L17.8114 26.9082C17.4447 26.74 17.0786 26.5143 16.6932 26.2326L16.4426 26.0637C17.5412 26.2511 18.929 26.4019 20.5678 26.5143C20.7794 26.5516 21.0496 26.4579 21.3775 26.2138C21.7242 25.9701 22.7459 25.2558 24.4612 24.0732C24.7121 23.81 24.9238 23.4913 25.0782 23.1535C24.9238 23.0212 24.789 22.8147 24.6732 22.5521C24.5577 22.2896 24.4808 22.0831 24.4612 21.8947C24.423 21.7265 24.423 21.5753 24.4419 21.444C24.4808 21.3128 24.423 21.1815 24.3071 21.069C24.2496 20.9938 24.1337 20.9561 23.9603 20.9377C23.6325 20.8998 23.2665 20.9189 22.8618 20.9561C22.6687 20.9377 22.5529 20.8998 22.534 20.8248L22.5529 20.4686C22.5915 20.3175 22.534 20.2433 22.4181 20.2618C21.9748 20.3746 21.7045 20.4871 21.6087 20.5811C21.4733 20.7124 21.4733 20.8625 21.6277 21.0317C21.7436 21.1251 21.8011 21.2376 21.8011 21.3698C21.7436 22.026 21.6856 22.4581 21.6277 22.6834C20.8951 23.2663 20.3944 23.6041 20.1244 23.7354C19.9121 23.81 19.4305 23.7727 18.6977 23.6414C18.5436 23.5101 18.4278 23.2663 18.3509 22.9272C18.6012 22.7775 18.8714 22.6089 19.1603 22.402C19.353 22.3641 19.5074 22.3268 19.6421 22.2896C19.7773 22.2516 19.8352 22.1203 19.8352 21.9329C19.97 21.8762 20.0665 21.7822 20.1244 21.6136L21.011 20.5811C21.2998 20.3364 21.6087 20.2051 21.9358 20.1677C22.3409 20.1298 22.8618 19.9236 23.517 19.4918C23.6136 19.3793 23.6136 19.2283 23.517 19.0412C23.7094 18.9287 24.0182 18.6279 24.4612 18.1212C24.6346 17.8764 24.6732 17.6142 24.5766 17.3321C24.9817 16.8627 25.213 16.4876 25.2709 16.2052C25.3095 15.9615 25.3095 15.6989 25.2516 15.3984C25.4446 15.2855 25.5794 15.1731 25.6563 15.0985C25.7338 15.0229 25.7721 14.8916 25.7721 14.7409C25.7721 14.5908 25.7142 14.4783 25.5984 14.3655C25.8296 13.8779 25.8686 13.5015 25.6563 13.1825Z" fill="white"/>
<path d="M21.108 24.9459C21.108 25.0211 21.1466 25.1913 21.1662 25.2859C21.2048 25.3615 21.3016 25.3242 21.3409 25.2859L21.3795 25.3242C21.3016 25.3615 21.2826 25.3998 21.2048 25.4182C21.1269 25.4561 21.0687 25.4749 21.0301 25.5132L20.9914 25.4749C21.0687 25.4182 21.0883 25.3809 21.0687 25.248C21.0687 25.1161 21.0301 24.9459 20.9914 24.8136L20.8168 23.9052H20.894L21.7872 24.6806C21.8258 24.7189 21.9233 24.8136 22.0005 24.8508C22.0588 24.8888 22.1367 24.8508 22.1753 24.8508L22.2146 24.8888C22.1367 24.927 22.0398 24.9643 21.9815 25.0211C21.9037 25.059 21.8069 25.0972 21.7486 25.154L21.7093 25.0778C21.7872 25.0778 21.8455 25.0022 21.8069 24.9459C21.7676 24.9076 21.729 24.8508 21.6707 24.8136L21.496 24.6806L21.0883 24.8888L21.108 24.9459ZM21.729 23.6027C21.6321 23.5645 21.5543 23.5645 21.496 23.6407L21.4574 23.5645C21.5346 23.5275 21.5543 23.5275 21.5929 23.4704C21.6321 23.4704 21.6904 23.4325 21.729 23.3943L23.0685 23.8297L22.6805 23.3191C22.6026 23.2624 22.5443 23.1109 22.4672 23.0542C22.3696 22.9787 22.331 23.017 22.2335 23.0542L22.1949 23.017C22.2727 22.9787 22.331 22.9408 22.4085 22.922C22.4475 22.8468 22.4672 22.8273 22.5443 22.7897L22.5836 22.8273C22.5443 22.9034 22.4861 22.9034 22.5058 22.9971C22.5444 23.0733 22.6805 23.2245 22.7387 23.3379L23.2822 24.0754L23.2432 24.1134C23.166 24.1134 23.1074 24.0754 23.0299 24.0378L21.7872 23.6407L22.2336 24.2453C22.2727 24.3214 22.3696 24.4165 22.4475 24.4732C22.525 24.5105 22.5836 24.4732 22.6608 24.4352V24.4732C22.6222 24.5488 22.564 24.5672 22.4861 24.6051C22.4086 24.6434 22.3893 24.6806 22.3114 24.7374L22.2727 24.7001C22.3504 24.624 22.3696 24.6051 22.3504 24.4917C22.3114 24.4165 22.2532 24.3214 22.1753 24.2453L21.729 23.6027ZM23.4572 23.357C23.4572 23.451 23.5344 23.6216 23.5541 23.6978C23.6316 23.773 23.6898 23.6978 23.7288 23.6595L23.7674 23.735C23.7288 23.773 23.6706 23.8112 23.5927 23.8297C23.5541 23.8679 23.4958 23.9052 23.4572 23.9616L23.418 23.8864C23.4958 23.8112 23.4958 23.7918 23.4958 23.6779C23.418 23.5081 23.3986 23.3758 23.3597 23.2435L23.0882 22.3735L23.1267 22.3361L24.1364 23.017C24.1753 23.0542 24.3112 23.1489 24.3501 23.1489C24.4084 23.1868 24.4859 23.1489 24.5634 23.1109V23.1868C24.4859 23.2245 24.4276 23.2624 24.3501 23.3191C24.2722 23.3943 24.214 23.4141 24.1364 23.4893L24.0782 23.451C24.1172 23.4141 24.1754 23.357 24.1364 23.2808C24.0975 23.2435 24.0396 23.2244 24.0007 23.1868L23.787 23.0542L23.3986 23.3191L23.4572 23.357ZM21.3992 24.6051L20.9522 24.208L21.0497 24.7753L21.3992 24.6051ZM23.7288 22.9787L23.2046 22.6383L23.418 23.2056L23.7288 22.9787ZM15.419 23.9999C15.419 23.9243 15.4576 23.7918 15.419 23.735C15.419 23.6595 15.3411 23.6407 15.2828 23.6407V23.5645C15.3804 23.6027 15.4969 23.6407 15.5551 23.6407C15.652 23.6407 15.7685 23.6779 15.8656 23.6779L15.8267 23.7162C15.7881 23.7162 15.6906 23.7162 15.652 23.7918C15.6133 23.8679 15.6133 23.9999 15.5741 24.0566L15.4969 24.7001C15.4576 24.7753 15.4576 24.927 15.4576 24.9643C15.4576 25.059 15.5355 25.059 15.5937 25.059V25.1345C15.4969 25.0973 15.419 25.0972 15.3221 25.059C15.2247 25.059 15.1475 25.059 15.0499 25.0211V24.9643C15.1082 24.9643 15.1861 24.9643 15.2247 24.8888C15.2639 24.8509 15.3025 24.6806 15.3025 24.624L15.419 23.9999ZM17.1662 24.2268L17.1276 24.1889C17.1662 23.9814 17.0891 23.9243 16.9143 23.8864C16.8168 23.8864 16.7003 23.8481 16.7003 23.9243L16.5256 24.9643C16.5256 25.1345 16.5256 25.1724 16.7003 25.2295V25.2675C16.6034 25.2675 16.487 25.2295 16.3898 25.1913C16.2926 25.1913 16.1762 25.1913 16.0793 25.154V25.1161C16.2926 25.1161 16.3316 25.0778 16.3509 24.9076L16.487 23.8679C16.5256 23.8297 16.4091 23.7918 16.3509 23.7918C16.1376 23.7541 16.0793 23.7541 16.0404 24.0187L15.9628 23.9814L16.0404 23.6407L17.2055 23.8481L17.1662 24.2268ZM17.3024 24.9076C17.2634 24.9838 17.2055 25.1345 17.1662 25.2107C17.1662 25.3047 17.2634 25.3047 17.3024 25.343V25.3809C17.2245 25.3809 17.1662 25.343 17.089 25.343C17.0112 25.343 16.9529 25.3047 16.875 25.3047L16.9143 25.2675C17.0112 25.2675 17.0498 25.2295 17.1276 25.1345C17.2055 25.0022 17.2634 24.8703 17.341 24.7374L17.749 23.9243L17.8265 23.9616L18.0402 25.1161C18.0791 25.1913 18.0791 25.3241 18.1177 25.3809C18.1567 25.4561 18.1953 25.4561 18.2535 25.4749V25.5132C18.176 25.5132 18.0791 25.4749 17.9819 25.4749C17.9041 25.4377 17.8072 25.4377 17.7101 25.4377L17.749 25.3615C17.7879 25.3615 17.8848 25.3998 17.8848 25.3241C17.8848 25.248 17.8848 25.1913 17.8848 25.1161L17.8459 24.8888L17.3606 24.8136L17.3024 24.9076ZM18.7391 24.5672C18.7391 24.4917 18.778 24.3403 18.778 24.2651C18.7391 24.1889 18.6808 24.1701 18.6029 24.1701L18.6419 24.1318C18.7001 24.1318 18.8166 24.1701 18.8749 24.1701C18.972 24.208 19.0885 24.208 19.1853 24.208L19.1467 24.2835C19.1082 24.2835 19.0106 24.2453 18.972 24.3214C18.9331 24.397 18.9331 24.5488 18.8941 24.6239L18.7973 25.2675C18.7583 25.5316 18.7973 25.6078 19.0106 25.6451C19.1082 25.6451 19.2246 25.6833 19.2829 25.6451C19.4184 25.5695 19.4184 25.5132 19.4575 25.3809H19.5348L19.4379 25.778C19.4379 25.7398 19.3604 25.7398 19.3604 25.7398C19.0106 25.6646 18.7001 25.6451 18.3703 25.5695V25.5316C18.4282 25.5316 18.5061 25.5316 18.5837 25.4561C18.5837 25.4182 18.6226 25.248 18.6615 25.1913L18.7391 24.5672ZM20.0982 24.6806C20.0982 24.6051 20.059 24.4537 20.059 24.4165C20.0204 24.3214 19.9621 24.3403 19.8842 24.3403V24.2651C19.9428 24.2651 20.059 24.2651 20.1565 24.2651C20.234 24.2651 20.3312 24.2268 20.428 24.2268V24.303C20.3505 24.303 20.2919 24.303 20.2533 24.3785C20.2533 24.4537 20.2533 24.6051 20.2533 24.6806L20.3312 25.2859C20.3312 25.3615 20.3312 25.5132 20.3698 25.5884C20.4084 25.6646 20.4666 25.6646 20.5445 25.6646V25.7018C20.4477 25.7018 20.3698 25.7018 20.273 25.7018C20.1754 25.7397 20.0982 25.7397 20.0007 25.7397V25.7018C20.04 25.7018 20.1368 25.7018 20.1368 25.6078C20.1754 25.5316 20.1368 25.3997 20.1368 25.343L20.0982 24.6806ZM17.7879 24.8324L17.6907 24.2268L17.4188 24.7753L17.7879 24.8324ZM6.23562 24.6622C6.23562 24.6051 6.19701 24.4352 6.19701 24.3597C6.15774 24.3024 6.09951 24.3024 6.02197 24.3403V24.2651C6.08054 24.2651 6.19701 24.2651 6.25525 24.2268C6.35211 24.2268 6.42998 24.2268 6.48823 24.1889C6.66295 24.1516 6.93451 24.1701 6.97311 24.4731C7.01239 24.6622 6.91488 24.7753 6.77943 24.8324C6.87628 24.8324 6.97311 24.8324 7.051 24.8703C7.14784 24.927 7.22572 25.0211 7.22572 25.154C7.26432 25.2859 7.20609 25.3809 7.0896 25.4944C7.03135 25.5695 6.89591 25.5884 6.77943 25.6078C6.68191 25.6078 6.6047 25.6078 6.54646 25.6452C6.41034 25.6452 6.35211 25.6833 6.19701 25.6833V25.6452C6.25526 25.6078 6.33247 25.6078 6.37174 25.5511C6.37174 25.4944 6.33247 25.3241 6.33247 25.248L6.23562 24.6622ZM7.3808 24.4732C7.3808 24.397 7.3422 24.2453 7.30358 24.208C7.26431 24.1516 7.20608 24.1516 7.12886 24.1516V24.1134C7.22571 24.0754 7.30358 24.0754 7.40043 24.0754C7.45867 24.0754 7.53654 24.0378 7.59479 24.0378C7.78915 23.9999 8.04108 24.0187 8.08035 24.2835C8.11894 24.4732 7.98284 24.5867 7.84738 24.6622C7.94423 24.6622 8.06071 24.6622 8.11896 24.7189C8.2158 24.7753 8.29367 24.8704 8.33228 24.9838C8.33228 25.154 8.27404 25.248 8.19683 25.3242C8.09932 25.4182 7.96387 25.4377 7.86635 25.4377C7.82776 25.4749 7.7309 25.4749 7.67199 25.4749C7.57515 25.4749 7.45867 25.5132 7.36182 25.5511V25.4944C7.40042 25.4944 7.49728 25.4944 7.49728 25.3998C7.49728 25.343 7.45867 25.2107 7.45867 25.1345L7.3808 24.4732ZM8.4684 24.2835C8.4684 24.208 8.42981 24.0566 8.42981 23.9814C8.39052 23.9243 8.29368 23.9243 8.25508 23.9616L8.21581 23.9052C8.31332 23.9052 8.4298 23.9052 8.48804 23.8679C8.58489 23.8679 8.70137 23.8679 8.7596 23.8297L8.7982 23.8864C8.73997 23.8864 8.66276 23.8864 8.62349 23.9616C8.62349 24.0187 8.66275 24.1889 8.66275 24.2651L8.73998 24.8888C8.77929 25.154 8.85647 25.2107 9.0894 25.1724C9.14767 25.1345 9.26414 25.1345 9.32267 25.059C9.38129 24.9838 9.38129 24.8888 9.38129 24.7942L9.43922 24.7568L9.51675 25.154C9.47816 25.154 9.45848 25.154 9.41988 25.154C9.10908 25.1913 8.77928 25.2675 8.4684 25.3047V25.2675C8.52665 25.2295 8.60452 25.2295 8.60452 25.1724C8.64312 25.0972 8.60452 24.9459 8.60452 24.8703L8.4684 24.2835ZM9.65281 24.0566C9.65281 23.9814 9.61387 23.8679 9.61387 23.7918C9.53635 23.735 9.47815 23.735 9.43922 23.735L9.40028 23.6978C9.49741 23.6595 9.61388 23.6595 9.67249 23.6595C9.76936 23.6595 9.86615 23.6216 9.94401 23.6216V23.6595C9.90508 23.6595 9.84723 23.6978 9.80796 23.7541C9.80796 23.8297 9.80796 23.9432 9.84724 24.0187L9.92443 24.6434C9.92443 24.7001 9.96371 24.8703 10.0023 24.9076C10.0409 24.9643 10.0992 24.9643 10.177 24.9643V25.0405C10.0798 25.0405 10.0023 25.0405 9.90509 25.0405C9.84723 25.0778 9.73043 25.0778 9.63322 25.0778V25.0405C9.71109 25.0405 9.76937 25.0405 9.76937 24.9459C9.80796 24.8703 9.76937 24.7568 9.76937 24.6806L9.65281 24.0566ZM11.0507 23.4325H11.0896L11.1671 23.8679H11.1285C11.0507 23.6407 10.8759 23.4705 10.6816 23.5081C10.3321 23.5461 10.3128 23.9432 10.3518 24.2835C10.4293 24.6051 10.565 24.9459 10.9149 24.8888C11.1478 24.8136 11.2061 24.6239 11.2061 24.3597L11.245 24.3214L11.3225 24.8136L11.245 24.7189C11.1478 24.8508 11.0117 24.8888 10.8759 24.927C10.5068 25.0022 10.1963 24.7568 10.1188 24.3214C10.0798 23.8864 10.2739 23.5275 10.643 23.4893C10.8176 23.451 10.9149 23.4893 11.0507 23.546L11.0507 23.4325ZM11.6913 24.2835C11.6913 24.3785 11.6331 24.5488 11.672 24.6051C11.672 24.7001 11.7688 24.6622 11.8467 24.6622V24.7374C11.7688 24.7374 11.7109 24.7374 11.6331 24.7374C11.5748 24.7753 11.4973 24.7753 11.439 24.7753V24.7374C11.5362 24.7001 11.5748 24.6622 11.6137 24.5672C11.6331 24.397 11.6331 24.2651 11.672 24.1318L11.8274 23.2436H11.8853L12.4291 24.2453C12.4677 24.303 12.5259 24.4165 12.5652 24.4732C12.6038 24.5105 12.6621 24.5105 12.74 24.5105V24.5672C12.6817 24.5672 12.5652 24.5672 12.5067 24.6051C12.4098 24.6051 12.3126 24.6434 12.2347 24.6434V24.6051C12.2737 24.5672 12.3709 24.5672 12.3319 24.4732C12.3319 24.4352 12.293 24.3785 12.293 24.3403L12.1572 24.1134L11.7109 24.1889L11.6913 24.2835ZM6.48822 24.8508L6.54646 24.8136C6.6047 24.8136 6.6819 24.8136 6.72118 24.7374C6.77943 24.6622 6.77943 24.6051 6.77943 24.5105C6.74014 24.3403 6.66294 24.2453 6.50719 24.2835C6.50719 24.2835 6.44895 24.2835 6.41034 24.3214V24.3785L6.48822 24.8508ZM6.56543 25.2107C6.56543 25.2675 6.6047 25.3997 6.64331 25.4749C6.6819 25.5316 6.74015 25.5316 6.81803 25.4944C6.99275 25.4944 7.051 25.3615 7.01239 25.154C6.97312 25.059 6.93451 24.9643 6.83767 24.927C6.75979 24.8888 6.66295 24.9076 6.56543 24.927H6.52683L6.56543 25.2107ZM7.6334 24.6622H7.67268C7.73091 24.6239 7.80813 24.6239 7.84739 24.5867C7.90564 24.5105 7.90564 24.4165 7.90564 24.3214C7.86637 24.1516 7.78915 24.0949 7.65304 24.0949C7.61376 24.1318 7.55553 24.1318 7.55553 24.1318C7.55553 24.1318 7.55553 24.1889 7.55553 24.2268L7.6334 24.6622ZM7.67268 25.059C7.71128 25.1161 7.71128 25.2295 7.74989 25.2859C7.78916 25.343 7.8474 25.343 7.92462 25.343C8.06072 25.3047 8.11897 25.1724 8.08036 25.0022C8.08036 24.8704 8.00249 24.8136 7.94425 24.7374C7.8474 24.7001 7.76953 24.7374 7.71128 24.7374H7.65305L7.67268 25.059ZM12.1186 24.0754L11.8274 23.5461L11.7302 24.1134L12.1186 24.0754ZM2.15844 23.6216C2.15844 23.7162 2.15844 23.7541 2.23632 23.8297L2.19704 23.8679C2.15844 23.8297 2.11984 23.8112 2.08056 23.773C2.04196 23.735 1.96408 23.7541 1.94512 23.7162L1.96408 23.5461V22.9972C1.96408 22.9035 1.96408 22.9035 1.88688 22.8273L1.73113 23.0354C1.69252 23.1109 1.59567 23.2436 1.57604 23.3191C1.57604 23.3943 1.61464 23.4141 1.69252 23.451L1.65391 23.4893C1.57604 23.451 1.5178 23.3943 1.43992 23.357C1.36272 23.3007 1.28483 23.2245 1.18799 23.2056L1.22659 23.1674C1.30447 23.2056 1.34308 23.2245 1.40132 23.1868C1.47919 23.1489 1.57604 23.017 1.59567 22.9408L1.94512 22.4114C1.98372 22.3735 2.08057 22.2412 2.1002 22.166C2.1388 22.0898 2.0616 22.071 2.02232 22.0327V21.9575C2.1388 22.0143 2.19704 22.0898 2.31353 22.1462C2.39141 22.1844 2.44965 22.2412 2.48825 22.2794C2.66298 22.4114 2.81872 22.5631 2.66298 22.8085C2.50789 23.017 2.33317 23.0354 2.15844 22.9408L2.15844 23.6216ZM2.99344 23.1674C3.03205 23.0922 3.12922 22.9599 3.14853 22.922C3.18747 22.8273 3.10993 22.7897 3.03205 22.7517L3.09029 22.7135L3.84742 23.1868L3.6534 23.4704L3.61446 23.4325C3.75057 23.2245 3.67269 23.1674 3.49798 23.0354L3.3815 22.9787C3.34288 22.9408 3.34288 22.9408 3.28464 23.017L2.99344 23.4705C3.20678 23.6216 3.30395 23.5276 3.40113 23.4141H3.43974C3.3815 23.5276 3.30395 23.5843 3.28464 23.6595C3.22642 23.773 3.18747 23.8297 3.12922 23.9052L3.09029 23.8679C3.22642 23.6595 3.14853 23.6027 2.97381 23.5081L2.77945 23.8297C2.74084 23.9052 2.68261 23.9616 2.68261 24.0378C2.68261 24.1318 2.76048 24.208 2.83803 24.2268C3.01275 24.3214 3.12923 24.3403 3.28465 24.1701H3.32326L3.12923 24.4732L2.25529 23.9052L2.29456 23.8679C2.33316 23.9052 2.41103 23.9243 2.46928 23.8864C2.50789 23.8482 2.60474 23.7162 2.66298 23.6407L2.99344 23.1674ZM3.76988 24.3597C3.73094 24.4352 3.6534 24.5672 3.6534 24.6434C3.61446 24.7189 3.69233 24.7374 3.76988 24.8136L3.73094 24.8508C3.6534 24.7942 3.59516 24.7568 3.47867 24.7001C3.40113 24.6806 3.34288 24.6051 3.26502 24.5867V24.5105C3.34288 24.5488 3.40113 24.6051 3.43974 24.5299C3.49798 24.4917 3.61446 24.3597 3.63409 24.2835L3.9446 23.7541C3.98354 23.6779 4.08038 23.5461 4.10002 23.5081C4.13863 23.4141 4.06108 23.3758 3.98354 23.3379L4.02214 23.3007C4.10002 23.357 4.19687 23.3943 4.27473 23.451C4.35229 23.4893 4.41053 23.5461 4.4884 23.5843C4.66312 23.6779 4.8182 23.8679 4.66312 24.1134C4.5077 24.397 4.2165 24.3403 4.04178 24.208C4.00284 24.208 3.9253 24.1516 3.9253 24.1516L3.76988 24.3597ZM4.89608 24.1516C4.91539 24.0187 4.95433 23.9052 4.83784 23.8112L4.87645 23.773C4.95433 23.8112 5.03187 23.8679 5.09011 23.9052C5.16765 23.9432 5.22589 23.9998 5.34238 24.0187L5.30377 24.0566C5.26484 24.0187 5.16766 23.9998 5.12906 24.0566C5.09011 24.1318 5.01257 24.4731 4.97364 24.5672L4.87645 25.154L5.30378 24.7942C5.36202 24.7189 5.63358 24.4732 5.67252 24.397C5.73076 24.2835 5.67252 24.2651 5.63358 24.2268V24.1701C5.71145 24.2268 5.76969 24.2651 5.80829 24.303C5.88618 24.3403 5.94442 24.3597 5.98302 24.397V24.4352C5.84724 24.3403 5.71145 24.5105 5.57534 24.6239L4.72136 25.4182L4.64349 25.3809L4.89608 24.1516ZM1.98371 22.7517C2.15844 22.8837 2.27493 22.9787 2.46928 22.7333C2.56613 22.6 2.56613 22.4298 2.44965 22.3546C2.41103 22.3164 2.33316 22.298 2.33316 22.298C2.29457 22.298 2.29457 22.3361 2.25529 22.3361L1.98371 22.7517ZM4.00284 24.0754C4.00284 24.1134 4.04178 24.1134 4.08038 24.1318C4.2165 24.2268 4.35229 24.1889 4.44946 24.0187C4.58525 23.8481 4.52701 23.7162 4.39122 23.6216C4.31334 23.5645 4.31334 23.5645 4.25511 23.6595L4.00284 24.0754Z" fill="white"/>
<path d="M5.12874 17.8913C5.20628 18.0044 5.28383 18.0994 5.32276 18.1561L6.13846 17.7963L6.17707 17.8342C6.42967 18.1179 6.72087 18.3831 7.05068 18.6852L7.08928 18.7235L6.72087 19.5177C6.89559 19.6496 7.34187 19.9716 7.53623 20.085L8.19652 19.4983L8.25476 19.5362C8.60421 19.7447 8.97262 19.9333 9.36129 20.085L9.41956 20.1038L9.32236 20.9928C9.55571 21.0679 10.0602 21.2385 10.2932 21.2952L10.7394 20.5389L10.7977 20.5577C11.225 20.6523 11.6327 20.7091 12.0015 20.7464H12.0597L12.2344 21.5983C12.3509 21.5983 12.5256 21.5983 12.7396 21.5983C12.953 21.5983 13.1277 21.5983 13.2442 21.5983L13.4188 20.7464H13.4771C13.9234 20.7091 14.3121 20.6329 14.6812 20.5577L14.7394 20.5389L15.1857 21.2952C15.4187 21.2196 15.9239 21.0679 16.1565 20.9928L16.0594 20.1223L16.1176 20.1038C16.5063 19.9333 16.8747 19.7631 17.2052 19.555L17.2631 19.5177L17.9234 20.1038C18.1174 19.9715 18.5444 19.6685 18.7387 19.5177L18.37 18.7234L18.4279 18.6852C18.758 18.4015 19.0496 18.1178 19.3015 17.8342L19.3407 17.7778L20.1948 18.1561C20.3308 17.9853 20.6606 17.5505 20.7772 17.3609L20.1751 16.7184L20.2144 16.6616C20.4277 16.3213 20.6025 15.9624 20.7772 15.6025L20.7968 15.5454L21.6901 15.6405C21.7673 15.4135 21.942 14.9218 22.0002 14.7133L21.2241 14.2788L21.243 14.2222C21.3406 13.8055 21.3989 13.4084 21.4375 13.0496V12.9925L22.3307 12.8227C22.3307 12.5954 22.3307 12.0663 22.3307 11.8394L21.4375 11.6682V11.6118C21.3989 11.1959 21.3406 10.7988 21.243 10.4399L21.2241 10.3828L22.0002 9.94778C21.942 9.72089 21.7673 9.22908 21.6901 9.0021L20.7968 9.11563L20.7772 9.05853C20.622 8.69968 20.4474 8.33982 20.2144 7.98097L20.1751 7.92387L20.7772 7.28135C20.6417 7.09172 20.3308 6.65726 20.1751 6.48713L19.3601 6.84631L19.3212 6.78921C19.0495 6.48713 18.758 6.20346 18.4475 5.93822L18.3893 5.9003L18.758 5.10608C18.5833 4.97378 18.1367 4.65219 17.9427 4.52024L17.2824 5.10607L17.2242 5.06781C16.8747 4.86033 16.5063 4.67103 16.1176 4.52023L16.0594 4.50048L16.1565 3.63107C15.9428 3.55579 15.4187 3.38566 15.1858 3.32856L14.7394 4.08486L14.6812 4.06644C14.2735 3.97141 13.8652 3.91473 13.4771 3.8768H13.4188L13.2442 3.02581C13.1277 3.02581 12.953 3.02581 12.7397 3.02581C12.5256 3.02581 12.3509 3.02581 12.2344 3.02581L12.0597 3.8768H12.0015C11.5745 3.91474 11.1668 3.97141 10.7977 4.06644L10.7395 4.08486L10.2932 3.32856C10.0795 3.38567 9.55571 3.5558 9.3417 3.63107L9.43892 4.50049L9.38098 4.52024C9.0119 4.67106 8.64281 4.86036 8.29336 5.06784L8.23513 5.1061L7.57485 4.52027C7.478 4.5767 7.32226 4.69015 7.1868 4.80393L7.20577 4.5767C7.34188 4.48209 7.478 4.3874 7.53624 4.35013L7.59448 4.31187L8.27372 4.89762C8.60421 4.70898 8.93402 4.53877 9.26383 4.40648L9.12836 3.47964L9.18663 3.46088C9.36129 3.38569 10.0988 3.15838 10.2932 3.10203L10.3515 3.08219L10.7977 3.83915C11.1475 3.7633 11.5162 3.70661 11.9046 3.66935L12.0794 2.81836H12.1375H12.1958H12.2152H12.2734C12.3898 2.81836 12.5649 2.81836 12.7007 2.81836C12.9144 2.81836 13.1859 2.81836 13.2831 2.83678H13.341L13.5157 3.68777C13.8848 3.7257 14.2539 3.7828 14.6229 3.85799L15.0693 3.10202L15.1275 3.12044C15.3218 3.17721 16.0594 3.40411 16.2537 3.47963L16.312 3.49913L16.273 4.35012C16.6228 4.5005 16.9526 4.65221 17.2824 4.84126L17.9427 4.2551L18.0009 4.29302C18.1757 4.38738 18.7969 4.84126 18.9524 4.97379L19.0103 5.01139L18.6415 5.80636C18.9327 6.05209 19.185 6.2975 19.4376 6.58116L20.253 6.20347L20.2916 6.26015C20.4277 6.41095 20.8746 7.01654 20.9911 7.18667L21.0298 7.2431L20.4277 7.88595C20.622 8.20754 20.7968 8.52947 20.9329 8.86989L21.8255 8.75636L21.8451 8.81313C21.923 8.98334 22.1559 9.70238 22.1945 9.89102L22.2142 9.94778L21.4375 10.3828C21.5153 10.7236 21.5735 11.0824 21.6121 11.4607L22.5054 11.6309V11.688C22.5246 11.8767 22.5246 12.6336 22.5054 12.8227V12.879L21.6121 13.0496C21.5735 13.3899 21.5153 13.7489 21.4375 14.1271L22.2142 14.5625L22.1945 14.6193C22.1559 14.8079 21.9033 15.5269 21.8451 15.6972L21.8255 15.7539L20.9132 15.6589C20.7582 15.9997 20.6024 16.3213 20.4081 16.6233L21.0101 17.2669L20.9715 17.3991C20.8551 17.5505 20.4081 18.1749 20.2916 18.3069L20.253 18.3636L19.418 18.0044C19.185 18.2696 18.9327 18.515 18.6223 18.7802L19.0103 19.5744L18.9524 19.6117C18.7969 19.7251 18.1757 20.179 18.0202 20.274L17.962 20.312L17.2824 19.7251C16.9719 19.9149 16.6418 20.085 16.2923 20.217L16.3895 21.0868L16.3312 21.1062C16.1565 21.163 15.4187 21.4087 15.2244 21.4651L15.1661 21.4849L14.7198 20.7091C14.3703 20.7843 14.0209 20.8414 13.6133 20.8793L13.4385 21.7487H13.3607C13.2638 21.7487 12.9919 21.7487 12.7782 21.7487C12.5649 21.7487 12.3123 21.7487 12.1958 21.7487H12.1183L11.9432 20.8793C11.5938 20.8414 11.225 20.7843 10.837 20.7091L10.3901 21.4849L10.3318 21.4651C10.157 21.4087 9.41957 21.1814 9.22524 21.1062L9.16696 21.0868L9.26383 20.1985C8.91435 20.0467 8.58458 19.8954 8.25476 19.7067L7.59449 20.2925L7.53624 20.2552C7.38049 20.1418 6.73983 19.7067 6.60439 19.5933L6.54615 19.555L6.91456 18.7423C6.62337 18.4771 6.3518 18.2313 6.11883 17.9665L5.30347 18.3263L5.26452 18.2696C5.22558 18.2129 5.14804 18.1179 5.05086 17.9859L5.12874 17.8913ZM3.55591 15.3753C3.45906 15.1114 3.36188 14.7895 3.32294 14.6761L3.30364 14.6193L4.09971 14.1843C4.02183 13.7871 3.96359 13.428 3.92498 13.1064L3.03174 12.9362V12.8606C3.03174 12.6709 3.03174 11.9146 3.03174 11.726V11.6498L3.92498 11.4796C3.96359 11.1391 4.02183 10.78 4.09971 10.4017L3.65309 10.1563L3.94429 10.118L4.27442 10.3067V10.3828C4.17725 10.7988 4.11901 11.1959 4.08007 11.5548V11.6119L3.20647 11.7827C3.20647 12.0096 3.20647 12.539 3.20647 12.7656L4.08007 12.9362V12.9925C4.11901 13.3518 4.17725 13.73 4.27442 14.1843L4.29373 14.2409L3.5173 14.6761C3.55591 14.7895 3.61414 14.9782 3.67238 15.1678L3.55591 15.3753Z" fill="white"/>
<path d="M6.81781 8.8134L11.0894 10.043L11.2834 5.6931C9.41967 6.09029 7.78893 7.20545 6.81781 8.8134ZM11.2834 10.3267L6.46836 8.94569L6.54625 8.83224C7.57494 7.07316 9.34179 5.84389 11.3609 5.4662L11.497 5.44678L11.2834 10.3267ZM14.3122 5.7116L14.4484 10.0615L18.7581 8.88859C17.7877 7.28163 16.1759 6.12756 14.3122 5.7116ZM14.2344 10.3267L14.0982 5.44678L14.2344 5.4662C16.2731 5.88215 18.0203 7.13026 19.0104 8.88859L19.069 9.00237L14.2344 10.3267ZM5.84703 11.6312C5.653 13.4849 6.25504 15.3192 7.5167 16.7375L10.0407 13.1445L5.84703 11.6312ZM7.53634 17.0775L7.43883 16.9835C6.06068 15.4893 5.4004 13.4655 5.63337 11.4798L5.653 11.3475L10.3708 13.0498L7.53634 17.0775ZM15.4771 13.163L17.9428 16.7938C19.2048 15.3953 19.8454 13.5601 19.6707 11.7067L15.4771 13.163ZM17.9235 17.1346L15.1473 13.0498L19.8651 11.4046L19.884 11.5366C20.117 13.5417 19.4377 15.5457 18.0203 17.0211L17.9235 17.1346ZM9.96348 18.4968C10.8371 18.8745 11.7686 19.0641 12.7397 19.0641C13.6715 19.0641 14.6034 18.8745 15.4574 18.5152L12.7397 15.0734L9.96348 18.4968ZM12.7397 19.2716C11.691 19.2716 10.6814 19.0641 9.74947 18.629L9.61367 18.5723L12.7397 14.733L15.8072 18.5908L15.6714 18.6475C14.7782 19.0641 13.7488 19.2716 12.7397 19.2716Z" fill="white"/>
<path d="M11.0698 10.023L12.662 5.6167L12.7588 5.35254L12.8563 5.6167L14.4485 10.023L19.2435 10.1365H19.5347L19.3017 10.3067L15.4772 13.1443L16.8556 17.6261L16.9332 17.9098L16.7002 17.7581L12.7588 15.0916L8.81776 17.7581L8.58477 17.9283L8.66264 17.6446L10.0408 13.1628L6.21587 10.3264L5.98291 10.1563H6.27411L11.0698 10.023ZM12.7588 5.95713L11.2449 10.1563L11.2252 10.2127H11.1477L6.56532 10.3265L10.1962 13.0308L10.2548 13.0681L10.2351 13.1443L8.93422 17.418L12.7009 14.8842L12.7587 14.8462L12.817 14.8842L16.5837 17.418L15.2638 13.1443L15.2441 13.0681L15.3024 13.0308L18.9329 10.3265L14.3705 10.2315H14.2926L14.2737 10.1747L12.7588 5.95713Z" fill="white"/>
<path d="M133.052 10.6088L135.644 0.375977H139.033L141.64 10.6088H139.923L139.355 8.41284H135.322L134.754 10.6088H133.052ZM136.963 1.76525L135.659 6.94888H139.018L137.73 1.76525H136.963Z" fill="white"/>
<path d="M149.522 11.6246C149.522 13.2579 148.311 14.0745 145.888 14.0745C144.722 14.0745 143.858 13.9202 143.296 13.6114C142.734 13.3027 142.453 12.74 142.453 11.9234C142.453 11.5549 142.545 11.2362 142.729 10.9673C142.913 10.7084 143.209 10.4246 143.618 10.1159C143.281 9.89676 143.112 9.53326 143.112 9.02535C143.112 8.82617 143.25 8.50251 143.526 8.05435L143.664 7.83028C142.928 7.40204 142.56 6.65512 142.56 5.58952C142.56 4.69321 142.836 4.03592 143.388 3.61765C143.94 3.19937 144.687 2.99023 145.627 2.99023C146.077 2.99023 146.522 3.04003 146.961 3.13962L147.191 3.18443L149.568 3.12468V4.43926L148.296 4.36457C148.572 4.71313 148.71 5.12145 148.71 5.58952C148.71 6.56549 148.454 7.2427 147.943 7.62114C147.442 7.98962 146.655 8.17386 145.581 8.17386C145.315 8.17386 145.09 8.15394 144.906 8.11411C144.763 8.45271 144.692 8.71662 144.692 8.90584C144.692 9.0851 144.784 9.20959 144.968 9.2793C145.162 9.34902 145.622 9.38885 146.348 9.39881C147.565 9.40877 148.398 9.56811 148.848 9.87684C149.297 10.1856 149.522 10.7682 149.522 11.6246ZM144.094 11.774C144.094 12.1226 144.237 12.3716 144.523 12.5209C144.809 12.6703 145.3 12.745 145.995 12.745C147.232 12.745 147.851 12.4014 147.851 11.7143C147.851 11.3259 147.738 11.0769 147.513 10.9673C147.299 10.8678 146.864 10.813 146.21 10.803L144.707 10.7134C144.482 10.8927 144.324 11.057 144.232 11.2064C144.14 11.3657 144.094 11.5549 144.094 11.774ZM144.216 5.58952C144.216 6.04763 144.329 6.38623 144.554 6.60533C144.779 6.81447 145.141 6.91904 145.642 6.91904C146.143 6.91904 146.501 6.81447 146.716 6.60533C146.941 6.38623 147.053 6.04763 147.053 5.58952C147.053 5.13141 146.941 4.79778 146.716 4.58864C146.491 4.36955 146.128 4.26 145.627 4.26C144.687 4.26 144.216 4.70317 144.216 5.58952Z" fill="white"/>
<path d="M156.331 9.26417L156.761 9.21935L156.791 10.4294C155.626 10.6584 154.593 10.7729 153.694 10.7729C152.559 10.7729 151.741 10.4692 151.24 9.8617C150.749 9.25421 150.504 8.28321 150.504 6.94871C150.504 4.29964 151.613 2.9751 153.832 2.9751C155.979 2.9751 157.052 4.1154 157.052 6.39599L156.945 7.56119H152.191C152.201 8.17864 152.339 8.63177 152.605 8.92058C152.871 9.20939 153.367 9.3538 154.092 9.3538C154.818 9.3538 155.565 9.32392 156.331 9.26417ZM155.411 6.30636C155.411 5.5694 155.289 5.05652 155.043 4.76771C154.808 4.46894 154.404 4.31955 153.832 4.31955C153.259 4.31955 152.84 4.47392 152.574 4.78264C152.319 5.09137 152.186 5.59928 152.175 6.30636H155.411Z" fill="white"/>
<path d="M160.334 10.6086H158.663V3.13942H160.319V3.60251C161.065 3.18423 161.771 2.9751 162.435 2.9751C163.458 2.9751 164.153 3.25893 164.521 3.82659C164.899 4.38429 165.088 5.31047 165.088 6.60513V10.6086H163.432V6.64995C163.432 5.84327 163.34 5.27063 163.156 4.93203C162.982 4.59343 162.619 4.42412 162.067 4.42412C161.546 4.42412 161.045 4.52371 160.564 4.72289L160.334 4.81252V10.6086Z" fill="white"/>
<path d="M166.652 4.58867V3.13965H172.342V4.58867L168.661 9.15983H172.342V10.6089H166.652V9.15983L170.348 4.58867H166.652Z" fill="white"/>
<path d="M173.998 10.6087V3.13954H175.67V10.6087H173.998ZM173.998 1.86977V0.151855H175.67V1.86977H173.998Z" fill="white"/>
<path d="M183.368 5.43993V8.84589C183.378 9.06499 183.434 9.22931 183.537 9.33886C183.649 9.43845 183.818 9.50318 184.043 9.53306L183.997 10.7729C183.118 10.7729 182.438 10.5887 181.957 10.2202C181.139 10.5887 180.316 10.7729 179.488 10.7729C177.965 10.7729 177.203 9.98121 177.203 8.39774C177.203 7.64086 177.408 7.09312 177.817 6.75451C178.236 6.41591 178.875 6.21175 179.733 6.14204L181.712 5.97772V5.43993C181.712 5.04158 181.62 4.76273 181.436 4.60338C181.262 4.44404 181.001 4.36437 180.654 4.36437C179.999 4.36437 179.181 4.40421 178.2 4.48388L177.709 4.51375L177.648 3.3635C178.762 3.10456 179.785 2.9751 180.715 2.9751C181.656 2.9751 182.33 3.17428 182.739 3.57263C183.158 3.96103 183.368 4.58347 183.368 5.43993ZM179.933 7.2923C179.227 7.35205 178.875 7.72551 178.875 8.41268C178.875 9.09984 179.187 9.44343 179.81 9.44343C180.321 9.44343 180.863 9.36376 181.436 9.20441L181.712 9.11478V7.12797L179.933 7.2923Z" fill="white"/>
<path d="M188.843 13.8204V3.13942H190.499V3.60251C191.204 3.18423 191.864 2.9751 192.477 2.9751C193.489 2.9751 194.231 3.27884 194.701 3.88634C195.171 4.48388 195.406 5.49471 195.406 6.91884C195.406 8.33301 195.135 9.3289 194.594 9.90652C194.062 10.4841 193.188 10.7729 191.971 10.7729C191.552 10.7729 191.066 10.7281 190.514 10.6385V13.8204H188.843ZM192.186 4.42412C191.705 4.42412 191.225 4.52869 190.744 4.73783L190.514 4.8424V9.24923C190.923 9.3289 191.373 9.36874 191.864 9.36874C192.559 9.36874 193.04 9.17454 193.305 8.78614C193.571 8.39774 193.704 7.73547 193.704 6.79933C193.704 5.21586 193.198 4.42412 192.186 4.42412Z" fill="white"/>
<path d="M202.537 9.26417L202.967 9.21935L202.998 10.4294C201.832 10.6584 200.799 10.7729 199.9 10.7729C198.765 10.7729 197.947 10.4692 197.446 9.8617C196.955 9.25421 196.71 8.28321 196.71 6.94871C196.71 4.29964 197.819 2.9751 200.038 2.9751C202.185 2.9751 203.258 4.1154 203.258 6.39599L203.151 7.56119H198.397C198.407 8.17864 198.545 8.63177 198.811 8.92058C199.077 9.20939 199.573 9.3538 200.298 9.3538C201.024 9.3538 201.771 9.32392 202.537 9.26417ZM201.617 6.30636C201.617 5.5694 201.495 5.05652 201.249 4.76771C201.014 4.46894 200.61 4.31955 200.038 4.31955C199.465 4.31955 199.046 4.47392 198.78 4.78264C198.525 5.09137 198.392 5.59928 198.382 6.30636H201.617Z" fill="white"/>
<path d="M204.869 10.6086V3.13942H206.525V4.03572C207.394 3.48798 208.263 3.13444 209.132 2.9751V4.60338C208.253 4.77269 207.501 4.99178 206.878 5.26067L206.54 5.39512V10.6086H204.869Z" fill="white"/>
<path d="M133.85 28.5344V17.958H135.521V28.5344H133.85Z" fill="white"/>
<path d="M137.346 21.7078L138.036 18.1973H139.785L138.619 21.7078H137.346Z" fill="white"/>
<path d="M141.487 28.5346V18.3018H143.189V28.5346H141.487Z" fill="white"/>
<path d="M149.538 22.4548H147.422V25.7412C147.422 26.3487 147.468 26.752 147.56 26.9512C147.652 27.1504 147.887 27.25 148.265 27.25L149.523 27.2052L149.6 28.5048C148.915 28.6343 148.393 28.699 148.035 28.699C147.166 28.699 146.568 28.5048 146.241 28.1164C145.924 27.728 145.766 26.996 145.766 25.9205V22.4548H144.784V21.0655H145.766V18.8994H147.422V21.0655H149.538V22.4548Z" fill="white"/>
<path d="M156.577 23.3657V26.7717C156.587 26.9908 156.643 27.1551 156.745 27.2646C156.858 27.3642 157.026 27.429 157.251 27.4588L157.205 28.6987C156.326 28.6987 155.646 28.5145 155.166 28.146C154.348 28.5145 153.525 28.6987 152.697 28.6987C151.173 28.6987 150.412 27.907 150.412 26.3235C150.412 25.5666 150.616 25.0189 151.025 24.6803C151.444 24.3417 152.083 24.1375 152.942 24.0678L154.92 23.9035V23.3657C154.92 22.9674 154.828 22.6885 154.644 22.5292C154.47 22.3698 154.21 22.2902 153.862 22.2902C153.208 22.2902 152.39 22.33 151.408 22.4097L150.918 22.4395L150.856 21.2893C151.971 21.0303 152.993 20.9009 153.923 20.9009C154.864 20.9009 155.539 21.1001 155.948 21.4984C156.367 21.8868 156.577 22.5092 156.577 23.3657ZM153.141 25.2181C152.436 25.2778 152.083 25.6513 152.083 26.3385C152.083 27.0256 152.395 27.3692 153.019 27.3692C153.53 27.3692 154.072 27.2895 154.644 27.1302L154.92 27.0406V25.0538L153.141 25.2181Z" fill="white"/>
<path d="M158.77 28.5344V17.958H160.441V28.5344H158.77Z" fill="white"/>
<path d="M162.558 28.5345V21.0653H164.229V28.5345H162.558ZM162.558 19.7956V18.0776H164.229V19.7956H162.558Z" fill="white"/>
<path d="M171.928 23.3657V26.7717C171.938 26.9908 171.994 27.1551 172.096 27.2646C172.209 27.3642 172.377 27.429 172.602 27.4588L172.556 28.6987C171.677 28.6987 170.997 28.5145 170.517 28.146C169.699 28.5145 168.876 28.6987 168.048 28.6987C166.524 28.6987 165.763 27.907 165.763 26.3235C165.763 25.5666 165.967 25.0189 166.376 24.6803C166.795 24.3417 167.434 24.1375 168.293 24.0678L170.271 23.9035V23.3657C170.271 22.9674 170.179 22.6885 169.995 22.5292C169.822 22.3698 169.561 22.2902 169.213 22.2902C168.559 22.2902 167.741 22.33 166.76 22.4097L166.269 22.4395L166.207 21.2893C167.322 21.0303 168.344 20.9009 169.275 20.9009C170.215 20.9009 170.89 21.1001 171.299 21.4984C171.718 21.8868 171.928 22.5092 171.928 23.3657ZM168.492 25.2181C167.787 25.2778 167.434 25.6513 167.434 26.3385C167.434 27.0256 167.746 27.3692 168.37 27.3692C168.881 27.3692 169.423 27.2895 169.995 27.1302L170.271 27.0406V25.0538L168.492 25.2181Z" fill="white"/>
<path d="M181.236 28.5346H177.602V18.3018H181.236C182.851 18.3018 183.956 18.7001 184.549 19.4968C185.142 20.2935 185.438 21.5434 185.438 23.2464C185.438 24.1128 185.377 24.8498 185.254 25.4573C185.142 26.0548 184.937 26.5976 184.641 27.0855C184.058 28.0516 182.923 28.5346 181.236 28.5346ZM183.674 23.2464C183.674 22.0115 183.516 21.1201 183.199 20.5724C182.882 20.0247 182.228 19.7508 181.236 19.7508H179.304V27.0706H181.236C182.248 27.0706 182.923 26.7071 183.26 25.9801C183.424 25.6116 183.531 25.2182 183.582 24.8C183.644 24.3817 183.674 23.8638 183.674 23.2464Z" fill="white"/>
<path d="M187.232 28.5345V21.0653H188.904V28.5345H187.232ZM187.232 19.7956V18.0776H188.904V19.7956H187.232Z" fill="white"/>
<path d="M197.63 29.5504C197.63 31.1837 196.418 32.0003 193.995 32.0003C192.83 32.0003 191.966 31.846 191.404 31.5372C190.841 31.2285 190.56 30.6658 190.56 29.8492C190.56 29.4807 190.652 29.162 190.836 28.8931C191.02 28.6342 191.317 28.3504 191.726 28.0416C191.388 27.8225 191.219 27.459 191.219 26.9511C191.219 26.752 191.358 26.4283 191.634 25.9801L191.772 25.7561C191.035 25.3278 190.667 24.5809 190.667 23.5153C190.667 22.619 190.943 21.9617 191.496 21.5434C192.048 21.1252 192.794 20.916 193.735 20.916C194.184 20.916 194.629 20.9658 195.069 21.0654L195.299 21.1102L197.676 21.0505V22.365L196.403 22.2903C196.679 22.6389 196.817 23.0472 196.817 23.5153C196.817 24.4913 196.561 25.1685 196.05 25.5469C195.549 25.9154 194.762 26.0996 193.689 26.0996C193.423 26.0996 193.198 26.0797 193.014 26.0399C192.871 26.3785 192.799 26.6424 192.799 26.8316C192.799 27.0109 192.891 27.1354 193.075 27.2051C193.269 27.2748 193.729 27.3146 194.455 27.3246C195.672 27.3346 196.505 27.4939 196.955 27.8026C197.405 28.1113 197.63 28.6939 197.63 29.5504ZM192.201 29.6998C192.201 30.0484 192.344 30.2973 192.63 30.4467C192.917 30.5961 193.407 30.6708 194.103 30.6708C195.34 30.6708 195.958 30.3272 195.958 29.64C195.958 29.2516 195.846 29.0027 195.621 28.8931C195.406 28.7935 194.972 28.7388 194.317 28.7288L192.814 28.6392C192.589 28.8184 192.431 28.9828 192.339 29.1321C192.247 29.2915 192.201 29.4807 192.201 29.6998ZM192.324 23.5153C192.324 23.9734 192.436 24.312 192.661 24.5311C192.886 24.7402 193.249 24.8448 193.75 24.8448C194.251 24.8448 194.609 24.7402 194.823 24.5311C195.048 24.312 195.161 23.9734 195.161 23.5153C195.161 23.0572 195.048 22.7236 194.823 22.5144C194.598 22.2953 194.235 22.1858 193.735 22.1858C192.794 22.1858 192.324 22.629 192.324 23.5153Z" fill="white"/>
<path d="M198.979 28.5345V21.0653H200.651V28.5345H198.979ZM198.979 19.7956V18.0776H200.651V19.7956H198.979Z" fill="white"/>
<path d="M206.801 22.4548H204.685V25.7412C204.685 26.3487 204.731 26.752 204.823 26.9512C204.915 27.1504 205.15 27.25 205.528 27.25L206.786 27.2052L206.862 28.5048C206.177 28.6343 205.656 28.699 205.298 28.699C204.429 28.699 203.831 28.5048 203.504 28.1164C203.187 27.728 203.028 26.996 203.028 25.9205V22.4548H202.047V21.0655H203.028V18.8994H204.685V21.0655H206.801V22.4548Z" fill="white"/>
<path d="M213.839 23.3657V26.7717C213.849 26.9908 213.906 27.1551 214.008 27.2646C214.12 27.3642 214.289 27.429 214.514 27.4588L214.468 28.6987C213.589 28.6987 212.909 28.5145 212.428 28.146C211.61 28.5145 210.787 28.6987 209.959 28.6987C208.436 28.6987 207.674 27.907 207.674 26.3235C207.674 25.5666 207.879 25.0189 208.288 24.6803C208.707 24.3417 209.346 24.1375 210.205 24.0678L212.183 23.9035V23.3657C212.183 22.9674 212.091 22.6885 211.907 22.5292C211.733 22.3698 211.472 22.2902 211.125 22.2902C210.471 22.2902 209.653 22.33 208.671 22.4097L208.18 22.4395L208.119 21.2893C209.233 21.0303 210.256 20.9009 211.186 20.9009C212.127 20.9009 212.802 21.1001 213.21 21.4984C213.63 21.8868 213.839 22.5092 213.839 23.3657ZM210.404 25.2181C209.699 25.2778 209.346 25.6513 209.346 26.3385C209.346 27.0256 209.658 27.3692 210.281 27.3692C210.793 27.3692 211.334 27.2895 211.907 27.1302L212.183 27.0406V25.0538L210.404 25.2181Z" fill="white"/>
<path d="M216.032 28.5344V17.958H217.704V28.5344H216.032Z" fill="white"/>
<path d="M225.28 27.1899L225.709 27.1451L225.74 28.3551C224.574 28.5842 223.542 28.6987 222.642 28.6987C221.507 28.6987 220.689 28.395 220.188 27.7875C219.698 27.18 219.452 26.209 219.452 24.8745C219.452 22.2254 220.561 20.9009 222.78 20.9009C224.927 20.9009 226 22.0412 226 24.3218L225.893 25.487H221.139C221.149 26.1044 221.287 26.5576 221.553 26.8464C221.819 27.1352 222.315 27.2796 223.041 27.2796C223.767 27.2796 224.513 27.2497 225.28 27.1899ZM224.36 24.2321C224.36 23.4952 224.237 22.9823 223.991 22.6935C223.756 22.3947 223.352 22.2453 222.78 22.2453C222.207 22.2453 221.788 22.3997 221.522 22.7084C221.267 23.0172 221.134 23.5251 221.124 24.2321H224.36Z" fill="white"/>
<path d="M32.2437 28.715L38.7613 0.498047H49.9222L56.4398 28.715H50.5612L49.411 23.6111H39.2725L38.1223 28.715H32.2437ZM43.3194 5.22854L40.38 18.6316H48.3034L45.3641 5.22854H43.3194Z" fill="white"/>
<path d="M71.9456 18.59V13.6105H80.3802V28.2585C76.3191 28.8948 73.0248 29.2129 70.4973 29.2129C65.9818 29.2129 62.8721 28.0372 61.1681 25.6858C59.4926 23.3343 58.6548 19.5997 58.6548 14.482C58.6548 9.36417 59.5352 5.67106 61.2959 3.40264C63.0567 1.13421 66.0528 0 70.2843 0C72.9254 0 75.7795 0.290468 78.8467 0.871407L80.3802 1.16187L80.2098 5.6019C76.8019 5.24227 74.0046 5.06246 71.8178 5.06246C69.6595 5.06246 68.1401 5.31143 67.2598 5.80938C66.3794 6.30733 65.7262 7.23406 65.3002 8.58958C64.9026 9.91744 64.7038 12.2135 64.7038 15.4778C64.7038 18.7145 65.1156 20.9829 65.9392 22.2831C66.7628 23.5833 68.4667 24.2334 71.0511 24.2334L74.5868 24.0674V18.59H71.9456Z" fill="white"/>
<path d="M85.918 28.715V0.498047H91.7966V28.715H85.918Z" fill="white"/>
<path d="M107.856 28.715H98.1006V0.498047H107.856C110.355 0.498047 112.414 0.760853 114.033 1.28646C115.651 1.78441 116.901 2.62815 117.781 3.81769C118.69 4.97957 119.315 6.36276 119.656 7.96725C119.996 9.54408 120.167 11.605 120.167 14.1501C120.167 16.6952 120.011 18.8114 119.698 20.4989C119.386 22.1587 118.789 23.6526 117.909 24.9804C117.057 26.2806 115.808 27.235 114.16 27.8436C112.513 28.4246 110.412 28.715 107.856 28.715ZM114.033 17.5112C114.089 16.626 114.118 15.4088 114.118 13.8596C114.118 12.2828 114.061 11.0241 113.947 10.0835C113.834 9.14296 113.564 8.28538 113.138 7.5108C112.712 6.73622 112.073 6.2106 111.221 5.93397C110.397 5.62967 109.276 5.47752 107.856 5.47752H103.979V23.7356H107.856C109.986 23.7356 111.533 23.21 112.499 22.1587C113.323 21.3012 113.834 19.752 114.033 17.5112Z" fill="white"/>
<path d="M126.593 0.286133V28.6237V0.286133Z" fill="white"/>
<path d="M126.593 0.286133V28.6237" stroke="white" stroke-width="1.1737" stroke-miterlimit="10"/>
</svg>
