<svg width="256" height="71" viewBox="0 0 256 71" fill="none" xmlns="http://www.w3.org/2000/svg">
<path d="M44.5121 29.4508L38.1971 1H27.8555L33.9573 29.4508H44.5121Z" fill="white"/>
<path d="M40.9994 63.6126H52.0937L47.767 44.125L18.6629 44.1902L16.7812 53.0055L38.7567 52.9512L40.9994 63.6126Z" fill="white"/>
<path d="M47.1469 41.3447L45.1238 32.238H18.3082L21.3298 18.2497L28.6259 18.2388L25.0192 1.00391H14.6254L0.53125 63.6179H11.5298L16.2743 41.4165L47.1469 41.3447Z" fill="white"/>
<path d="M69.544 23L74.44 1.24H82.824L87.72 23H83.304L82.44 19.064H74.824L73.96 23H69.544ZM77.864 4.888L75.656 15.224H81.608L79.4 4.888H77.864ZM96.0618 6.616C97.1711 6.616 98.5898 6.78667 100.318 7.128L101.182 7.32L101.054 10.712C99.3684 10.5413 98.1204 10.456 97.3098 10.456C95.8378 10.456 94.8564 10.776 94.3658 11.416C93.8964 12.0347 93.6618 13.2187 93.6618 14.968C93.6618 16.7173 93.8964 17.9227 94.3658 18.584C94.8564 19.224 95.8484 19.544 97.3418 19.544L101.054 19.288L101.182 22.712C98.8991 23.16 97.1604 23.384 95.9658 23.384C93.5978 23.384 91.8911 22.7227 90.8458 21.4C89.8218 20.056 89.3098 17.912 89.3098 14.968C89.3098 12.024 89.8431 9.90133 90.9098 8.6C91.9764 7.27733 93.6938 6.616 96.0618 6.616ZM110.218 6.616C111.327 6.616 112.746 6.78667 114.474 7.128L115.338 7.32L115.21 10.712C113.525 10.5413 112.277 10.456 111.466 10.456C109.994 10.456 109.013 10.776 108.522 11.416C108.053 12.0347 107.818 13.2187 107.818 14.968C107.818 16.7173 108.053 17.9227 108.522 18.584C109.013 19.224 110.005 19.544 111.498 19.544L115.21 19.288L115.338 22.712C113.055 23.16 111.317 23.384 110.122 23.384C107.754 23.384 106.047 22.7227 105.002 21.4C103.978 20.056 103.466 17.912 103.466 14.968C103.466 12.024 103.999 9.90133 105.066 8.6C106.133 7.27733 107.85 6.616 110.218 6.616ZM121.91 16.824C121.932 17.8053 122.188 18.52 122.678 18.968C123.19 19.3947 123.916 19.608 124.854 19.608C126.838 19.608 128.609 19.544 130.166 19.416L131.062 19.32L131.126 22.488C128.673 23.0853 126.454 23.384 124.47 23.384C122.06 23.384 120.31 22.744 119.222 21.464C118.134 20.184 117.59 18.104 117.59 15.224C117.59 9.48533 119.948 6.616 124.662 6.616C129.313 6.616 131.638 9.02667 131.638 13.848L131.318 16.824H121.91ZM127.414 13.56C127.414 12.28 127.212 11.3947 126.806 10.904C126.401 10.392 125.686 10.136 124.662 10.136C123.66 10.136 122.945 10.4027 122.518 10.936C122.113 11.448 121.9 12.3227 121.878 13.56H127.414ZM146.191 11C143.545 10.6587 141.689 10.488 140.623 10.488C139.577 10.488 138.895 10.584 138.575 10.776C138.276 10.968 138.127 11.2773 138.127 11.704C138.127 12.1093 138.329 12.3973 138.735 12.568C139.161 12.7173 140.228 12.952 141.935 13.272C143.663 13.5707 144.889 14.072 145.615 14.776C146.34 15.48 146.703 16.6213 146.703 18.2C146.703 21.656 144.559 23.384 140.271 23.384C138.863 23.384 137.156 23.192 135.151 22.808L134.127 22.616L134.255 19.032C136.9 19.3733 138.735 19.544 139.759 19.544C140.804 19.544 141.508 19.448 141.871 19.256C142.255 19.0427 142.447 18.7333 142.447 18.328C142.447 17.9227 142.244 17.624 141.839 17.432C141.455 17.24 140.431 17.0053 138.767 16.728C137.124 16.4507 135.897 15.9813 135.087 15.32C134.276 14.6587 133.871 13.4853 133.871 11.8C133.871 10.0933 134.447 8.81333 135.599 7.96C136.751 7.08533 138.233 6.648 140.047 6.648C141.305 6.648 143.023 6.85067 145.199 7.256L146.255 7.448L146.191 11ZM161.285 11C158.639 10.6587 156.783 10.488 155.717 10.488C154.671 10.488 153.989 10.584 153.669 10.776C153.37 10.968 153.221 11.2773 153.221 11.704C153.221 12.1093 153.423 12.3973 153.829 12.568C154.255 12.7173 155.322 12.952 157.029 13.272C158.757 13.5707 159.983 14.072 160.709 14.776C161.434 15.48 161.797 16.6213 161.797 18.2C161.797 21.656 159.653 23.384 155.365 23.384C153.957 23.384 152.25 23.192 150.245 22.808L149.221 22.616L149.349 19.032C151.994 19.3733 153.829 19.544 154.853 19.544C155.898 19.544 156.602 19.448 156.965 19.256C157.349 19.0427 157.541 18.7333 157.541 18.328C157.541 17.9227 157.338 17.624 156.933 17.432C156.549 17.24 155.525 17.0053 153.861 16.728C152.218 16.4507 150.991 15.9813 150.181 15.32C149.37 14.6587 148.965 13.4853 148.965 11.8C148.965 10.0933 149.541 8.81333 150.693 7.96C151.845 7.08533 153.327 6.648 155.141 6.648C156.399 6.648 158.117 6.85067 160.293 7.256L161.349 7.448L161.285 11ZM164.89 23V7H169.178V23H164.89ZM164.89 4.952V0.599998H169.178V4.952H164.89ZM180.884 6.616C183.124 6.616 184.756 7.23467 185.78 8.472C186.826 9.688 187.348 11.8747 187.348 15.032C187.348 18.1893 186.751 20.376 185.556 21.592C184.362 22.7867 182.303 23.384 179.38 23.384C178.463 23.384 176.788 23.2773 174.356 23.064L173.14 22.936V0.599998H177.428V7.48C178.794 6.904 179.946 6.616 180.884 6.616ZM179.38 19.544C180.81 19.544 181.77 19.2027 182.26 18.52C182.751 17.816 182.996 16.568 182.996 14.776C182.996 11.896 182.1 10.456 180.308 10.456C179.455 10.456 178.644 10.5627 177.876 10.776L177.428 10.872V19.416C178.41 19.5013 179.06 19.544 179.38 19.544ZM190.547 23V7H194.835V23H190.547ZM190.547 4.952V0.599998H194.835V4.952H190.547ZM198.989 23V0.599998H203.277V23H198.989ZM207.422 23V7H211.71V23H207.422ZM207.422 4.952V0.599998H211.71V4.952H207.422ZM224.536 10.648H220.6V17.208C220.6 17.848 220.61 18.3067 220.632 18.584C220.674 18.84 220.792 19.064 220.984 19.256C221.197 19.448 221.517 19.544 221.944 19.544L224.376 19.48L224.568 22.904C223.138 23.224 222.05 23.384 221.304 23.384C219.384 23.384 218.072 22.9573 217.368 22.104C216.664 21.2293 216.312 19.6293 216.312 17.304V10.648H214.424V7H216.312V2.552H220.6V7H224.536V10.648ZM225.856 7H230.08L232.992 19.352H233.728L236.64 7H240.864L235.232 29.72H231.04L232.8 23H229.792L225.856 7Z" fill="white"/>
<path d="M71.368 63V41.24H78.888L82.728 57.112L86.568 41.24H94.088V63H89.672V46.168H89.192L84.936 62.04H80.52L76.264 46.168H75.784V63H71.368ZM99.1293 48.824C100.26 47.352 102.148 46.616 104.793 46.616C107.439 46.616 109.327 47.352 110.457 48.824C111.588 50.2747 112.153 52.3227 112.153 54.968C112.153 60.5787 109.7 63.384 104.793 63.384C99.8866 63.384 97.4333 60.5787 97.4333 54.968C97.4333 52.3227 97.9986 50.2747 99.1293 48.824ZM102.425 58.584C102.873 59.352 103.663 59.736 104.793 59.736C105.924 59.736 106.703 59.352 107.129 58.584C107.577 57.816 107.801 56.6107 107.801 54.968C107.801 53.3253 107.577 52.1307 107.129 51.384C106.703 50.6373 105.924 50.264 104.793 50.264C103.663 50.264 102.873 50.6373 102.425 51.384C101.999 52.1307 101.785 53.3253 101.785 54.968C101.785 56.6107 101.999 57.816 102.425 58.584ZM119.585 63H115.297V47H119.553V47.896C121.003 47.0427 122.337 46.616 123.553 46.616C125.686 46.616 127.158 47.2453 127.969 48.504C128.779 49.7627 129.185 51.704 129.185 54.328V63H124.897V54.456C124.897 53.0907 124.737 52.088 124.417 51.448C124.097 50.7867 123.457 50.456 122.497 50.456C121.622 50.456 120.779 50.6053 119.969 50.904L119.585 51.032V63ZM132.984 63V47H137.272V63H132.984ZM132.984 44.952V40.6H137.272V44.952H132.984ZM150.098 50.648H146.162V57.208C146.162 57.848 146.173 58.3067 146.194 58.584C146.237 58.84 146.354 59.064 146.546 59.256C146.759 59.448 147.079 59.544 147.506 59.544L149.938 59.48L150.13 62.904C148.701 63.224 147.613 63.384 146.866 63.384C144.946 63.384 143.634 62.9573 142.93 62.104C142.226 61.2293 141.874 59.6293 141.874 57.304V50.648H139.986V47H141.874V42.552H146.162V47H150.098V50.648ZM153.754 48.824C154.885 47.352 156.773 46.616 159.418 46.616C162.064 46.616 163.952 47.352 165.082 48.824C166.213 50.2747 166.778 52.3227 166.778 54.968C166.778 60.5787 164.325 63.384 159.418 63.384C154.512 63.384 152.058 60.5787 152.058 54.968C152.058 52.3227 152.624 50.2747 153.754 48.824ZM157.05 58.584C157.498 59.352 158.288 59.736 159.418 59.736C160.549 59.736 161.328 59.352 161.754 58.584C162.202 57.816 162.426 56.6107 162.426 54.968C162.426 53.3253 162.202 52.1307 161.754 51.384C161.328 50.6373 160.549 50.264 159.418 50.264C158.288 50.264 157.498 50.6373 157.05 51.384C156.624 52.1307 156.41 53.3253 156.41 54.968C156.41 56.6107 156.624 57.816 157.05 58.584ZM169.922 63V47H174.178V48.696C175.97 47.6293 177.676 46.936 179.298 46.616V50.936C177.57 51.2987 176.087 51.672 174.85 52.056L174.21 52.28V63H169.922ZM181.828 63V47H186.116V63H181.828ZM181.828 44.952V40.6H186.116V44.952H181.828ZM194.366 63H190.078V47H194.334V47.896C195.784 47.0427 197.118 46.616 198.334 46.616C200.467 46.616 201.939 47.2453 202.75 48.504C203.56 49.7627 203.966 51.704 203.966 54.328V63H199.678V54.456C199.678 53.0907 199.518 52.088 199.198 51.448C198.878 50.7867 198.238 50.456 197.278 50.456C196.403 50.456 195.56 50.6053 194.75 50.904L194.366 51.032V63ZM222.261 64.984C222.261 66.8187 221.557 68.1733 220.149 69.048C218.741 69.9227 216.832 70.36 214.421 70.36C212.032 70.36 210.187 70.04 208.885 69.4C207.605 68.76 206.965 67.5973 206.965 65.912C206.965 64.568 207.733 63.2987 209.269 62.104C208.48 61.5707 208.085 60.76 208.085 59.672C208.085 59.2453 208.405 58.5413 209.045 57.56L209.333 57.112C207.883 56.0667 207.157 54.5307 207.157 52.504C207.157 50.456 207.765 48.9733 208.981 48.056C210.219 47.1387 211.851 46.68 213.877 46.68C214.795 46.68 215.701 46.7867 216.597 47L217.109 47.096L222.261 46.936V50.36L219.861 50.168C220.331 50.8933 220.565 51.6187 220.565 52.344C220.565 54.4773 220.021 55.9493 218.933 56.76C217.845 57.5707 216.139 57.976 213.813 57.976C213.323 57.976 212.885 57.9333 212.501 57.848C212.288 58.4027 212.181 58.8613 212.181 59.224C212.181 59.5653 212.363 59.8 212.725 59.928C213.088 60.056 213.941 60.1307 215.285 60.152C217.973 60.1733 219.808 60.536 220.789 61.24C221.771 61.9227 222.261 63.1707 222.261 64.984ZM211.189 65.464C211.189 66.3813 212.309 66.84 214.549 66.84C216.811 66.84 217.941 66.3067 217.941 65.24C217.941 64.664 217.749 64.2907 217.365 64.12C216.981 63.9707 216.171 63.8853 214.933 63.864L212.053 63.64C211.477 64.216 211.189 64.824 211.189 65.464ZM211.445 52.376C211.445 53.9333 212.256 54.712 213.877 54.712C215.52 54.712 216.341 53.9333 216.341 52.376C216.341 50.7973 215.52 50.008 213.877 50.008C212.256 50.008 211.445 50.7973 211.445 52.376Z" fill="white"/>
</svg>
