<svg width="354" height="64" viewBox="0 0 354 64" fill="none" xmlns="http://www.w3.org/2000/svg">
<path d="M92.1899 1.75391H1.80713V62.1536H92.1899V1.75391Z" fill="white"/>
<path d="M45.0736 14.9155L46.9794 13.5195L48.8884 14.9155L48.1618 12.6569L50.0995 11.2641H47.7124L46.9794 8.97998L46.2496 11.2673L43.8625 11.2641L45.8002 12.6569L45.0736 14.9155Z" fill="#034EA2"/>
<path d="M35.2035 17.5735L37.1125 16.1774L39.0183 17.5735L38.2917 15.3181L40.2294 13.9221H37.8391L37.1093 11.6348L36.3795 13.9253L33.9924 13.9221L35.9269 15.3181L35.2035 17.5735Z" fill="#034EA2"/>
<path d="M29.8908 18.8896L29.1578 21.1802L26.7708 21.177L28.7084 22.573L27.9818 24.8284L29.8908 23.4323L31.7966 24.8284L31.07 22.573L33.0077 21.177H30.6206L29.8908 18.8896Z" fill="#034EA2"/>
<path d="M27.2392 33.3132L29.145 34.7092L28.4216 32.4538L30.356 31.0578H27.9722L27.2392 28.7705L26.5094 31.061L24.1223 31.0578L26.06 32.4538L25.3334 34.7092L27.2392 33.3132Z" fill="#034EA2"/>
<path d="M30.6206 40.9672L29.8908 38.6831L29.1578 40.9704L26.7708 40.9672L28.7084 42.3633L27.9818 44.6186L29.8908 43.2226L31.7966 44.6186L31.07 42.3633L33.0077 40.9672H30.6206Z" fill="#034EA2"/>
<path d="M37.855 48.2221L37.1252 45.938L36.3953 48.2221H34.0083L35.9428 49.6149L35.2194 51.8703L37.1252 50.4775L39.031 51.8703L38.3075 49.6149L40.242 48.2221H37.855Z" fill="#034EA2"/>
<path d="M47.7124 50.8481L46.9826 48.564L46.2528 50.8513L43.8657 50.8481L45.8002 52.2441L45.0768 54.4995L46.9826 53.1034L48.8884 54.4995L48.165 52.2441L50.0995 50.8481H47.7124Z" fill="#034EA2"/>
<path d="M57.5696 48.2221L56.8398 45.938L56.1099 48.2221H53.7229L55.6574 49.6149L54.9339 51.8703L56.8398 50.4775L58.7488 51.8703L58.0221 49.6149L59.9566 48.2221H57.5696Z" fill="#034EA2"/>
<path d="M64.8074 40.9672L64.0776 38.6831L63.3446 40.9704L60.9575 40.9672L62.8952 42.3633L62.1686 44.6186L64.0776 43.2226L65.9834 44.6186L65.2568 42.3633L67.1944 40.9672H64.8074Z" fill="#034EA2"/>
<path d="M69.8141 31.0287H67.427L66.694 28.7446L65.9642 31.0319L63.5771 31.0287L65.5148 32.4248L64.7914 34.6801L66.694 33.2841L68.603 34.6801L67.8764 32.4248L69.8141 31.0287Z" fill="#034EA2"/>
<path d="M62.1686 24.7961L64.0776 23.4033L65.9834 24.7961L65.2568 22.5407L67.1944 21.1479H64.8074L64.0776 18.8638L63.3446 21.1511L60.9575 21.1479L62.8952 22.5407L62.1686 24.7961Z" fill="#034EA2"/>
<path d="M56.8686 11.6377L56.1388 13.925L53.7517 13.9218L55.6862 15.3178L54.9596 17.5764L56.8718 16.1772L58.7744 17.5764L58.0509 15.3178L59.9886 13.9218H57.5984L56.8686 11.6377Z" fill="#034EA2"/>
<path d="M114.44 24.744C114.44 26.872 115.56 27.936 117.8 27.936C120.04 27.936 121.16 26.872 121.16 24.744V13.56H123.848V24.696C123.848 26.632 123.336 28.048 122.312 28.944C121.304 29.824 119.792 30.264 117.776 30.264C115.776 30.264 114.272 29.824 113.264 28.944C112.256 28.048 111.752 26.632 111.752 24.696V13.56H114.44V24.744ZM129.716 30H127.1V18H129.692V18.744C130.86 18.072 131.964 17.736 133.004 17.736C134.604 17.736 135.692 18.192 136.268 19.104C136.86 20 137.156 21.488 137.156 23.568V30H134.564V23.64C134.564 22.344 134.42 21.424 134.132 20.88C133.86 20.336 133.292 20.064 132.428 20.064C131.612 20.064 130.828 20.224 130.076 20.544L129.716 20.688V30ZM140.201 30V18H142.817V30H140.201ZM140.201 15.96V13.2H142.817V15.96H140.201ZM146.638 19.296C147.47 18.256 148.846 17.736 150.766 17.736C152.686 17.736 154.054 18.256 154.87 19.296C155.702 20.336 156.118 21.896 156.118 23.976C156.118 26.056 155.718 27.624 154.918 28.68C154.118 29.736 152.734 30.264 150.766 30.264C148.798 30.264 147.414 29.736 146.614 28.68C145.814 27.624 145.414 26.056 145.414 23.976C145.414 21.896 145.822 20.336 146.638 19.296ZM148.606 27.096C148.974 27.736 149.694 28.056 150.766 28.056C151.838 28.056 152.558 27.736 152.926 27.096C153.294 26.456 153.478 25.408 153.478 23.952C153.478 22.496 153.278 21.464 152.878 20.856C152.494 20.248 151.79 19.944 150.766 19.944C149.742 19.944 149.03 20.248 148.63 20.856C148.246 21.464 148.054 22.496 148.054 23.952C148.054 25.408 148.238 26.456 148.606 27.096ZM161.333 30H158.717V18H161.309V18.744C162.477 18.072 163.581 17.736 164.621 17.736C166.221 17.736 167.309 18.192 167.885 19.104C168.477 20 168.773 21.488 168.773 23.568V30H166.181V23.64C166.181 22.344 166.037 21.424 165.749 20.88C165.477 20.336 164.909 20.064 164.045 20.064C163.229 20.064 162.445 20.224 161.693 20.544L161.333 20.688V30ZM180.362 27.84L181.034 27.768L181.082 29.712C179.258 30.08 177.642 30.264 176.234 30.264C174.458 30.264 173.178 29.776 172.394 28.8C171.626 27.824 171.242 26.264 171.242 24.12C171.242 19.864 172.978 17.736 176.45 17.736C179.81 17.736 181.49 19.568 181.49 23.232L181.322 25.104H173.882C173.898 26.096 174.114 26.824 174.53 27.288C174.946 27.752 175.722 27.984 176.858 27.984C177.994 27.984 179.162 27.936 180.362 27.84ZM178.922 23.088C178.922 21.904 178.73 21.08 178.346 20.616C177.978 20.136 177.346 19.896 176.45 19.896C175.554 19.896 174.898 20.144 174.482 20.64C174.082 21.136 173.874 21.952 173.858 23.088H178.922ZM189.591 30V13.56H199.959V15.888H192.255V20.544H198.519V22.848H192.255V27.648H199.959V30H189.591ZM209.747 18H212.339V30H209.747V29.256C208.579 29.928 207.499 30.264 206.507 30.264C204.859 30.264 203.755 29.824 203.195 28.944C202.635 28.048 202.355 26.488 202.355 24.264V18H204.971V24.288C204.971 25.728 205.091 26.696 205.331 27.192C205.571 27.688 206.131 27.936 207.011 27.936C207.875 27.936 208.667 27.776 209.387 27.456L209.747 27.312V18ZM215.506 30V18H218.098V19.44C219.458 18.56 220.818 17.992 222.178 17.736V20.352C220.802 20.624 219.626 20.976 218.65 21.408L218.122 21.624V30H215.506ZM224.732 19.296C225.564 18.256 226.94 17.736 228.86 17.736C230.78 17.736 232.148 18.256 232.964 19.296C233.796 20.336 234.212 21.896 234.212 23.976C234.212 26.056 233.812 27.624 233.012 28.68C232.212 29.736 230.828 30.264 228.86 30.264C226.892 30.264 225.508 29.736 224.708 28.68C223.908 27.624 223.508 26.056 223.508 23.976C223.508 21.896 223.916 20.336 224.732 19.296ZM226.7 27.096C227.068 27.736 227.788 28.056 228.86 28.056C229.932 28.056 230.652 27.736 231.02 27.096C231.388 26.456 231.572 25.408 231.572 23.952C231.572 22.496 231.372 21.464 230.972 20.856C230.588 20.248 229.884 19.944 228.86 19.944C227.836 19.944 227.124 20.248 226.724 20.856C226.34 21.464 226.148 22.496 226.148 23.952C226.148 25.408 226.332 26.456 226.7 27.096ZM236.811 35.16V18H239.403V18.744C240.507 18.072 241.539 17.736 242.499 17.736C244.083 17.736 245.243 18.224 245.979 19.2C246.715 20.16 247.083 21.784 247.083 24.072C247.083 26.344 246.659 27.944 245.811 28.872C244.979 29.8 243.611 30.264 241.707 30.264C241.051 30.264 240.291 30.192 239.427 30.048V35.16H236.811ZM242.043 20.064C241.291 20.064 240.539 20.232 239.787 20.568L239.427 20.736V27.816C240.067 27.944 240.771 28.008 241.539 28.008C242.627 28.008 243.379 27.696 243.795 27.072C244.211 26.448 244.419 25.384 244.419 23.88C244.419 21.336 243.627 20.064 242.043 20.064ZM258.245 27.84L258.917 27.768L258.965 29.712C257.141 30.08 255.525 30.264 254.117 30.264C252.341 30.264 251.061 29.776 250.277 28.8C249.509 27.824 249.125 26.264 249.125 24.12C249.125 19.864 250.861 17.736 254.333 17.736C257.693 17.736 259.373 19.568 259.373 23.232L259.205 25.104H251.765C251.781 26.096 251.997 26.824 252.413 27.288C252.829 27.752 253.605 27.984 254.741 27.984C255.877 27.984 257.045 27.936 258.245 27.84ZM256.805 23.088C256.805 21.904 256.613 21.08 256.229 20.616C255.861 20.136 255.229 19.896 254.333 19.896C253.437 19.896 252.781 20.144 252.365 20.64C251.965 21.136 251.757 21.952 251.741 23.088H256.805ZM270.769 21.696V27.168C270.785 27.52 270.873 27.784 271.033 27.96C271.209 28.12 271.473 28.224 271.825 28.272L271.753 30.264C270.377 30.264 269.313 29.968 268.561 29.376C267.281 29.968 265.993 30.264 264.697 30.264C262.313 30.264 261.121 28.992 261.121 26.448C261.121 25.232 261.441 24.352 262.081 23.808C262.737 23.264 263.737 22.936 265.081 22.824L268.177 22.56V21.696C268.177 21.056 268.033 20.608 267.745 20.352C267.473 20.096 267.065 19.968 266.521 19.968C265.497 19.968 264.217 20.032 262.681 20.16L261.913 20.208L261.817 18.36C263.561 17.944 265.161 17.736 266.617 17.736C268.089 17.736 269.145 18.056 269.785 18.696C270.441 19.32 270.769 20.32 270.769 21.696ZM265.393 24.672C264.289 24.768 263.737 25.368 263.737 26.472C263.737 27.576 264.225 28.128 265.201 28.128C266.001 28.128 266.849 28 267.745 27.744L268.177 27.6V24.408L265.393 24.672ZM111.58 54V40.3H115.46L119.62 52.04H119.92V40.3H122.14V54H118.34L114.08 42.24H113.8V54H111.58ZM132.034 52.2L132.594 52.14L132.634 53.76C131.114 54.0667 129.767 54.22 128.594 54.22C127.114 54.22 126.047 53.8133 125.394 53C124.754 52.1867 124.434 50.8867 124.434 49.1C124.434 45.5533 125.88 43.78 128.774 43.78C131.574 43.78 132.974 45.3067 132.974 48.36L132.834 49.92H126.634C126.647 50.7467 126.827 51.3533 127.174 51.74C127.52 52.1267 128.167 52.32 129.114 52.32C130.06 52.32 131.034 52.28 132.034 52.2ZM130.834 48.24C130.834 47.2533 130.674 46.5667 130.354 46.18C130.047 45.78 129.52 45.58 128.774 45.58C128.027 45.58 127.48 45.7867 127.134 46.2C126.8 46.6133 126.627 47.2933 126.614 48.24H130.834ZM134.11 44H136.43L138.39 47.46L140.37 44H142.69L139.71 48.92L142.69 54H140.37L138.39 50.58L136.43 54H134.11L137.01 48.98L134.11 44ZM149.727 45.86H146.967V50.26C146.967 51.0733 147.027 51.6133 147.147 51.88C147.267 52.1467 147.574 52.28 148.067 52.28L149.707 52.22L149.807 53.96C148.914 54.1333 148.234 54.22 147.767 54.22C146.634 54.22 145.854 53.96 145.427 53.44C145.014 52.92 144.807 51.94 144.807 50.5V45.86H143.527V44H144.807V41.1H146.967V44H149.727V45.86ZM157.355 48.76V46.8H161.255V53.76C160.895 53.8533 160.162 53.9533 159.055 54.06C157.962 54.1667 157.169 54.22 156.675 54.22C154.595 54.22 153.162 53.6467 152.375 52.5C151.589 51.3533 151.195 49.56 151.195 47.12C151.195 44.6667 151.595 42.88 152.395 41.76C153.209 40.64 154.609 40.08 156.595 40.08C157.769 40.08 159.089 40.2133 160.555 40.48L161.255 40.62L161.175 42.38C159.562 42.1667 158.115 42.06 156.835 42.06C155.555 42.06 154.675 42.42 154.195 43.14C153.729 43.86 153.495 45.1933 153.495 47.14C153.495 49.0867 153.715 50.4333 154.155 51.18C154.609 51.9133 155.515 52.28 156.875 52.28C157.849 52.28 158.575 52.22 159.055 52.1V48.76H157.355ZM170.901 52.2L171.461 52.14L171.501 53.76C169.981 54.0667 168.634 54.22 167.461 54.22C165.981 54.22 164.914 53.8133 164.261 53C163.621 52.1867 163.301 50.8867 163.301 49.1C163.301 45.5533 164.748 43.78 167.641 43.78C170.441 43.78 171.841 45.3067 171.841 48.36L171.701 49.92H165.501C165.514 50.7467 165.694 51.3533 166.041 51.74C166.388 52.1267 167.034 52.32 167.981 52.32C168.928 52.32 169.901 52.28 170.901 52.2ZM169.701 48.24C169.701 47.2533 169.541 46.5667 169.221 46.18C168.914 45.78 168.388 45.58 167.641 45.58C166.894 45.58 166.348 45.7867 166.001 46.2C165.668 46.6133 165.494 47.2933 165.481 48.24H169.701ZM176.117 54H173.937V44H176.097V44.62C177.071 44.06 177.991 43.78 178.857 43.78C180.191 43.78 181.097 44.16 181.577 44.92C182.071 45.6667 182.317 46.9067 182.317 48.64V54H180.157V48.7C180.157 47.62 180.037 46.8533 179.797 46.4C179.571 45.9467 179.097 45.72 178.377 45.72C177.697 45.72 177.044 45.8533 176.417 46.12L176.117 46.24V54ZM191.975 52.2L192.535 52.14L192.575 53.76C191.055 54.0667 189.708 54.22 188.535 54.22C187.055 54.22 185.988 53.8133 185.335 53C184.695 52.1867 184.375 50.8867 184.375 49.1C184.375 45.5533 185.822 43.78 188.715 43.78C191.515 43.78 192.915 45.3067 192.915 48.36L192.775 49.92H186.575C186.588 50.7467 186.768 51.3533 187.115 51.74C187.462 52.1267 188.108 52.32 189.055 52.32C190.002 52.32 190.975 52.28 191.975 52.2ZM190.775 48.24C190.775 47.2533 190.615 46.5667 190.295 46.18C189.988 45.78 189.462 45.58 188.715 45.58C187.968 45.58 187.422 45.7867 187.075 46.2C186.742 46.6133 186.568 47.2933 186.555 48.24H190.775ZM195.011 54V44H197.171V45.2C198.305 44.4667 199.438 43.9933 200.571 43.78V45.96C199.425 46.1867 198.445 46.48 197.631 46.84L197.191 47.02V54H195.011ZM209.638 47.08V51.64C209.651 51.9333 209.725 52.1533 209.858 52.3C210.005 52.4333 210.225 52.52 210.518 52.56L210.458 54.22C209.311 54.22 208.425 53.9733 207.798 53.48C206.731 53.9733 205.658 54.22 204.578 54.22C202.591 54.22 201.598 53.16 201.598 51.04C201.598 50.0267 201.865 49.2933 202.398 48.84C202.945 48.3867 203.778 48.1133 204.898 48.02L207.478 47.8V47.08C207.478 46.5467 207.358 46.1733 207.118 45.96C206.891 45.7467 206.551 45.64 206.098 45.64C205.245 45.64 204.178 45.6933 202.898 45.8L202.258 45.84L202.178 44.3C203.631 43.9533 204.965 43.78 206.178 43.78C207.405 43.78 208.285 44.0467 208.818 44.58C209.365 45.1 209.638 45.9333 209.638 47.08ZM205.158 49.56C204.238 49.64 203.778 50.14 203.778 51.06C203.778 51.98 204.185 52.44 204.998 52.44C205.665 52.44 206.371 52.3333 207.118 52.12L207.478 52V49.34L205.158 49.56ZM217.755 45.86H214.995V50.26C214.995 51.0733 215.055 51.6133 215.175 51.88C215.295 52.1467 215.601 52.28 216.095 52.28L217.735 52.22L217.835 53.96C216.941 54.1333 216.261 54.22 215.795 54.22C214.661 54.22 213.881 53.96 213.455 53.44C213.041 52.92 212.835 51.94 212.835 50.5V45.86H211.555V44H212.835V41.1H214.995V44H217.755V45.86ZM219.543 54V44H221.723V54H219.543ZM219.543 42.3V40H221.723V42.3H219.543ZM224.907 45.08C225.6 44.2133 226.747 43.78 228.347 43.78C229.947 43.78 231.087 44.2133 231.767 45.08C232.46 45.9467 232.807 47.2467 232.807 48.98C232.807 50.7133 232.474 52.02 231.807 52.9C231.14 53.78 229.987 54.22 228.347 54.22C226.707 54.22 225.554 53.78 224.887 52.9C224.22 52.02 223.887 50.7133 223.887 48.98C223.887 47.2467 224.227 45.9467 224.907 45.08ZM226.547 51.58C226.854 52.1133 227.454 52.38 228.347 52.38C229.24 52.38 229.84 52.1133 230.147 51.58C230.454 51.0467 230.607 50.1733 230.607 48.96C230.607 47.7467 230.44 46.8867 230.107 46.38C229.787 45.8733 229.2 45.62 228.347 45.62C227.494 45.62 226.9 45.8733 226.567 46.38C226.247 46.8867 226.087 47.7467 226.087 48.96C226.087 50.1733 226.24 51.0467 226.547 51.58ZM237.152 54H234.972V44H237.132V44.62C238.106 44.06 239.026 43.78 239.892 43.78C241.226 43.78 242.132 44.16 242.612 44.92C243.106 45.6667 243.352 46.9067 243.352 48.64V54H241.192V48.7C241.192 47.62 241.072 46.8533 240.832 46.4C240.606 45.9467 240.132 45.72 239.412 45.72C238.732 45.72 238.079 45.8533 237.452 46.12L237.152 46.24V54ZM246.15 54V40.3H254.79V42.24H248.37V46.12H253.59V48.04H248.37V52.04H254.79V54H246.15ZM259.325 49.62C259.325 51.3933 260.258 52.28 262.125 52.28C263.992 52.28 264.925 51.3933 264.925 49.62V40.3H267.165V49.58C267.165 51.1933 266.738 52.3733 265.885 53.12C265.045 53.8533 263.785 54.22 262.105 54.22C260.438 54.22 259.185 53.8533 258.345 53.12C257.505 52.3733 257.085 51.1933 257.085 49.58V40.3H259.325V49.62Z" fill="white"/>
</svg>
