<svg width="64" height="64" viewBox="0 0 64 64" fill="none" xmlns="http://www.w3.org/2000/svg">
<g clip-path="url(#clip0_556_6856)">
<path d="M27.7333 50.24H4.13327V46.96L15.9466 33.84C17.0133 32.6667 17.8933 31.6267 18.5866 30.72C19.3066 29.8133 19.8666 28.9867 20.2933 28.2133C20.7199 27.44 21.0133 26.72 21.1999 26.0267C21.3866 25.3333 21.4666 24.64 21.4666 23.92C21.4666 23.04 21.3333 22.1867 21.0399 21.4133C20.7466 20.64 20.3199 19.9467 19.7866 19.36C19.2266 18.7733 18.5599 18.32 17.7866 18C17.0133 17.6533 16.1066 17.4933 15.1199 17.4933C13.9199 17.4933 12.8799 17.6533 11.9999 18C11.1199 18.3467 10.3733 18.8267 9.78661 19.4667C9.19994 20.1067 8.77328 20.88 8.47994 21.7867C8.18661 22.6933 8.05327 23.7067 8.05327 24.8267H3.43994C3.43994 23.3067 3.70661 21.8667 4.23994 20.5333C4.77327 19.2 5.51994 18.0267 6.53328 17.0133C7.51994 16 8.74661 15.2 10.1866 14.6133C11.6266 14.0267 13.2799 13.7333 15.1199 13.7333C16.8266 13.7333 18.3466 13.9733 19.7066 14.48C21.0666 14.9867 22.2133 15.68 23.1466 16.56C24.0799 17.44 24.7999 18.5067 25.3066 19.7333C25.8133 20.96 26.0533 22.2933 26.0533 23.7067C26.0533 24.7733 25.8666 25.84 25.5199 26.88C25.1466 27.92 24.6666 28.96 24.0533 29.9733C23.4399 30.9867 22.7199 32 21.8933 33.0133C21.0666 34 20.2133 35.0133 19.3066 36L9.62661 46.48H27.7066V50.2133L27.7333 50.24Z" fill="black"/>
<path d="M47.0934 33.3867L54.24 23.4667H59.6L49.6267 36.6933L59.8667 50.24H54.56L47.1734 40.0533L39.7867 50.24H34.4534L44.6934 36.6933L34.72 23.4667H40L47.0667 33.3867H47.0934Z" fill="black"/>
</g>
<defs>
<clipPath id="clip0_556_6856">
<rect width="64" height="64" fill="white"/>
</clipPath>
</defs>
</svg>
