<svg width="64" height="64" viewBox="0 0 64 64" fill="none" xmlns="http://www.w3.org/2000/svg">
<path d="M21.8947 64C18.8632 64 16.0281 63.4251 13.3895 62.2754C10.7509 61.1234 8.42105 59.5649 6.4 57.6C4.43509 55.5789 2.87775 53.2491 1.728 50.6105C0.576 47.9719 0 45.1368 0 42.1053C0 37.8386 1.12281 33.9222 3.36842 30.3562C5.61404 26.7924 8.61754 24.1123 12.3789 22.3158C13.4456 20.0702 14.8211 18.1053 16.5053 16.4211C18.1895 14.7368 20.1263 13.3895 22.3158 12.3789C24.0561 8.67368 26.6947 5.68365 30.2316 3.40884C33.7684 1.13628 37.7263 0 42.1053 0C45.1368 0 47.9719 0.574877 50.6105 1.72463C53.2491 2.87663 55.5789 4.43509 57.6 6.4C59.5649 8.42105 61.1234 10.7509 62.2754 13.3895C63.4251 16.0281 64 18.8632 64 21.8947C64 26.386 62.8918 30.3439 60.6754 33.7684C58.4567 37.193 55.4386 39.8316 51.6211 41.6842C50.5544 43.9298 49.1935 45.8813 47.5385 47.5385C45.8813 49.1935 43.9298 50.5544 41.6842 51.6211C39.8877 55.3263 37.2356 58.3164 33.728 60.5912C30.2181 62.8637 26.2737 64 21.8947 64ZM21.9789 58.9474C24.1684 58.9474 26.3164 58.4982 28.4227 57.6C30.5269 56.7018 32.3088 55.4105 33.7684 53.7263C30.4 54.007 27.2427 53.5714 24.2964 52.4194C21.3479 51.2696 18.7789 49.6 16.5895 47.4105C14.4 45.2772 12.7304 42.7363 11.5806 39.7878C10.4286 36.8415 9.99298 33.6842 10.2737 30.3158C8.58947 31.7754 7.29825 33.5439 6.4 35.6211C5.50175 37.6982 5.05263 39.8596 5.05263 42.1053C5.05263 44.4632 5.50175 46.6526 6.4 48.6737C7.29825 50.6947 8.50526 52.4632 10.0211 53.9789C11.5368 55.4947 13.3187 56.7018 15.3667 57.6C17.417 58.4982 19.6211 58.9474 21.9789 58.9474ZM32 48.8421C34.5263 48.8421 36.8146 48.3368 38.8648 47.3263C40.9128 46.3158 42.6105 45.0807 43.9579 43.6211C40.5895 43.9018 37.4175 43.4526 34.4421 42.2737C31.4667 41.0947 28.9123 39.4386 26.7789 37.3053C24.5895 35.1158 22.9053 32.5468 21.7263 29.5983C20.5474 26.6521 20.0982 23.4947 20.3789 20.1263C18.8632 21.5298 17.6281 23.2556 16.6737 25.3036C15.7193 27.3538 15.2421 29.586 15.2421 32C15.2421 34.3579 15.6778 36.5474 16.5491 38.5684C17.4181 40.5895 18.6105 42.3579 20.1263 43.8737C21.6421 45.4456 23.4105 46.6672 25.4316 47.5385C27.4526 48.4076 29.6421 48.8421 32 48.8421ZM42.1895 38.7368C43.2 38.7368 44.169 38.6526 45.0964 38.4842C46.0216 38.3158 46.9614 38.0632 47.9158 37.7263C49.1509 34.3579 49.3339 31.1152 48.4648 27.9983C47.5935 24.8837 46.0912 22.2597 43.9579 20.1263C41.8246 17.993 39.2006 16.4907 36.0859 15.6194C32.969 14.7503 29.7263 14.9333 26.3579 16.1684C26.0211 17.1228 25.7684 18.0626 25.6 18.9878C25.4316 19.9152 25.3474 20.8842 25.3474 21.8947C25.3474 24.2526 25.783 26.4421 26.6543 28.4632C27.5234 30.4842 28.7439 32.2526 30.3158 33.7684C31.8316 35.3403 33.6 36.562 35.6211 37.4333C37.6421 38.3023 39.8316 38.7368 42.1895 38.7368ZM53.7263 33.7684C55.4105 32.3088 56.7018 30.5965 57.6 28.6316C58.4982 26.6667 58.9474 24.4211 58.9474 21.8947C58.9474 19.5368 58.5128 17.3474 57.6438 15.3263C56.7725 13.3053 55.5509 11.5368 53.9789 10.0211C52.4632 8.44912 50.6947 7.22751 48.6737 6.35621C46.6526 5.48716 44.4632 5.05263 42.1053 5.05263C39.6912 5.05263 37.4883 5.51523 35.4964 6.44042C33.5023 7.36786 31.7474 8.64561 30.2316 10.2737C33.6 9.99298 36.7585 10.4421 39.7069 11.6211C42.6532 12.8 45.2211 14.4561 47.4105 16.5895C49.6 18.7789 51.2842 21.3468 52.4632 24.2931C53.6421 27.2415 54.0632 30.4 53.7263 33.7684Z" fill="#1C1B1F"/>
</svg>
