<svg width="64" height="64" viewBox="0 0 64 64" fill="none" xmlns="http://www.w3.org/2000/svg">
<path fill-rule="evenodd" clip-rule="evenodd" d="M30.5858 0.585786C31.3668 -0.195262 32.6332 -0.195262 33.4142 0.585786L41.4142 8.58579C42.1953 9.36684 42.1953 10.6332 41.4142 11.4142C40.6332 12.1953 39.3668 12.1953 38.5858 11.4142L34 6.82843V22C34 23.1046 33.1046 24 32 24C30.8954 24 30 23.1046 30 22V6.82843L25.4142 11.4142C24.6332 12.1953 23.3668 12.1953 22.5858 11.4142C21.8047 10.6332 21.8047 9.36684 22.5858 8.58579L30.5858 0.585786ZM32 40C33.1046 40 34 40.8954 34 42V57.1716L38.5858 52.5858C39.3668 51.8047 40.6332 51.8047 41.4142 52.5858C42.1953 53.3668 42.1953 54.6332 41.4142 55.4142L33.4142 63.4142C32.6332 64.1953 31.3668 64.1953 30.5858 63.4142L22.5858 55.4142C21.8047 54.6332 21.8047 53.3668 22.5858 52.5858C23.3668 51.8047 24.6332 51.8047 25.4142 52.5858L30 57.1716V42C30 40.8954 30.8954 40 32 40Z" fill="#1A1A1A"/>
<path fill-rule="evenodd" clip-rule="evenodd" d="M0.585786 33.4142C-0.195262 32.6332 -0.195262 31.3668 0.585786 30.5858L8.58579 22.5858C9.36684 21.8047 10.6332 21.8047 11.4142 22.5858C12.1953 23.3668 12.1953 24.6332 11.4142 25.4142L6.82843 30H22C23.1046 30 24 30.8954 24 32C24 33.1046 23.1046 34 22 34H6.82843L11.4142 38.5858C12.1953 39.3668 12.1953 40.6332 11.4142 41.4142C10.6332 42.1953 9.36684 42.1953 8.58579 41.4142L0.585786 33.4142ZM40 32C40 30.8954 40.8954 30 42 30L57.1716 30L52.5858 25.4142C51.8047 24.6332 51.8047 23.3668 52.5858 22.5858C53.3668 21.8047 54.6332 21.8047 55.4142 22.5858L63.4142 30.5858C64.1953 31.3668 64.1953 32.6332 63.4142 33.4142L55.4142 41.4142C54.6332 42.1953 53.3668 42.1953 52.5858 41.4142C51.8047 40.6332 51.8047 39.3668 52.5858 38.5858L57.1716 34H42C40.8954 34 40 33.1046 40 32Z" fill="#1A1A1A"/>
</svg>
