<svg width="64" height="64" viewBox="0 0 64 64" fill="none" xmlns="http://www.w3.org/2000/svg">
<path fill-rule="evenodd" clip-rule="evenodd" d="M32 12C43.0457 12 52 20.9543 52 32C52 43.0457 43.0457 52 32 52C20.9543 52 12 43.0457 12 32C12 29.0183 12.6512 26.1941 13.8172 23.6573C14.2785 22.6537 13.8389 21.4661 12.8353 21.0048C11.8317 20.5435 10.6441 20.9831 10.1828 21.9868C8.78077 25.0369 8 28.43 8 32C8 45.2548 18.7452 56 32 56C45.2548 56 56 45.2548 56 32C56 18.7452 45.2548 7.99999 32 7.99999V12Z" fill="#1A1A1A"/>
<path d="M32 17.8649V2.13503C32 1.28719 31.0111 0.824035 30.3598 1.36681L20.9219 9.23177C20.4421 9.63156 20.4421 10.3684 20.9219 10.7682L30.3598 18.6332C31.0111 19.1759 32 18.7128 32 17.8649Z" fill="#1A1A1A"/>
</svg>
