<svg width="64" height="64" viewBox="0 0 64 64" fill="none" xmlns="http://www.w3.org/2000/svg">
<path d="M8 16C8 11.5817 11.5817 8 16 8H40C44.4183 8 48 11.5817 48 16V62C48 62.7376 47.594 63.4153 46.9437 63.7633C46.2934 64.1114 45.5043 64.0732 44.8906 63.6641L28 52.4037L11.1094 63.6641C10.4957 64.0732 9.7066 64.1114 9.05628 63.7633C8.40597 63.4153 8 62.7376 8 62V16ZM16 12C13.7909 12 12 13.7909 12 16V58.263L26.8906 48.3359C27.5624 47.888 28.4376 47.888 29.1094 48.3359L44 58.263V16C44 13.7909 42.2091 12 40 12H16Z" fill="#1A1A1A"/>
<path d="M17.0703 4H48.0001C48.2762 4 48.5458 4.02798 48.8062 4.08127C50.6289 4.45425 52.0001 6.067 52.0001 8V55.0704L52.8906 55.6641C53.5044 56.0732 54.2935 56.1114 54.9438 55.7633C55.5941 55.4153 56.0001 54.7376 56.0001 54V8C56.0001 3.58172 52.4183 0 48.0001 0H24.0001C21.0389 0 18.4535 1.60879 17.0703 4Z" fill="#1A1A1A"/>
</svg>
