<svg width="64" height="64" viewBox="0 0 64 64" fill="none" xmlns="http://www.w3.org/2000/svg">
<path d="M32 12C33.1046 12 34 12.8954 34 14V22C34 23.1046 33.1046 24 32 24C30.8954 24 30 23.1046 30 22V14C30 12.8954 30.8954 12 32 12Z" fill="black"/>
<path d="M64 44C64 45.1046 63.1046 46 62 46H54C52.8954 46 52 45.1046 52 44C52 42.8954 52.8954 42 54 42H62C63.1046 42 64 42.8954 64 44Z" fill="black"/>
<path d="M10 46C11.1046 46 12 45.1046 12 44C12 42.8954 11.1046 42 10 42H2C0.895431 42 0 42.8954 0 44C0 45.1046 0.89543 46 2 46H10Z" fill="black"/>
<path d="M54.6274 21.3726C55.4085 22.1536 55.4085 23.42 54.6274 24.201L48.9706 29.8579C48.1895 30.6389 46.9232 30.6389 46.1421 29.8579C45.3611 29.0768 45.3611 27.8105 46.1421 27.0294L51.799 21.3726C52.58 20.5915 53.8464 20.5915 54.6274 21.3726Z" fill="black"/>
<path d="M15.0294 29.8579C15.8105 30.6389 17.0768 30.6389 17.8579 29.8579C18.6389 29.0768 18.6389 27.8105 17.8579 27.0294L12.201 21.3726C11.42 20.5915 10.1536 20.5915 9.37259 21.3726C8.59154 22.1536 8.59154 23.42 9.37259 24.201L15.0294 29.8579Z" fill="black"/>
<path d="M32 28C23.1634 28 16 35.1634 16 44C16 45.1046 16.8954 46 18 46H46C47.1046 46 48 45.1046 48 44C48 35.1634 40.8366 28 32 28ZM32 32C37.946 32 42.8819 36.3246 43.8341 42H20.1659C21.1181 36.3246 26.054 32 32 32Z" fill="black"/>
</svg>
