<svg width="64" height="64" viewBox="0 0 64 64" fill="none" xmlns="http://www.w3.org/2000/svg">
<path d="M63.3011 0.481159C63.9733 1.05707 64.187 2.00637 63.8264 2.81479C57.7044 16.5387 44.8548 35.4972 35.4486 45.3789C32.9081 48.0478 30.1842 49.6818 28.0934 50.6502C27.2709 51.0312 26.5422 51.3111 25.9549 51.5118C25.8839 52.4203 25.7146 53.6635 25.3133 54.9824C24.5109 57.6184 22.6493 60.8992 18.4849 61.9403C14.1963 63.0125 9.41799 63.0139 6.17118 62.4728C5.34942 62.3358 4.58292 62.1573 3.9217 61.9336C3.30261 61.7242 2.60249 61.4191 2.05802 60.9427C1.77483 60.6949 1.44025 60.3196 1.24525 59.7923C1.03254 59.217 1.0376 58.5945 1.25984 58.0203C1.63988 57.0384 2.52546 56.5012 3.10549 56.2112C4.67768 55.425 5.60388 54.4009 6.573 52.91C6.94974 52.3304 7.309 51.7191 7.71994 51.0199C7.8677 50.7685 8.02214 50.5057 8.18648 50.2289C8.79233 49.2086 9.49178 48.0705 10.3725 46.8375C12.4837 43.8818 15.1754 43.1381 17.3551 43.2528C17.8599 43.2793 18.3285 43.3506 18.748 43.4426C18.9969 42.7551 19.3149 41.9248 19.7001 41.0119C20.7445 38.5369 22.3318 35.3372 24.4491 32.7371C33.1498 22.0527 49.1652 7.91186 60.9145 0.320168C61.658 -0.160237 62.6288 -0.0947469 63.3011 0.481159ZM18.8207 47.6492C18.7447 47.616 18.6497 47.5773 18.5384 47.537C18.1794 47.4072 17.6897 47.2759 17.1448 47.2472C16.1579 47.1953 14.8495 47.4515 13.6274 49.1625C12.8415 50.2628 12.2076 51.2915 11.6259 52.2711C11.4861 52.5065 11.3466 52.7438 11.2072 52.9811C10.7818 53.7051 10.3569 54.4282 9.92675 55.09C9.10203 56.3588 8.17794 57.5328 6.88965 58.5373C9.64383 58.9861 13.8307 58.9808 17.5148 58.0597C19.7504 57.5008 20.8888 55.7816 21.4866 53.8177C21.7821 52.8466 21.9133 51.8988 21.9683 51.1841C21.9784 51.053 21.9858 50.9311 21.9913 50.8197L18.8207 47.6492ZM24.582 47.7536C25.0615 47.5926 25.6888 47.3557 26.4123 47.0206C28.1568 46.2126 30.4328 44.8466 32.5513 42.6211C40.1526 34.6356 50.2005 20.343 56.7601 8.09523C46.3959 15.8026 34.4973 26.7326 27.5508 35.2629C25.7823 37.4346 24.3695 40.2349 23.3854 42.567C22.8992 43.7193 22.5294 44.7286 22.2821 45.447C22.2815 45.4487 22.281 45.4503 22.2804 45.452L24.582 47.7536ZM4.68909 59.9096C4.68828 59.9094 4.69588 59.9028 4.71431 59.8903C4.69912 59.9036 4.6899 59.9098 4.68909 59.9096ZM19.0163 47.7416L19.0189 47.7429L19.024 47.7457C19.0254 47.7464 19.0227 47.745 19.0163 47.7416Z" fill="black"/>
</svg>
