<svg width="64" height="64" viewBox="0 0 64 64" fill="none" xmlns="http://www.w3.org/2000/svg">
<path d="M16 32C18.2091 32 20 30.2091 20 28C20 25.7909 18.2091 24 16 24C13.7909 24 12 25.7909 12 28C12 30.2091 13.7909 32 16 32Z" fill="black"/>
<path d="M52 28C52 30.2091 50.2091 32 48 32C45.7909 32 44 30.2091 44 28C44 25.7909 45.7909 24 48 24C50.2091 24 52 25.7909 52 28Z" fill="black"/>
<path d="M28 24C25.7909 24 24 25.7909 24 28C24 30.2091 25.7909 32 28 32H36C38.2091 32 40 30.2091 40 28C40 25.7909 38.2091 24 36 24H28Z" fill="black"/>
<path d="M6 8C2.68629 8 0 10.6863 0 14V50C0 53.3137 2.68629 56 6 56H58C61.3137 56 64 53.3137 64 50V14C64 10.6863 61.3137 8 58 8H6ZM4 14C4 12.8954 4.89543 12 6 12H58C59.1046 12 60 12.8954 60 14V50C60 51.1046 59.1046 52 58 52H55.2361L49.7889 41.1056C49.4501 40.428 48.7575 40 48 40H16C15.2425 40 14.5499 40.428 14.2111 41.1056L8.76393 52H6C4.89543 52 4 51.1046 4 50V14ZM46.7639 44L50.7639 52H13.2361L17.2361 44H46.7639Z" fill="black"/>
</svg>
