<svg width="64" height="64" viewBox="0 0 64 64" fill="none" xmlns="http://www.w3.org/2000/svg">
<path d="M4 32C4 47.464 16.536 60 32 60C47.464 60 60 47.464 60 32C60 16.536 47.464 4 32 4C16.536 4 4 16.536 4 32ZM64 32C64 49.6731 49.6731 64 32 64C14.3269 64 0 49.6731 0 32C0 14.3269 14.3269 0 32 0C49.6731 0 64 14.3269 64 32ZM21.6323 23.5566C18.3101 23.5566 16.3589 26.123 16.3589 30.5703V33.541C16.3589 37.9707 18.2749 40.4492 21.6323 40.4492C24.3921 40.4492 26.1851 38.709 26.3784 36.248H30.9663V36.7051C30.7378 41.293 26.853 44.457 21.5972 44.457C15.146 44.457 11.5249 40.3438 11.5249 33.541V30.5527C11.5249 23.75 15.1812 19.5488 21.5972 19.5488C26.8706 19.5488 30.7554 22.8008 30.9663 27.5469V27.9863H26.3784C26.1851 25.4375 24.3569 23.5566 21.6323 23.5566ZM43.2464 23.5566C39.9241 23.5566 37.9729 26.123 37.9729 30.5703V33.541C37.9729 37.9707 39.889 40.4492 43.2464 40.4492C46.0061 40.4492 47.7991 38.709 47.9925 36.248H52.5804V36.7051C52.3519 41.293 48.4671 44.457 43.2112 44.457C36.7601 44.457 33.139 40.3438 33.139 33.541V30.5527C33.139 23.75 36.7952 19.5488 43.2112 19.5488C48.4847 19.5488 52.3694 22.8008 52.5804 27.5469V27.9863H47.9925C47.7991 25.4375 45.971 23.5566 43.2464 23.5566Z" fill="black"/>
</svg>
