<svg width="64" height="64" viewBox="0 0 64 64" fill="none" xmlns="http://www.w3.org/2000/svg">
<path d="M10.7115 47.5758C11.5531 48.4198 11.9745 49.5951 11.8609 50.7815C11.6064 53.4403 11.0201 56.2074 10.2671 58.7779C15.8466 57.4884 19.2543 55.9924 20.8033 55.2075C21.6825 54.762 22.6953 54.6567 23.6473 54.912C26.2787 55.6176 29.0831 56 32 56C47.9824 56 60 44.7698 60 32C60 19.2302 47.9824 8 32 8C16.0176 8 4 19.2302 4 32C4 37.8724 6.46922 43.3215 10.7115 47.5758ZM8.73958 63.1957C8.71264 63.201 8.68566 63.2064 8.65864 63.2117C8.29134 63.2841 7.91688 63.3554 7.53527 63.4253C6.99999 63.5233 6.45057 63.6187 5.88688 63.711C5.09082 63.8413 4.48146 63.0085 4.79591 62.2657C5.00136 61.7803 5.20388 61.2717 5.4012 60.7443C5.52655 60.4092 5.64979 60.0666 5.77035 59.7176C5.77554 59.7026 5.78073 59.6875 5.78592 59.6725C6.77689 56.7936 7.58386 53.4845 7.87914 50.4003C2.97225 45.4795 0 39.0435 0 32C0 16.536 14.3269 4 32 4C49.6731 4 64 16.536 64 32C64 47.464 49.6731 60 32 60C28.733 60 25.5803 59.5716 22.6113 58.7755C20.5335 59.8285 16.0573 61.7453 8.73958 63.1957Z" fill="black"/>
<path d="M28.263 27.0424C27.0748 25.2113 25.0122 24 22.6667 24C18.9848 24 16 26.9848 16 30.6667C16 34.3486 18.9848 37.3333 22.6667 37.3333C23.9838 37.3333 25.2116 36.9514 26.2456 36.2922C25.7198 37.8478 24.7456 39.5069 23.1343 41.1757C22.495 41.8379 22.5135 42.893 23.1757 43.5323C23.8379 44.1717 24.893 44.1532 25.5323 43.491C31.4813 37.3296 30.7075 30.6341 28.263 27.0424Z" fill="black"/>
<path d="M44.263 27.0424C43.0748 25.2113 41.0122 24 38.6667 24C34.9848 24 32 26.9848 32 30.6667C32 34.3486 34.9848 37.3333 38.6667 37.3333C39.9838 37.3333 41.2116 36.9514 42.2456 36.2922C41.7198 37.8478 40.7456 39.5069 39.1343 41.1757C38.495 41.8379 38.5135 42.893 39.1757 43.5323C39.8379 44.1717 40.893 44.1532 41.5323 43.491C47.4813 37.3296 46.7075 30.6341 44.263 27.0424Z" fill="black"/>
</svg>
