<svg width="64" height="64" viewBox="0 0 64 64" fill="none" xmlns="http://www.w3.org/2000/svg">
<path d="M8 12C8 13.1046 8.89543 14 10 14H54C55.1046 14 56 13.1046 56 12C56 10.8954 55.1046 10 54 10H10C8.89543 10 8 10.8954 8 12Z" fill="#1A1A1A"/>
<path d="M16 4C16 5.10457 16.8954 6 18 6H46C47.1046 6 48 5.10457 48 4C48 2.89543 47.1046 2 46 2H18C16.8954 2 16 2.89543 16 4Z" fill="#1A1A1A"/>
<path d="M27.06 26.304C26.4435 25.9187 25.6664 25.8983 25.0305 26.2507C24.3946 26.6032 24 27.273 24 28V48C24 48.7271 24.3946 49.3968 25.0305 49.7493C25.6664 50.1017 26.4435 50.0813 27.06 49.696L43.06 39.696C43.6448 39.3305 44 38.6896 44 38C44 37.3104 43.6448 36.6695 43.06 36.304L27.06 26.304Z" fill="#1A1A1A"/>
<path d="M6 58C2.68629 58 0 55.3137 0 52V24C0 20.6863 2.68629 18 6 18H58C61.3137 18 64 20.6863 64 24V52C64 55.3137 61.3137 58 58 58H6ZM58 54C59.1046 54 60 53.1046 60 52V24C60 22.8954 59.1046 22 58 22H6C4.89543 22 4 22.8954 4 24V52C4 53.1046 4.89543 54 6 54H58Z" fill="#1A1A1A"/>
</svg>
