<svg width="64" height="64" viewBox="0 0 64 64" fill="none" xmlns="http://www.w3.org/2000/svg">
<path d="M24 4V16H4L4 4H24ZM4 0C1.79086 0 0 1.79086 0 4V16C0 18.2091 1.79086 20 4 20H24C26.2091 20 28 18.2091 28 16V4C28 1.79086 26.2091 0 24 0H4Z" fill="#1A1A1A"/>
<path d="M60 48V60H40V48H60ZM40 44C37.7909 44 36 45.7909 36 48V60C36 62.2091 37.7909 64 40 64H60C62.2091 64 64 62.2091 64 60V48C64 45.7909 62.2091 44 60 44H40Z" fill="#1A1A1A"/>
<path d="M24 32V60H4L4 32H24ZM4 28C1.79086 28 0 29.7909 0 32V60C0 62.2091 1.79086 64 4 64H24C26.2091 64 28 62.2091 28 60V32C28 29.7909 26.2091 28 24 28H4Z" fill="#1A1A1A"/>
<path d="M60 4V32H40V4H60ZM40 0C37.7909 0 36 1.79086 36 4V32C36 34.2091 37.7909 36 40 36H60C62.2091 36 64 34.2091 64 32V4C64 1.79086 62.2091 0 60 0H40Z" fill="#1A1A1A"/>
</svg>
