<svg width="64" height="64" viewBox="0 0 64 64" fill="none" xmlns="http://www.w3.org/2000/svg">
<path d="M14 8C17.3137 8 20 10.6863 20 14V20H14C10.6863 20 8 17.3137 8 14C8 10.6863 10.6863 8 14 8ZM24 20V14C24 8.47715 19.5228 4 14 4C8.47715 4 4 8.47715 4 14C4 19.5228 8.47715 24 14 24H20V40H14C8.47715 40 4 44.4772 4 50C4 55.5228 8.47715 60 14 60C19.5228 60 24 55.5228 24 50V44H40V50C40 55.5228 44.4772 60 50 60C55.5228 60 60 55.5228 60 50C60 44.4772 55.5228 40 50 40H44V24H50C55.5228 24 60 19.5228 60 14C60 8.47715 55.5228 4 50 4C44.4772 4 40 8.47715 40 14V20H24ZM40 24V40H24V24H40ZM44 20V14C44 10.6863 46.6863 8 50 8C53.3137 8 56 10.6863 56 14C56 17.3137 53.3137 20 50 20H44ZM44 44H50C53.3137 44 56 46.6863 56 50C56 53.3137 53.3137 56 50 56C46.6863 56 44 53.3137 44 50V44ZM20 44V50C20 53.3137 17.3137 56 14 56C10.6863 56 8 53.3137 8 50C8 46.6863 10.6863 44 14 44H20Z" fill="#1A1A1A"/>
</svg>
