<svg width="64" height="64" viewBox="0 0 64 64" fill="none" xmlns="http://www.w3.org/2000/svg">
<path fill-rule="evenodd" clip-rule="evenodd" d="M24 14C24 10.6863 26.6863 8 30 8H34C37.3137 8 40 10.6863 40 14V18C40 21.3137 37.3137 24 34 24V28H56C57.1046 28 58 28.8954 58 30V34C58 35.1046 57.1046 36 56 36C54.8954 36 54 35.1046 54 34V32H34V34C34 35.1046 33.1046 36 32 36C30.8954 36 30 35.1046 30 34V32H10V34C10 35.1046 9.10457 36 8 36C6.89543 36 6 35.1046 6 34V30C6 28.8954 6.89543 28 8 28H30V24C26.6863 24 24 21.3137 24 18V14ZM34 20C35.1046 20 36 19.1046 36 18V14C36 12.8954 35.1046 12 34 12H30C28.8954 12 28 12.8954 28 14V18C28 19.1046 28.8954 20 30 20H34ZM0 46C0 42.6863 2.68629 40 6 40H10C13.3137 40 16 42.6863 16 46V50C16 53.3137 13.3137 56 10 56H6C2.68629 56 0 53.3137 0 50V46ZM6 44C4.89543 44 4 44.8954 4 46V50C4 51.1046 4.89543 52 6 52H10C11.1046 52 12 51.1046 12 50V46C12 44.8954 11.1046 44 10 44H6ZM24 46C24 42.6863 26.6863 40 30 40H34C37.3137 40 40 42.6863 40 46V50C40 53.3137 37.3137 56 34 56H30C26.6863 56 24 53.3137 24 50V46ZM30 44C28.8954 44 28 44.8954 28 46V50C28 51.1046 28.8954 52 30 52H34C35.1046 52 36 51.1046 36 50V46C36 44.8954 35.1046 44 34 44H30ZM48 46C48 42.6863 50.6863 40 54 40H58C61.3137 40 64 42.6863 64 46V50C64 53.3137 61.3137 56 58 56H54C50.6863 56 48 53.3137 48 50V46ZM54 44C52.8954 44 52 44.8954 52 46V50C52 51.1046 52.8954 52 54 52H58C59.1046 52 60 51.1046 60 50V46C60 44.8954 59.1046 44 58 44H54Z" fill="#1A1A1A"/>
</svg>
