<svg width="64" height="64" viewBox="0 0 64 64" fill="none" xmlns="http://www.w3.org/2000/svg">
<path fill-rule="evenodd" clip-rule="evenodd" d="M24 14C24 10.6863 26.6863 8 30 8H34C37.3137 8 40 10.6863 40 14V18C40 21.3137 37.3137 24 34 24V28H44C45.1046 28 46 28.8954 46 30V34C46 35.1046 45.1046 36 44 36C42.8954 36 42 35.1046 42 34V32H22V34C22 35.1046 21.1046 36 20 36C18.8954 36 18 35.1046 18 34V30C18 28.8954 18.8954 28 20 28H30V24C26.6863 24 24 21.3137 24 18V14ZM34 20C35.1046 20 36 19.1046 36 18V14C36 12.8954 35.1046 12 34 12H30C28.8954 12 28 12.8954 28 14V18C28 19.1046 28.8954 20 30 20H34ZM12 46C12 42.6863 14.6863 40 18 40H22C25.3137 40 28 42.6863 28 46V50C28 53.3137 25.3137 56 22 56H18C14.6863 56 12 53.3137 12 50V46ZM18 44C16.8954 44 16 44.8954 16 46V50C16 51.1046 16.8954 52 18 52H22C23.1046 52 24 51.1046 24 50V46C24 44.8954 23.1046 44 22 44H18ZM36 46C36 42.6863 38.6863 40 42 40H46C49.3137 40 52 42.6863 52 46V50C52 53.3137 49.3137 56 46 56H42C38.6863 56 36 53.3137 36 50V46ZM42 44C40.8954 44 40 44.8954 40 46V50C40 51.1046 40.8954 52 42 52H46C47.1046 52 48 51.1046 48 50V46C48 44.8954 47.1046 44 46 44H42Z" fill="#1A1A1A"/>
</svg>
