<svg width="64" height="64" viewBox="0 0 64 64" fill="none" xmlns="http://www.w3.org/2000/svg">
<path d="M26.0061 28C29.3198 28 32.0061 25.3137 32.0061 22C32.0061 18.6863 29.3198 16 26.0061 16C22.6924 16 20.0061 18.6863 20.0061 22C20.0061 25.3137 22.6924 28 26.0061 28Z" fill="black"/>
<path d="M56 56C56 60.4183 52.4183 64 48 64H16C11.5817 64 8 60.4183 8 56V8C8 3.58172 11.5817 0 16 0H38L56 18V56ZM16 4C13.7909 4 12 5.79086 12 8V48L20.8958 39.1042C21.5448 38.4552 22.5521 38.3312 23.339 38.8034L32 44L40.6277 31.9212C41.3461 30.9155 42.7955 30.7955 43.6694 31.6694L52 40V18H44C40.6863 18 38 15.3137 38 12V4H16Z" fill="black"/>
</svg>
