<svg width="64" height="64" viewBox="0 0 64 64" fill="none" xmlns="http://www.w3.org/2000/svg">
<path d="M6 4C4.89543 4 4 4.89543 4 6V22C4 23.1046 3.10457 24 2 24C0.89543 24 0 23.1046 0 22V6C0 2.68629 2.68629 0 6 0H22C23.1046 0 24 0.89543 24 2C24 3.10457 23.1046 4 22 4H6ZM40 2C40 0.89543 40.8954 0 42 0H58C61.3137 0 64 2.68629 64 6V22C64 23.1046 63.1046 24 62 24C60.8954 24 60 23.1046 60 22V6C60 4.89543 59.1046 4 58 4H42C40.8954 4 40 3.10457 40 2ZM2 40C3.10457 40 4 40.8954 4 42V58C4 59.1046 4.89543 60 6 60H22C23.1046 60 24 60.8954 24 62C24 63.1046 23.1046 64 22 64H6C2.68629 64 0 61.3137 0 58V42C0 40.8954 0.89543 40 2 40ZM62 40C63.1046 40 64 40.8954 64 42V58C64 61.3137 61.3137 64 58 64H42C40.8954 64 40 63.1046 40 62C40 60.8954 40.8954 60 42 60H58C59.1046 60 60 59.1046 60 58V42C60 40.8954 60.8954 40 62 40Z" fill="#1A1A1A"/>
</svg>
