<svg width="64" height="64" viewBox="0 0 64 64" fill="none" xmlns="http://www.w3.org/2000/svg">
<path d="M28.2737 2.90859C29.2444 -0.969536 34.7557 -0.969527 35.7263 2.9086L36.0124 4.05153C36.7441 6.97512 40.4039 7.95575 42.4994 5.78972L43.3186 4.94295C46.0983 2.06972 50.8712 4.82538 49.7728 8.66926L49.4491 9.8021C48.621 12.6999 51.3001 15.379 54.1979 14.5509L55.3308 14.2272C59.1746 13.1288 61.9303 17.9017 59.0571 20.6814L58.2103 21.5006C56.0443 23.5961 57.0249 27.2559 59.9485 27.9876L61.0914 28.2737C64.9695 29.2444 64.9695 34.7557 61.0914 35.7263L59.9485 36.0124C57.0249 36.7441 56.0443 40.4039 58.2103 42.4994L59.0571 43.3186C61.9303 46.0983 59.1746 50.8712 55.3307 49.7728L54.1979 49.4491C51.3001 48.621 48.621 51.3001 49.4491 54.1979L49.7728 55.3308C50.8712 59.1746 46.0983 61.9303 43.3186 59.0571L42.4994 58.2103C40.4039 56.0443 36.7441 57.0249 36.0124 59.9485L35.7263 61.0914C34.7557 64.9695 29.2444 64.9695 28.2737 61.0914L27.9876 59.9485C27.2559 57.0249 23.5961 56.0443 21.5006 58.2103L20.6814 59.0571C17.9017 61.9303 13.1288 59.1746 14.2272 55.3307L14.5509 54.1979C15.379 51.3001 12.6999 48.621 9.80209 49.4491L8.66925 49.7728C4.82537 50.8712 2.06973 46.0983 4.94295 43.3186L5.78973 42.4994C7.95575 40.4039 6.97511 36.7441 4.05152 36.0124L2.90859 35.7263C-0.969536 34.7557 -0.969527 29.2444 2.9086 28.2737L4.05153 27.9876C6.97512 27.2559 7.95575 23.5961 5.78972 21.5006L4.94295 20.6814C2.06972 17.9017 4.82538 13.1288 8.66926 14.2272L9.8021 14.5509C12.6999 15.379 15.379 12.6999 14.5509 9.80209L14.2272 8.66925C13.1288 4.82537 17.9017 2.06973 20.6814 4.94296L21.5006 5.78973C23.5961 7.95575 27.2559 6.97511 27.9876 4.05152L28.2737 2.90859ZM51.8919 33.9992H32.9995L21.6632 49.1142C24.6794 50.9399 28.217 51.9907 32 51.9907C42.3658 51.9907 50.8889 44.1011 51.8919 33.9992ZM51.8919 30.001C50.8889 19.8991 42.3658 12.0095 32 12.0095C28.217 12.0095 24.6794 13.0603 21.6632 14.886L32.9995 30.001H51.8919ZM20.1918 15.868C20.0749 15.9537 19.959 16.0406 19.8441 16.1288L20.1918 15.868ZM18.4664 17.2871C14.4967 20.9405 12.0094 26.1798 12.0094 32.0001C12.0094 37.8204 14.4967 43.0597 18.4664 46.7131L29.5012 32.0001L18.4664 17.2871ZM19.844 47.8714C19.959 47.9596 20.0749 48.0465 20.1918 48.1322L19.844 47.8714Z" fill="black"/>
</svg>
