<svg width="65" height="64" viewBox="0 0 65 64" fill="white" xmlns="http://www.w3.org/2000/svg">
<path d="M24.0061 22C24.0061 25.3137 21.3198 28 18.0061 28C14.6924 28 12.0061 25.3137 12.0061 22C12.0061 18.6863 14.6924 16 18.0061 16C21.3198 16 24.0061 18.6863 24.0061 22Z" fill="#1A1A1A"/>
<path d="M8.0061 4C3.58783 4 0.00610352 7.58172 0.00610352 12V52C0.00610352 56.4183 3.58783 60 8.0061 60H56.0061C60.4244 60 64.0061 56.4183 64.0061 52V12C64.0061 7.58172 60.4244 4 56.0061 4H8.0061ZM56.0061 8C58.2152 8 60.0061 9.79086 60.0061 12V38.0001L44.9005 30.2112C44.1306 29.8262 43.2006 29.9771 42.5919 30.5858L27.7513 45.4265L17.1155 38.336C16.3223 37.8071 15.266 37.9117 14.5919 38.5858L4.0061 48.0001V12C4.0061 9.79086 5.79696 8 8.0061 8H56.0061Z" fill="#1A1A1A"/>
</svg>
