<svg width="64" height="64" viewBox="0 0 64 64" fill="none" xmlns="http://www.w3.org/2000/svg">
<path d="M47 29.2759C48.7495 29.2759 50.1666 30.867 50.1666 32.8315V50.6093C50.1666 52.5737 48.7495 54.1648 47 54.1648H8.99996C7.25038 54.1648 5.83329 52.5737 5.83329 50.6093V32.8315C5.83329 30.867 7.25038 29.2759 8.99996 29.2759H47ZM8.99996 25.7204C5.50079 25.7204 2.66663 28.9026 2.66663 32.8315V50.6093C2.66663 54.5381 5.50079 57.7204 8.99996 57.7204H47C50.4991 57.7204 53.3333 54.5381 53.3333 50.6093V32.8315C53.3333 28.9026 50.4991 25.7204 47 25.7204H8.99996Z" fill="black"/>
<path d="M44.9674 48.9318C44.9674 48.4893 45.3295 48.1272 45.772 48.1272H47.3812C47.8237 48.1272 48.1857 48.4893 48.1857 48.9318V50.541C48.1857 50.9835 47.8237 51.3455 47.3812 51.3455H45.772C45.3295 51.3455 44.9674 50.9835 44.9674 50.541V48.9318Z" fill="black"/>
<path d="M44.9674 42.4951C44.9674 42.0526 45.3295 41.6905 45.772 41.6905H47.3812C47.8237 41.6905 48.1857 42.0526 48.1857 42.4951V44.1043C48.1857 44.5468 47.8237 44.9088 47.3812 44.9088H45.772C45.3295 44.9088 44.9674 44.5468 44.9674 44.1043V42.4951Z" fill="black"/>
<path d="M28.8756 42.4951C28.8756 42.0526 29.2377 41.6905 29.6802 41.6905H31.2894C31.7319 41.6905 32.094 42.0526 32.094 42.4951V44.1043C32.094 44.5468 31.7319 44.9088 31.2894 44.9088H29.6802C29.2377 44.9088 28.8756 44.5468 28.8756 44.1043V42.4951Z" fill="black"/>
<path d="M35.3125 42.4951C35.3125 42.0526 35.6746 41.6905 36.1171 41.6905H40.9446C41.3871 41.6905 41.7492 42.0526 41.7492 42.4951V44.1043C41.7492 44.5468 41.3871 44.9088 40.9446 44.9088H36.1171C35.6746 44.9088 35.3125 44.5468 35.3125 44.1043V42.4951Z" fill="black"/>
<path d="M38.5308 48.9318C38.5308 48.4893 38.8928 48.1272 39.3353 48.1272H40.9445C41.387 48.1272 41.7491 48.4893 41.7491 48.9318V50.541C41.7491 50.9835 41.387 51.3455 40.9445 51.3455H39.3353C38.8928 51.3455 38.5308 50.9835 38.5308 50.541V48.9318Z" fill="black"/>
<path d="M22.4391 42.4951C22.4391 42.0526 22.8012 41.6905 23.2437 41.6905H24.8528C25.2954 41.6905 25.6574 42.0526 25.6574 42.4951V44.1043C25.6574 44.5468 25.2954 44.9088 24.8528 44.9088H23.2437C22.8012 44.9088 22.4391 44.5468 22.4391 44.1043V42.4951Z" fill="black"/>
<path d="M16.0024 42.4951C16.0024 42.0526 16.3645 41.6905 16.807 41.6905H18.4162C18.8587 41.6905 19.2208 42.0526 19.2208 42.4951V44.1043C19.2208 44.5468 18.8587 44.9088 18.4162 44.9088H16.807C16.3645 44.9088 16.0024 44.5468 16.0024 44.1043V42.4951Z" fill="black"/>
<path d="M9.5658 42.4951C9.5658 42.0526 9.92786 41.6905 10.3704 41.6905H11.9796C12.4221 41.6905 12.7841 42.0526 12.7841 42.4951V44.1043C12.7841 44.5468 12.4221 44.9088 11.9796 44.9088H10.3704C9.92786 44.9088 9.5658 44.5468 9.5658 44.1043V42.4951Z" fill="black"/>
<path d="M44.9674 36.0584C44.9674 35.6159 45.3295 35.2538 45.772 35.2538H47.3812C47.8237 35.2538 48.1857 35.6159 48.1857 36.0584V37.6676C48.1857 38.1101 47.8237 38.4722 47.3812 38.4722H45.772C45.3295 38.4722 44.9674 38.1101 44.9674 37.6676V36.0584Z" fill="black"/>
<path d="M32.0941 36.0584C32.0941 35.6159 32.4562 35.2538 32.8987 35.2538H34.5079C34.9504 35.2538 35.3125 35.6159 35.3125 36.0584V37.6676C35.3125 38.1101 34.9504 38.4722 34.5079 38.4722H32.8987C32.4562 38.4722 32.0941 38.1101 32.0941 37.6676V36.0584Z" fill="black"/>
<path d="M25.6573 36.0584C25.6573 35.6159 26.0194 35.2538 26.4619 35.2538H28.0711C28.5136 35.2538 28.8757 35.6159 28.8757 36.0584V37.6676C28.8757 38.1101 28.5136 38.4722 28.0711 38.4722H26.4619C26.0194 38.4722 25.6573 38.1101 25.6573 37.6676V36.0584Z" fill="black"/>
<path d="M19.2208 36.0584C19.2208 35.6159 19.5829 35.2538 20.0254 35.2538H21.6346C22.0771 35.2538 22.4392 35.6159 22.4392 36.0584V37.6676C22.4392 38.1101 22.0771 38.4722 21.6346 38.4722H20.0254C19.5829 38.4722 19.2208 38.1101 19.2208 37.6676V36.0584Z" fill="black"/>
<path d="M9.5658 36.0584C9.5658 35.6159 9.92786 35.2538 10.3704 35.2538H15.1979C15.6404 35.2538 16.0025 35.6159 16.0025 36.0584V37.6676C16.0025 38.1101 15.6404 38.4722 15.1979 38.4722H10.3704C9.92786 38.4722 9.5658 38.1101 9.5658 37.6676V36.0584Z" fill="black"/>
<path d="M9.5658 48.9318C9.5658 48.4893 9.92786 48.1272 10.3704 48.1272H11.9796C12.4221 48.1272 12.7841 48.4893 12.7841 48.9318V50.541C12.7841 50.9835 12.4221 51.3455 11.9796 51.3455H10.3704C9.92786 51.3455 9.5658 50.9835 9.5658 50.541V48.9318Z" fill="black"/>
<path d="M16.0024 48.9318C16.0024 48.4893 16.3645 48.1272 16.807 48.1272H34.5079C34.9504 48.1272 35.3125 48.4893 35.3125 48.9318V50.541C35.3125 50.9835 34.9504 51.3455 34.5079 51.3455H16.807C16.3645 51.3455 16.0024 50.9835 16.0024 50.541V48.9318Z" fill="black"/>
<path d="M52.7123 10.6667L39.324 27.7561L34.0057 18.5516L28.3334 21.8263L35.3091 32.4066L39.3481 38.3444L57.8617 14.7057L52.7123 10.6667Z" fill="black" stroke="black" stroke-miterlimit="10"/>
</svg>
