<svg width="64" height="64" viewBox="0 0 64 64" fill="none" xmlns="http://www.w3.org/2000/svg">
<path d="M38.8301 24.299L26.7373 25.8144L26.3043 27.8247L28.6858 28.2577C30.2322 28.6289 30.5414 29.1856 30.2012 30.732L26.3043 49.0412C25.2837 53.7732 26.861 56 30.5724 56C33.4487 56 36.7889 54.6701 38.3043 52.8454L38.7682 50.6495C37.7167 51.5773 36.1703 51.9485 35.1497 51.9485C33.6961 51.9485 33.1703 50.9278 33.5414 49.134L38.8301 24.299Z" fill="#1A1A1A"/>
<path d="M39.1959 13.2784C39.1959 16.1935 36.8327 18.5567 33.9175 18.5567C31.0024 18.5567 28.6392 16.1935 28.6392 13.2784C28.6392 10.3632 31.0024 8 33.9175 8C36.8327 8 39.1959 10.3632 39.1959 13.2784Z" fill="#1A1A1A"/>
</svg>
