<svg width="64" height="64" viewBox="0 0 64 64" fill="none" xmlns="http://www.w3.org/2000/svg">
<path d="M0 8C0 3.58172 3.58172 0 8 0H40C44.4183 0 48 3.58172 48 8V16H56C60.4183 16 64 19.5817 64 24V56C64 60.4183 60.4183 64 56 64H24C19.5817 64 16 60.4183 16 56V48H8C3.58172 48 0 44.4183 0 40V8ZM20 48V56C20 58.2091 21.7909 60 24 60H56C58.2091 60 60 58.2091 60 56V24C60 21.7909 58.2091 20 56 20H48V40C48 44.4183 44.4183 48 40 48H20ZM44 16V8C44 5.79086 42.2091 4 40 4H8C5.79086 4 4 5.79086 4 8V40C4 42.2091 5.79086 44 8 44H16V24C16 19.5817 19.5817 16 24 16H44Z" fill="#1A1A1A"/>
</svg>
