<svg width="64" height="64" viewBox="0 0 64 64" fill="none" xmlns="http://www.w3.org/2000/svg">
<path d="M28.4223 62.2111L2.21115 49.1056C0.856009 48.428 0 47.043 0 45.5279L0.00172591 37.8825C0.0474758 36.3257 0.992746 34.937 2.42432 34.3234L24 25.0767V29.4286L4 38L26.6334 49.3167C30.0118 51.0059 33.9882 51.0059 37.3666 49.3167L60 38L40 29.4286V25.0767L61.5757 34.3234C63.0073 34.937 63.9525 36.3257 63.9983 37.8825L64 45.5279C64 47.043 63.144 48.428 61.7889 49.1056L35.5777 62.2111C33.3255 63.3373 30.6745 63.3373 28.4223 62.2111Z" fill="black"/>
<path fill-rule="evenodd" clip-rule="evenodd" d="M30 38V14H34V38H30Z" fill="black"/>
<path d="M40 39C40 40.6569 36.4183 42 32 42C27.5817 42 24 40.6569 24 39C24 37.3431 27.5817 36 32 36C36.4183 36 40 37.3431 40 39Z" fill="black"/>
<path d="M40 8C40 12.4183 36.4183 16 32 16C27.5817 16 24 12.4183 24 8C24 3.58172 27.5817 0 32 0C36.4183 0 40 3.58172 40 8Z" fill="black"/>
</svg>
