<svg width="64" height="64" viewBox="0 0 64 64" fill="none" xmlns="http://www.w3.org/2000/svg">
<path d="M56 20C58.2091 20 60 21.7909 60 24V44C60 46.2091 58.2091 48 56 48H8C5.79086 48 4 46.2091 4 44V24C4 21.7909 5.79086 20 8 20H56ZM8 16C3.58172 16 0 19.5817 0 24V44C0 48.4183 3.58172 52 8 52H56C60.4183 52 64 48.4183 64 44V24C64 19.5817 60.4183 16 56 16H8Z" fill="#1A1A1A"/>
<path d="M52 41C52 40.4477 52.4477 40 53 40H55C55.5523 40 56 40.4477 56 41V43C56 43.5523 55.5523 44 55 44H53C52.4477 44 52 43.5523 52 43V41Z" fill="#1A1A1A"/>
<path d="M52 33C52 32.4477 52.4477 32 53 32H55C55.5523 32 56 32.4477 56 33V35C56 35.5523 55.5523 36 55 36H53C52.4477 36 52 35.5523 52 35V33Z" fill="#1A1A1A"/>
<path d="M32 33C32 32.4477 32.4477 32 33 32H35C35.5523 32 36 32.4477 36 33V35C36 35.5523 35.5523 36 35 36H33C32.4477 36 32 35.5523 32 35V33Z" fill="#1A1A1A"/>
<path d="M40 33C40 32.4477 40.4477 32 41 32H47C47.5523 32 48 32.4477 48 33V35C48 35.5523 47.5523 36 47 36H41C40.4477 36 40 35.5523 40 35V33Z" fill="#1A1A1A"/>
<path d="M44 41C44 40.4477 44.4477 40 45 40H47C47.5523 40 48 40.4477 48 41V43C48 43.5523 47.5523 44 47 44H45C44.4477 44 44 43.5523 44 43V41Z" fill="#1A1A1A"/>
<path d="M24 33C24 32.4477 24.4477 32 25 32H27C27.5523 32 28 32.4477 28 33V35C28 35.5523 27.5523 36 27 36H25C24.4477 36 24 35.5523 24 35V33Z" fill="#1A1A1A"/>
<path d="M16 33C16 32.4477 16.4477 32 17 32H19C19.5523 32 20 32.4477 20 33V35C20 35.5523 19.5523 36 19 36H17C16.4477 36 16 35.5523 16 35V33Z" fill="#1A1A1A"/>
<path d="M8 33C8 32.4477 8.44772 32 9 32H11C11.5523 32 12 32.4477 12 33V35C12 35.5523 11.5523 36 11 36H9C8.44772 36 8 35.5523 8 35V33Z" fill="#1A1A1A"/>
<path d="M52 25C52 24.4477 52.4477 24 53 24H55C55.5523 24 56 24.4477 56 25V27C56 27.5523 55.5523 28 55 28H53C52.4477 28 52 27.5523 52 27V25Z" fill="#1A1A1A"/>
<path d="M44 25C44 24.4477 44.4477 24 45 24H47C47.5523 24 48 24.4477 48 25V27C48 27.5523 47.5523 28 47 28H45C44.4477 28 44 27.5523 44 27V25Z" fill="#1A1A1A"/>
<path d="M36 25C36 24.4477 36.4477 24 37 24H39C39.5523 24 40 24.4477 40 25V27C40 27.5523 39.5523 28 39 28H37C36.4477 28 36 27.5523 36 27V25Z" fill="#1A1A1A"/>
<path d="M28 25C28 24.4477 28.4477 24 29 24H31C31.5523 24 32 24.4477 32 25V27C32 27.5523 31.5523 28 31 28H29C28.4477 28 28 27.5523 28 27V25Z" fill="#1A1A1A"/>
<path d="M20 25C20 24.4477 20.4477 24 21 24H23C23.5523 24 24 24.4477 24 25V27C24 27.5523 23.5523 28 23 28H21C20.4477 28 20 27.5523 20 27V25Z" fill="#1A1A1A"/>
<path d="M8 25C8 24.4477 8.44772 24 9 24H15C15.5523 24 16 24.4477 16 25V27C16 27.5523 15.5523 28 15 28H9C8.44772 28 8 27.5523 8 27V25Z" fill="#1A1A1A"/>
<path d="M8 41C8 40.4477 8.44772 40 9 40H11C11.5523 40 12 40.4477 12 41V43C12 43.5523 11.5523 44 11 44H9C8.44772 44 8 43.5523 8 43V41Z" fill="#1A1A1A"/>
<path d="M16 41C16 40.4477 16.4477 40 17 40H39C39.5523 40 40 40.4477 40 41V43C40 43.5523 39.5523 44 39 44H17C16.4477 44 16 43.5523 16 43V41Z" fill="#1A1A1A"/>
</svg>
