<svg width="64" height="64" viewBox="0 0 64 64" fill="none" xmlns="http://www.w3.org/2000/svg">
<path d="M25.4167 22H16C9.37258 22 4 27.3726 4 34C4 40.6274 9.37258 46 16 46H28C34.6274 46 40 40.6274 40 34C40 32.5975 39.7594 31.2511 39.3172 30H36C35.655 30 35.3203 30.0437 35.001 30.1258C35.6375 31.2736 36 32.5945 36 34C36 38.4183 32.4183 42 28 42H16C11.5817 42 8 38.4183 8 34C8 29.5817 11.5817 26 16 26H22.1405C23.0115 24.4944 24.1207 23.1439 25.4167 22Z" fill="#1A1A1A"/>
<path d="M36 22C29.3726 22 24 27.3726 24 34C24 35.4025 24.2406 36.7489 24.6828 38H29.0703C28.3896 36.8233 28 35.4571 28 34C28 29.5817 31.5817 26 36 26H48C52.4183 26 56 29.5817 56 34C56 38.4183 52.4183 42 48 42H41.8595C40.9885 43.5056 39.8793 44.8561 38.5833 46H48C54.6274 46 60 40.6274 60 34C60 27.3726 54.6274 22 48 22H36Z" fill="#1A1A1A"/>
</svg>
