<svg width="64" height="64" viewBox="0 0 64 64" fill="none" xmlns="http://www.w3.org/2000/svg">
<path fill-rule="evenodd" clip-rule="evenodd" d="M20 46C20 44.8954 20.8954 44 22 44H58C59.1046 44 60 44.8954 60 46C60 47.1046 59.1046 48 58 48H22C20.8954 48 20 47.1046 20 46Z" fill="black"/>
<path fill-rule="evenodd" clip-rule="evenodd" d="M20 30C20 28.8954 20.8954 28 22 28H58C59.1046 28 60 28.8954 60 30C60 31.1046 59.1046 32 58 32H22C20.8954 32 20 31.1046 20 30Z" fill="black"/>
<path fill-rule="evenodd" clip-rule="evenodd" d="M20 14C20 12.8954 20.8954 12 22 12H58C59.1046 12 60 12.8954 60 14C60 15.1046 59.1046 16 58 16H22C20.8954 16 20 15.1046 20 14Z" fill="black"/>
<path d="M6.85156 47.4609V45.5625H8C8.86719 45.5625 9.45312 45.0156 9.45312 44.2969C9.45312 43.5547 8.82031 43.0547 8.00781 43.0547C7.11719 43.0547 6.53906 43.6641 6.51562 44.2969H4.15625C4.21875 42.4297 5.64844 41.1484 8.10156 41.1484C10.4531 41.1406 11.9141 42.3125 11.9297 43.9609C11.9453 45.4766 10.7188 46.2188 9.96094 46.3359V46.4688C10.9766 46.5625 12.2188 47.3281 12.2344 48.9922C12.25 51.125 10.2266 52.1953 8.03125 52.1953C5.40625 52.1953 4.03125 50.7109 4 49.0156H6.32812C6.35938 49.7266 7.07031 50.2422 8.01562 50.25C9.03125 50.25 9.71094 49.6719 9.70312 48.8516C9.69531 48.0703 9.08594 47.4609 8.04688 47.4609H6.85156Z" fill="black"/>
<path d="M6.83594 28.6641H4.42188V28.5234C4.42188 26.8906 5.60156 25.1484 8.25 25.1484C10.5859 25.1484 12.0938 26.4531 12.0938 28.1719C12.0938 29.7266 11.0625 30.6406 10.1875 31.5625L8.03906 33.8516V33.9688H12.2578V36H4.57031V34.4219L8.39844 30.4609C8.95312 29.8906 9.57031 29.2422 9.57031 28.4297C9.57031 27.7109 8.98438 27.1484 8.20312 27.1484C7.34375 27.1484 6.83594 27.7891 6.83594 28.5C6.83594 28.5547 6.83594 28.625 6.83594 28.6641Z" fill="black"/>
<path d="M10.2547 20H7.71563V11.6953H7.59063L5.2 13.375V11.1094L7.71563 9.33594H10.2547V20Z" fill="black"/>
</svg>
