<svg width="64" height="64" viewBox="0 0 64 64" fill="none" xmlns="http://www.w3.org/2000/svg">
<path d="M32 20C35.3137 20 38 17.3137 38 14C38 10.6863 35.3137 8 32 8C28.6863 8 26 10.6863 26 14C26 17.3137 28.6863 20 32 20Z" fill="#1A1A1A"/>
<path d="M48 32C51.3137 32 54 29.3137 54 26C54 22.6863 51.3137 20 48 20C44.6863 20 42 22.6863 42 26C42 29.3137 44.6863 32 48 32Z" fill="#1A1A1A"/>
<path d="M22 28C22 31.3137 19.3137 34 16 34C12.6863 34 10 31.3137 10 28C10 24.6863 12.6863 22 16 22C19.3137 22 22 24.6863 22 28Z" fill="#1A1A1A"/>
<path d="M24 52C27.3137 52 30 49.3137 30 46C30 42.6863 27.3137 40 24 40C20.6863 40 18 42.6863 18 46C18 49.3137 20.6863 52 24 52Z" fill="#1A1A1A"/>
<path d="M64 32C64 44.6023 56.5343 42.3399 49.7331 40.2789C45.6783 39.0502 41.8597 37.893 40 40C37.589 42.7316 38.1003 47.2746 38.5959 51.6774C39.3056 57.9823 39.9829 64 32 64C14.3269 64 0 49.6731 0 32C0 14.3269 14.3269 0 32 0C49.6731 0 64 14.3269 64 32ZM32 60C34.4443 60 34.6144 59.3144 34.6192 59.2952C34.9315 58.7123 35.1154 57.4381 34.8989 54.821C34.8432 54.148 34.7529 53.3362 34.6548 52.4547C34.4484 50.5994 34.2077 48.4354 34.1832 46.6063C34.1453 43.7818 34.517 40.1674 37.001 37.3531C38.4741 35.6841 40.3799 35.0396 42.0866 34.8792C43.7045 34.7272 45.3377 34.9845 46.726 35.2959C48.0987 35.6039 49.5356 36.0394 50.827 36.4308L50.9417 36.4656C52.3233 36.8842 53.5698 37.259 54.7518 37.527C57.3639 38.1194 58.3675 37.8596 58.7171 37.6243C58.8696 37.5217 60 36.6446 60 32C60 16.536 47.464 4 32 4C16.536 4 4 16.536 4 32C4 47.464 16.536 60 32 60Z" fill="#1A1A1A"/>
</svg>
