<svg width="64" height="64" viewBox="0 0 64 64" fill="none" xmlns="http://www.w3.org/2000/svg">
<g clip-path="url(#clip0_613_6937)">
<path d="M10.2103 45.6578L8.42767 43.6154C8.2001 43.3507 8.27596 42.9472 8.59202 42.7833C10.2482 41.9387 12.2204 40.741 14.2559 39.0768C16.9108 36.9083 18.7946 34.6516 20.0588 32.8236C20.2105 32.6093 20.1599 32.3319 19.9829 32.1428C18.1877 30.2895 17.0752 28.5749 16.3925 27.3646C15.596 25.9274 15.242 24.8936 15.1156 24.5154C14.7363 23.3681 14.5846 22.3595 14.4961 21.4896C14.4582 21.1744 14.711 20.8971 15.0397 20.8971H17.5556C17.8464 20.8971 18.0739 21.1366 18.0992 21.4266C18.4153 22.9395 18.9842 23.9228 19.3255 24.528C19.7807 25.3601 20.2864 26.0535 20.8174 26.6334C21.6518 27.5285 22.208 28.2976 23.0298 28.8775C23.2574 29.0288 23.5608 28.991 23.7504 28.7892C25.3434 27.0494 26.6709 25.2718 27.7455 23.469C28.5672 22.1074 29.2879 20.6828 29.9326 19.1951C30.3119 18.3126 29.6798 17.3418 28.7189 17.3544C25.4192 17.4175 21.4874 17.2158 17.1131 16.4341C13.1433 15.7281 9.70457 14.6943 6.85999 13.6479C6.30372 13.4462 5.96237 12.9167 6.0003 12.3367L6.11408 10.5591C6.13937 10.2061 6.49336 9.96656 6.83471 10.0926C8.49088 10.7104 10.3999 11.3029 12.5491 11.7568C15.5201 12.3998 18.213 12.6393 20.4507 12.6771C20.7541 12.6771 20.9944 12.4376 20.9944 12.135V8.55454C20.9944 8.25196 21.2346 8.01243 21.538 8.01243H24.332C25.0652 8.01243 25.5457 7.87375 25.533 8.60497L25.5709 12.3998C25.5709 12.6897 25.7732 12.9545 26.064 12.9923C26.7088 13.0806 27.4168 13.131 28.2638 13.1436C30.6532 13.2318 32.4738 13.1058 33.8645 12.9545C35.1919 12.8158 36.8987 12.5889 38.8583 12.2737C39.1364 12.2233 39.4145 12.4124 39.4777 12.6897C39.6421 13.4714 39.9582 14.9843 40.1352 15.8668C40.1984 16.1946 39.9582 16.4971 39.6168 16.5097C39.1111 16.535 38.6433 16.661 38.1376 16.7619C37.3032 16.9258 36.4688 17.0771 35.6597 17.2158C35.4574 17.2536 35.3057 17.3796 35.2425 17.5688C34.5471 19.7624 33.4978 22.3721 31.9428 25.1962C30.7165 27.4403 29.2373 29.5835 27.5179 31.6259C27.0754 32.1428 27.1007 32.9118 27.5685 33.3909L31.8164 37.6774C32.1704 38.043 32.2968 38.5725 32.1071 39.0516L30.9314 42.2286C30.7923 42.5942 30.3245 42.6951 30.0464 42.4303L24.332 36.921C23.7884 36.3914 22.916 36.4293 22.423 37.0092C21.0323 38.6734 19.2497 40.514 16.9993 42.3421C15.1661 43.8298 13.3962 45.0022 11.7906 45.9226C11.247 46.2377 10.5643 46.1117 10.1597 45.6452H10.2103V45.6578Z" fill="black"/>
<path d="M53.0682 54.5335L49.1237 46.717H37.6695L37.4041 54.5335H34.0411L34.6606 23.9987H41.2474L56.5196 54.5335H53.0682ZM37.935 26.9992L37.619 43.7669H47.7077L39.2499 26.9992H37.9224H37.935Z" fill="black" stroke="black" stroke-width="0.75" stroke-linejoin="round"/>
</g>
<defs>
<clipPath id="clip0_613_6937">
<rect width="51" height="47" fill="white" transform="translate(6 8)"/>
</clipPath>
</defs>
</svg>
