<svg width="64" height="64" viewBox="0 0 64 64" fill="none" xmlns="http://www.w3.org/2000/svg">
<path d="M28.0061 44C28.0061 41.7909 29.797 40 32.0061 40C34.2152 40 36.0061 41.7909 36.0061 44C36.0061 46.2091 34.2152 48 32.0061 48C29.797 48 28.0061 46.2091 28.0061 44Z" fill="black"/>
<path d="M28.398 19.9802C28.1849 17.8491 29.8583 16 31.9999 16C34.1416 16 35.815 17.8491 35.6019 19.9801L34.1989 34.0099C34.086 35.1397 33.1353 36 31.9999 36C30.8646 36 29.9139 35.1397 29.8009 34.0099L28.398 19.9802Z" fill="black"/>
<path d="M41.0917 10.0507L37.4076 6.27773L40.2695 3.48319L42.7569 6.03054L46.317 5.98813C52.8076 5.91082 58.0892 11.1924 58.0119 17.683L57.9695 21.2431L60.5168 23.7305C65.1611 28.2654 65.1611 35.7346 60.5168 40.2695L57.9695 42.7569L58.0119 46.317C58.0892 52.8076 52.8076 58.0892 46.317 58.0119L42.7569 57.9695L40.2695 60.5168C35.7346 65.1611 28.2654 65.1611 23.7305 60.5168L21.2431 57.9695L17.683 58.0119C11.1924 58.0892 5.91082 52.8076 5.98813 46.317L6.03054 42.7569L3.48319 40.2695C-1.16106 35.7346 -1.16106 28.2654 3.48319 23.7305L6.03054 21.2431L5.98813 17.683C5.91082 11.1924 11.1924 5.91082 17.683 5.98813L21.2431 6.03054L23.7305 3.48319C28.2654 -1.16106 35.7346 -1.16106 40.2695 3.48319L37.4076 6.27773C34.4421 3.24076 29.5579 3.24076 26.5924 6.27773L22.9083 10.0507L17.6354 9.98785C13.391 9.93729 9.93729 13.391 9.98785 17.6354L10.0507 22.9083L6.27773 26.5924C3.24076 29.5579 3.24076 34.4421 6.27773 37.4076L10.0507 41.0917L9.98785 46.3646C9.93729 50.609 13.391 54.0627 17.6354 54.0122L22.9083 53.9493L26.5924 57.7223C29.5579 60.7592 34.4421 60.7592 37.4076 57.7223L41.0917 53.9493L46.3646 54.0122C50.609 54.0627 54.0627 50.609 54.0122 46.3646L53.9493 41.0917L57.7223 37.4076C60.7592 34.4421 60.7592 29.5579 57.7223 26.5924L53.9493 22.9083L54.0122 17.6354C54.0627 13.391 50.609 9.93729 46.3646 9.98785L41.0917 10.0507Z" fill="black"/>
</svg>
