<svg width="64" height="64" viewBox="0 0 64 64" fill="none" xmlns="http://www.w3.org/2000/svg">
<path d="M16 64C16 64 12 64 12 60C12 56 16 44 32 44C48 44 52 56 52 60C52 64 48 64 48 64H16Z" fill="black"/>
<path d="M32 40.2C37.5228 40.2 42 35.7229 42 30.2C42 24.6772 37.5228 20.2 32 20.2C26.4772 20.2 22 24.6772 22 30.2C22 35.7229 26.4772 40.2 32 40.2Z" fill="black"/>
<path d="M8 4C3.58172 4 0 7.58172 0 12V50C0 53.3137 2.68629 56 6 56H8.61151C9.31266 53.494 10.6603 50.6175 12.8751 48H4V12C4 9.79086 5.79086 8 8 8H56C58.2091 8 60 9.79086 60 12V48H51.1249C53.3397 50.6175 54.6873 53.494 55.3885 56H58C61.3137 56 64 53.3137 64 50V12C64 7.58172 60.4183 4 56 4H8Z" fill="black"/>
</svg>
