<svg width="64" height="64" viewBox="0 0 64 64" fill="none" xmlns="http://www.w3.org/2000/svg">
<path d="M27.8024 1.73871C30.1207 -0.579575 33.8793 -0.579568 36.1976 1.73872L62.2613 27.8024C64.5796 30.1207 64.5796 33.8793 62.2613 36.1976L36.1976 62.2613C33.8793 64.5796 30.1207 64.5796 27.8024 62.2613L1.73871 36.1976C-0.579575 33.8793 -0.579568 30.1207 1.73872 27.8024L27.8024 1.73871ZM33.3992 4.53713C32.6264 3.76437 31.3736 3.76437 30.6008 4.53713L4.53713 30.6008C3.76437 31.3736 3.76437 32.6264 4.53713 33.3992L30.6008 59.4629C31.3736 60.2356 32.6264 60.2356 33.3992 59.4629L59.4629 33.3992C60.2356 32.6264 60.2356 31.3736 59.4629 30.6008L33.3992 4.53713Z" fill="#1A1A1A"/>
<path d="M21.0204 23.1446C20.9901 23.6895 21.4396 24.1309 21.9853 24.1309H25.2833C25.8356 24.1309 26.2747 23.6805 26.3489 23.1332C26.7047 20.5087 28.506 18.5957 31.7169 18.5957C34.4591 18.5957 36.9727 19.9668 36.9727 23.2676C36.9727 25.8066 35.4747 26.9746 33.1134 28.752C30.422 30.707 28.2891 32.9922 28.4415 36.6992L28.4534 37.5664C28.4609 38.1133 28.9063 38.5527 29.4533 38.5527H32.6973C33.2496 38.5527 33.6973 38.105 33.6973 37.5527V37.1309C33.6973 34.2617 34.7891 33.4238 37.7345 31.1895C40.172 29.3359 42.711 27.2793 42.711 22.9629C42.711 16.9199 37.6075 14 32.0216 14C26.9532 14 21.3985 16.3624 21.0204 23.1446ZM27.2481 46.1953C27.2481 48.3281 28.9493 49.9023 31.2852 49.9023C33.7227 49.9023 35.3985 48.3281 35.3985 46.1953C35.3985 43.9863 33.7227 42.4375 31.2852 42.4375C28.9493 42.4375 27.2481 43.9863 27.2481 46.1953Z" fill="#1A1A1A"/>
</svg>
