<svg width="64" height="64" viewBox="0 0 64 64" fill="none" xmlns="http://www.w3.org/2000/svg">
<path d="M46.9686 41.3755C50.1317 37.0692 52 31.7528 52 26C52 11.6406 40.3594 0 26 0C11.6406 0 0 11.6406 0 26C0 40.3594 11.6406 52 26 52C31.7543 52 37.0721 50.1306 41.379 46.9661L41.3755 46.9686C41.4935 47.1286 41.6249 47.2818 41.7697 47.4266L57.1716 62.8284C58.7337 64.3905 61.2663 64.3905 62.8284 62.8284C64.3905 61.2663 64.3905 58.7337 62.8284 57.1716L47.4266 41.7697C47.2818 41.6249 47.1286 41.4935 46.9686 41.3755ZM48 26C48 38.1503 38.1503 48 26 48C13.8497 48 4 38.1503 4 26C4 13.8497 13.8497 4 26 4C38.1503 4 48 13.8497 48 26Z" fill="black"/>
</svg>
