<svg width="64" height="64" viewBox="0 0 64 64" fill="none" xmlns="http://www.w3.org/2000/svg">
<path fill-rule="evenodd" clip-rule="evenodd" d="M32 59.732C32.0301 59.7278 32.1568 59.7097 32.4031 59.6334C32.7021 59.5408 33.0958 59.388 33.5772 59.1614C34.5387 58.7088 35.7624 58.003 37.1466 57.0269C39.9127 55.0762 43.2308 52.109 46.2974 48.0972C52.4054 40.1066 57.5244 27.9716 55.309 11.3455C55.2145 10.6367 54.7115 10.0163 53.9951 9.78259C51.3915 8.93298 46.9922 7.54088 42.6482 6.36335C38.2068 5.1594 34.1234 4.26667 32 4.26667V59.732ZM20.2866 2.23861C24.6295 1.06137 29.242 0 32 0C34.758 0 39.3705 1.06137 43.7134 2.23861C48.1538 3.44227 52.6274 4.85843 55.2589 5.71713C57.455 6.43374 59.1161 8.37436 59.4351 10.7684C61.8216 28.6777 56.2878 41.9475 49.576 50.7279C46.2327 55.1017 42.5991 58.3615 39.5076 60.5415C37.9631 61.6307 36.5315 62.4662 35.3158 63.0384C34.1926 63.5672 32.9908 64 32 64C31.0092 64 29.8074 63.5672 28.6842 63.0384C27.4685 62.4662 26.037 61.6307 24.4924 60.5415C21.4009 58.3615 17.7673 55.1017 14.424 50.7279C7.71216 41.9475 2.17843 28.6777 4.56493 10.7684C4.88394 8.37436 6.54501 6.43374 8.74111 5.71713C11.3727 4.85844 15.8463 3.44227 20.2866 2.23861Z" fill="black"/>
</svg>
