<svg width="64" height="64" viewBox="0 0 64 64" fill="none" xmlns="http://www.w3.org/2000/svg">
<path d="M27.9365 27.0433V4.10631C27.9365 3.01725 28.3646 1.97279 29.1267 1.20271C30.7136 -0.400903 33.2864 -0.400903 34.8733 1.20271C35.6354 1.97279 36.0635 3.01725 36.0635 4.10631V6.51172H56.381C57.66 6.51172 58.8643 7.12025 59.6318 8.15425L63.5937 13.4924C64.1355 14.2225 64.1355 15.2262 63.5937 15.9562L59.6318 21.2944C58.8643 22.3284 57.66 22.9369 56.381 22.9369H36.0635V64H27.9365V43.4685H7.61905C6.34003 43.4685 5.13566 42.8599 4.36825 41.826L0.406352 36.4878C-0.135451 35.7577 -0.135451 34.754 0.406352 34.024L4.36825 28.6858C5.13566 27.6518 6.34003 27.0433 7.61905 27.0433H27.9365ZM32 39.3622V31.1496H7.61905L4.57143 35.2559L7.61905 39.3622H32ZM32 18.8306H56.381L59.4286 14.7243L56.381 10.618H32V18.8306Z" fill="black"/>
</svg>
