<svg width="64" height="64" viewBox="0 0 64 64" fill="none" xmlns="http://www.w3.org/2000/svg">
<path fill-rule="evenodd" clip-rule="evenodd" d="M34 8C35.1046 8 36 8.89543 36 10V54C36 55.1046 35.1046 56 34 56C32.8954 56 32 55.1046 32 54V10C32 8.89543 32.8954 8 34 8ZM26 16C27.1046 16 28 16.8954 28 18V46C28 47.1046 27.1046 48 26 48C24.8954 48 24 47.1046 24 46V18C24 16.8954 24.8954 16 26 16ZM42 16C43.1046 16 44 16.8954 44 18V46C44 47.1046 43.1046 48 42 48C40.8954 48 40 47.1046 40 46V18C40 16.8954 40.8954 16 42 16ZM18 22C19.1046 22 20 22.8954 20 24V40C20 41.1046 19.1046 42 18 42C16.8954 42 16 41.1046 16 40V24C16 22.8954 16.8954 22 18 22ZM50 22C51.1046 22 52 22.8954 52 24V40C52 41.1046 51.1046 42 50 42C48.8954 42 48 41.1046 48 40V24C48 22.8954 48.8954 22 50 22ZM10 26C11.1046 26 12 26.8954 12 28V36C12 37.1046 11.1046 38 10 38C8.89543 38 8 37.1046 8 36V28C8 26.8954 8.89543 26 10 26ZM58 26C59.1046 26 60 26.8954 60 28V36C60 37.1046 59.1046 38 58 38C56.8954 38 56 37.1046 56 36V28C56 26.8954 56.8954 26 58 26Z" fill="#1A1A1A"/>
</svg>
