<svg width="64" height="64" viewBox="0 0 64 64" fill="none" xmlns="http://www.w3.org/2000/svg">
<path d="M24 18C24 21.3137 21.3137 24 18 24C14.6863 24 12 21.3137 12 18C12 14.6863 14.6863 12 18 12C21.3137 12 24 14.6863 24 18ZM20 18C20 16.8954 19.1046 16 18 16C16.8954 16 16 16.8954 16 18C16 19.1046 16.8954 20 18 20C19.1046 20 20 19.1046 20 18Z" fill="#1A1A1A"/>
<path d="M8 4H26.3431C27.404 4 28.4214 4.42143 29.1716 5.17157L57.1716 33.1716C58.7337 34.7337 58.7337 37.2663 57.1716 38.8284L38.8284 57.1716C37.2663 58.7337 34.7337 58.7337 33.1716 57.1716L5.17157 29.1716C4.42142 28.4214 4 27.404 4 26.3431V8C4 5.79086 5.79086 4 8 4ZM8 26.3431L36 54.3432L54.3432 36L26.3431 8L8 8L8 26.3431Z" fill="#1A1A1A"/>
</svg>
