<svg width="64" height="64" viewBox="0 0 64 64" fill="none" xmlns="http://www.w3.org/2000/svg">
<path d="M12 8L12 26.3431L40 54.3432L58.3432 36L30.3432 8L12 8ZM8 8C8 5.79086 9.79086 4 12 4H30.3431C31.404 4 32.4214 4.42143 33.1716 5.17157L61.1716 33.1716C62.7337 34.7337 62.7337 37.2663 61.1716 38.8284L42.8284 57.1716C41.2663 58.7337 38.7337 58.7337 37.1716 57.1716L9.17157 29.1716C8.42143 28.4214 8 27.404 8 26.3431V8Z" fill="#1A1A1A"/>
<path d="M22 20C20.8954 20 20 19.1046 20 18C20 16.8954 20.8954 16 22 16C23.1046 16 24 16.8954 24 18C24 19.1046 23.1046 20 22 20ZM22 24C25.3137 24 28 21.3137 28 18C28 14.6863 25.3137 12 22 12C18.6863 12 16 14.6863 16 18C16 21.3137 18.6863 24 22 24Z" fill="#1A1A1A"/>
<path d="M4 28.3431C4 29.404 4.42142 30.4214 5.17157 31.1716L35 61L34.8284 61.1716C33.2663 62.7337 30.7337 62.7337 29.1716 61.1716L1.17157 33.1716C0.421424 32.4214 0 31.404 0 30.3431V12C0 9.79086 1.79086 8 4 8V28.3431Z" fill="#1A1A1A"/>
</svg>
