<svg width="64" height="64" viewBox="0 0 64 64" fill="none" xmlns="http://www.w3.org/2000/svg">
<path fill-rule="evenodd" clip-rule="evenodd" d="M8 14C8 12.8954 8.89543 12 10 12H54C55.1046 12 56 12.8954 56 14C56 15.1046 55.1046 16 54 16H10C8.89543 16 8 15.1046 8 14ZM8 30C8 28.8954 8.89543 28 10 28H46C51.5228 28 56 32.4772 56 38C56 43.5228 51.5228 48 46 48H40.8284L43.4142 50.5858C44.1953 51.3668 44.1953 52.6332 43.4142 53.4142C42.6332 54.1953 41.3668 54.1953 40.5858 53.4142L34.5858 47.4142C33.8047 46.6332 33.8047 45.3668 34.5858 44.5858L40.5858 38.5858C41.3668 37.8047 42.6332 37.8047 43.4142 38.5858C44.1953 39.3668 44.1953 40.6332 43.4142 41.4142L40.8284 44H46C49.3137 44 52 41.3137 52 38C52 34.6863 49.3137 32 46 32H10C8.89543 32 8 31.1046 8 30ZM8 46C8 44.8954 8.89543 44 10 44H28C29.1046 44 30 44.8954 30 46C30 47.1046 29.1046 48 28 48H10C8.89543 48 8 47.1046 8 46Z" fill="#1A1A1A"/>
</svg>
