<svg width="64" height="64" viewBox="0 0 64 64" fill="none" xmlns="http://www.w3.org/2000/svg">
<path d="M18.1789 26.8571L16.439 32H12L19.4472 12H24.5854L32 32H27.3333L25.5935 26.8571H18.1789ZM24.7154 23.9121L22 15.8242H21.8049L19.0894 23.9121H24.7154Z" fill="#1A1A1A"/>
<path d="M0 8C0 3.58172 3.58172 0 8 0H36C40.4183 0 44 3.58172 44 8V20H56C60.4183 20 64 23.5817 64 28V56C64 60.4183 60.4183 64 56 64H28C23.5817 64 20 60.4183 20 56V44H8C3.58172 44 0 40.4183 0 36V8ZM8 4C5.79086 4 4 5.79086 4 8V36C4 38.2091 5.79086 40 8 40H36C38.2091 40 40 38.2091 40 36V8C40 5.79086 38.2091 4 36 4H8ZM36.5508 43.9813C37.3226 45.1847 38.16 46.3127 39.0698 47.3639C36.0803 49.6649 32.3806 51.3682 28 52.5336C28.7104 53.4002 29.8055 55.0736 30.2199 56C34.7188 54.5656 38.537 52.6232 41.7632 50.0235C44.871 52.683 48.7188 54.6852 53.4841 55.9103C54.0169 54.8943 55.1416 53.2209 56 52.3543C51.5011 51.3383 47.7717 49.5752 44.723 47.2145C47.4461 44.2262 49.6068 40.6104 51.2051 36.1878H56V32H44V36C44 36.0628 43.9993 36.1254 43.9978 36.1878H47.0613C45.7886 39.5646 44.1015 42.3735 41.9704 44.7044C41.3818 44.0792 40.8287 43.4242 40.3102 42.7408C39.2113 43.4449 37.9289 43.8876 36.5508 43.9813Z" fill="#1A1A1A"/>
</svg>
