<svg width="64" height="64" viewBox="0 0 64 64" fill="none" xmlns="http://www.w3.org/2000/svg">
<path d="M8.97656 52.3242L12.75 41.1133H26.6406L30.4141 52.3242H35.4453L22.1562 15H17.2891L4 52.3242H8.97656ZM19.7773 20.6328L25.3555 37.2578H14.0352L19.6406 20.6328H19.7773Z" fill="#1A1A1A"/>
<path d="M56.3633 48.7422H56.5V52.3242H61.0117V32.5C61.0117 26.457 56.5547 23.1211 50.4297 23.1211C43.4844 23.1211 40.0664 26.7852 39.7656 31.8164H44.1953C44.4688 28.9453 46.5742 27.0586 50.2656 27.0586C54.1484 27.0586 56.3359 29.1367 56.3359 32.9102V35.8359H48.7617C42.1719 35.8633 38.6719 39.0352 38.6719 44.0664C38.6719 49.3438 42.5 52.7891 48.0508 52.7891C52.2891 52.7891 54.9141 51.0664 56.3633 48.7422ZM49.3086 48.8789C46.3008 48.8789 43.4844 47.293 43.4844 43.9023C43.4844 41.3047 45.1797 39.4453 49.1172 39.4453H56.3359V42.7812C56.3359 46.3633 53.3281 48.8789 49.3086 48.8789Z" fill="#1A1A1A"/>
</svg>
