<svg width="64" height="64" viewBox="0 0 64 64" fill="none" xmlns="http://www.w3.org/2000/svg">
<path d="M28 10C28 8.89543 28.8954 8 30 8H58C59.1046 8 60 8.89543 60 10V14C60 15.1046 59.1046 16 58 16H30C28.8954 16 28 15.1046 28 14V10Z" fill="black"/>
<path d="M8 4C3.58172 4 0 7.58172 0 12V20C0 24.4183 3.58172 28 8 28H16C20.4183 28 24 24.4183 24 20V12C24 7.58172 20.4183 4 16 4H8ZM8 36C3.58172 36 0 39.5817 0 44V52C0 56.4183 3.58172 60 8 60H16C20.4183 60 24 56.4183 24 52V44C24 39.5817 20.4183 36 16 36H8ZM11.4142 21.4142C10.6332 22.1953 9.36683 22.1953 8.58579 21.4142L4.58579 17.4142C3.80474 16.6332 3.80474 15.3668 4.58579 14.5858C5.36684 13.8047 6.63316 13.8047 7.41421 14.5858L10 17.1716L16.5858 10.5858C17.3668 9.80474 18.6332 9.80474 19.4142 10.5858C20.1953 11.3668 20.1953 12.6332 19.4142 13.4142L11.4142 21.4142ZM11.4142 53.4142C10.6332 54.1953 9.36683 54.1953 8.58579 53.4142L4.58579 49.4142C3.80474 48.6332 3.80474 47.3668 4.58579 46.5858C5.36684 45.8047 6.63316 45.8047 7.41421 46.5858L10 49.1716L16.5858 42.5858C17.3668 41.8047 18.6332 41.8047 19.4142 42.5858C20.1953 43.3668 20.1953 44.6332 19.4142 45.4142L11.4142 53.4142Z" fill="black"/>
<path d="M28 42C28 40.8954 28.8954 40 30 40H58C59.1046 40 60 40.8954 60 42V46C60 47.1046 59.1046 48 58 48H30C28.8954 48 28 47.1046 28 46V42Z" fill="black"/>
<path d="M28 22C28 20.8954 28.8954 20 30 20H50C51.1046 20 52 20.8954 52 22C52 23.1046 51.1046 24 50 24H30C28.8954 24 28 23.1046 28 22Z" fill="black"/>
<path d="M28 54C28 52.8954 28.8954 52 30 52H50C51.1046 52 52 52.8954 52 54C52 55.1046 51.1046 56 50 56H30C28.8954 56 28 55.1046 28 54Z" fill="black"/>
</svg>
