<svg width="64" height="64" viewBox="0 0 64 64" fill="none" xmlns="http://www.w3.org/2000/svg">
<path d="M46.1421 56.0418C52.2949 49.889 56.1005 41.389 56.1005 32.0001C56.1005 22.6113 52.2949 14.1113 46.1421 7.9585L43.3137 10.7869C48.7426 16.2159 52.1005 23.7159 52.1005 32.0001C52.1005 40.2844 48.7426 47.7844 43.3137 53.2133L46.1421 56.0418Z" fill="#1A1A1A"/>
<path d="M40.4853 50.3849C45.1904 45.6798 48.1005 39.1798 48.1005 32.0001C48.1005 24.8204 45.1904 18.3204 40.4853 13.6154L37.6569 16.4438C41.6381 20.425 44.1005 25.925 44.1005 32.0001C44.1005 38.0753 41.6381 43.5753 37.6569 47.5565L40.4853 50.3849Z" fill="#1A1A1A"/>
<path d="M40.1005 32.0001C40.1005 36.9707 38.0858 41.4707 34.8284 44.7281L32 41.8996C34.5335 39.3661 36.1005 35.8661 36.1005 32.0001C36.1005 28.1341 34.5335 24.6341 32 22.1006L34.8284 19.2722C38.0858 22.5296 40.1005 27.0296 40.1005 32.0001Z" fill="#1A1A1A"/>
<path d="M28 16C28 15.2312 27.5593 14.5305 26.8664 14.1974C26.1734 13.8644 25.351 13.958 24.7506 14.4383L15.2984 22H6C4.89543 22 4 22.8954 4 24V40C4 41.1046 4.89543 42 6 42H15.2984L24.7506 49.5618C25.351 50.042 26.1734 50.1357 26.8664 49.8026C27.5593 49.4696 28 48.7688 28 48V16ZM17.2494 25.5618L24 20.1613V43.8388L17.2494 38.4383C16.8948 38.1546 16.4541 38 16 38H8V26H16C16.4541 26 16.8948 25.8455 17.2494 25.5618Z" fill="#1A1A1A"/>
</svg>
