<svg width="64" height="64" viewBox="0 0 64 64" fill="none" xmlns="http://www.w3.org/2000/svg">
<path d="M10 16C11.1046 16 12 15.1046 12 14C12 12.8954 11.1046 12 10 12C8.89543 12 8 12.8954 8 14C8 15.1046 8.89543 16 10 16Z" fill="#1A1A1A"/>
<path d="M18 14C18 15.1046 17.1046 16 16 16C14.8954 16 14 15.1046 14 14C14 12.8954 14.8954 12 16 12C17.1046 12 18 12.8954 18 14Z" fill="#1A1A1A"/>
<path d="M22 16C23.1046 16 24 15.1046 24 14C24 12.8954 23.1046 12 22 12C20.8954 12 20 12.8954 20 14C20 15.1046 20.8954 16 22 16Z" fill="#1A1A1A"/>
<path d="M8 4C3.58172 4 0 7.58172 0 12V52C0 56.4183 3.58172 60 8 60H56C60.4183 60 64 56.4183 64 52V12C64 7.58172 60.4183 4 56 4H8ZM60 12V20H4V12C4 9.79086 5.79086 8 8 8H56C58.2091 8 60 9.79086 60 12ZM8 56C5.79086 56 4 54.2091 4 52V24H60V52C60 54.2091 58.2091 56 56 56H8Z" fill="#1A1A1A"/>
</svg>
